<svg width="20" height="20" viewBox="0 0 20 20" fill="none" xmlns="http://www.w3.org/2000/svg">
<g clip-path="url(#clip0)">
<ellipse rx="10" ry="10" transform="matrix(1 0 0 -1 10 10.0001)" fill="#2A2827"/>
<mask id="mask0" mask-type="alpha" maskUnits="userSpaceOnUse" x="4" y="8" width="12" height="6">
<rect x="4.5835" y="8.95837" width="10.8333" height="5" fill="#C4C4C4"/>
</mask>
<g mask="url(#mask0)">
<path d="M5.20857 14.2605L8.79711 10.5161C9.45323 9.83144 10.5476 9.83144 11.2037 10.5161L14.7922 14.2605" stroke="white" stroke-width="0.702083"/>
<path d="M5.20857 14.2605L8.79711 10.5161C9.45323 9.83144 10.5476 9.83144 11.2037 10.5161L14.7922 14.2605" stroke="url(#paint0_linear)" stroke-width="0.702083"/>
</g>
<g filter="url(#filter0_d)">
<mask id="mask1" mask-type="alpha" maskUnits="userSpaceOnUse" x="4" y="6" width="12" height="6">
<rect width="10.8333" height="5" transform="matrix(1 0 0 -1 4.58331 11.0416)" fill="#C4C4C4"/>
</mask>
<g mask="url(#mask1)">
<path d="M5.20839 5.73944L8.79693 9.48387C9.45305 10.1685 10.5474 10.1685 11.2035 9.48387L14.7921 5.73944" stroke="white" stroke-width="0.702083"/>
<path d="M5.20839 5.73944L8.79693 9.48387C9.45305 10.1685 10.5474 10.1685 11.2035 9.48387L14.7921 5.73944" stroke="url(#paint1_linear)" stroke-width="0.702083"/>
</g>
</g>
</g>
<defs>
<filter id="filter0_d" x="4.12162" y="5.6249" width="11.7572" height="5.97349" filterUnits="userSpaceOnUse" color-interpolation-filters="sRGB">
<feFlood flood-opacity="0" result="BackgroundImageFix"/>
<feColorMatrix in="SourceAlpha" type="matrix" values="0 0 0 0 0 0 0 0 0 0 0 0 0 0 0 0 0 0 127 0"/>
<feOffset dy="0.416667"/>
<feGaussianBlur stdDeviation="0.416667"/>
<feColorMatrix type="matrix" values="0 0 0 0 0 0 0 0 0 0 0 0 0 0 0 0 0 0 0.7 0"/>
<feBlend mode="normal" in2="BackgroundImageFix" result="effect1_dropShadow"/>
<feBlend mode="normal" in="SourceGraphic" in2="effect1_dropShadow" result="shape"/>
</filter>
<linearGradient id="paint0_linear" x1="13.2564" y1="13.8063" x2="10.868" y2="8.73442" gradientUnits="userSpaceOnUse">
<stop stop-color="#FF8506"/>
<stop offset="0.5805" stop-color="#FD3947"/>
<stop offset="1" stop-color="#FB0078"/>
</linearGradient>
<linearGradient id="paint1_linear" x1="13.2562" y1="6.19363" x2="10.8678" y2="11.2655" gradientUnits="userSpaceOnUse">
<stop stop-color="#FF8506"/>
<stop offset="0.5805" stop-color="#FD3947"/>
<stop offset="1" stop-color="#FB0078"/>
</linearGradient>
<clipPath id="clip0">
<rect width="20" height="20" fill="white" transform="matrix(1 0 0 -1 0 20)"/>
</clipPath>
</defs>
</svg>
