<svg width="456" height="456" viewBox="0 0 456 456" fill="none" xmlns="http://www.w3.org/2000/svg">
<path d="M228 455.73C167.17 455.73 109.98 432.04 66.9695 389.03C23.9595 346.02 0.269531 288.83 0.269531 228C0.269531 167.17 23.9595 109.98 66.9695 66.97C109.98 23.96 167.17 0.27002 228 0.27002C288.83 0.27002 346.02 23.96 389.03 66.97C432.04 109.98 455.73 167.17 455.73 228C455.73 288.83 432.04 346.02 389.03 389.03C346.02 432.04 288.83 455.73 228 455.73ZM228 13.45C170.69 13.45 116.82 35.77 76.2896 76.29C35.7696 116.81 13.4496 170.69 13.4496 228C13.4496 285.31 35.7696 339.18 76.2896 379.71C116.81 420.23 170.69 442.55 228 442.55C285.31 442.55 339.18 420.23 379.71 379.71C420.23 339.19 442.55 285.31 442.55 228C442.55 170.69 420.23 116.82 379.71 76.29C339.18 35.77 285.31 13.45 228 13.45Z" fill="url(#paint0_linear)"/>
<path d="M232.01 353.793L311.582 295.658C317.512 291.325 320.911 284.634 320.911 277.295C320.911 269.955 317.512 263.257 311.582 258.931L302.924 252.609L302.928 252.607L269.239 227.982L269.244 227.978L269.241 227.976L293.302 210.404L293.315 210.414L303.038 203.32L303.03 203.314L311.582 197.067C317.512 192.734 320.911 186.043 320.911 178.703C320.911 171.364 317.512 164.665 311.582 160.34L232.01 102.205C220.684 93.9316 205.47 93.9316 194.145 102.205L140.506 141.394L140.507 141.398L136.535 144.785C135.956 145.279 135.835 146.126 136.254 146.762L140.728 153.544C141.207 154.27 142.199 154.441 142.894 153.917L145.295 152.104L200.919 111.466C208.191 106.154 217.956 106.154 225.228 111.466L304.8 169.601C307.732 171.741 309.419 175.056 309.419 178.688C309.419 182.32 307.739 185.636 304.8 187.776L293.286 196.185L232.002 151.411C220.677 143.137 205.463 143.137 194.115 151.426L189.496 154.832L189.503 154.839L156.252 178.985L156.246 178.974L151.837 181.969C151.246 182.37 151.018 183.131 151.291 183.792L154.679 191.979C155.05 192.876 156.159 193.193 156.948 192.629L160.66 189.975L160.664 189.986L197.438 163.286L197.43 163.271L200.927 160.694C208.198 155.382 217.964 155.382 225.235 160.694L283.558 203.306L259.498 220.878L232.01 200.797C220.684 192.523 205.47 192.523 194.145 200.797L174.885 214.867L171.842 217.013C171.266 217.419 171.048 218.17 171.318 218.821L174.689 226.968C174.983 227.679 175.738 228.023 176.428 227.86L176.503 227.852L176.532 227.832C176.695 227.78 176.853 227.7 176.998 227.588L179.551 225.633L200.919 210.073C208.191 204.76 217.956 204.76 225.228 210.073L249.755 227.992L225.228 245.91C217.956 251.223 208.191 251.223 200.919 245.91L180.955 231.325C180.908 231.279 180.859 231.237 180.806 231.196L176.995 228.319C176.208 227.725 175.072 228.034 174.695 228.946L171.318 237.106C171.048 237.757 171.266 238.508 171.842 238.914L172.321 239.252L194.145 255.186C205.47 263.46 220.684 263.46 232.01 255.186L259.498 235.105L283.453 252.609L225.228 295.146C217.956 300.458 208.191 300.458 200.882 295.123L191.41 288.311L161.312 266.455C161.261 266.406 161.206 266.36 161.147 266.318L156.948 263.316C156.159 262.751 155.05 263.069 154.679 263.965L151.291 272.153C151.018 272.813 151.246 273.575 151.837 273.976L156.314 277.014L156.313 277.016L179.519 293.865L179.504 293.887L184.688 297.617L190.686 301.973L190.709 301.943L194.145 304.414C205.47 312.688 220.684 312.688 232.01 304.414L293.189 259.715L304.8 268.2C307.732 270.34 309.419 273.655 309.419 277.287C309.419 280.919 307.739 284.235 304.8 286.375L225.228 344.509C217.964 349.829 208.191 349.829 200.919 344.517L146.138 304.495C146.065 304.406 145.981 304.325 145.885 304.253L142.894 301.995C142.199 301.471 141.207 301.642 140.728 302.368L136.249 309.159C135.832 309.79 135.949 310.633 136.521 311.128L140.827 314.853L140.827 314.854L140.836 314.861L194.145 353.808C205.47 362.067 220.684 362.067 232.01 353.793Z" fill="url(#paint1_linear)"/>
<path opacity="0.6" d="M293.301 196.185L283.482 203.321L247.991 177.483L255.127 168.448L293.301 196.185Z" fill="url(#paint2_linear)"/>
<path opacity="0.6" d="M293.207 245.496L283.441 252.602L259.524 235.128L269.275 227.999L293.207 245.496Z" fill="url(#paint3_linear)"/>
<defs>
<linearGradient id="paint0_linear" x1="66.9687" y1="389.031" x2="389.03" y2="66.969" gradientUnits="userSpaceOnUse">
<stop stop-color="#FF8506"/>
<stop offset="0.5805" stop-color="#FD3947"/>
<stop offset="1" stop-color="#FB0078"/>
</linearGradient>
<linearGradient id="paint1_linear" x1="170.112" y1="329.954" x2="345.902" y2="229.37" gradientUnits="userSpaceOnUse">
<stop stop-color="#FF8506"/>
<stop offset="0.5805" stop-color="#FD3947"/>
<stop offset="1" stop-color="#FB0078"/>
</linearGradient>
<linearGradient id="paint2_linear" x1="253.695" y1="169.88" x2="286.649" y2="202.834" gradientUnits="userSpaceOnUse">
<stop stop-color="#FF4630" stop-opacity="0"/>
<stop offset="0.5722" stop-color="#B31F48" stop-opacity="0.5722"/>
<stop offset="1" stop-color="#78005B"/>
</linearGradient>
<linearGradient id="paint3_linear" x1="265.355" y1="229.298" x2="287.378" y2="251.321" gradientUnits="userSpaceOnUse">
<stop stop-color="#FF4630" stop-opacity="0"/>
<stop offset="0.5722" stop-color="#B31F48" stop-opacity="0.5722"/>
<stop offset="1" stop-color="#78005B"/>
</linearGradient>
</defs>
</svg>
