<svg width="84" height="84" viewBox="0 0 84 84" fill="none" xmlns="http://www.w3.org/2000/svg">
<path d="M42 84C30.7812 84 20.2337 79.6309 12.3014 71.6986C4.36912 63.7663 0 53.2188 0 42C0 30.7812 4.36912 20.2337 12.3014 12.3014C20.2337 4.36912 30.7812 0 42 0C53.2188 0 63.7663 4.36912 71.6986 12.3014C79.6309 20.2337 84 30.7812 84 42C84 53.2188 79.6309 63.7663 71.6986 71.6986C63.7663 79.6309 53.2188 84 42 84ZM42 2.43077C31.4304 2.43077 21.4952 6.54723 14.0203 14.0203C6.54723 21.4933 2.43078 31.4304 2.43078 42C2.43078 52.5696 6.54723 62.5048 14.0203 69.9797C21.4934 77.4528 31.4304 81.5692 42 81.5692C52.5696 81.5692 62.5048 77.4528 69.9797 69.9797C77.4528 62.5067 81.5692 52.5696 81.5692 42C81.5692 31.4304 77.4528 21.4952 69.9797 14.0203C62.5048 6.54723 52.5696 2.43077 42 2.43077Z" fill="url(#paint0_linear)"/>
<path d="M32.3431 39.675H46.0396C51.6178 39.675 56.1397 44.197 56.1397 49.7751C56.1397 55.3532 51.6178 59.8752 46.0396 59.8752H32.3431C30.0135 59.8752 28.125 57.9867 28.125 55.6571V43.8931C28.125 41.5636 30.0135 39.675 32.3431 39.675Z" stroke="white" stroke-width="2.25"/>
<path d="M32.3431 39.675H46.0396C51.6178 39.675 56.1397 44.197 56.1397 49.7751C56.1397 55.3532 51.6178 59.8752 46.0396 59.8752H32.3431C30.0135 59.8752 28.125 57.9867 28.125 55.6571V43.8931C28.125 41.5636 30.0135 39.675 32.3431 39.675Z" stroke="url(#paint1_linear)" stroke-width="2.25"/>
<path d="M32.0441 25.125H46.0396C51.6178 25.125 56.1397 29.647 56.1397 35.2251C56.1397 40.8032 51.6178 45.3252 46.0396 45.3252H32.0441C29.8796 45.3252 28.125 43.5705 28.125 41.406V29.0441C28.125 26.8797 29.8797 25.125 32.0441 25.125Z" stroke="white" stroke-width="2.25"/>
<path d="M32.0441 25.125H46.0396C51.6178 25.125 56.1397 29.647 56.1397 35.2251C56.1397 40.8032 51.6178 45.3252 46.0396 45.3252H32.0441C29.8796 45.3252 28.125 43.5705 28.125 41.406V29.0441C28.125 26.8797 29.8797 25.125 32.0441 25.125Z" stroke="url(#paint2_linear)" stroke-width="2.25"/>
<path fill-rule="evenodd" clip-rule="evenodd" d="M44.5234 38.55H32.0441C29.2583 38.55 27 40.8084 27 43.5942V55.9561C27 58.7419 29.2583 61.0002 32.0441 61.0002H46.0396C51.3236 61.0002 55.7548 57.3492 56.9483 52.4323H54.6148C53.4821 56.0918 50.0713 58.7502 46.0396 58.7502H32.0441C30.501 58.7502 29.25 57.4992 29.25 55.9561V43.5942C29.25 42.051 30.501 40.8 32.0441 40.8H44.5234V38.55Z" fill="white"/>
<path fill-rule="evenodd" clip-rule="evenodd" d="M44.5234 38.55H32.0441C29.2583 38.55 27 40.8084 27 43.5942V55.9561C27 58.7419 29.2583 61.0002 32.0441 61.0002H46.0396C51.3236 61.0002 55.7548 57.3492 56.9483 52.4323H54.6148C53.4821 56.0918 50.0713 58.7502 46.0396 58.7502H32.0441C30.501 58.7502 29.25 57.4992 29.25 55.9561V43.5942C29.25 42.051 30.501 40.8 32.0441 40.8H44.5234V38.55Z" fill="url(#paint3_linear)"/>
<defs>
<linearGradient id="paint0_linear" x1="12.3013" y1="71.6987" x2="71.6987" y2="12.3012" gradientUnits="userSpaceOnUse">
<stop stop-color="#FF8506"/>
<stop offset="0.5805" stop-color="#FD3947"/>
<stop offset="1" stop-color="#FB0078"/>
</linearGradient>
<linearGradient id="paint1_linear" x1="31.818" y1="58.2578" x2="44.7129" y2="39.1259" gradientUnits="userSpaceOnUse">
<stop stop-color="#FF8506"/>
<stop offset="0.5805" stop-color="#FD3947"/>
<stop offset="1" stop-color="#FB0078"/>
</linearGradient>
<linearGradient id="paint2_linear" x1="31.818" y1="43.7078" x2="44.7129" y2="24.5758" gradientUnits="userSpaceOnUse">
<stop stop-color="#FF8506"/>
<stop offset="0.5805" stop-color="#FD3947"/>
<stop offset="1" stop-color="#FB0078"/>
</linearGradient>
<linearGradient id="paint3_linear" x1="31.7677" y1="58.2578" x2="44.7128" y2="39.252" gradientUnits="userSpaceOnUse">
<stop stop-color="#FF8506"/>
<stop offset="0.5805" stop-color="#FD3947"/>
<stop offset="1" stop-color="#FB0078"/>
</linearGradient>
</defs>
</svg>
