<svg width="1442" height="1443" viewBox="0 0 1442 1443" fill="none" xmlns="http://www.w3.org/2000/svg">
<g opacity="0.05">
<path d="M674.184 1417.52L518.067 1194.56C498.562 1166.7 498.562 1131.03 518.067 1103.17L684.863 864.965C702.532 839.735 742.883 839.735 760.552 864.965L927.348 1103.17C946.853 1131.03 946.853 1166.7 927.348 1194.56L771.231 1417.52C748.591 1449.87 696.841 1449.87 674.184 1417.52Z" stroke="url(#paint0_linear)" stroke-miterlimit="10"/>
<path d="M545.844 1396.68L433.809 1148.63C419.813 1117.63 426.43 1082.58 450.766 1058.83L658.864 855.7C680.909 834.185 720.565 841.671 733.238 869.746L852.941 1134.76C866.938 1165.76 860.32 1200.81 835.984 1224.56L641.212 1414.68C612.947 1442.27 562.099 1432.68 545.844 1396.68Z" stroke="url(#paint1_linear)" stroke-miterlimit="10"/>
<path d="M423.585 1352.4L359.518 1087.87C351.511 1054.82 364.523 1021.6 392.838 1002.78L635.008 841.787C660.66 824.738 698.239 839.454 705.485 869.391L773.936 1152.02C781.943 1185.07 768.931 1218.29 740.616 1237.11L513.956 1387.79C481.067 1409.66 432.882 1390.78 423.585 1352.4Z" stroke="url(#paint2_linear)" stroke-miterlimit="10"/>
<path d="M311.672 1286.2L297.8 1014.37C296.063 980.409 315.014 950.183 346.332 936.94L614.17 823.68C642.543 811.685 676.731 833.118 678.302 863.873L693.126 1154.29C694.863 1188.26 675.912 1218.48 644.594 1231.73L393.912 1337.73C357.532 1353.13 313.682 1325.65 311.672 1286.2Z" stroke="url(#paint3_linear)" stroke-miterlimit="10"/>
<path d="M213.982 1200.39L250.784 930.711C255.383 897.019 279.603 870.83 312.84 863.625L597.04 802.032C627.142 795.505 656.764 822.91 652.603 853.434L613.286 1141.56C608.687 1175.26 584.467 1201.44 551.23 1208.65L285.228 1266.3C246.631 1274.66 208.646 1239.52 213.982 1200.39Z" stroke="url(#paint4_linear)" stroke-miterlimit="10"/>
<path d="M133.915 1097.94L220.117 839.769C230.887 807.508 259.55 786.274 293.548 785.364L584.241 777.572C615.03 776.744 639.06 809.171 629.299 838.387L537.199 1114.22C526.429 1146.48 497.766 1167.71 463.768 1168.62L191.687 1175.92C152.213 1176.98 121.408 1135.4 133.915 1097.94Z" stroke="url(#paint5_linear)" stroke-miterlimit="10"/>
<path d="M74.2426 982.419L206.842 744.732C223.411 715.036 255.515 699.484 289.091 704.894L576.186 751.168C606.594 756.073 624.188 792.387 609.183 819.287L467.509 1073.24C450.94 1102.93 418.836 1118.48 385.26 1113.07L116.554 1069.76C77.5597 1063.48 55.002 1016.9 74.2426 982.419Z" stroke="url(#paint6_linear)" stroke-miterlimit="10"/>
<path d="M37.0434 857.826L211.441 648.868C233.23 622.762 267.666 613.439 299.654 624.987L573.175 723.721C602.143 734.177 612.698 773.13 592.961 796.779L406.627 1020.03C384.839 1046.14 350.402 1055.46 318.415 1043.91L62.4053 951.506C25.2559 938.089 11.7312 888.143 37.0434 857.826Z" stroke="url(#paint7_linear)" stroke-miterlimit="10"/>
<path d="M23.601 728.494L233.75 555.519C260.006 533.904 295.575 531.133 324.858 548.413L575.309 696.192C601.837 711.842 604.972 752.077 581.19 771.657L356.664 956.461C330.409 978.076 294.839 980.847 265.556 963.567L31.145 825.251C-2.86931 805.183 -6.88949 753.591 23.601 728.494Z" stroke="url(#paint8_linear)" stroke-miterlimit="10"/>
<path d="M34.3965 598.914L272.985 467.935C302.797 451.573 338.259 455.445 363.828 477.862L582.522 669.54C605.684 689.839 601.3 729.958 574.3 744.782L319.383 884.719C289.57 901.081 254.108 897.209 228.54 874.792L23.858 695.398C-5.84665 669.358 -0.221711 617.923 34.3965 598.914Z" stroke="url(#paint9_linear)" stroke-miterlimit="10"/>
<path d="M69.0486 473.593L327.796 389.161C360.123 378.614 394.253 388.996 415.222 415.772L594.542 644.699C613.535 668.944 601.789 707.558 572.506 717.112L296.056 807.326C263.73 817.873 229.599 807.491 208.63 780.715L40.7833 566.438C16.4306 535.343 31.4939 485.844 69.0486 473.593Z" stroke="url(#paint10_linear)" stroke-miterlimit="10"/>
<path d="M126.339 356.868L396.262 321.91C429.986 317.543 461.594 334.078 477.236 364.279L610.969 622.505C625.131 649.861 606.428 685.612 575.879 689.566L287.485 726.914C253.76 731.282 222.153 714.746 206.511 684.545L81.3476 442.863C63.1823 407.79 87.171 361.938 126.339 356.868Z" stroke="url(#paint11_linear)" stroke-miterlimit="10"/>
<path d="M204.303 252.806L476.029 268.539C509.977 270.508 537.969 292.619 547.73 325.194L631.228 603.744C640.07 633.25 615.056 664.916 584.301 663.137L293.996 646.328C260.048 644.36 232.055 622.249 222.294 589.674L144.133 328.958C132.792 291.122 164.87 250.523 204.303 252.806Z" stroke="url(#paint12_linear)" stroke-miterlimit="10"/>
<path d="M300.215 165.015L564.297 230.885C597.294 239.116 620.696 266.041 624.244 299.865L654.611 589.078C657.829 619.709 627.371 646.188 597.485 638.727L315.336 568.349C282.339 560.118 258.938 533.193 255.389 499.369L226.966 228.677C222.839 189.401 261.891 155.453 300.215 165.015Z" stroke="url(#paint13_linear)" stroke-miterlimit="10"/>
<path d="M410.755 96.5484L658.029 210.28C688.925 224.491 706.924 255.288 704.137 289.178L680.313 579.003C677.79 609.7 642.949 630.066 614.965 617.195L350.775 495.679C319.879 481.468 301.879 450.672 304.667 416.781L326.96 145.518C330.194 106.152 374.871 80.0375 410.755 96.5484Z" stroke="url(#paint14_linear)" stroke-miterlimit="10"/>
<path d="M532.079 49.7705L753.958 207.401C781.686 227.097 793.656 260.698 784.631 293.488L707.453 573.858C699.281 603.554 661.263 617.095 636.149 599.261L399.083 430.844C371.355 411.148 359.385 377.547 368.41 344.757L440.657 82.3456C451.138 44.2614 499.885 26.8985 532.079 49.7705Z" stroke="url(#paint15_linear)" stroke-miterlimit="10"/>
<path d="M659.971 26.3192L848.754 222.382C872.346 246.883 877.871 282.122 862.916 312.662L735.056 573.849C721.515 601.511 681.644 607.773 660.277 585.579L458.582 376.1C434.99 351.598 429.464 316.359 444.42 285.819L564.091 41.366C581.454 5.89574 632.574 -2.12807 659.971 26.3192Z" stroke="url(#paint16_linear)" stroke-miterlimit="10"/>
<path d="M789.998 27.0141L939.125 254.7C957.762 283.148 956.653 318.8 936.288 346.039L762.188 578.962C743.749 603.637 703.407 602.38 686.532 576.612L527.206 333.35C508.569 304.903 509.677 269.251 530.043 242.011L692.992 24.0031C716.634 -7.63715 768.358 -6.03239 789.998 27.0141Z" stroke="url(#paint17_linear)" stroke-miterlimit="10"/>
<path d="M917.635 51.8135L1021.93 303.215C1034.96 334.624 1027.26 369.457 1002.2 392.445L787.898 589.02C765.199 609.841 725.792 601.13 713.996 572.675L602.572 304.067C589.544 272.659 597.245 237.825 622.301 214.838L822.872 30.8523C851.981 4.15863 902.506 15.3341 917.635 51.8135Z" stroke="url(#paint18_linear)" stroke-miterlimit="10"/>
<path d="M1038.46 99.8655L1094.29 366.256C1101.27 399.543 1087.24 432.341 1058.34 450.275L811.3 603.67C785.136 619.916 748.028 604.042 741.708 573.899L682.051 289.285C675.077 255.999 689.107 223.201 718.001 205.267L949.227 61.6904C982.787 40.8533 1030.36 61.2106 1038.46 99.8655Z" stroke="url(#paint19_linear)" stroke-miterlimit="10"/>
<path d="M1148.27 169.499L1153.7 441.622C1154.38 475.62 1134.51 505.25 1102.79 517.518L831.565 622.414C802.836 633.524 769.326 611.04 768.706 580.244L762.899 289.501C762.221 255.503 782.09 225.873 813.813 213.605L1067.66 115.425C1104.51 101.189 1147.48 130.009 1148.27 169.499Z" stroke="url(#paint20_linear)" stroke-miterlimit="10"/>
<path d="M1243.24 258.298L1198.1 526.707C1192.45 560.242 1167.43 585.67 1133.99 591.833L848.017 644.591C817.725 650.183 788.964 621.868 794.076 591.494L842.31 304.721C847.951 271.186 872.974 245.758 906.417 239.596L1174.08 190.22C1212.92 183.057 1249.8 219.354 1243.24 258.298Z" stroke="url(#paint21_linear)" stroke-miterlimit="10"/>
<path d="M1320.1 363.179L1225.94 618.551C1214.18 650.456 1184.87 670.797 1150.86 670.657L860.07 669.432C829.265 669.3 806.261 636.146 816.915 607.252L917.519 334.409C929.282 302.504 958.589 282.163 992.595 282.304L1264.77 283.445C1304.27 283.611 1333.76 326.129 1320.1 363.179Z" stroke="url(#paint22_linear)" stroke-miterlimit="10"/>
<path d="M1376.16 480.5L1236.26 713.968C1218.78 743.135 1186.2 757.686 1152.82 751.234L867.293 696.076C837.051 690.236 820.589 653.385 836.43 626.964L985.913 377.522C1003.39 348.355 1035.97 333.805 1069.35 340.257L1336.59 391.883C1375.37 399.377 1396.47 446.627 1376.16 480.5Z" stroke="url(#paint23_linear)" stroke-miterlimit="10"/>
<path d="M1409.48 606.185L1228.69 809.642C1206.1 835.062 1171.4 843.317 1139.78 830.777L869.452 723.605C840.815 712.256 831.484 672.989 851.949 649.968L1045.12 432.597C1067.71 407.177 1102.41 398.922 1134.02 411.462L1387.04 511.777C1423.75 526.327 1435.72 576.662 1409.48 606.185Z" stroke="url(#paint24_linear)" stroke-miterlimit="10"/>
<path d="M1418.9 735.873L1203.49 902.247C1176.57 923.034 1140.95 924.705 1112.2 906.523L866.449 751.052C840.417 734.582 838.531 694.273 862.909 675.446L1093.05 497.689C1119.97 476.902 1155.6 475.231 1184.34 493.413L1414.35 638.925C1447.74 660.043 1450.16 711.727 1418.9 735.873Z" stroke="url(#paint25_linear)" stroke-miterlimit="10"/>
<path d="M1404.09 865.056L1161.56 988.573C1131.25 1004.01 1095.93 999.037 1071.06 975.834L858.434 777.464C835.909 756.453 841.534 716.491 868.98 702.512L1128.11 570.541C1158.42 555.105 1193.74 560.077 1218.6 583.279L1417.63 768.944C1446.5 795.894 1439.29 847.131 1404.09 865.056Z" stroke="url(#paint26_linear)" stroke-miterlimit="10"/>
<path d="M1365.58 989.243L1104.33 1065.62C1071.69 1075.16 1037.9 1063.72 1017.78 1036.31L845.637 801.933C827.405 777.108 840.342 738.884 869.907 730.24L1149.02 648.645C1181.66 639.099 1215.45 650.539 1235.58 677.952L1396.69 897.317C1420.08 929.147 1403.49 978.159 1365.58 989.243Z" stroke="url(#paint27_linear)" stroke-miterlimit="10"/>
<path d="M1304.69 1104.13L1033.82 1130.7C999.966 1134.02 968.888 1116.52 954.197 1085.84L828.53 823.605C815.22 795.828 835.031 760.664 865.687 757.661L1155.1 729.272C1188.95 725.955 1220.03 743.458 1234.72 774.131L1352.34 1019.58C1369.4 1055.2 1344 1100.28 1304.69 1104.13Z" stroke="url(#paint28_linear)" stroke-miterlimit="10"/>
<path d="M1223.54 1205.73L952.434 1181.58C918.56 1178.56 891.271 1155.59 882.52 1122.73L807.7 841.721C799.775 811.958 825.766 781.079 856.446 783.817L1146.1 809.617C1179.97 812.637 1207.26 835.608 1216.01 868.472L1286.04 1131.49C1296.2 1169.65 1262.88 1209.24 1223.54 1205.73Z" stroke="url(#paint29_linear)" stroke-miterlimit="10"/>
<path d="M1124.95 1290.5L863.034 1216.47C830.31 1207.23 807.752 1179.59 805.254 1145.67L783.871 855.659C781.605 824.937 812.873 799.426 842.511 807.806L1122.34 886.902C1155.07 896.15 1177.63 923.787 1180.12 957.702L1200.14 1229.14C1203.05 1268.53 1162.96 1301.25 1124.95 1290.5Z" stroke="url(#paint30_linear)" stroke-miterlimit="10"/>
<path d="M1012.34 1355.51L768.706 1234.17C738.265 1219.01 721.233 1187.66 725.063 1153.87L757.861 864.932C761.336 834.325 796.789 815.052 824.368 828.783L1084.67 958.422C1115.11 973.584 1132.14 1004.93 1128.31 1038.72L1097.62 1309.16C1093.16 1348.41 1047.69 1373.12 1012.34 1355.51Z" stroke="url(#paint31_linear)" stroke-miterlimit="10"/>
<path d="M889.627 1398.5L672.735 1234.06C645.636 1213.51 634.709 1179.56 644.751 1147.06L730.59 869.225C739.68 839.793 778.096 827.435 802.647 846.047L1034.38 1021.74C1061.48 1042.28 1072.4 1076.24 1062.36 1108.73L982.024 1368.78C970.361 1406.51 921.101 1422.36 889.627 1398.5Z" stroke="url(#paint32_linear)" stroke-miterlimit="10"/>
<path d="M761.073 1417.97L578.461 1216.14C555.647 1190.92 551.213 1155.53 567.103 1125.47L703.004 868.373C717.397 841.142 757.442 836.129 778.105 858.968L973.208 1074.6C996.022 1099.82 1000.46 1135.21 984.565 1165.28L857.367 1405.9C838.912 1440.83 787.568 1447.26 761.073 1417.97Z" stroke="url(#paint33_linear)" stroke-miterlimit="10"/>
<path d="M607.305 1409.67L473.415 1172.7C456.689 1143.09 460.122 1107.58 482.225 1081.74L671.206 860.721C691.224 837.312 731.393 841.199 746.547 868.017L889.603 1121.2C906.329 1150.8 902.896 1186.31 880.793 1212.16L703.914 1419.02C678.237 1449.04 626.736 1444.05 607.305 1409.67Z" stroke="url(#paint34_linear)" stroke-miterlimit="10"/>
<path d="M481.564 1376.55L393.964 1118.86C383.02 1086.66 392.988 1052.41 419.5 1031.11L646.21 848.992C670.223 829.701 708.969 840.976 718.887 870.143L812.476 1145.47C823.42 1177.66 813.452 1211.92 786.941 1233.22L574.748 1403.67C543.96 1428.41 494.278 1413.95 481.564 1376.55Z" stroke="url(#paint35_linear)" stroke-miterlimit="10"/>
<path d="M364.15 1320.69L325.884 1051.22C321.103 1017.55 337.249 985.735 367.26 969.729L623.824 832.845C650.997 818.344 686.98 836.617 691.315 867.107L732.195 1155.02C736.976 1188.69 720.829 1220.5 690.818 1236.51L450.683 1364.63C415.841 1383.22 369.7 1359.79 364.15 1320.69Z" stroke="url(#paint36_linear)" stroke-miterlimit="10"/>
<path d="M259.139 1244.01L271.539 972.12C273.085 938.147 294.857 909.89 327.308 899.724L604.816 812.818C634.215 803.612 666.178 828.246 664.78 859.009L651.537 1149.5C649.99 1183.48 628.218 1211.73 595.767 1221.9L336.027 1303.24C298.332 1315.05 257.344 1283.47 259.139 1244.01Z" stroke="url(#paint37_linear)" stroke-miterlimit="10"/>
<path d="M170.181 1149.18L232.808 884.305C240.633 851.208 267.269 827.484 301.043 823.514L589.859 789.607C620.449 786.017 647.291 816.152 640.211 846.121L573.29 1129.11C565.465 1162.21 538.829 1185.93 505.055 1189.9L234.735 1221.64C195.509 1226.25 161.09 1187.61 170.181 1149.18Z" stroke="url(#paint38_linear)" stroke-miterlimit="10"/>
<path d="M100.357 1039.49L211.044 790.831C224.875 759.762 255.448 741.39 289.371 743.755L579.461 764.022C610.192 766.172 630.979 800.758 618.447 828.899L500.183 1094.56C486.352 1125.63 455.779 1144 421.855 1141.64L150.336 1122.67C110.953 1119.92 84.301 1075.57 100.357 1039.49Z" stroke="url(#paint39_linear)" stroke-miterlimit="10"/>
<path d="M52.1068 918.749L207.008 694.951C226.364 666.992 259.816 654.608 292.714 663.228L574.01 736.964C603.806 744.773 617.811 782.625 600.282 807.946L434.785 1047.06C415.428 1075.01 381.977 1087.4 349.079 1078.78L85.7903 1009.77C47.5904 999.756 29.6236 951.225 52.1068 918.749Z" stroke="url(#paint40_linear)" stroke-miterlimit="10"/>
<path d="M27.0918 791.154L220.83 599.98C245.033 576.091 280.206 570.135 310.928 584.71L573.654 709.361C601.481 722.563 608.223 762.351 586.302 783.99L379.312 988.242C355.109 1012.13 319.936 1018.09 289.214 1003.51L43.3048 886.844C7.61955 869.911 -1.02466 818.89 27.0918 791.154Z" stroke="url(#paint41_linear)" stroke-miterlimit="10"/>
<path d="M26.1823 661.127L252.024 509.221C280.239 490.236 315.908 490.906 343.396 510.933L578.436 682.171C603.334 700.311 602.573 740.654 577.013 757.851L335.72 920.147C307.504 939.132 271.835 938.461 244.347 918.435L24.3625 758.166C-7.55905 734.905 -6.59123 683.172 26.1823 661.127Z" stroke="url(#paint42_linear)" stroke-miterlimit="10"/>
<path d="M49.4168 533.193L299.52 425.831C330.771 412.414 365.696 419.693 388.99 444.468L588.179 656.338C609.281 678.779 601.05 718.286 572.743 730.438L305.525 845.145C274.274 858.562 239.35 851.283 216.056 826.509L29.622 628.205C2.57263 599.435 13.1277 548.777 49.4168 533.193Z" stroke="url(#paint43_linear)" stroke-miterlimit="10"/>
<path d="M95.9884 411.793L361.676 352.698C394.871 345.311 427.835 358.944 446.133 387.614L602.539 632.762C619.108 658.728 603.689 696.027 573.62 702.71L289.759 765.85C256.564 773.237 223.6 759.605 205.303 730.934L58.9052 501.486C37.6627 468.192 57.4328 420.371 95.9884 411.793Z" stroke="url(#paint44_linear)" stroke-miterlimit="10"/>
<path d="M164.274 301.139L436.306 292.362C470.295 291.262 500.157 310.776 512.813 342.342L621.027 612.256C632.492 640.844 610.422 674.635 579.634 675.628L288.99 685C255.001 686.1 225.139 666.586 212.483 635.021L111.192 382.394C96.5013 345.733 124.8 302.413 164.274 301.139Z" stroke="url(#paint45_linear)" stroke-miterlimit="10"/>
<path d="M251.898 205.076L520.837 246.933C554.438 252.16 580.163 276.869 586.748 310.238L643.006 595.547C648.961 625.764 621.01 654.873 590.57 650.133L303.226 605.415C269.625 600.187 243.899 575.479 237.315 542.11L184.664 275.074C177.029 236.328 212.88 199.005 251.898 205.076Z" stroke="url(#paint46_linear)" stroke-miterlimit="10"/>
<path d="M355.837 126.948L612.343 217.973C644.388 229.347 665.085 258.398 665.358 292.404L667.699 583.197C667.947 614.002 635.074 637.411 606.048 627.113L331.997 529.859C299.951 518.485 279.255 489.434 278.982 455.428L276.79 183.263C276.467 143.757 318.613 113.738 355.837 126.948Z" stroke="url(#paint47_linear)" stroke-miterlimit="10"/>
<path d="M472.464 69.4491L707.628 206.491C737.01 223.614 751.957 256.007 745.919 289.467L694.269 575.644C688.801 605.953 652.156 622.861 625.545 607.359L374.292 460.945C344.91 443.822 329.963 411.429 336.001 377.969L384.343 110.122C391.349 71.2441 438.334 49.5633 472.464 69.4491Z" stroke="url(#paint48_linear)" stroke-miterlimit="10"/>
<path d="M597.726 34.5911L803.375 212.885C829.068 235.162 837.745 269.763 825.602 301.528L721.747 573.154C710.746 601.924 671.603 611.743 648.325 591.56L428.613 401.073C402.921 378.796 394.243 344.194 406.387 312.43L503.591 58.1993C517.694 21.3063 567.889 8.72459 597.726 34.5911Z" stroke="url(#paint49_linear)" stroke-miterlimit="10"/>
<path d="M727.289 23.5811L896.286 236.932C917.404 263.592 919.505 299.203 901.679 328.163L749.235 575.801C733.088 602.032 692.804 604.414 673.679 580.268L493.11 352.318C471.991 325.657 469.89 290.046 487.716 261.086L630.4 29.3053C651.104 -4.32029 702.763 -7.37264 727.289 23.5811Z" stroke="url(#paint50_linear)" stroke-miterlimit="10"/>
<path d="M856.638 36.8081L983.116 277.812C998.916 307.922 994.383 343.309 971.486 368.456L775.746 583.503C755.009 606.284 714.98 601.147 700.67 573.874L565.531 316.384C549.731 286.274 554.264 250.887 577.161 225.74L760.377 24.458C786.963 -4.75033 838.283 1.83416 856.638 36.8081Z" stroke="url(#paint51_linear)" stroke-miterlimit="10"/>
<path d="M981.289 73.8002L1060.86 334.086C1070.8 366.611 1059.77 400.535 1032.62 421L800.365 595.993C775.764 614.531 737.382 602.057 728.382 572.6L643.371 294.505C633.428 261.979 644.454 228.056 671.611 207.591L888.99 43.7978C920.531 20.0324 969.75 36.0221 981.289 73.8002Z" stroke="url(#paint52_linear)" stroke-miterlimit="10"/>
<path d="M1096.92 133.276L1126.8 403.811C1130.54 437.61 1113.41 468.903 1082.92 483.974L822.245 612.835C794.633 626.484 759.229 607.111 755.854 576.496L723.916 287.457C720.185 253.658 737.308 222.365 767.799 207.293L1011.79 86.6796C1047.19 69.1761 1092.58 94.0169 1096.92 133.276Z" stroke="url(#paint53_linear)" stroke-miterlimit="10"/>
<path d="M1199.5 213.175L1178.68 484.554C1176.08 518.46 1153.45 546.031 1120.69 555.18L840.617 633.441C810.954 641.729 779.76 616.119 782.118 585.414L804.369 295.464C806.975 261.558 829.607 233.987 862.364 224.838L1124.5 151.59C1162.53 140.961 1202.52 173.792 1199.5 213.175Z" stroke="url(#paint54_linear)" stroke-miterlimit="10"/>
<path d="M1285.47 310.718L1214.66 573.518C1205.81 606.358 1178.45 629.247 1144.57 632.158L854.842 657.098C824.153 659.737 798.254 628.792 806.269 599.046L881.925 318.262C890.776 285.422 918.131 262.534 952.013 259.622L1223.19 236.278C1262.54 232.895 1295.76 272.584 1285.47 310.718Z" stroke="url(#paint55_linear)" stroke-miterlimit="10"/>
<path d="M1351.86 422.522L1233.52 667.62C1218.73 698.243 1187.6 715.664 1153.77 712.239L864.446 682.989C833.799 679.887 814.095 644.674 827.487 616.938L953.933 355.064C968.723 324.441 999.85 307.02 1033.68 310.445L1304.48 337.825C1343.77 341.795 1369.04 386.952 1351.86 422.522Z" stroke="url(#paint56_linear)" stroke-miterlimit="10"/>
<path d="M1396.35 544.699L1234.59 763.584C1214.38 790.931 1180.55 802.272 1147.94 792.635L869.064 710.205C839.525 701.478 826.695 663.212 845.001 638.437L1017.84 404.572C1038.04 377.225 1071.87 365.884 1104.48 375.521L1365.5 452.665C1403.38 463.874 1419.83 512.935 1396.35 544.699Z" stroke="url(#paint57_linear)" stroke-miterlimit="10"/>
<path d="M1417.39 673.014L1217.83 858.082C1192.89 881.211 1157.55 886.075 1127.3 870.548L868.558 737.808C841.153 723.746 835.644 683.767 858.234 662.822L1071.46 465.089C1096.4 441.961 1131.74 437.097 1161.99 452.623L1404.16 576.86C1439.3 594.893 1446.36 646.154 1417.39 673.014Z" stroke="url(#paint58_linear)" stroke-miterlimit="10"/>
<path d="M1414.27 802.999L1183.82 947.825C1155.03 965.924 1119.4 964.146 1092.55 943.276L862.934 764.833C838.614 745.931 840.616 705.622 866.698 689.235L1112.91 534.499C1141.71 516.4 1177.34 518.179 1204.19 539.049L1419.1 706.06C1450.29 730.305 1447.71 781.98 1414.27 802.999Z" stroke="url(#paint59_linear)" stroke-miterlimit="10"/>
<path d="M1387.08 930.148L1133.77 1029.7C1102.12 1042.14 1067.43 1033.79 1044.92 1008.3L852.395 790.36C832.004 767.273 841.451 728.039 870.121 716.772L1140.77 610.403C1172.42 597.962 1207.11 606.317 1229.62 631.803L1409.81 835.789C1435.96 865.395 1423.84 915.705 1387.08 930.148Z" stroke="url(#paint60_linear)" stroke-miterlimit="10"/>
<path d="M1336.77 1050.05L1069.38 1100.88C1035.97 1107.23 1003.44 1092.58 986.045 1063.37L837.307 813.488C821.549 787.018 838.117 750.224 868.376 744.467L1154.06 690.162C1187.47 683.809 1219.99 698.458 1237.39 727.675L1376.61 961.557C1396.81 995.488 1375.57 1042.67 1336.77 1050.05Z" stroke="url(#paint61_linear)" stroke-miterlimit="10"/>
<path d="M1265.08 1158.53L992.903 1158.86C958.897 1158.9 929.647 1138.48 917.975 1106.53L818.182 833.391C807.611 804.455 830.723 771.376 861.519 771.334L1152.32 770.979C1186.33 770.937 1215.58 791.361 1227.25 823.307L1320.65 1078.95C1334.21 1116.06 1304.58 1158.49 1265.08 1158.53Z" stroke="url(#paint62_linear)" stroke-miterlimit="10"/>
<path d="M1174.52 1251.83L907.008 1201.66C873.581 1195.39 848.633 1169.89 843.091 1136.34L795.709 849.43C790.688 819.039 819.532 790.815 849.808 796.489L1135.62 850.092C1169.05 856.362 1194 881.856 1199.54 915.407L1243.88 1183.95C1250.33 1222.93 1213.34 1259.11 1174.52 1251.83Z" stroke="url(#paint63_linear)" stroke-miterlimit="10"/>
<path d="M1068.21 1326.71L814.649 1227.77C782.967 1215.42 763.181 1185.73 763.966 1151.73L770.642 861.011C771.345 830.214 804.929 807.839 833.625 819.031L1104.53 924.738C1136.21 937.096 1156 966.785 1155.21 1000.78L1148.97 1272.89C1148.07 1312.36 1105 1341.06 1068.21 1326.71Z" stroke="url(#paint64_linear)" stroke-miterlimit="10"/>
<path d="M949.864 1380.56L719.068 1236.29C690.232 1218.27 676.294 1185.43 683.375 1152.17L743.876 867.736C750.287 837.609 787.436 821.843 813.551 838.172L1060.14 992.303C1088.97 1010.33 1102.91 1043.17 1095.83 1076.43L1039.2 1342.65C1030.99 1381.28 983.358 1401.49 949.864 1380.56Z" stroke="url(#paint65_linear)" stroke-miterlimit="10"/>
<path d="M823.574 1411.51L623.55 1226.93C598.56 1203.87 590.958 1169.02 604.086 1137.64L716.312 869.366C728.198 840.951 767.631 832.357 790.263 853.244L1003.97 1050.46C1028.96 1073.52 1036.56 1108.37 1023.43 1139.74L918.396 1390.84C903.159 1427.28 852.601 1438.3 823.574 1411.51Z" stroke="url(#paint66_linear)" stroke-miterlimit="10"/>
</g>
<defs>
<linearGradient id="paint0_linear" x1="562.168" y1="1307.26" x2="883.262" y2="986.162" gradientUnits="userSpaceOnUse">
<stop stop-color="#FF8B71"/>
<stop offset="0.5562" stop-color="#FD3F75"/>
<stop offset="1" stop-color="#FB0078"/>
</linearGradient>
<linearGradient id="paint1_linear" x1="456.069" y1="1267.69" x2="831.139" y2="1011.74" gradientUnits="userSpaceOnUse">
<stop stop-color="#FF8B71"/>
<stop offset="0.5562" stop-color="#FD3F75"/>
<stop offset="1" stop-color="#FB0078"/>
</linearGradient>
<linearGradient id="paint2_linear" x1="359.346" y1="1209.09" x2="775.388" y2="1027.19" gradientUnits="userSpaceOnUse">
<stop stop-color="#FF8B71"/>
<stop offset="0.5562" stop-color="#FD3F75"/>
<stop offset="1" stop-color="#FB0078"/>
</linearGradient>
<linearGradient id="paint3_linear" x1="275.418" y1="1133.36" x2="718.015" y2="1031.83" gradientUnits="userSpaceOnUse">
<stop stop-color="#FF8B71"/>
<stop offset="0.5562" stop-color="#FD3F75"/>
<stop offset="1" stop-color="#FB0078"/>
</linearGradient>
<linearGradient id="paint4_linear" x1="206.71" y1="1043.24" x2="660.481" y2="1025.58" gradientUnits="userSpaceOnUse">
<stop stop-color="#FF8B71"/>
<stop offset="0.5562" stop-color="#FD3F75"/>
<stop offset="1" stop-color="#FB0078"/>
</linearGradient>
<linearGradient id="paint5_linear" x1="155.94" y1="942.381" x2="605.088" y2="1009.23" gradientUnits="userSpaceOnUse">
<stop stop-color="#FF8B71"/>
<stop offset="0.5562" stop-color="#FD3F75"/>
<stop offset="1" stop-color="#FB0078"/>
</linearGradient>
<linearGradient id="paint6_linear" x1="124.715" y1="833.562" x2="553.665" y2="982.582" gradientUnits="userSpaceOnUse">
<stop stop-color="#FF8B71"/>
<stop offset="0.5562" stop-color="#FD3F75"/>
<stop offset="1" stop-color="#FB0078"/>
</linearGradient>
<linearGradient id="paint7_linear" x1="113.939" y1="720.838" x2="507.794" y2="946.824" gradientUnits="userSpaceOnUse">
<stop stop-color="#FF8B71"/>
<stop offset="0.5562" stop-color="#FD3F75"/>
<stop offset="1" stop-color="#FB0078"/>
</linearGradient>
<linearGradient id="paint8_linear" x1="124.981" y1="608.258" x2="470.061" y2="903.441" gradientUnits="userSpaceOnUse">
<stop stop-color="#FF8B71"/>
<stop offset="0.5562" stop-color="#FD3F75"/>
<stop offset="1" stop-color="#FB0078"/>
</linearGradient>
<linearGradient id="paint9_linear" x1="156.201" y1="499.475" x2="440.53" y2="853.546" gradientUnits="userSpaceOnUse">
<stop stop-color="#FF8B71"/>
<stop offset="0.5562" stop-color="#FD3F75"/>
<stop offset="1" stop-color="#FB0078"/>
</linearGradient>
<linearGradient id="paint10_linear" x1="207.333" y1="398.532" x2="421.021" y2="799.227" gradientUnits="userSpaceOnUse">
<stop stop-color="#FF8B71"/>
<stop offset="0.5562" stop-color="#FD3F75"/>
<stop offset="1" stop-color="#FB0078"/>
</linearGradient>
<linearGradient id="paint11_linear" x1="275.849" y1="308.844" x2="411.479" y2="742.193" gradientUnits="userSpaceOnUse">
<stop stop-color="#FF8B71"/>
<stop offset="0.5562" stop-color="#FD3F75"/>
<stop offset="1" stop-color="#FB0078"/>
</linearGradient>
<linearGradient id="paint12_linear" x1="360.35" y1="233.458" x2="413.203" y2="684.468" gradientUnits="userSpaceOnUse">
<stop stop-color="#FF8B71"/>
<stop offset="0.5562" stop-color="#FD3F75"/>
<stop offset="1" stop-color="#FB0078"/>
</linearGradient>
<linearGradient id="paint13_linear" x1="457.198" y1="174.718" x2="425.474" y2="627.718" gradientUnits="userSpaceOnUse">
<stop stop-color="#FF8B71"/>
<stop offset="0.5562" stop-color="#FD3F75"/>
<stop offset="1" stop-color="#FB0078"/>
</linearGradient>
<linearGradient id="paint14_linear" x1="563.119" y1="135.397" x2="447.878" y2="574.623" gradientUnits="userSpaceOnUse">
<stop stop-color="#FF8B71"/>
<stop offset="0.5562" stop-color="#FD3F75"/>
<stop offset="1" stop-color="#FB0078"/>
</linearGradient>
<linearGradient id="paint15_linear" x1="674.585" y1="116.019" x2="479.874" y2="526.249" gradientUnits="userSpaceOnUse">
<stop stop-color="#FF8B71"/>
<stop offset="0.5562" stop-color="#FD3F75"/>
<stop offset="1" stop-color="#FB0078"/>
</linearGradient>
<linearGradient id="paint16_linear" x1="787.679" y1="117.839" x2="520.239" y2="484.818" gradientUnits="userSpaceOnUse">
<stop stop-color="#FF8B71"/>
<stop offset="0.5562" stop-color="#FD3F75"/>
<stop offset="1" stop-color="#FB0078"/>
</linearGradient>
<linearGradient id="paint17_linear" x1="898.492" y1="140.673" x2="567.604" y2="451.653" gradientUnits="userSpaceOnUse">
<stop stop-color="#FF8B71"/>
<stop offset="0.5562" stop-color="#FD3F75"/>
<stop offset="1" stop-color="#FB0078"/>
</linearGradient>
<linearGradient id="paint18_linear" x1="1003.17" y1="183.61" x2="620.332" y2="427.803" gradientUnits="userSpaceOnUse">
<stop stop-color="#FF8B71"/>
<stop offset="0.5562" stop-color="#FD3F75"/>
<stop offset="1" stop-color="#FB0078"/>
</linearGradient>
<linearGradient id="paint19_linear" x1="1098.07" y1="245.22" x2="676.569" y2="414.148" gradientUnits="userSpaceOnUse">
<stop stop-color="#FF8B71"/>
<stop offset="0.5562" stop-color="#FD3F75"/>
<stop offset="1" stop-color="#FB0078"/>
</linearGradient>
<linearGradient id="paint20_linear" x1="1179.8" y1="323.511" x2="734.283" y2="411.267" gradientUnits="userSpaceOnUse">
<stop stop-color="#FF8B71"/>
<stop offset="0.5562" stop-color="#FD3F75"/>
<stop offset="1" stop-color="#FB0078"/>
</linearGradient>
<linearGradient id="paint21_linear" x1="1245.76" y1="415.429" x2="791.673" y2="419.025" gradientUnits="userSpaceOnUse">
<stop stop-color="#FF8B71"/>
<stop offset="0.5562" stop-color="#FD3F75"/>
<stop offset="1" stop-color="#FB0078"/>
</linearGradient>
<linearGradient id="paint22_linear" x1="1293.4" y1="518.122" x2="846.53" y2="437.366" gradientUnits="userSpaceOnUse">
<stop stop-color="#FF8B71"/>
<stop offset="0.5562" stop-color="#FD3F75"/>
<stop offset="1" stop-color="#FB0078"/>
</linearGradient>
<linearGradient id="paint23_linear" x1="1321.19" y1="627.753" x2="897.053" y2="465.504" gradientUnits="userSpaceOnUse">
<stop stop-color="#FF8B71"/>
<stop offset="0.5562" stop-color="#FD3F75"/>
<stop offset="1" stop-color="#FB0078"/>
</linearGradient>
<linearGradient id="paint24_linear" x1="1328.13" y1="740.671" x2="941.47" y2="502.547" gradientUnits="userSpaceOnUse">
<stop stop-color="#FF8B71"/>
<stop offset="0.5562" stop-color="#FD3F75"/>
<stop offset="1" stop-color="#FB0078"/>
</linearGradient>
<linearGradient id="paint25_linear" x1="1313.99" y1="852.932" x2="978.225" y2="547.217" gradientUnits="userSpaceOnUse">
<stop stop-color="#FF8B71"/>
<stop offset="0.5562" stop-color="#FD3F75"/>
<stop offset="1" stop-color="#FB0078"/>
</linearGradient>
<linearGradient id="paint26_linear" x1="1279.34" y1="960.637" x2="1006.15" y2="597.929" gradientUnits="userSpaceOnUse">
<stop stop-color="#FF8B71"/>
<stop offset="0.5562" stop-color="#FD3F75"/>
<stop offset="1" stop-color="#FB0078"/>
</linearGradient>
<linearGradient id="paint27_linear" x1="1225.23" y1="1059.97" x2="1024.06" y2="652.851" gradientUnits="userSpaceOnUse">
<stop stop-color="#FF8B71"/>
<stop offset="0.5562" stop-color="#FD3F75"/>
<stop offset="1" stop-color="#FB0078"/>
</linearGradient>
<linearGradient id="paint28_linear" x1="1153.73" y1="1147.61" x2="1031.62" y2="710.243" gradientUnits="userSpaceOnUse">
<stop stop-color="#FF8B71"/>
<stop offset="0.5562" stop-color="#FD3F75"/>
<stop offset="1" stop-color="#FB0078"/>
</linearGradient>
<linearGradient id="paint29_linear" x1="1067.12" y1="1220.45" x2="1028.26" y2="768.025" gradientUnits="userSpaceOnUse">
<stop stop-color="#FF8B71"/>
<stop offset="0.5562" stop-color="#FD3F75"/>
<stop offset="1" stop-color="#FB0078"/>
</linearGradient>
<linearGradient id="paint30_linear" x1="968.43" y1="1275.77" x2="1014.19" y2="823.96" gradientUnits="userSpaceOnUse">
<stop stop-color="#FF8B71"/>
<stop offset="0.5562" stop-color="#FD3F75"/>
<stop offset="1" stop-color="#FB0078"/>
</linearGradient>
<linearGradient id="paint31_linear" x1="861.34" y1="1312.2" x2="990.131" y2="876.764" gradientUnits="userSpaceOnUse">
<stop stop-color="#FF8B71"/>
<stop offset="0.5562" stop-color="#FD3F75"/>
<stop offset="1" stop-color="#FB0078"/>
</linearGradient>
<linearGradient id="paint32_linear" x1="749.324" y1="1327.75" x2="956.687" y2="923.748" gradientUnits="userSpaceOnUse">
<stop stop-color="#FF8B71"/>
<stop offset="0.5562" stop-color="#FD3F75"/>
<stop offset="1" stop-color="#FB0078"/>
</linearGradient>
<linearGradient id="paint33_linear" x1="636.115" y1="1322.63" x2="914.793" y2="964.129" gradientUnits="userSpaceOnUse">
<stop stop-color="#FF8B71"/>
<stop offset="0.5562" stop-color="#FD3F75"/>
<stop offset="1" stop-color="#FB0078"/>
</linearGradient>
<linearGradient id="paint34_linear" x1="506.376" y1="1289.26" x2="856.915" y2="1000.62" gradientUnits="userSpaceOnUse">
<stop stop-color="#FF8B71"/>
<stop offset="0.5562" stop-color="#FD3F75"/>
<stop offset="1" stop-color="#FB0078"/>
</linearGradient>
<linearGradient id="paint35_linear" x1="404.75" y1="1239.28" x2="802.779" y2="1020.68" gradientUnits="userSpaceOnUse">
<stop stop-color="#FF8B71"/>
<stop offset="0.5562" stop-color="#FD3F75"/>
<stop offset="1" stop-color="#FB0078"/>
</linearGradient>
<linearGradient id="paint36_linear" x1="314.093" y1="1171.5" x2="745.773" y2="1030.54" gradientUnits="userSpaceOnUse">
<stop stop-color="#FF8B71"/>
<stop offset="0.5562" stop-color="#FD3F75"/>
<stop offset="1" stop-color="#FB0078"/>
</linearGradient>
<linearGradient id="paint37_linear" x1="237.681" y1="1088.2" x2="688.016" y2="1029.79" gradientUnits="userSpaceOnUse">
<stop stop-color="#FF8B71"/>
<stop offset="0.5562" stop-color="#FD3F75"/>
<stop offset="1" stop-color="#FB0078"/>
</linearGradient>
<linearGradient id="paint38_linear" x1="178.043" y1="992.101" x2="631.396" y2="1018.27" gradientUnits="userSpaceOnUse">
<stop stop-color="#FF8B71"/>
<stop offset="0.5562" stop-color="#FD3F75"/>
<stop offset="1" stop-color="#FB0078"/>
</linearGradient>
<linearGradient id="paint39_linear" x1="137.01" y1="886.705" x2="577.616" y2="996.52" gradientUnits="userSpaceOnUse">
<stop stop-color="#FF8B71"/>
<stop offset="0.5562" stop-color="#FD3F75"/>
<stop offset="1" stop-color="#FB0078"/>
</linearGradient>
<linearGradient id="paint40_linear" x1="116.559" y1="775.517" x2="529.133" y2="965.188" gradientUnits="userSpaceOnUse">
<stop stop-color="#FF8B71"/>
<stop offset="0.5562" stop-color="#FD3F75"/>
<stop offset="1" stop-color="#FB0078"/>
</linearGradient>
<linearGradient id="paint41_linear" x1="116.873" y1="662.317" x2="487.095" y2="925.229" gradientUnits="userSpaceOnUse">
<stop stop-color="#FF8B71"/>
<stop offset="0.5562" stop-color="#FD3F75"/>
<stop offset="1" stop-color="#FB0078"/>
</linearGradient>
<linearGradient id="paint42_linear" x1="138.567" y1="551.405" x2="453.561" y2="878.472" gradientUnits="userSpaceOnUse">
<stop stop-color="#FF8B71"/>
<stop offset="0.5562" stop-color="#FD3F75"/>
<stop offset="1" stop-color="#FB0078"/>
</linearGradient>
<linearGradient id="paint43_linear" x1="180.125" y1="445.843" x2="429.006" y2="825.666" gradientUnits="userSpaceOnUse">
<stop stop-color="#FF8B71"/>
<stop offset="0.5562" stop-color="#FD3F75"/>
<stop offset="1" stop-color="#FB0078"/>
</linearGradient>
<linearGradient id="paint44_linear" x1="240.422" y1="350.433" x2="414.487" y2="769.815" gradientUnits="userSpaceOnUse">
<stop stop-color="#FF8B71"/>
<stop offset="0.5562" stop-color="#FD3F75"/>
<stop offset="1" stop-color="#FB0078"/>
</linearGradient>
<linearGradient id="paint45_linear" x1="317.894" y1="267.747" x2="411.108" y2="712.174" gradientUnits="userSpaceOnUse">
<stop stop-color="#FF8B71"/>
<stop offset="0.5562" stop-color="#FD3F75"/>
<stop offset="1" stop-color="#FB0078"/>
</linearGradient>
<linearGradient id="paint46_linear" x1="408.938" y1="200.657" x2="418.09" y2="654.653" gradientUnits="userSpaceOnUse">
<stop stop-color="#FF8B71"/>
<stop offset="0.5562" stop-color="#FD3F75"/>
<stop offset="1" stop-color="#FB0078"/>
</linearGradient>
<linearGradient id="paint47_linear" x1="511.079" y1="151.597" x2="435.846" y2="599.428" gradientUnits="userSpaceOnUse">
<stop stop-color="#FF8B71"/>
<stop offset="0.5562" stop-color="#FD3F75"/>
<stop offset="1" stop-color="#FB0078"/>
</linearGradient>
<linearGradient id="paint48_linear" x1="620.384" y1="122.479" x2="463.369" y2="548.572" gradientUnits="userSpaceOnUse">
<stop stop-color="#FF8B71"/>
<stop offset="0.5562" stop-color="#FD3F75"/>
<stop offset="1" stop-color="#FB0078"/>
</linearGradient>
<linearGradient id="paint49_linear" x1="733.279" y1="114.332" x2="499.907" y2="503.884" gradientUnits="userSpaceOnUse">
<stop stop-color="#FF8B71"/>
<stop offset="0.5562" stop-color="#FD3F75"/>
<stop offset="1" stop-color="#FB0078"/>
</linearGradient>
<linearGradient id="paint50_linear" x1="845.744" y1="127.082" x2="544.139" y2="466.576" gradientUnits="userSpaceOnUse">
<stop stop-color="#FF8B71"/>
<stop offset="0.5562" stop-color="#FD3F75"/>
<stop offset="1" stop-color="#FB0078"/>
</linearGradient>
<linearGradient id="paint51_linear" x1="953.785" y1="160.333" x2="594.448" y2="437.984" gradientUnits="userSpaceOnUse">
<stop stop-color="#FF8B71"/>
<stop offset="0.5562" stop-color="#FD3F75"/>
<stop offset="1" stop-color="#FB0078"/>
</linearGradient>
<linearGradient id="paint52_linear" x1="1053.67" y1="213.398" x2="649.063" y2="419.508" gradientUnits="userSpaceOnUse">
<stop stop-color="#FF8B71"/>
<stop offset="0.5562" stop-color="#FD3F75"/>
<stop offset="1" stop-color="#FB0078"/>
</linearGradient>
<linearGradient id="paint53_linear" x1="1142.24" y1="283.679" x2="706.415" y2="411.186" gradientUnits="userSpaceOnUse">
<stop stop-color="#FF8B71"/>
<stop offset="0.5562" stop-color="#FD3F75"/>
<stop offset="1" stop-color="#FB0078"/>
</linearGradient>
<linearGradient id="paint54_linear" x1="1216.18" y1="369.498" x2="764.243" y2="413.905" gradientUnits="userSpaceOnUse">
<stop stop-color="#FF8B71"/>
<stop offset="0.5562" stop-color="#FD3F75"/>
<stop offset="1" stop-color="#FB0078"/>
</linearGradient>
<linearGradient id="paint55_linear" x1="1272.76" y1="467.343" x2="820.461" y2="427.142" gradientUnits="userSpaceOnUse">
<stop stop-color="#FF8B71"/>
<stop offset="0.5562" stop-color="#FD3F75"/>
<stop offset="1" stop-color="#FB0078"/>
</linearGradient>
<linearGradient id="paint56_linear" x1="1310.36" y1="574.095" x2="873.35" y2="450.666" gradientUnits="userSpaceOnUse">
<stop stop-color="#FF8B71"/>
<stop offset="0.5562" stop-color="#FD3F75"/>
<stop offset="1" stop-color="#FB0078"/>
</linearGradient>
<linearGradient id="paint57_linear" x1="1327.41" y1="685.934" x2="920.902" y2="483.58" gradientUnits="userSpaceOnUse">
<stop stop-color="#FF8B71"/>
<stop offset="0.5562" stop-color="#FD3F75"/>
<stop offset="1" stop-color="#FB0078"/>
</linearGradient>
<linearGradient id="paint58_linear" x1="1323.47" y1="799.024" x2="961.566" y2="524.713" gradientUnits="userSpaceOnUse">
<stop stop-color="#FF8B71"/>
<stop offset="0.5562" stop-color="#FD3F75"/>
<stop offset="1" stop-color="#FB0078"/>
</linearGradient>
<linearGradient id="paint59_linear" x1="1298.55" y1="909.377" x2="993.8" y2="572.709" gradientUnits="userSpaceOnUse">
<stop stop-color="#FF8B71"/>
<stop offset="0.5562" stop-color="#FD3F75"/>
<stop offset="1" stop-color="#FB0078"/>
</linearGradient>
<linearGradient id="paint60_linear" x1="1253.65" y1="1013.23" x2="1016.68" y2="625.857" gradientUnits="userSpaceOnUse">
<stop stop-color="#FF8B71"/>
<stop offset="0.5562" stop-color="#FD3F75"/>
<stop offset="1" stop-color="#FB0078"/>
</linearGradient>
<linearGradient id="paint61_linear" x1="1190.2" y1="1106.9" x2="1029.2" y2="682.285" gradientUnits="userSpaceOnUse">
<stop stop-color="#FF8B71"/>
<stop offset="0.5562" stop-color="#FD3F75"/>
<stop offset="1" stop-color="#FB0078"/>
</linearGradient>
<linearGradient id="paint62_linear" x1="1110.53" y1="1187.16" x2="1031.12" y2="740.036" gradientUnits="userSpaceOnUse">
<stop stop-color="#FF8B71"/>
<stop offset="0.5562" stop-color="#FD3F75"/>
<stop offset="1" stop-color="#FB0078"/>
</linearGradient>
<linearGradient id="paint63_linear" x1="1017.25" y1="1251.43" x2="1022.17" y2="797.366" gradientUnits="userSpaceOnUse">
<stop stop-color="#FF8B71"/>
<stop offset="0.5562" stop-color="#FD3F75"/>
<stop offset="1" stop-color="#FB0078"/>
</linearGradient>
<linearGradient id="paint64_linear" x1="913.887" y1="1297.12" x2="1002.99" y2="851.858" gradientUnits="userSpaceOnUse">
<stop stop-color="#FF8B71"/>
<stop offset="0.5562" stop-color="#FD3F75"/>
<stop offset="1" stop-color="#FB0078"/>
</linearGradient>
<linearGradient id="paint65_linear" x1="803.715" y1="1322.72" x2="973.895" y2="901.697" gradientUnits="userSpaceOnUse">
<stop stop-color="#FF8B71"/>
<stop offset="0.5562" stop-color="#FD3F75"/>
<stop offset="1" stop-color="#FB0078"/>
</linearGradient>
<linearGradient id="paint66_linear" x1="690.639" y1="1327.8" x2="935.955" y2="945.696" gradientUnits="userSpaceOnUse">
<stop stop-color="#FF8B71"/>
<stop offset="0.5562" stop-color="#FD3F75"/>
<stop offset="1" stop-color="#FB0078"/>
</linearGradient>
</defs>
</svg>
