<svg width="20" height="20" viewBox="0 0 20 20" fill="none" xmlns="http://www.w3.org/2000/svg">
<path d="M10 20C15.5228 20 20 15.5228 20 10C20 4.47715 15.5228 0 10 0C4.47715 0 0 4.47715 0 10C0 15.5228 4.47715 20 10 20Z" fill="black"/>
<path d="M10 20C15.5228 20 20 15.5228 20 10C20 4.47715 15.5228 0 10 0C4.47715 0 0 4.47715 0 10C0 15.5228 4.47715 20 10 20Z" fill="#26A17B"/>
<path style="mix-blend-mode:soft-light" d="M10 20C15.5228 20 20 15.5228 20 10C20 4.47715 15.5228 0 10 0C4.47715 0 0 4.47715 0 10C0 15.5228 4.47715 20 10 20Z" fill="url(#paint0_linear)"/>
<g filter="url(#filter0_d)">
<path d="M11.2813 10.9221V10.9207C11.208 10.9261 10.83 10.9487 9.98666 10.9487C9.31332 10.9487 8.83932 10.9287 8.67266 10.9207V10.9227C6.08066 10.8087 4.14599 10.3574 4.14599 9.81739C4.14599 9.27806 6.08066 8.82673 8.67266 8.71073V10.4734C8.84199 10.4854 9.32732 10.5141 9.99799 10.5141C10.8027 10.5141 11.206 10.4807 11.2813 10.4741V8.71206C13.868 8.82739 15.798 9.27873 15.798 9.81739C15.798 10.3574 13.868 10.8074 11.2813 10.9221ZM11.2813 8.52873V6.95139H14.8907V4.54606H5.06333V6.95139H8.67266V8.52806C5.73932 8.66273 3.53333 9.24406 3.53333 9.94006C3.53333 10.6361 5.73932 11.2167 8.67266 11.3521V16.4067H11.2813V11.3507C14.21 11.2161 16.4107 10.6354 16.4107 9.94006C16.4107 9.24473 14.21 8.66406 11.2813 8.52873Z" fill="black"/>
</g>
<path d="M11.2813 10.9221V10.9207C11.208 10.9261 10.83 10.9487 9.98666 10.9487C9.31332 10.9487 8.83932 10.9287 8.67266 10.9207V10.9227C6.08066 10.8087 4.14599 10.3574 4.14599 9.81739C4.14599 9.27806 6.08066 8.82673 8.67266 8.71073V10.4734C8.84199 10.4854 9.32732 10.5141 9.99799 10.5141C10.8027 10.5141 11.206 10.4807 11.2813 10.4741V8.71206C13.868 8.82739 15.798 9.27873 15.798 9.81739C15.798 10.3574 13.868 10.8074 11.2813 10.9221ZM11.2813 8.52873V6.95139H14.8907V4.54606H5.06333V6.95139H8.67266V8.52806C5.73932 8.66273 3.53333 9.24406 3.53333 9.94006C3.53333 10.6361 5.73932 11.2167 8.67266 11.3521V16.4067H11.2813V11.3507C14.21 11.2161 16.4107 10.6354 16.4107 9.94006C16.4107 9.24473 14.21 8.66406 11.2813 8.52873Z" fill="white"/>
<defs>
<filter id="filter0_d" x="2.53333" y="4.04606" width="14.8773" height="13.8607" filterUnits="userSpaceOnUse" color-interpolation-filters="sRGB">
<feFlood flood-opacity="0" result="BackgroundImageFix"/>
<feColorMatrix in="SourceAlpha" type="matrix" values="0 0 0 0 0 0 0 0 0 0 0 0 0 0 0 0 0 0 127 0"/>
<feOffset dy="0.5"/>
<feGaussianBlur stdDeviation="0.5"/>
<feColorMatrix type="matrix" values="0 0 0 0 0 0 0 0 0 0 0 0 0 0 0 0 0 0 0.204257 0"/>
<feBlend mode="normal" in2="BackgroundImageFix" result="effect1_dropShadow"/>
<feBlend mode="normal" in="SourceGraphic" in2="effect1_dropShadow" result="shape"/>
</filter>
<linearGradient id="paint0_linear" x1="10" y1="0" x2="10" y2="20" gradientUnits="userSpaceOnUse">
<stop stop-color="white" stop-opacity="0.5"/>
<stop offset="1" stop-opacity="0.5"/>
</linearGradient>
</defs>
</svg>
