<svg width="20" height="20" viewBox="0 0 20 20" fill="none" xmlns="http://www.w3.org/2000/svg">
<path d="M10 20C15.5228 20 20 15.5228 20 10C20 4.47715 15.5228 0 10 0C4.47715 0 0 4.47715 0 10C0 15.5228 4.47715 20 10 20Z" fill="black"/>
<path d="M10 20C15.5228 20 20 15.5228 20 10C20 4.47715 15.5228 0 10 0C4.47715 0 0 4.47715 0 10C0 15.5228 4.47715 20 10 20Z" fill="#201A2D"/>
<path style="mix-blend-mode:soft-light" d="M10 20C15.5228 20 20 15.5228 20 10C20 4.47715 15.5228 0 10 0C4.47715 0 0 4.47715 0 10C0 15.5228 4.47715 20 10 20Z" fill="url(#paint0_linear)"/>
<g filter="url(#filter0_d)">
<path d="M14.5453 5.72393L14.1453 6.12393C15.0998 7.1677 15.6291 8.53088 15.6291 9.94526C15.6291 11.3596 15.0998 12.7228 14.1453 13.7666L14.5453 14.1666C15.6068 13.0152 16.1961 11.5066 16.1961 9.94059C16.1961 8.3746 15.6068 6.86595 14.5453 5.71459V5.72393ZM6.13334 5.75859C7.17711 4.80413 8.54029 4.27483 9.95467 4.27483C11.369 4.27483 12.7322 4.80413 13.776 5.75859L14.176 5.35859C13.0246 4.29713 11.516 3.70781 9.95 3.70781C8.38401 3.70781 6.87536 4.29713 5.724 5.35859L6.13334 5.75859ZM5.75867 13.7706C4.80533 12.7271 4.27673 11.3647 4.27673 9.95126C4.27673 8.53782 4.80533 7.17547 5.75867 6.13193L5.35867 5.73193C4.2972 6.88329 3.70789 8.39193 3.70789 9.95793C3.70789 11.5239 4.2972 13.0326 5.35867 14.1839L5.75867 13.7706ZM13.7707 14.1399C12.7269 15.0944 11.3637 15.6237 9.94934 15.6237C8.53496 15.6237 7.17178 15.0944 6.128 14.1399L5.728 14.5399C6.87936 15.6014 8.38801 16.1907 9.954 16.1907C11.52 16.1907 13.0286 15.6014 14.18 14.5399L13.7707 14.1399ZM12.476 8.61593C12.396 7.78126 11.676 7.50126 10.7653 7.41593V6.26659H10.0613V7.39459H9.49867V6.26659H8.8V7.42393H7.372V8.17726C7.372 8.17726 7.892 8.16793 7.884 8.17726C7.97776 8.16695 8.07187 8.19343 8.14648 8.25113C8.2211 8.30884 8.2704 8.39325 8.284 8.48659V11.6546C8.282 11.6875 8.27342 11.7197 8.25876 11.7492C8.2441 11.7788 8.22367 11.8051 8.19867 11.8266C8.17414 11.8485 8.14543 11.8652 8.11427 11.8758C8.08311 11.8863 8.05013 11.8905 8.01734 11.8879C8.02667 11.8959 7.50533 11.8879 7.50533 11.8879L7.372 12.7293H8.78667V13.9053H9.49067V12.7466H10.0533V13.8999H10.7587V12.7373C11.948 12.6653 12.7773 12.3719 12.8813 11.2586C12.9653 10.3626 12.544 9.96259 11.8707 9.80126C12.28 9.59993 12.5333 9.22659 12.476 8.61593ZM11.4893 11.1199C11.4893 11.9946 9.99067 11.8946 9.51334 11.8946V10.3426C9.99067 10.3439 11.4893 10.2066 11.4893 11.1199ZM11.1627 8.93326C11.1627 9.73326 9.912 9.63593 9.51467 9.63593V8.22526C9.912 8.22526 11.1627 8.09993 11.1627 8.93326Z" fill="white"/>
<path d="M9.94935 17.2347C5.92669 17.234 2.66669 13.9727 2.66669 9.95C2.66669 5.928 5.92802 2.66667 9.95002 2.66667C13.9727 2.66667 17.234 5.92667 17.2347 9.94933C17.2349 10.9061 17.0465 11.8535 16.6805 12.7375C16.3144 13.6215 15.7778 14.4247 15.1013 15.1012C14.4247 15.7778 13.6215 16.3144 12.7375 16.6805C11.8536 17.0465 10.9061 17.2348 9.94935 17.2347ZM9.94935 3.23467C6.24335 3.23733 3.24135 6.24333 3.24269 9.94933C3.24402 13.6553 6.24935 16.6587 9.95469 16.6587C13.6607 16.6587 16.6654 13.6553 16.6667 9.94933C16.667 9.06723 16.4935 8.1937 16.156 7.37871C15.8185 6.56372 15.3237 5.82324 14.6998 5.19962C14.076 4.576 13.3353 4.08147 12.5202 3.74431C11.7051 3.40715 10.8315 3.23396 9.94935 3.23467Z" fill="white"/>
</g>
<defs>
<filter id="filter0_d" x="1.66669" y="2.16667" width="16.568" height="16.568" filterUnits="userSpaceOnUse" color-interpolation-filters="sRGB">
<feFlood flood-opacity="0" result="BackgroundImageFix"/>
<feColorMatrix in="SourceAlpha" type="matrix" values="0 0 0 0 0 0 0 0 0 0 0 0 0 0 0 0 0 0 127 0"/>
<feOffset dy="0.5"/>
<feGaussianBlur stdDeviation="0.5"/>
<feColorMatrix type="matrix" values="0 0 0 0 0 0 0 0 0 0 0 0 0 0 0 0 0 0 0.204257 0"/>
<feBlend mode="normal" in2="BackgroundImageFix" result="effect1_dropShadow"/>
<feBlend mode="normal" in="SourceGraphic" in2="effect1_dropShadow" result="shape"/>
</filter>
<linearGradient id="paint0_linear" x1="10" y1="0" x2="10" y2="20" gradientUnits="userSpaceOnUse">
<stop stop-color="white" stop-opacity="0.5"/>
<stop offset="1" stop-opacity="0.5"/>
</linearGradient>
</defs>
</svg>
