<svg width="217" height="216" viewBox="0 0 217 216" fill="none" xmlns="http://www.w3.org/2000/svg">
<path d="M210.866 74.4008C214.358 85.1467 216.136 96.3751 216.136 107.674L108.462 107.674L210.866 74.4008Z" fill="#F7931A"/>
<path d="M141.736 5.26994C157.896 10.5208 172.584 19.5218 184.599 31.537C196.615 43.5522 205.616 58.2404 210.866 74.4008L108.462 107.674L141.736 5.26994Z" fill="#FCCD12"/>
<path d="M216.136 107.674C216.136 130.412 208.938 152.567 195.572 170.963C182.207 189.359 163.361 203.051 141.736 210.078C120.11 217.104 96.815 217.104 75.1894 210.078C53.5638 203.051 34.7178 189.359 21.3525 170.963C7.9871 152.567 0.788572 130.412 0.788574 107.674C0.788576 84.9354 7.98711 62.7806 21.3525 44.3848C34.7178 25.9889 53.5638 12.2965 75.1894 5.26993C96.815 -1.75665 120.11 -1.75664 141.736 5.26994L108.462 107.674H216.136Z" fill="#3DB549"/>
</svg>
