<svg width="102" height="102" viewBox="0 0 102 102" fill="none" xmlns="http://www.w3.org/2000/svg">
<g clip-path="url(#clip0)">
<path d="M73.7216 47.6257L56.1449 23.5653C54.8355 21.7719 52.8114 20.7451 50.5906 20.7451C48.3697 20.7451 46.3456 21.7741 45.0362 23.5653L27.4595 47.6257C24.9583 51.0497 24.9583 55.6497 27.4641 59.0804L28.4953 60.4758L28.4976 60.4735L37.5709 72.9708C38.8803 74.7642 40.9044 75.7909 43.1252 75.7909C44.9345 75.7909 46.6148 75.1079 47.8835 73.8822L47.9694 73.9455L50.6132 70.327L52.5445 72.9685C52.5513 72.9798 52.5604 72.9889 52.5671 72.9979L53.1031 73.7329L53.1551 73.6945C54.442 75.0333 56.1969 75.7887 58.0966 75.7887C60.3152 75.7887 62.3392 74.7597 63.6532 72.964L70.5305 63.4904L70.5373 63.4949L71.6771 61.9096L72.982 60.1139L72.973 60.1072L73.7193 59.0669C76.2251 55.6497 76.2251 51.0497 73.7216 47.6257ZM47.8428 25.6142C48.4918 24.7277 49.4937 24.2188 50.5906 24.2188C51.6897 24.2188 52.6915 24.7277 53.3383 25.6142L55.9052 29.1264L50.6132 36.3701L45.2986 29.0947L47.8428 25.6142ZM45.8775 70.9264L45.8753 70.9241C45.2262 71.8106 44.2243 72.3195 43.1275 72.3195C42.0284 72.3195 41.0265 71.8106 40.382 70.9286L31.0509 58.0786L31.0463 58.0831L30.2661 57.027C28.6604 54.8287 28.6604 51.8752 30.2661 49.677L43.1501 32.0415L48.4647 39.3169L42.3925 47.628C39.8912 51.052 39.8912 55.6519 42.3925 59.0759L48.4647 67.3871L45.8775 70.9264ZM50.6132 42.2591L56.0318 49.6747C57.6375 51.8729 57.6375 54.8265 56.0318 57.0247L50.6132 64.4403L45.1945 57.0247C43.5888 54.8265 43.5888 51.8729 45.1945 49.6747L50.6132 42.2591ZM60.8466 70.9241C60.1976 71.8106 59.1957 72.3195 58.0989 72.3195C57.0133 72.3195 56.0228 71.8219 55.3737 70.9535L52.7662 67.3848L58.8384 59.0736C61.3396 55.6497 61.3396 51.0497 58.8384 47.6257L52.7662 39.3146L58.0582 32.0709L70.9195 49.6747C72.5252 51.8729 72.5252 54.8265 70.9127 57.036L68.8728 59.872L60.8466 70.9241Z" fill="url(#paint0_linear)"/>
<path opacity="0.6" d="M48.4193 67.3712L50.613 70.3678L47.2773 74.8456L45.0813 71.935L48.4193 67.3712Z" fill="url(#paint1_linear)"/>
<path d="M48.451 39.3168L50.5859 42.2839L45.6038 49.1703L42.8718 47.0128L48.451 39.3168Z" fill="url(#paint2_linear)"/>
<path d="M68.6194 40.6421L60.8171 29.9043L60.8329 29.8885L57.9495 25.9489C58.8744 27.2447 59.3154 28.285 59.234 29.2801C59.1594 30.1892 58.8631 30.8926 58.5895 31.3652L58.0761 32.0708L58.3972 32.5299L58.404 32.5209L65.8897 42.7996L68.6194 40.6421Z" fill="url(#paint3_linear)"/>
<path d="M32.6021 40.6421L40.4044 29.9043L40.3886 29.8885L43.272 25.9489C42.3471 27.2447 41.9061 28.285 41.9875 29.2801C42.0621 30.1892 42.3584 30.8926 42.632 31.3652L43.1454 32.0708L42.8243 32.5299L42.8175 32.5209L35.3318 42.7996L32.6021 40.6421Z" fill="url(#paint4_linear)"/>
<path d="M46.4724 27.4935C46.4724 27.4935 45.1178 28.9907 46.4634 30.6936L45.4819 30.6529L44.2946 28.5655L45.6786 27.489L46.4724 27.4935Z" fill="url(#paint5_linear)"/>
<path d="M54.7315 27.5139C54.7315 27.5139 56.1043 29.011 54.7564 30.7162L55.7379 30.6755L56.9252 28.5881L55.5411 27.5116L54.7315 27.5139Z" fill="url(#paint6_linear)"/>
<path d="M50.5929 101.183C37.0802 101.183 24.3748 95.9208 14.8199 86.3659C5.2626 76.8109 0 64.1055 0 50.5929C0 37.0802 5.2626 24.3726 14.8176 14.8176C24.3726 5.2626 37.0779 0 50.5929 0C64.1078 0 76.8109 5.2626 86.3659 14.8176C95.9208 24.3726 101.183 37.0779 101.183 50.5906C101.183 64.1033 95.9208 76.8086 86.3659 86.3636C76.8109 95.9208 64.1055 101.183 50.5929 101.183ZM50.5929 3.43754C37.9984 3.43754 26.1547 8.34281 17.2487 17.2487C8.34281 26.1547 3.43754 37.9961 3.43754 50.5929C3.43754 63.1896 8.34281 75.031 17.2487 83.937C26.1547 92.8429 37.9961 97.7482 50.5929 97.7482C63.1896 97.7482 75.031 92.8429 83.937 83.937C92.8429 75.031 97.7482 63.1896 97.7482 50.5929C97.7482 37.9961 92.8429 26.1569 83.937 17.2487C75.0288 8.34281 63.1874 3.43754 50.5929 3.43754Z" fill="url(#paint7_linear)"/>
</g>
<defs>
<linearGradient id="paint0_linear" x1="33.5463" y1="69.0669" x2="67.6561" y2="34.9571" gradientUnits="userSpaceOnUse">
<stop stop-color="#FF8506"/>
<stop offset="0.5805" stop-color="#FD3947"/>
<stop offset="1" stop-color="#FB0078"/>
</linearGradient>
<linearGradient id="paint1_linear" x1="46.2988" y1="73.3796" x2="50.7767" y2="66.939" gradientUnits="userSpaceOnUse">
<stop stop-color="#FF7E0D" stop-opacity="0"/>
<stop offset="0.0133" stop-color="#F97910" stop-opacity="0.0192"/>
<stop offset="0.1144" stop-color="#D25427" stop-opacity="0.1659"/>
<stop offset="0.219" stop-color="#B1363A" stop-opacity="0.3175"/>
<stop offset="0.3263" stop-color="#981E48" stop-opacity="0.4731"/>
<stop offset="0.4375" stop-color="#860D53" stop-opacity="0.6344"/>
<stop offset="0.5551" stop-color="#7B0359" stop-opacity="0.8048"/>
<stop offset="0.6897" stop-color="#78005B"/>
</linearGradient>
<linearGradient id="paint2_linear" x1="43.5657" y1="47.7049" x2="50.2027" y2="41.0679" gradientUnits="userSpaceOnUse">
<stop stop-color="#FF4630" stop-opacity="0"/>
<stop offset="0.5722" stop-color="#B31F48" stop-opacity="0.5722"/>
<stop offset="1" stop-color="#78005B"/>
</linearGradient>
<linearGradient id="paint3_linear" x1="66.556" y1="40.8852" x2="58.4035" y2="29.3902" gradientUnits="userSpaceOnUse">
<stop stop-color="#FB126A" stop-opacity="0"/>
<stop offset="0.1389" stop-color="#F41169" stop-opacity="0.1389"/>
<stop offset="0.3365" stop-color="#E20F67" stop-opacity="0.3365"/>
<stop offset="0.5694" stop-color="#C30A64" stop-opacity="0.5694"/>
<stop offset="0.827" stop-color="#99045F" stop-opacity="0.827"/>
<stop offset="1" stop-color="#78005B"/>
</linearGradient>
<linearGradient id="paint4_linear" x1="34.6665" y1="40.8852" x2="42.819" y2="29.3902" gradientUnits="userSpaceOnUse">
<stop stop-color="#FB126A" stop-opacity="0"/>
<stop offset="0.1389" stop-color="#F41169" stop-opacity="0.1389"/>
<stop offset="0.3365" stop-color="#E20F67" stop-opacity="0.3365"/>
<stop offset="0.5694" stop-color="#C30A64" stop-opacity="0.5694"/>
<stop offset="0.827" stop-color="#99045F" stop-opacity="0.827"/>
<stop offset="1" stop-color="#78005B"/>
</linearGradient>
<linearGradient id="paint5_linear" x1="44.9187" y1="30.0906" x2="46.9938" y2="28.0155" gradientUnits="userSpaceOnUse">
<stop stop-color="#FC1F5C"/>
<stop offset="1" stop-color="#FB0078"/>
</linearGradient>
<linearGradient id="paint6_linear" x1="56.3017" y1="30.1122" x2="54.2177" y2="28.0281" gradientUnits="userSpaceOnUse">
<stop stop-color="#FC1F5C"/>
<stop offset="1" stop-color="#FB0078"/>
</linearGradient>
<linearGradient id="paint7_linear" x1="14.818" y1="86.3655" x2="86.3656" y2="14.818" gradientUnits="userSpaceOnUse">
<stop stop-color="#FF8506"/>
<stop offset="0.5805" stop-color="#FD3947"/>
<stop offset="1" stop-color="#FB0078"/>
</linearGradient>
<clipPath id="clip0">
<rect width="101.183" height="101.183" fill="white"/>
</clipPath>
</defs>
</svg>
