<svg  width="135" height="39" viewBox="0 0 135 39" fill="none" xmlns="http://www.w3.org/2000/svg">
<path d="M134.6 32.6686C134.97 32.2994 134.97 31.7007 134.6 31.3314L128.583 25.3138C128.213 24.9445 127.615 24.9445 127.245 25.3138C126.876 25.683 126.876 26.2817 127.245 26.651L132.594 32L127.245 37.349C126.876 37.7183 126.876 38.317 127.245 38.6863C127.615 39.0555 128.213 39.0555 128.583 38.6863L134.6 32.6686ZM2.93164 32.9456L133.932 32.9456L133.932 31.0544L2.93164 31.0544L2.93164 32.9456Z" fill="url(#paint0_linear)"/>
<path d="M1.26302 32.6686C0.893738 32.2994 0.893738 31.7007 1.26302 31.3314L7.28064 25.3138C7.64991 24.9445 8.24862 24.9445 8.61789 25.3138C8.98716 25.683 8.98716 26.2817 8.61789 26.651L3.26889 32L8.61789 37.349C8.98716 37.7183 8.98716 38.317 8.61789 38.6863C8.24862 39.0555 7.64991 39.0555 7.28064 38.6863L1.26302 32.6686ZM132.932 32.9456L1.93164 32.9456L1.93164 31.0544L132.932 31.0544L132.932 32.9456Z" fill="url(#paint1_linear)"/>
<defs>
<linearGradient id="paint0_linear" x1="68.4316" y1="32" x2="0.311639" y2="32" gradientUnits="userSpaceOnUse">
<stop stop-color="#F7931A"/>
<stop offset="0.53125" stop-color="#FCCD12"/>
<stop offset="0.760417" stop-color="#3DB549"/>
</linearGradient>

<linearGradient id="paint1_linear" x1="67.4316" y1="32" x2="135.552" y2="32" gradientUnits="userSpaceOnUse">
<stop stop-color="#3DB549"/>
<stop offset="0.53125" stop-color="#FCCD12"/>
<stop offset="1" stop-color="#F7931A"/>
</linearGradient>
</defs>
</svg>
