<svg width="131" height="139" viewBox="0 0 131 139" fill="none" xmlns="http://www.w3.org/2000/svg">
<path d="M65.5 9C29.8776 9 1 37.8776 1 73.5C1 109.122 29.8776 138 65.5 138C101.122 138 130 109.122 130 73.5C130 50.7796 118.252 30.803 100.5 19.3129" stroke="white"/>
<path d="M75 9.5L65.25 17.7272L65.25 1.27276L75 9.5Z" fill="white"/>
<line x1="65.125" y1="9" x2="65.125" y2="138" stroke="white" stroke-width="0.25"/>
<circle cx="65.5" cy="73.5" r="21.5" fill="url(#paint0_radial)"/>
<path d="M54.3875 72.548H60.8275V73.878H54.3875V72.548ZM58.3635 70.574V75.866H56.8515V70.574H58.3635ZM61.8715 71.596V70.042H65.6655V77H63.8455V71.596H61.8715ZM72.1566 77.168C71.2792 77.168 70.5046 77.028 69.8326 76.748C69.1699 76.468 68.6519 76.062 68.2786 75.53C67.9052 74.9887 67.7186 74.326 67.7186 73.542C67.7186 72.758 67.9052 72.0953 68.2786 71.554C68.6519 71.0033 69.1699 70.588 69.8326 70.308C70.5046 70.028 71.2792 69.888 72.1566 69.888C73.0339 69.888 73.7992 70.028 74.4526 70.308C75.1152 70.588 75.6332 71.0033 76.0066 71.554C76.3799 72.0953 76.5666 72.758 76.5666 73.542C76.5666 74.326 76.3799 74.9887 76.0066 75.53C75.6332 76.062 75.1152 76.468 74.4526 76.748C73.7992 77.028 73.0339 77.168 72.1566 77.168ZM72.1566 75.768C72.6326 75.768 73.0619 75.684 73.4446 75.516C73.8366 75.3387 74.1446 75.0867 74.3686 74.76C74.6019 74.424 74.7186 74.018 74.7186 73.542C74.7186 73.066 74.6019 72.66 74.3686 72.324C74.1446 71.9787 73.8412 71.7173 73.4586 71.54C73.0759 71.3627 72.6419 71.274 72.1566 71.274C71.6806 71.274 71.2466 71.3627 70.8546 71.54C70.4626 71.7173 70.1499 71.974 69.9166 72.31C69.6832 72.646 69.5666 73.0567 69.5666 73.542C69.5666 74.018 69.6786 74.424 69.9026 74.76C70.1359 75.0867 70.4486 75.3387 70.8406 75.516C71.2326 75.684 71.6712 75.768 72.1566 75.768Z" fill="white"/>
<defs>
<radialGradient id="paint0_radial" cx="0" cy="0" r="1" gradientUnits="userSpaceOnUse" gradientTransform="translate(65.5 73.5) rotate(90) scale(21.5)">
<stop stop-color="#565555"/>
<stop offset="1" stop-color="#212020"/>
</radialGradient>
</defs>
</svg>
