<svg width="131" height="139" viewBox="0 0 131 139" fill="none" xmlns="http://www.w3.org/2000/svg">
<path d="M65.5 130C101.122 130 130 101.122 130 65.5C130 29.8776 101.122 0.999997 65.5 0.999994C29.8776 0.999991 1.00001 29.8776 1.00001 65.5C1 88.2204 12.7476 108.197 30.5 119.687" stroke="white"/>
<path d="M56 129.5L65.75 121.273L65.75 137.727L56 129.5Z" fill="white"/>
<line x1="65.875" y1="130" x2="65.875" y2="1" stroke="white" stroke-width="0.25"/>
<circle cx="65.5" cy="68.5" r="21.5" fill="url(#paint0_radial)"/>
<path d="M55.2655 68.52H59.9415V69.892H55.2655V68.52ZM61.4135 67.596V66.042H65.2075V73H63.3875V67.596H61.4135ZM71.6986 73.168C70.8212 73.168 70.0466 73.028 69.3746 72.748C68.7119 72.468 68.1939 72.062 67.8206 71.53C67.4472 70.9887 67.2606 70.326 67.2606 69.542C67.2606 68.758 67.4472 68.0953 67.8206 67.554C68.1939 67.0033 68.7119 66.588 69.3746 66.308C70.0466 66.028 70.8212 65.888 71.6986 65.888C72.5759 65.888 73.3412 66.028 73.9946 66.308C74.6572 66.588 75.1752 67.0033 75.5486 67.554C75.9219 68.0953 76.1086 68.758 76.1086 69.542C76.1086 70.326 75.9219 70.9887 75.5486 71.53C75.1752 72.062 74.6572 72.468 73.9946 72.748C73.3412 73.028 72.5759 73.168 71.6986 73.168ZM71.6986 71.768C72.1746 71.768 72.6039 71.684 72.9866 71.516C73.3786 71.3387 73.6866 71.0867 73.9106 70.76C74.1439 70.424 74.2606 70.018 74.2606 69.542C74.2606 69.066 74.1439 68.66 73.9106 68.324C73.6866 67.9787 73.3832 67.7173 73.0006 67.54C72.6179 67.3627 72.1839 67.274 71.6986 67.274C71.2226 67.274 70.7886 67.3627 70.3966 67.54C70.0046 67.7173 69.6919 67.974 69.4586 68.31C69.2252 68.646 69.1086 69.0567 69.1086 69.542C69.1086 70.018 69.2206 70.424 69.4446 70.76C69.6779 71.0867 69.9906 71.3387 70.3826 71.516C70.7746 71.684 71.2132 71.768 71.6986 71.768Z" fill="white"/>
<defs>
<radialGradient id="paint0_radial" cx="0" cy="0" r="1" gradientUnits="userSpaceOnUse" gradientTransform="translate(65.5 68.5) rotate(90) scale(21.5)">
<stop stop-color="#565555"/>
<stop offset="1" stop-color="#212020"/>
</radialGradient>
</defs>
</svg>
