<svg width="140" height="32" viewBox="0 0 140 32" fill="none" xmlns="http://www.w3.org/2000/svg">
<g clip-path="url(#clip0)">
<path fill-rule="evenodd" clip-rule="evenodd" d="M24.0166 7.01165C24.6397 7.62154 25.2009 8.33446 25.7184 9.14783L28.8191 7.23194C28.1569 6.1788 27.353 5.23014 26.4607 4.34668L24.0166 7.01164V7.01165Z" fill="white"/>
<path fill-rule="evenodd" clip-rule="evenodd" d="M21.2383 4.92442C22.0922 5.37702 22.8346 5.94971 23.5054 6.52808L25.9901 3.9117C24.9768 3.05049 23.9339 2.27908 22.818 1.73047L21.2383 4.92442H21.2383Z" fill="white"/>
<path fill-rule="evenodd" clip-rule="evenodd" d="M0.669974 19.7055L3.58071 18.7551C3.317 17.7424 3.17868 16.7211 3.17698 15.6903L0.151229 15.5381C0.132548 16.9684 0.311446 18.3562 0.669963 19.7055L0.669974 19.7055Z" fill="white"/>
<path fill-rule="evenodd" clip-rule="evenodd" d="M18.0454 3.71989C19.014 3.91002 19.8656 4.24069 20.5966 4.59283L22.1816 1.42272C21.081 0.921482 19.9224 0.536659 18.6945 0.290527L18.0454 3.71989H18.0454Z" fill="white"/>
<path fill-rule="evenodd" clip-rule="evenodd" d="M20.1821 26.8498L21.5177 30.2185C22.6368 29.7692 23.6807 29.2035 24.6412 28.5087L22.4406 25.5815C21.7675 26.0541 21.0159 26.4776 20.1821 26.8498V26.8498Z" fill="white"/>
<path fill-rule="evenodd" clip-rule="evenodd" d="M17.3355 31.2625C18.5506 31.1378 19.7152 30.8876 20.8176 30.4828L19.5388 27.104C18.8138 27.3809 17.989 27.5957 17.0254 27.7239L17.3355 31.2625L17.3355 31.2625Z" fill="white"/>
<path fill-rule="evenodd" clip-rule="evenodd" d="M14.5297 3.45683C15.4512 3.3947 16.3725 3.43384 17.2938 3.57721L17.8791 0.154806C16.6544 -0.0123829 15.4417 -0.0500781 14.2437 0.070839L14.5297 3.45683L14.5297 3.45683Z" fill="white"/>
<path fill-rule="evenodd" clip-rule="evenodd" d="M0.172857 14.8332L3.19254 15.0083C3.21927 13.9507 3.44666 12.9566 3.73081 11.9843L0.864091 10.9697C0.466493 12.2523 0.240064 13.5402 0.172852 14.8332L0.172857 14.8332Z" fill="white"/>
<path fill-rule="evenodd" clip-rule="evenodd" d="M13.0801 31.1245C14.2702 31.3225 15.4482 31.3953 16.6122 31.3213L16.2915 27.7981C15.4037 27.8564 14.5247 27.8308 13.6556 27.7109L13.0801 31.1245L13.0801 31.1245Z" fill="white"/>
<path fill-rule="evenodd" clip-rule="evenodd" d="M9.93701 1.11587L11.1871 4.16644C12.0579 3.85033 12.9497 3.6348 13.8659 3.52037L13.5312 0.154297C12.282 0.337573 11.0822 0.653695 9.93701 1.11586L9.93701 1.11587Z" fill="white"/>
<path fill-rule="evenodd" clip-rule="evenodd" d="M9.00439 29.8148C10.0963 30.3543 11.2127 30.7323 12.3498 30.9742L12.9445 27.5891C12.0805 27.4125 11.2399 27.1494 10.4265 26.7852L9.0044 29.8148H9.00439Z" fill="white"/>
<path fill-rule="evenodd" clip-rule="evenodd" d="M6.19238 3.27521L8.10058 5.83519C8.85753 5.27452 9.64944 4.82368 10.4679 4.45638L9.26696 1.40479C8.17152 1.92438 7.13245 2.52691 6.19239 3.27521H6.19238Z" fill="white"/>
<path fill-rule="evenodd" clip-rule="evenodd" d="M5.46095 27.4674C6.3512 28.256 7.31656 28.928 8.35357 29.4888L9.75599 26.4579C8.98629 26.0577 8.26155 25.5838 7.59001 25.0229L5.46094 27.4674H5.46095Z" fill="white"/>
<path fill-rule="evenodd" clip-rule="evenodd" d="M2.67676 24.2393C3.29571 25.1932 4.03203 26.0975 4.89886 26.9467L7.08395 24.5791C6.4079 23.9596 5.85147 23.2867 5.35858 22.5854L2.67676 24.2393Z" fill="white"/>
<path fill-rule="evenodd" clip-rule="evenodd" d="M3.14697 6.42687L5.65821 8.25353C6.19022 7.53922 6.81358 6.87523 7.54761 6.27221L5.56946 3.7876C4.63206 4.58555 3.82671 5.46667 3.14698 6.42687H3.14697Z" fill="white"/>
<path fill-rule="evenodd" clip-rule="evenodd" d="M0.864746 20.3818C1.21503 21.495 1.69056 22.5581 2.27148 23.5789L4.99235 22.0366C4.51326 21.2398 4.10188 20.4186 3.82067 19.5508L0.864746 20.3818V20.3818Z" fill="white"/>
<path fill-rule="evenodd" clip-rule="evenodd" d="M1.11768 10.2233L3.98484 11.254C4.31051 10.4046 4.73304 9.59692 5.24661 8.8285L2.69102 7.08887C2.06264 8.08641 1.52186 9.1238 1.11768 10.2233V10.2233Z" fill="white"/>
<path d="M73.2935 25.9478H74.6739C74.9159 25.9478 75.1235 25.9594 75.2984 25.9836C75.4725 26.0069 75.6391 26.0642 75.7983 26.1565C75.9575 26.2488 76.0971 26.3751 76.2162 26.5355C76.3354 26.6968 76.4285 26.8822 76.4964 27.091C76.5653 27.2998 76.5988 27.5533 76.5988 27.8508C76.5988 28.4179 76.4592 28.8838 76.179 29.2485C75.8988 29.6131 75.4176 29.7959 74.7334 29.7959H73.2935V25.9478V25.9478ZM73.8231 29.339H74.6795C74.8535 29.339 75.0099 29.3291 75.1467 29.3076C75.2845 29.287 75.4232 29.2297 75.5637 29.1374C75.7052 29.0442 75.8216 28.8919 75.9146 28.6804C76.0077 28.469 76.0533 28.1885 76.0533 27.84C76.0533 27.6483 76.0357 27.4682 76.0003 27.3007C75.9649 27.134 75.8998 26.9817 75.8039 26.8446C75.7089 26.7066 75.5991 26.6063 75.4753 26.5427C75.3515 26.4782 75.2314 26.4396 75.1141 26.4253C74.9969 26.4119 74.8461 26.4047 74.6627 26.4047H73.8231V29.339H73.8231Z" fill="white"/>
<path d="M77.7449 29.7959H77.2534V27.0113H77.7449V29.7959ZM77.7449 26.4835H77.2534V25.9478H77.7449V26.4835Z" fill="white"/>
<path d="M80.1095 27.7904C80.0871 27.638 80.0229 27.5234 79.9168 27.4472C79.8107 27.371 79.6627 27.3334 79.4737 27.3334C79.2866 27.3334 79.1349 27.3639 79.0195 27.4248C78.9041 27.4866 78.8464 27.5753 78.8464 27.6927C78.8464 27.8029 78.8929 27.8817 78.9841 27.9292C79.0763 27.9767 79.2578 28.0341 79.5286 28.1021C79.834 28.1774 80.062 28.2446 80.2147 28.3019C80.3664 28.3593 80.4846 28.4408 80.5684 28.5448C80.6531 28.6487 80.6959 28.7938 80.6959 28.9793C80.6959 29.2275 80.5898 29.4371 80.3794 29.6065C80.1681 29.7767 79.8861 29.8609 79.5342 29.8609C79.1666 29.8609 78.8799 29.7865 78.6732 29.6369C78.4675 29.4873 78.34 29.2624 78.2935 28.9632L78.7812 28.8924C78.8063 29.0868 78.8817 29.232 79.0065 29.3287C79.1303 29.4246 79.3043 29.473 79.5286 29.473C79.7427 29.473 79.9075 29.4291 80.022 29.343C80.1365 29.2561 80.1942 29.1504 80.1942 29.0268C80.1942 28.9426 80.1672 28.8754 80.1151 28.8243C80.062 28.7732 79.9959 28.7356 79.9168 28.7105C79.8377 28.6845 79.6599 28.6397 79.3834 28.5752C78.9729 28.4802 78.7021 28.3656 78.5699 28.2312C78.4377 28.0968 78.3726 27.9355 78.3726 27.7483C78.3726 27.5153 78.4685 27.3236 78.6611 27.173C78.8538 27.0225 79.1126 26.9473 79.4384 26.9473C79.7837 26.9473 80.0527 27.0127 80.2444 27.1435C80.4362 27.2734 80.5507 27.4678 80.5888 27.7267L80.1095 27.7904H80.1095Z" fill="white"/>
<path d="M83.6567 28.8328C83.5934 29.1876 83.4482 29.4484 83.221 29.6132C82.993 29.779 82.7361 29.8614 82.4485 29.8614C82.0287 29.8614 81.7047 29.7288 81.4758 29.4636C81.2458 29.1984 81.1313 28.8472 81.1313 28.41C81.1313 28.048 81.1974 27.7577 81.3296 27.54C81.4609 27.3223 81.6266 27.169 81.8248 27.0804C82.0222 26.9926 82.2306 26.9478 82.4485 26.9478C82.7472 26.9478 83.0023 27.0221 83.2136 27.1708C83.4258 27.3196 83.5561 27.5382 83.6055 27.8276L83.1307 27.8984C83.0814 27.7111 83.0023 27.5704 82.8915 27.4755C82.7817 27.3814 82.6411 27.3339 82.4708 27.3339C82.1962 27.3339 81.9877 27.4271 81.8462 27.6143C81.7047 27.8016 81.6331 28.0632 81.6331 28.3992C81.6331 28.7424 81.7029 29.0076 81.8425 29.1939C81.9812 29.3803 82.1813 29.4735 82.4438 29.4735C82.6542 29.4735 82.8199 29.4152 82.9409 29.2987C83.0619 29.1823 83.1382 29.0076 83.1689 28.7746L83.6567 28.8328V28.8328Z" fill="white"/>
<path d="M85.2576 26.9478C85.6486 26.9478 85.9725 27.0705 86.2294 27.3151C86.4872 27.5606 86.6157 27.9091 86.6157 28.3598C86.6157 28.9081 86.477 29.2952 86.1987 29.5218C85.9204 29.7485 85.6067 29.8614 85.2576 29.8614C84.8918 29.8614 84.5753 29.7449 84.3063 29.5129C84.0364 29.2799 83.9023 28.9108 83.9023 28.4046C83.9023 27.9145 84.0327 27.5498 84.2924 27.3088C84.5521 27.0687 84.8741 26.9478 85.2576 26.9478V26.9478ZM85.2576 29.4735C85.5378 29.4735 85.75 29.3731 85.8962 29.1742C86.0414 28.9744 86.114 28.7119 86.114 28.3867C86.114 28.0381 86.0321 27.7756 85.8673 27.5991C85.7026 27.4226 85.4996 27.3339 85.2576 27.3339C85.0082 27.3339 84.8043 27.4235 84.6442 27.6027C84.4841 27.7819 84.4041 28.0498 84.4041 28.4046C84.4041 28.7585 84.485 29.0246 84.6479 29.2038C84.8108 29.3839 85.0138 29.4735 85.2576 29.4735Z" fill="white"/>
<path d="M89.531 29.7959H89.0916V29.3864H89.0786C88.8561 29.7027 88.5536 29.8613 88.1701 29.8613C87.9681 29.8613 87.782 29.8165 87.6098 29.726C87.4376 29.6364 87.3231 29.5119 87.2663 29.3533C87.2086 29.1956 87.1807 28.9904 87.1807 28.7377V27.0112H87.6712V28.5541C87.6712 28.8014 87.6833 28.9779 87.7075 29.0845C87.7326 29.1911 87.7969 29.2789 87.9002 29.3479C88.0035 29.4178 88.1273 29.4518 88.2707 29.4518C88.4568 29.4518 88.6309 29.39 88.7947 29.2673C88.9585 29.1436 89.0404 28.8874 89.0404 28.4994V27.0112H89.531V29.7959V29.7959Z" fill="white"/>
<path d="M91.8513 27.0974L91.6828 27.5337C91.5609 27.4647 91.4417 27.4307 91.3254 27.4307C91.1411 27.4307 91.0024 27.5104 90.9074 27.6681C90.8134 27.8267 90.7659 28.0489 90.7659 28.3338V29.796H90.2754V27.0114H90.7222V27.4307H90.7334C90.8897 27.109 91.0945 26.9478 91.3468 26.9478C91.5143 26.9478 91.6828 26.9979 91.8513 27.0974V27.0974Z" fill="white"/>
<path d="M93.7658 27.7904C93.7434 27.638 93.6792 27.5234 93.5731 27.4472C93.467 27.371 93.3189 27.3334 93.13 27.3334C92.9429 27.3334 92.7912 27.3639 92.6758 27.4248C92.5603 27.4866 92.5026 27.5753 92.5026 27.6927C92.5026 27.8029 92.5492 27.8817 92.6404 27.9292C92.7325 27.9767 92.914 28.0341 93.1849 28.1021C93.4902 28.1774 93.7183 28.2446 93.8709 28.3019C94.0227 28.3593 94.1409 28.4408 94.2246 28.5448C94.3093 28.6487 94.3522 28.7938 94.3522 28.9793C94.3522 29.2275 94.246 29.4371 94.0357 29.6065C93.8244 29.7767 93.5423 29.8609 93.1905 29.8609C92.8228 29.8609 92.5361 29.7865 92.3295 29.6369C92.1238 29.4873 91.9962 29.2624 91.9497 28.9632L92.4375 28.8924C92.4626 29.0868 92.538 29.232 92.6627 29.3287C92.7865 29.4246 92.9606 29.473 93.1849 29.473C93.399 29.473 93.5638 29.4291 93.6782 29.343C93.7927 29.2561 93.8505 29.1504 93.8505 29.0268C93.8505 28.9426 93.8234 28.8754 93.7713 28.8243C93.7183 28.7732 93.6522 28.7356 93.5731 28.7105C93.494 28.6845 93.3162 28.6397 93.0397 28.5752C92.6292 28.4802 92.3583 28.3656 92.2262 28.2312C92.094 28.0968 92.0288 27.9355 92.0288 27.7483C92.0288 27.5153 92.1247 27.3236 92.3174 27.173C92.5101 27.0225 92.7688 26.9473 93.0946 26.9473C93.44 26.9473 93.709 27.0127 93.9007 27.1435C94.0925 27.2734 94.207 27.4678 94.2451 27.7267L93.7658 27.7904Z" fill="white"/>
<path d="M97.4586 28.5228H95.2898C95.3103 28.8311 95.4015 29.0667 95.5644 29.2289C95.7273 29.3919 95.9302 29.4735 96.1741 29.4735C96.3612 29.4735 96.5185 29.4251 96.646 29.3301C96.7726 29.2351 96.8703 29.0909 96.9374 28.8982L97.4419 28.9583C97.3599 29.2495 97.2101 29.4726 96.9923 29.6276C96.7735 29.7835 96.5008 29.8614 96.1741 29.8614C95.7394 29.8614 95.3996 29.7333 95.1548 29.477C94.911 29.2208 94.7881 28.8705 94.7881 28.4261C94.7881 27.9862 94.9072 27.6305 95.1446 27.3572C95.382 27.0848 95.7152 26.9478 96.1462 26.9478C96.3574 26.9478 96.5604 26.9926 96.7558 27.0821C96.9513 27.1708 97.117 27.3232 97.2538 27.5373C97.3897 27.7514 97.4586 28.0802 97.4586 28.5228ZM96.9541 28.134C96.9336 27.8509 96.8424 27.6466 96.6795 27.5212C96.5166 27.3966 96.3389 27.3339 96.1462 27.3339C95.9153 27.3339 95.7254 27.4083 95.5765 27.557C95.4276 27.7057 95.341 27.8984 95.3177 28.134H96.9541Z" fill="white"/>
<path d="M100.78 26.9478C101.171 26.9478 101.495 27.0705 101.752 27.3151C102.01 27.5606 102.138 27.9091 102.138 28.3598C102.138 28.9081 101.999 29.2952 101.721 29.5218C101.443 29.7485 101.129 29.8614 100.78 29.8614C100.414 29.8614 100.098 29.7449 99.8288 29.5129C99.5588 29.2799 99.4248 28.9108 99.4248 28.4046C99.4248 27.9145 99.5551 27.5498 99.8148 27.3088C100.075 27.0687 100.397 26.9478 100.78 26.9478V26.9478ZM100.78 29.4735C101.06 29.4735 101.272 29.3731 101.419 29.1742C101.564 28.9744 101.636 28.7119 101.636 28.3867C101.636 28.0381 101.555 27.7756 101.39 27.5991C101.225 27.4226 101.022 27.3339 100.78 27.3339C100.531 27.3339 100.327 27.4235 100.167 27.6027C100.007 27.7819 99.9265 28.0498 99.9265 28.4046C99.9265 28.7585 100.008 29.0246 100.17 29.2038C100.333 29.3839 100.536 29.4735 100.78 29.4735Z" fill="white"/>
<path d="M105.072 29.796H104.578V28.1026C104.578 27.8177 104.525 27.6215 104.419 27.5149C104.312 27.4083 104.165 27.3545 103.976 27.3545C103.83 27.3545 103.692 27.3886 103.563 27.4575C103.432 27.5256 103.34 27.6215 103.285 27.746C103.231 27.8706 103.204 28.0462 103.204 28.2738V29.796H102.713V27.0114H103.155V27.4047H103.166C103.27 27.2524 103.397 27.1386 103.549 27.0624C103.7 26.9863 103.876 26.9478 104.077 26.9478C104.229 26.9478 104.38 26.9746 104.529 27.0266C104.679 27.0795 104.795 27.1583 104.88 27.2631C104.965 27.3679 105.018 27.4799 105.039 27.5991C105.061 27.7183 105.072 27.8786 105.072 28.082V29.796V29.796Z" fill="white"/>
<path d="M107.439 25.9478H108.819C109.061 25.9478 109.269 25.9594 109.444 25.9836C109.618 26.0069 109.785 26.0642 109.944 26.1565C110.103 26.2488 110.243 26.3751 110.362 26.5355C110.481 26.6968 110.574 26.8822 110.642 27.091C110.711 27.2998 110.744 27.5533 110.744 27.8508C110.744 28.4179 110.605 28.8838 110.325 29.2485C110.044 29.6131 109.563 29.7959 108.879 29.7959H107.439V25.9478V25.9478ZM107.969 29.339H108.825C108.999 29.339 109.155 29.3291 109.292 29.3076C109.43 29.287 109.569 29.2297 109.709 29.1374C109.851 29.0442 109.967 28.8919 110.06 28.6804C110.153 28.469 110.199 28.1885 110.199 27.84C110.199 27.6483 110.181 27.4682 110.146 27.3007C110.11 27.134 110.045 26.9817 109.949 26.8446C109.854 26.7066 109.745 26.6063 109.621 26.5427C109.497 26.4782 109.377 26.4396 109.26 26.4253C109.142 26.4119 108.992 26.4047 108.808 26.4047H107.969V29.339Z" fill="white"/>
<path d="M113.914 28.5228H111.745C111.765 28.8311 111.857 29.0667 112.019 29.2289C112.182 29.3919 112.385 29.4735 112.629 29.4735C112.816 29.4735 112.974 29.4251 113.101 29.3301C113.228 29.2351 113.325 29.0909 113.392 28.8982L113.897 28.9583C113.815 29.2495 113.665 29.4726 113.447 29.6276C113.229 29.7835 112.956 29.8614 112.629 29.8614C112.194 29.8614 111.855 29.7333 111.61 29.477C111.366 29.2208 111.243 28.8705 111.243 28.4261C111.243 27.9862 111.362 27.6305 111.6 27.3572C111.837 27.0848 112.17 26.9478 112.601 26.9478C112.813 26.9478 113.015 26.9926 113.211 27.0821C113.406 27.1708 113.572 27.3232 113.709 27.5373C113.845 27.7514 113.914 28.0802 113.914 28.5228H113.914ZM113.409 28.134C113.389 27.8509 113.298 27.6466 113.135 27.5212C112.972 27.3966 112.794 27.3339 112.601 27.3339C112.37 27.3339 112.181 27.4083 112.032 27.557C111.883 27.7057 111.796 27.8984 111.773 28.134H113.409Z" fill="white"/>
<path d="M116.856 27.0112L115.762 29.7959H115.304L114.205 27.0112H114.723L115.32 28.6222C115.432 28.9268 115.5 29.1338 115.522 29.2422H115.533C115.562 29.1302 115.612 28.9797 115.683 28.7906L116.354 27.0112H116.856Z" fill="white"/>
<path d="M119.812 28.5228H117.643C117.664 28.8311 117.755 29.0667 117.918 29.2289C118.081 29.3919 118.284 29.4735 118.528 29.4735C118.715 29.4735 118.872 29.4251 119 29.3301C119.126 29.2351 119.224 29.0909 119.291 28.8982L119.795 28.9583C119.713 29.2495 119.564 29.4726 119.346 29.6276C119.127 29.7835 118.854 29.8614 118.528 29.8614C118.093 29.8614 117.753 29.7333 117.508 29.477C117.264 29.2208 117.142 28.8705 117.142 28.4261C117.142 27.9862 117.261 27.6305 117.498 27.3572C117.735 27.0848 118.069 26.9478 118.5 26.9478C118.711 26.9478 118.914 26.9926 119.109 27.0821C119.305 27.1708 119.471 27.3232 119.607 27.5373C119.743 27.7514 119.812 28.0802 119.812 28.5228ZM119.308 28.134C119.287 27.8509 119.196 27.6466 119.033 27.5212C118.87 27.3966 118.692 27.3339 118.5 27.3339C118.269 27.3339 118.079 27.4083 117.93 27.557C117.781 27.7057 117.695 27.8984 117.671 28.134H119.308Z" fill="white"/>
<path d="M120.895 29.7959H120.403V25.9478H120.895V29.7959Z" fill="white"/>
<path d="M122.822 26.9478C123.213 26.9478 123.537 27.0705 123.794 27.3151C124.052 27.5606 124.18 27.9091 124.18 28.3598C124.18 28.9081 124.041 29.2952 123.763 29.5218C123.485 29.7485 123.171 29.8614 122.822 29.8614C122.456 29.8614 122.14 29.7449 121.871 29.5129C121.601 29.2799 121.467 28.9108 121.467 28.4046C121.467 27.9145 121.597 27.5498 121.857 27.3088C122.117 27.0687 122.439 26.9478 122.822 26.9478V26.9478ZM122.822 29.4735C123.102 29.4735 123.314 29.3731 123.461 29.1742C123.606 28.9744 123.678 28.7119 123.678 28.3867C123.678 28.0381 123.596 27.7756 123.432 27.5991C123.267 27.4226 123.064 27.3339 122.822 27.3339C122.573 27.3339 122.369 27.4235 122.209 27.6027C122.049 27.7819 121.969 28.0498 121.969 28.4046C121.969 28.7585 122.049 29.0246 122.212 29.2038C122.375 29.3839 122.578 29.4735 122.822 29.4735Z" fill="white"/>
<path d="M125.214 27.3702C125.398 27.0888 125.674 26.9473 126.04 26.9473C126.42 26.9473 126.721 27.0799 126.94 27.3451C127.16 27.6103 127.27 27.9552 127.27 28.3808C127.27 28.8341 127.149 29.1943 126.905 29.4604C126.661 29.7274 126.362 29.8609 126.008 29.8609C125.697 29.8609 125.447 29.7418 125.26 29.5043H125.247V30.8662H124.756V27.0109H125.204V27.3702H125.214V27.3702ZM125.975 29.473C126.204 29.473 126.394 29.3816 126.544 29.1979C126.694 29.0151 126.768 28.7428 126.768 28.3808C126.768 28.0394 126.697 27.7769 126.551 27.5932C126.407 27.4096 126.222 27.3173 125.997 27.3173C125.764 27.3173 125.573 27.4203 125.423 27.6246C125.272 27.8298 125.198 28.095 125.198 28.4202C125.198 28.7652 125.27 29.0268 125.413 29.2051C125.557 29.3834 125.744 29.473 125.975 29.473Z" fill="white"/>
<path d="M131.778 29.796H131.287V28.0372C131.287 27.9082 131.278 27.7971 131.26 27.7048C131.242 27.6134 131.195 27.5319 131.12 27.4611C131.044 27.3904 130.926 27.3545 130.766 27.3545C130.573 27.3545 130.408 27.4199 130.267 27.5489C130.128 27.6788 130.058 27.8885 130.058 28.1788V29.796H129.566V27.9853C129.566 27.7434 129.523 27.5776 129.434 27.4889C129.346 27.3993 129.221 27.3545 129.059 27.3545C128.849 27.3545 128.676 27.4253 128.54 27.5651C128.405 27.7048 128.337 27.9664 128.337 28.3499V29.796H127.846V27.0114H128.287V27.3993H128.299C128.495 27.0983 128.783 26.9478 129.163 26.9478C129.376 26.9478 129.551 26.989 129.688 27.0705C129.825 27.1511 129.925 27.2739 129.986 27.436C130.201 27.1108 130.498 26.9478 130.878 26.9478C131.178 26.9478 131.403 27.0257 131.554 27.1816C131.703 27.3375 131.778 27.5713 131.778 27.8822V29.796V29.796Z" fill="white"/>
<path d="M135.024 28.5228H132.855C132.876 28.8311 132.967 29.0667 133.13 29.2289C133.293 29.3919 133.496 29.4735 133.739 29.4735C133.927 29.4735 134.084 29.4251 134.211 29.3301C134.338 29.2351 134.436 29.0909 134.503 28.8982L135.007 28.9583C134.925 29.2495 134.775 29.4726 134.558 29.6276C134.339 29.7835 134.066 29.8614 133.739 29.8614C133.305 29.8614 132.965 29.7333 132.72 29.477C132.476 29.2208 132.354 28.8705 132.354 28.4261C132.354 27.9862 132.473 27.6305 132.71 27.3572C132.947 27.0848 133.281 26.9478 133.712 26.9478C133.923 26.9478 134.126 26.9926 134.321 27.0821C134.517 27.1708 134.682 27.3232 134.819 27.5373C134.955 27.7514 135.024 28.0802 135.024 28.5228ZM134.52 28.134C134.499 27.8509 134.408 27.6466 134.245 27.5212C134.082 27.3966 133.904 27.3339 133.712 27.3339C133.481 27.3339 133.291 27.4083 133.142 27.557C132.993 27.7057 132.906 27.8984 132.883 28.134H134.52Z" fill="white"/>
<path d="M137.979 29.796H137.485V28.1026C137.485 27.8177 137.432 27.6215 137.326 27.5149C137.219 27.4083 137.072 27.3545 136.883 27.3545C136.737 27.3545 136.599 27.3886 136.47 27.4575C136.34 27.5256 136.247 27.6215 136.193 27.746C136.139 27.8706 136.112 28.0462 136.112 28.2738V29.796H135.62V27.0114H136.062V27.4047H136.073C136.177 27.2524 136.304 27.1386 136.456 27.0624C136.608 26.9863 136.784 26.9478 136.984 26.9478C137.136 26.9478 137.287 26.9746 137.436 27.0266C137.586 27.0795 137.702 27.1583 137.787 27.2631C137.872 27.3679 137.925 27.4799 137.946 27.5991C137.969 27.7183 137.979 27.8786 137.979 28.082V29.796V29.796Z" fill="white"/>
<path d="M139.85 29.7903C139.705 29.8181 139.582 29.8324 139.482 29.8324C139.267 29.8324 139.111 29.7957 139.013 29.7231C138.914 29.6505 138.855 29.5582 138.832 29.4462C138.811 29.3342 138.8 29.1792 138.8 28.9794V27.3757H138.443V27.011H138.8V26.3175L139.291 26.0317V27.011H139.782V27.3757H139.291V29.0054C139.291 29.1452 139.306 29.2446 139.336 29.3038C139.366 29.362 139.442 29.3916 139.564 29.3916C139.635 29.3916 139.707 29.3844 139.782 29.3701L139.85 29.7903V29.7903Z" fill="white"/>
<path d="M10.7432 25.0809H13.5046V8.37238H15.4467C16.3823 8.37741 17.2169 8.50331 17.9553 8.75007C18.6987 9.00185 19.341 9.34428 19.8923 9.78239C20.4385 10.2155 20.8937 10.719 21.2578 11.283C21.6169 11.847 21.89 12.4513 22.0671 13.0858C22.2491 13.7253 22.3351 14.3699 22.3351 15.0195V15.4728C22.3351 15.8857 22.2845 16.3439 22.1884 16.8475C22.0873 17.3511 21.9305 17.8698 21.7231 18.4035C21.5158 18.9323 21.2427 19.4459 20.919 19.9394C20.5903 20.438 20.1958 20.8811 19.7406 21.2739C19.2854 21.6717 18.7645 21.9839 18.1677 22.2156C17.5759 22.4472 16.9134 22.5681 16.175 22.5731C16.1396 22.5731 16.0941 22.5681 16.0384 22.558C15.9828 22.5479 15.9373 22.5429 15.9019 22.5429H14.3543V25.0809H15.9019C16.9791 25.0457 17.9451 24.8845 18.7948 24.6025C19.6445 24.3205 20.393 23.9529 21.0404 23.4896C21.6877 23.0314 22.2491 22.5127 22.7195 21.9437C23.1848 21.3696 23.5793 20.7804 23.8928 20.166C24.2115 19.5517 24.4593 18.9474 24.6464 18.3582C24.8285 17.769 24.96 17.2252 25.0409 16.7267C25.1218 16.2281 25.1623 15.8102 25.1572 15.4728V15.08C25.1471 13.9318 24.9701 12.8844 24.6262 11.9377C24.2772 10.991 23.8119 10.15 23.2252 9.41983C22.6386 8.68965 21.9811 8.0753 21.2528 7.57172C20.5245 7.07318 19.776 6.69048 19.0072 6.43365C18.2334 6.17683 17.495 6.0459 16.7819 6.0459H10.7432V25.0809L10.7432 25.0809Z" fill="white"/>
<path d="M28.6208 19.4016L29.574 21.1208L37.7443 16.6728C37.4448 16.1361 37.0998 15.6359 36.7094 15.172C36.3145 14.7081 35.8788 14.3033 35.3931 13.9486C34.912 13.5984 34.3809 13.3255 33.809 13.1254C33.2325 12.9298 32.6107 12.8297 31.9434 12.8252C31.3897 12.8252 30.8223 12.9025 30.2458 13.0617C29.6648 13.2163 29.1111 13.4574 28.58 13.7848C28.0444 14.1077 27.5678 14.5262 27.1456 15.031C26.7235 15.5358 26.3876 16.1316 26.1425 16.8274C25.8929 17.5233 25.7658 18.3146 25.7612 19.2106C25.7658 20.0793 25.9246 20.8797 26.2333 21.6028C26.5419 22.326 26.9777 22.9536 27.536 23.4857C28.0943 24.0133 28.7479 24.4272 29.4969 24.7182C30.2458 25.0093 31.0583 25.1548 31.9434 25.1594C32.7514 25.1548 33.4731 25.0411 34.1131 24.8274C34.7577 24.6091 35.316 24.318 35.7926 23.9542C36.2737 23.5949 36.6686 23.1901 36.9863 22.7489C37.3041 22.3078 37.5401 21.8575 37.699 21.4027C37.8578 20.9434 37.935 20.5159 37.935 20.1111V19.5926L35.7835 19.4016C35.6382 19.9838 35.4794 20.4977 35.3069 20.9525C35.1299 21.4027 34.9074 21.7848 34.6396 22.0986C34.3673 22.4124 34.0178 22.6489 33.5866 22.8126C33.1508 22.9764 32.6061 23.0582 31.9434 23.0582C31.3034 23.0537 30.7406 22.9445 30.2549 22.7262C29.7692 22.5079 29.3653 22.2168 29.0339 21.853C28.7071 21.4846 28.462 21.0707 28.2986 20.6159C28.1306 20.1611 28.0489 19.6927 28.0489 19.2106C28.0489 18.6648 28.1306 18.1418 28.2986 17.6324C28.462 17.1231 28.7071 16.6637 29.0339 16.259C29.3653 15.8542 29.7692 15.5313 30.2549 15.2902C30.7406 15.0537 31.3034 14.9309 31.9434 14.9264C32.3701 14.9309 32.7196 14.9719 33.001 15.0537C33.2825 15.1311 33.5094 15.2357 33.6819 15.3584C33.8589 15.4812 34.0042 15.6131 34.1131 15.745C34.2266 15.8769 34.331 15.9952 34.4218 16.0998L28.6209 19.4016L28.6208 19.4016Z" fill="white"/>
<path d="M37.4346 13.0415L41.6642 23.6565C41.7961 23.9749 41.9553 24.2432 42.1509 24.457C42.3464 24.6707 42.5556 24.8299 42.7876 24.9391C43.0195 25.0482 43.2515 25.1028 43.4925 25.1028C43.7427 25.1028 43.9837 25.0482 44.2248 24.9391C44.4612 24.8299 44.6795 24.6707 44.8797 24.457C45.0798 24.2432 45.2435 23.9749 45.3754 23.6565L49.414 13.0415H46.9035L43.6017 22.3194L39.9451 13.0415H37.4346H37.4346Z" fill="white"/>
<path d="M58.4953 7.82619V18.0592C58.4953 18.746 58.4362 19.3918 58.3089 20.0012C58.1815 20.6061 57.9814 21.1427 57.7085 21.6066C57.4357 22.0705 57.0809 22.4389 56.6443 22.7027C56.2031 22.9665 55.6756 23.1029 55.0571 23.1075C54.7023 23.112 54.3112 23.0756 53.8837 22.9983C53.4562 22.9165 53.0423 22.7527 52.633 22.5072C52.2236 22.2616 51.8689 21.8932 51.5687 21.402C51.2686 20.9153 51.0685 20.265 50.9638 19.4509C50.9593 19.4054 50.9502 19.3508 50.9366 19.2872C50.9184 19.2235 50.9093 19.1689 50.9093 19.1234C50.9138 18.4958 51.023 17.9364 51.2276 17.4452C51.4368 16.954 51.7143 16.5401 52.0599 16.2036C52.4101 15.8625 52.7921 15.6078 53.2106 15.4304C53.6335 15.2576 54.0565 15.1667 54.484 15.1667C54.9343 15.1712 55.3709 15.2258 55.7938 15.3304C56.2168 15.435 56.5943 15.5623 56.9308 15.7124C57.2674 15.8625 57.5357 16.008 57.7313 16.149V13.8295C57.5494 13.6976 57.322 13.5749 57.0491 13.4612C56.7807 13.3474 56.4215 13.252 55.9758 13.1792C55.5301 13.1064 54.9479 13.07 54.2384 13.0655C53.7927 13.0655 53.3197 13.1428 52.824 13.2929C52.3283 13.443 51.8462 13.6749 51.3732 13.9842C50.9002 14.2889 50.4681 14.68 50.0816 15.1439C49.6995 15.6124 49.3902 16.1627 49.1629 16.7903C48.9309 17.4225 48.8127 18.1365 48.8081 18.9324C48.8127 18.9733 48.8218 19.0279 48.8354 19.087C48.8536 19.1462 48.8627 19.2053 48.8627 19.2599C48.8627 19.8056 48.9264 20.3514 49.0582 20.8971C49.1901 21.4429 49.3994 21.9659 49.6859 22.4662C49.9769 22.9619 50.3544 23.4122 50.8183 23.8079C51.2868 24.2081 51.8553 24.531 52.5238 24.7766C53.1924 25.0222 53.9746 25.1677 54.8661 25.2086H55.0844C55.7984 25.2041 56.4351 25.0995 56.9991 24.8948C57.563 24.6902 58.0633 24.4173 58.4908 24.0716C58.9183 23.726 59.2822 23.3394 59.5823 22.9119C59.887 22.4844 60.1326 22.0478 60.3237 21.5975C60.5101 21.1473 60.6511 20.7152 60.7375 20.3014C60.8285 19.892 60.8694 19.5236 60.8694 19.2053V7.82617H58.4954L58.4953 7.82619Z" fill="white"/>
<path d="M62.894 10.3321C62.8986 10.6141 62.9668 10.8506 63.0987 11.0416C63.226 11.228 63.3943 11.3736 63.6035 11.4691C63.8082 11.5646 64.0265 11.6146 64.2584 11.6146C64.4813 11.6146 64.6951 11.5646 64.8952 11.4691C65.0998 11.3736 65.2636 11.228 65.3955 11.0416C65.5228 10.8506 65.591 10.6141 65.5956 10.3321C65.591 10.0683 65.5182 9.84999 65.3773 9.67717C65.2363 9.50434 65.0634 9.37245 64.8588 9.28604C64.6541 9.19963 64.454 9.15869 64.2584 9.15869C63.9992 9.15869 63.7718 9.19963 63.5672 9.28604C63.3625 9.37245 63.1988 9.50434 63.0805 9.67717C62.9577 9.84999 62.8986 10.0683 62.894 10.3321ZM63.0851 24.8221H65.2135V13.061H63.0851V24.8221Z" fill="white"/>
<path d="M66.9951 22.7442V24.8499H71.7978C71.9115 24.8499 72.048 24.859 72.2071 24.8772C72.3663 24.8908 72.5301 24.8999 72.6983 24.9045C73.0895 24.909 73.5033 24.8772 73.9399 24.8089C74.3765 24.7407 74.7904 24.5998 75.1861 24.3905C75.5818 24.1813 75.9092 23.8675 76.173 23.4491C76.4322 23.0352 76.5869 22.4804 76.6278 21.7845C76.6323 21.1433 76.5141 20.593 76.2731 20.1336C76.032 19.6697 75.6318 19.2649 75.0724 18.9056C74.513 18.5464 73.758 18.2052 72.8075 17.8732C72.5619 17.7959 72.289 17.7232 71.9797 17.6549C71.675 17.5822 71.3612 17.5049 71.052 17.4184C70.7381 17.332 70.4471 17.2274 70.1787 17.1001C69.9149 16.9727 69.7012 16.8181 69.5375 16.6316C69.3737 16.4497 69.2919 16.2223 69.2873 15.9585C69.2919 15.6947 69.3874 15.4901 69.5784 15.3491C69.7694 15.2036 70.0241 15.1035 70.3425 15.0489C70.6608 14.9944 71.0201 14.9671 71.4158 14.9716H76.0548V13.0615H71.6068C70.9746 13.0569 70.3834 13.0887 69.8285 13.1615C69.2737 13.2343 68.7825 13.3798 68.3595 13.589C67.9366 13.8028 67.6046 14.112 67.3635 14.5259C67.1225 14.9352 66.9997 15.4764 66.9951 16.1496C66.9997 16.7817 67.1407 17.3275 67.4181 17.7777C67.7001 18.2325 68.0957 18.61 68.6097 18.9147C69.119 19.2149 69.7285 19.4605 70.4334 19.6515C70.9837 19.7925 71.4931 19.9289 71.9661 20.0608C72.4345 20.1927 72.8484 20.3383 73.2031 20.4929C73.5579 20.6475 73.8353 20.8294 74.0354 21.0387C74.231 21.2433 74.331 21.4935 74.3356 21.7845C74.331 22.0665 74.2492 22.2803 74.0946 22.4258C73.9399 22.5713 73.7444 22.6714 73.5033 22.726C73.2623 22.776 73.0121 22.8033 72.7529 22.7987C72.6301 22.7987 72.5028 22.7896 72.3709 22.7714C72.239 22.7578 72.1116 22.7487 71.9888 22.7442H66.9951L66.9951 22.7442Z" fill="white"/>
<path d="M77.4043 19.0457C77.4043 19.4732 77.4589 19.9326 77.5771 20.4329C77.6954 20.9332 77.8864 21.4289 78.1502 21.9246C78.414 22.4204 78.7596 22.8797 79.1962 23.2981C79.6328 23.7211 80.1649 24.0622 80.7971 24.3351C81.4293 24.6034 82.1706 24.758 83.0256 24.8035H85.5088V22.7023H83.7897C83.7442 22.7069 83.6851 22.716 83.6078 22.7296C83.535 22.7478 83.4668 22.7569 83.4076 22.7569C82.8801 22.7524 82.4207 22.6705 82.0251 22.5113C81.6294 22.3476 81.2974 22.1338 81.0245 21.8655C80.7516 21.5972 80.5333 21.3016 80.365 20.9787C80.1968 20.6512 80.074 20.3192 80.0012 19.9872C79.9239 19.6506 79.8875 19.3368 79.8875 19.0457C79.8921 18.4636 79.983 17.9588 80.1604 17.5404C80.3378 17.1174 80.5697 16.7626 80.8608 16.4761C81.1519 16.1941 81.4702 15.9667 81.8159 15.7985C82.1615 15.6302 82.5072 15.5119 82.8483 15.4392C83.1939 15.3664 83.5077 15.33 83.7897 15.3346H85.5088V13.2334H83.2166C82.398 13.2379 81.6749 13.3744 81.0382 13.6291C80.406 13.8883 79.8602 14.2294 79.4009 14.6569C78.9415 15.0844 78.5686 15.5574 78.273 16.0668C77.9774 16.5807 77.759 17.0947 77.6181 17.6131C77.4725 18.1316 77.4043 18.6091 77.4043 19.0457V19.0457Z" fill="white"/>
<path d="M85.8623 18.609C85.8623 19.4958 85.9851 20.3236 86.2307 21.0922C86.4763 21.8608 86.8583 22.5384 87.3768 23.1206C87.8953 23.7073 88.5547 24.1621 89.3643 24.4895C90.1693 24.8215 91.1289 24.9898 92.2477 24.9944C93.0163 24.9898 93.7122 24.8625 94.3307 24.6169C94.9492 24.3667 95.4904 24.0347 95.9543 23.6118C96.4228 23.1888 96.8093 22.7113 97.1232 22.1837C97.4324 21.6516 97.6689 21.1013 97.8236 20.5282C97.9828 19.9597 98.0601 19.4003 98.0601 18.8546C98.0555 17.9586 97.9327 17.1718 97.6917 16.4896C97.4506 15.8119 97.1232 15.2252 96.7048 14.7386C96.2909 14.2565 95.8133 13.8563 95.2858 13.5516C94.7537 13.2468 94.1943 13.0195 93.6121 12.8739C93.0254 12.7284 92.4433 12.6602 91.8657 12.6602C91.0743 12.6647 90.3194 12.8012 89.6053 13.074C88.8867 13.3515 88.25 13.7471 87.6861 14.2611C87.1267 14.7795 86.6855 15.4072 86.358 16.1348C86.0351 16.8671 85.8714 17.6903 85.8623 18.609L85.8623 18.609ZM88.1545 18.609C88.1545 18.1724 88.2182 17.7312 88.3455 17.2809C88.4774 16.8352 88.6866 16.4214 88.9777 16.0393C89.2642 15.6618 89.6463 15.3526 90.1238 15.1206C90.5968 14.8887 91.1789 14.7659 91.8657 14.7613C92.6934 14.7659 93.3938 14.9296 93.9669 15.248C94.5399 15.5709 94.972 16.0166 95.2676 16.5942C95.5632 17.1672 95.7133 17.8403 95.7133 18.609C95.7087 19.4367 95.6087 20.128 95.4086 20.6828C95.2085 21.2377 94.931 21.6743 94.5763 22.0018C94.2261 22.3247 93.8168 22.5521 93.3529 22.6931C92.889 22.8295 92.3933 22.8977 91.8657 22.8932C91.279 22.8886 90.7742 22.7977 90.3466 22.6157C89.9237 22.4384 89.5689 22.1973 89.2869 21.8972C89.0004 21.5924 88.7776 21.2559 88.6138 20.883C88.4456 20.51 88.3273 20.128 88.2591 19.7369C88.1863 19.3412 88.1545 18.9682 88.1545 18.609V18.609Z" fill="white"/>
<path d="M99.5098 13.0283V19.7958C99.5143 20.7554 99.6371 21.5786 99.8827 22.2608C100.133 22.943 100.478 23.4978 100.929 23.9254C101.379 24.3574 101.911 24.6712 102.525 24.8713C103.139 25.0714 103.817 25.1715 104.558 25.1715C105.29 25.167 105.95 25.0351 106.541 24.7804C107.128 24.5211 107.632 24.1664 108.055 23.7161C108.474 23.2613 108.797 22.7383 109.02 22.1425C109.247 21.5513 109.361 20.9146 109.361 20.2324V13.0283H107.232V19.9868C107.232 20.3279 107.173 20.6735 107.055 21.0328C106.941 21.3921 106.768 21.7241 106.541 22.0288C106.314 22.3381 106.032 22.5882 105.7 22.7747C105.368 22.9657 104.99 23.0658 104.558 23.0703C103.953 23.0658 103.435 22.9475 102.994 22.7065C102.552 22.47 102.216 22.138 101.975 21.7059C101.734 21.2739 101.615 20.7645 101.611 20.1778V13.0283H99.5098V13.0283Z" fill="white"/>
<path d="M111.078 13.0281V24.7892H113.207V19.4134C113.202 19.1678 113.211 18.8631 113.229 18.5038C113.252 18.1445 113.311 17.7625 113.407 17.3623C113.502 16.9621 113.657 16.5755 113.88 16.2071C114.098 15.8387 114.407 15.5249 114.798 15.2611C115.194 15.0019 115.699 14.829 116.317 14.7472H116.89V12.646H116.072C115.69 12.6506 115.344 12.7006 115.035 12.8052C114.721 12.9052 114.448 13.0371 114.207 13.1963C113.971 13.3555 113.766 13.5192 113.602 13.692C113.434 13.8649 113.302 14.0286 113.207 14.1741V13.028H111.078V13.0281Z" fill="white"/>
<path d="M117.42 22.7378V24.8436H122.223C122.336 24.8436 122.473 24.8526 122.632 24.8708C122.791 24.8845 122.955 24.8936 123.123 24.8981C123.514 24.9027 123.928 24.8708 124.365 24.8026C124.801 24.7344 125.215 24.5934 125.611 24.3842C126.007 24.175 126.334 23.8612 126.598 23.4428C126.857 23.0289 127.012 22.474 127.053 21.7782C127.057 21.1369 126.939 20.5866 126.698 20.1273C126.457 19.6634 126.057 19.2586 125.497 18.8993C124.938 18.54 124.183 18.1989 123.232 17.8669C122.987 17.7896 122.714 17.7168 122.405 17.6486C122.1 17.5758 121.786 17.4985 121.477 17.4121C121.163 17.3257 120.872 17.2211 120.604 17.0937C120.34 16.9664 120.126 16.8118 119.962 16.6253C119.799 16.4434 119.717 16.216 119.712 15.9522C119.717 15.6884 119.812 15.4837 120.003 15.3428C120.194 15.1972 120.449 15.0972 120.767 15.0426C121.086 14.988 121.445 14.9607 121.841 14.9653H126.48V13.0551H122.032C121.399 13.0506 120.808 13.0824 120.253 13.1552C119.698 13.2279 119.207 13.3735 118.784 13.5827C118.361 13.7964 118.029 14.1057 117.788 14.5196C117.547 14.9289 117.424 15.4701 117.42 16.1432C117.424 16.7754 117.565 17.3211 117.843 17.7714C118.125 18.2262 118.521 18.6037 119.034 18.9084C119.544 19.2086 120.153 19.4542 120.858 19.6452C121.409 19.7862 121.918 19.9226 122.391 20.0545C122.859 20.1864 123.273 20.3319 123.628 20.4866C123.983 20.6412 124.26 20.8231 124.46 21.0323C124.656 21.237 124.756 21.4871 124.76 21.7782C124.756 22.0602 124.674 22.2739 124.519 22.4195C124.365 22.565 124.169 22.6651 123.928 22.7196C123.687 22.7697 123.437 22.7969 123.178 22.7924C123.055 22.7924 122.928 22.7833 122.796 22.7651C122.664 22.7515 122.536 22.7424 122.414 22.7378H117.42L117.42 22.7378Z" fill="white"/>
<path d="M130.517 19.4407L131.472 21.1598L139.659 16.7119C139.358 16.1752 139.013 15.6749 138.622 15.211C138.226 14.7471 137.789 14.3424 137.303 13.9876C136.821 13.6374 136.289 13.3645 135.715 13.1644C135.138 12.9689 134.515 12.8688 133.846 12.8643C133.291 12.8643 132.723 12.9416 132.145 13.1008C131.563 13.2554 131.008 13.4964 130.476 13.8239C129.94 14.1468 129.462 14.5652 129.039 15.07C128.616 15.5749 128.279 16.1707 128.034 16.8665C127.784 17.5623 127.656 18.3537 127.652 19.2497C127.656 20.1183 127.816 20.9188 128.125 21.6419C128.434 22.365 128.871 22.9927 129.43 23.5248C129.99 24.0524 130.644 24.4662 131.395 24.7573C132.145 25.0484 132.959 25.1939 133.846 25.1985C134.656 25.1939 135.379 25.0802 136.02 24.8664C136.666 24.6481 137.225 24.3571 137.703 23.9932C138.185 23.6339 138.581 23.2292 138.899 22.788C139.217 22.3468 139.454 21.8966 139.613 21.4418C139.772 20.9824 139.85 20.5549 139.85 20.1502V19.6317L137.694 19.4407C137.548 20.0228 137.389 20.5367 137.216 20.9916C137.039 21.4418 136.816 21.8238 136.548 22.1376C136.275 22.4515 135.925 22.688 135.493 22.8517C135.056 23.0154 134.51 23.0973 133.846 23.0973C133.205 23.0927 132.641 22.9836 132.154 22.7653C131.668 22.547 131.263 22.2559 130.931 21.8921C130.604 21.5237 130.358 21.1098 130.194 20.655C130.026 20.2002 129.944 19.7317 129.944 19.2497C129.944 18.7039 130.026 18.1809 130.194 17.6715C130.358 17.1621 130.604 16.7028 130.931 16.298C131.263 15.8932 131.668 15.5703 132.154 15.3293C132.641 15.0928 133.205 14.97 133.846 14.9654C134.274 14.97 134.624 15.0109 134.906 15.0928C135.188 15.1701 135.415 15.2747 135.588 15.3975C135.765 15.5203 135.911 15.6522 136.02 15.7841C136.134 15.916 136.238 16.0342 136.329 16.1388L130.517 19.4407V19.4407Z" fill="white"/>
</g>
<defs>
<clipPath id="clip0">
<rect width="140" height="31.3497" fill="white"/>
</clipPath>
</defs>
</svg>
