<svg width="181" height="81" viewBox="0 0 181 81" fill="none" xmlns="http://www.w3.org/2000/svg">
<rect x="0.581055" y="0.237305" width="180" height="80" rx="8" fill="#333333"/>
<g clip-path="url(#clip0)">
<path d="M32.5581 40.3182C32.5581 41.0466 33.1246 41.613 33.8529 41.613C34.5812 41.613 35.1477 41.0466 35.1477 40.3182C35.1477 39.5899 34.5812 39.0234 33.8529 39.0234C33.1246 39.0234 32.5581 39.5899 32.5581 40.3182ZM43.483 39.0234C42.7546 39.0234 42.1882 39.5899 42.1882 40.3182C42.1882 41.0466 42.7546 41.613 43.483 41.613C44.2113 41.613 44.7778 41.0466 44.7778 40.3182C44.7778 39.5899 44.2113 39.0234 43.483 39.0234ZM43.483 48.8153C42.7546 48.8153 42.1882 49.3818 42.1882 50.1101C42.1882 50.8385 42.7546 51.4049 43.483 51.4049C44.2113 51.4049 44.7778 50.8385 44.7778 50.1101C44.7778 49.3818 44.2113 48.8153 43.483 48.8153Z" fill="white"/>
<path d="M46.2342 28.2604C44.9394 26.6419 42.5926 26.561 41.2169 27.8558L41.055 28.0176L40.7313 28.2604C39.4365 29.3124 37.4943 29.2315 36.2805 28.0176V27.9367C35.8759 27.5321 35.3094 27.2084 34.7429 27.0465C34.662 27.0465 34.5001 26.9656 34.4192 26.9656H33.1244C33.0435 26.9656 32.9626 26.9656 32.8816 27.0465H32.7198C32.6389 27.0465 32.5579 27.1275 32.477 27.1275C32.477 27.1275 32.3961 27.1275 32.3961 27.2084C32.3152 27.2084 32.2342 27.2893 32.1533 27.2893C32.1533 27.2893 32.0724 27.2893 32.0724 27.3702C31.9915 27.4512 31.9105 27.4512 31.8296 27.5321C31.8296 27.5321 31.7487 27.5321 31.7487 27.613C31.6678 27.6939 31.5868 27.6939 31.5059 27.7749L31.425 27.8558L31.2631 28.0176L30.9394 28.2604C29.6446 29.3124 27.7024 29.2315 26.5695 28.0176C26.5695 28.0176 26.4886 28.0176 26.4886 27.9367L26.3267 27.7749C25.8412 27.3702 25.2747 27.0465 24.6273 26.9656H24.3036H23.2516H23.1707C23.1707 27.0465 23.0897 27.0465 23.0088 27.1275H22.9279C22.5233 27.2893 22.1186 27.4512 21.7949 27.7749L21.714 27.8558L21.4712 28.0986C21.1475 28.4223 20.9857 28.8269 20.8238 29.1506C20.8238 29.2315 20.7429 29.3124 20.7429 29.3934C20.7429 29.4743 20.662 29.5552 20.662 29.7171C20.5811 30.2835 20.5811 30.85 20.7429 31.4165C20.7429 31.4974 20.8238 31.5783 20.8238 31.6592V31.7402C20.8238 31.8211 20.9048 31.902 20.9048 31.9829C20.9857 32.0639 20.9857 32.1448 21.0666 32.3066C21.2285 32.3876 21.3903 32.5494 21.4712 32.6303L21.6331 32.7922L21.7949 32.954C23.0088 34.1679 23.0088 36.272 21.714 37.5668C21.5522 37.7286 21.3094 37.9714 21.2285 38.1332C21.1475 38.2142 21.1475 38.2951 21.0666 38.4569V38.5379C20.9857 38.6188 20.9857 38.6997 20.9048 38.7806V38.8616C20.9048 38.9425 20.8238 39.0234 20.8238 39.1043V39.1853C20.8238 39.2662 20.8238 39.3471 20.7429 39.428V40.6419C20.7429 40.7228 20.7429 40.8038 20.8238 40.8847V40.9656C20.9857 41.5321 21.3094 42.0986 21.7949 42.5841C23.0897 43.8789 23.0897 45.9829 21.7949 47.2777L21.714 47.3587L21.5522 47.5205V47.6014C21.4712 47.6824 21.3903 47.7633 21.3903 47.8442C21.3903 47.8442 21.3903 47.9251 21.3094 47.9251C21.2285 48.0061 21.2285 48.087 21.1475 48.1679L21.0666 48.2488C21.0666 48.3298 20.9857 48.3298 20.9857 48.4107C20.9857 48.4916 20.9048 48.4916 20.9048 48.5725C20.9048 48.6535 20.9048 48.6535 20.8238 48.7344C20.662 49.0581 20.5811 49.4627 20.5811 49.7864V50.4338C20.662 50.6766 20.662 50.9194 20.8238 51.0812C20.8238 51.1621 20.9048 51.2431 20.9048 51.2431C20.9048 51.2431 20.9048 51.324 20.9857 51.324C20.9857 51.4049 21.0666 51.4858 21.0666 51.5668C21.0666 51.5668 21.0666 51.6477 21.1475 51.6477C21.2285 51.8095 21.3094 51.8905 21.3903 51.9714C21.3903 51.9714 21.3903 52.0523 21.4712 52.0523C21.4712 52.0523 21.4712 52.1332 21.5522 52.1332C21.5522 52.2142 21.6331 52.2142 21.6331 52.2142L21.714 52.2951C21.7949 52.376 21.8759 52.376 21.8759 52.4569L21.9568 52.5379C21.9568 52.5379 22.0377 52.5379 22.0377 52.6188C22.1186 52.6997 22.1996 52.7806 22.2805 52.7806C22.2805 52.7806 22.3614 52.7806 22.3614 52.8616C22.4423 52.9425 22.5233 52.9425 22.6042 53.0234H22.6851C22.766 53.1043 22.847 53.1043 23.0088 53.1043C23.0897 53.1043 23.2516 53.1853 23.3325 53.1853H23.4134C23.4943 53.1853 23.5753 53.1853 23.6562 53.2662H24.3845C24.6273 53.2662 24.7891 53.1853 25.0319 53.1853H25.1128C25.1938 53.1853 25.2747 53.1043 25.3556 53.1043H25.4365C25.5175 53.1043 25.5984 53.0234 25.6793 53.0234H25.7602C25.9221 52.9425 26.1649 52.7806 26.3267 52.6997L26.5695 52.4569L26.6504 52.376C27.9452 51.0003 30.0493 51.0003 31.3441 52.376C32.8007 53.9136 35.2285 53.8327 36.6042 52.1332C37.5753 50.9194 37.5753 49.139 36.6042 47.8442C35.3094 46.2257 32.9626 46.1448 31.5868 47.4396L31.425 47.6014L31.1013 47.8442C29.8065 48.8962 27.8643 48.8153 26.6504 47.6014L26.4886 47.4396L26.2458 47.1159C25.1938 45.8211 25.2747 43.8789 26.4886 42.665C27.2169 42.0176 27.5406 41.1275 27.5406 40.2373V40.0754V39.9945C27.5406 39.1853 27.2169 38.376 26.5695 37.8095C26.5695 37.7286 26.4886 37.7286 26.4886 37.6477L26.2458 37.324C25.1938 36.0292 25.2747 34.087 26.4886 32.8731L26.5695 32.7922L26.6504 32.7113C27.9452 31.3355 30.0493 31.3355 31.3441 32.7113L31.425 32.7922L31.5059 32.8731L31.6678 33.035C31.7487 33.035 31.7487 33.1159 31.8296 33.1159C31.9105 33.1159 31.9105 33.1968 31.9915 33.1968C32.0724 33.1968 32.0724 33.2777 32.1533 33.2777C32.2342 33.2777 32.2342 33.3587 32.3152 33.3587C32.3961 33.3587 32.3961 33.4396 32.477 33.4396C32.5579 33.4396 32.5579 33.5205 32.6389 33.5205C32.7198 33.5205 32.7198 33.5205 32.8007 33.6014C32.8816 33.6014 32.8816 33.6014 32.9626 33.6824H34.3383C34.4192 33.6824 34.5001 33.6824 34.5811 33.6014H34.7429C34.8238 33.6014 34.9048 33.5205 34.9857 33.5205H35.0666C35.1475 33.5205 35.2285 33.4396 35.3903 33.3587C35.714 33.1968 36.0377 32.954 36.2805 32.7113L36.3614 32.6303C37.6562 31.2546 39.7602 31.2546 41.055 32.6303C42.4308 34.2488 44.9394 34.1679 46.2342 32.4685C47.2053 31.2546 47.2053 29.4743 46.2342 28.2604Z" fill="white"/>
<path d="M64.685 38.2952C64.1994 37.8096 63.7948 37.4859 63.2283 37.2431C62.7428 37.0004 62.1763 36.8385 61.448 36.8385C60.8006 36.8385 60.1532 37.0004 59.6676 37.2431C59.1821 37.4859 58.7775 37.8096 58.4538 38.2952C58.1301 38.6998 57.8873 39.1853 57.7254 39.7518C57.5636 40.3183 57.4827 40.8848 57.4827 41.4512C57.4827 42.0177 57.5636 42.5842 57.8064 43.1507C57.9682 43.7171 58.2919 44.1218 58.6156 44.5264C58.9393 44.931 59.4249 45.2547 59.9104 45.4975C60.396 45.7403 60.9624 45.8212 61.6098 45.8212C62.3382 45.8212 62.9046 45.6593 63.3902 45.4166C63.8757 45.1738 64.3613 44.8501 64.7659 44.3645L66.4653 46.1449C65.8179 46.8732 65.0896 47.3588 64.2803 47.6825C63.4711 48.0062 62.5809 48.168 61.6098 48.168C60.6387 48.168 59.6676 48.0062 58.8584 47.6825C58.0491 47.3588 57.3208 46.8732 56.7543 46.3067C56.1879 45.7403 55.7023 45.0119 55.3786 44.2027C55.0549 43.3934 54.8931 42.4223 54.8931 41.4512C54.8931 40.4801 55.0549 39.509 55.3786 38.6998C55.7023 37.8905 56.1879 37.1622 56.7543 36.5148C57.3208 35.9483 58.0491 35.4628 58.8584 35.1391C59.6676 34.8154 60.6387 34.6536 61.6098 34.6536C62.5809 34.6536 63.4711 34.8154 64.2803 35.1391C65.1705 35.4628 65.8988 36.0293 66.5462 36.6767L64.685 38.2952ZM70.1879 41.2894C70.1879 41.9368 70.2688 42.5842 70.5116 43.0697C70.6734 43.6362 70.9971 44.1218 71.3208 44.5264C71.6445 44.931 72.1301 45.2547 72.6156 45.4166C73.1012 45.6593 73.7486 45.7403 74.396 45.7403C75.0434 45.7403 75.6098 45.6593 76.1763 45.4166C76.6618 45.1738 77.1474 44.8501 77.4711 44.5264C77.7948 44.1218 78.1185 43.6362 78.2804 43.0697C78.4422 42.5033 78.604 41.9368 78.604 41.2894C78.604 40.642 78.5231 39.9946 78.2804 39.509C78.1185 38.9426 77.7948 38.457 77.4711 38.0524C77.1474 37.6478 76.6618 37.3241 76.1763 37.1622C75.6908 36.9194 75.0434 36.8385 74.396 36.8385C73.7486 36.8385 73.1821 36.9194 72.6156 37.1622C72.1301 37.405 71.6445 37.7287 71.3208 38.0524C70.9971 38.457 70.6734 38.9426 70.5116 39.509C70.3497 40.0755 70.1879 40.642 70.1879 41.2894ZM67.5983 41.2894C67.5983 40.3183 67.7601 39.4281 68.0838 38.6189C68.4075 37.8096 68.8931 37.0813 69.5405 36.4339C70.1879 35.7865 70.8353 35.301 71.7254 34.9773C72.5347 34.6536 73.4249 34.4108 74.396 34.4108C75.3671 34.4108 76.2572 34.5726 77.0665 34.9773C77.8757 35.301 78.604 35.7865 79.2514 36.4339C79.8988 37.0813 80.3035 37.8096 80.7081 38.6189C81.0318 39.4281 81.1936 40.3183 81.1936 41.2894C81.1936 42.2605 81.0318 43.1507 80.7081 43.9599C80.3844 44.7692 79.8988 45.4975 79.2514 46.1449C78.604 46.7923 77.9567 47.1969 77.0665 47.6015C76.2572 47.9252 75.3671 48.168 74.396 48.168C73.4249 48.168 72.5347 48.0062 71.7254 47.6015C70.9162 47.2778 70.1879 46.7923 69.5405 46.1449C68.8931 45.4975 68.4884 44.8501 68.0838 43.9599C67.841 43.1507 67.5983 42.2605 67.5983 41.2894ZM83.7023 47.8443H86.1301V34.8963H83.7023V47.8443ZM83.1358 30.2027C83.1358 29.7171 83.2977 29.3125 83.6214 28.9079C83.9451 28.5842 84.3497 28.3414 84.8353 28.3414C85.3208 28.3414 85.7254 28.5033 86.0491 28.9079C86.3728 29.2316 86.5347 29.7171 86.5347 30.2027C86.5347 30.6882 86.3728 31.0929 86.0491 31.4975C85.7254 31.8212 85.3208 32.064 84.8353 32.064C84.3497 32.064 83.9451 31.9021 83.6214 31.4975C83.2977 31.1738 83.1358 30.6882 83.1358 30.2027ZM89.5289 34.8963H91.9566V36.9194H92.0376C92.3613 36.1911 92.8468 35.6247 93.6561 35.22C94.3844 34.8154 95.2746 34.5726 96.3266 34.5726C96.974 34.5726 97.5405 34.6536 98.1069 34.8963C98.6734 35.0582 99.159 35.3819 99.5636 35.7865C99.9682 36.1911 100.292 36.6767 100.616 37.3241C100.858 37.9715 101.02 38.6998 101.02 39.59V47.9252H98.5925V40.2374C98.5925 39.6709 98.5116 39.1044 98.3497 38.6998C98.1879 38.2952 97.9451 37.8905 97.7023 37.6478C97.4595 37.405 97.1358 37.1622 96.7312 37.0813C96.4075 37.0004 96.0029 36.9194 95.5983 36.9194C95.1127 36.9194 94.6272 37.0004 94.2225 37.1622C93.8179 37.3241 93.4133 37.5668 93.0896 37.9715C92.7659 38.2952 92.5231 38.7807 92.3613 39.3472C92.1994 39.9137 92.1185 40.5611 92.1185 41.2894V48.0062H89.6908V34.8963H89.5289ZM110.003 45.8212C110.65 45.8212 111.217 45.7403 111.783 45.4975C112.35 45.2547 112.754 44.931 113.159 44.5264C113.483 44.1218 113.806 43.6362 113.968 43.0697C114.13 42.5033 114.292 41.9368 114.292 41.2085C114.292 40.5611 114.211 39.9137 113.968 39.3472C113.806 38.7807 113.483 38.2952 113.159 37.8905C112.754 37.4859 112.35 37.1622 111.783 36.9194C111.217 36.6767 110.65 36.5957 110.003 36.5957C109.355 36.5957 108.789 36.6767 108.223 36.9194C107.656 37.1622 107.251 37.4859 106.847 37.8905C106.523 38.2952 106.199 38.7807 106.038 39.3472C105.876 39.9137 105.714 40.4801 105.714 41.2085C105.714 41.8559 105.795 42.5033 106.038 43.0697C106.199 43.6362 106.523 44.1218 106.847 44.5264C107.171 44.931 107.656 45.2547 108.223 45.4975C108.708 45.6593 109.355 45.8212 110.003 45.8212ZM116.72 47.7634H114.292V45.9021H114.211C113.725 46.6304 113.078 47.116 112.269 47.5206C111.46 47.9252 110.569 48.0871 109.679 48.0871C108.708 48.0871 107.737 47.9252 106.928 47.6015C106.118 47.2778 105.39 46.7923 104.824 46.1449C104.257 45.4975 103.772 44.7692 103.529 43.9599C103.205 43.1507 103.043 42.2605 103.043 41.2894C103.043 40.3183 103.205 39.4281 103.529 38.5379C103.853 37.7287 104.257 37.0004 104.824 36.353C105.39 35.7056 106.118 35.22 106.928 34.8963C107.737 34.5726 108.627 34.4108 109.679 34.4108C110.569 34.4108 111.46 34.5726 112.269 34.9773C113.078 35.3819 113.725 35.9483 114.13 36.5957H114.211V26.8848H116.639V47.7634H116.72ZM129.101 40.2374C129.101 39.6709 129.02 39.1853 128.858 38.6998C128.697 38.2142 128.454 37.8096 128.13 37.4859C127.806 37.1622 127.402 36.9194 126.997 36.6767C126.512 36.5148 126.026 36.353 125.379 36.353C124.812 36.353 124.246 36.4339 123.76 36.6767C123.275 36.9194 122.87 37.1622 122.465 37.5668C122.142 37.8905 121.818 38.2952 121.656 38.7807C121.494 39.2663 121.332 39.6709 121.332 40.0755H129.101V40.2374ZM121.332 42.2605C121.332 42.827 121.494 43.3125 121.737 43.7981C121.98 44.2836 122.303 44.6882 122.708 45.0119C123.113 45.3356 123.598 45.5784 124.084 45.7403C124.65 45.9021 125.136 45.983 125.702 45.983C126.431 45.983 127.159 45.8212 127.725 45.4166C128.292 45.0929 128.777 44.6073 129.263 44.0408L131.124 45.4975C129.749 47.2778 127.806 48.168 125.379 48.168C124.327 48.168 123.436 48.0062 122.627 47.6825C121.818 47.3588 121.09 46.8732 120.523 46.2258C119.957 45.5784 119.471 44.931 119.228 44.0408C118.905 43.2316 118.743 42.3414 118.743 41.3703C118.743 40.3992 118.905 39.509 119.228 38.6998C119.552 37.8905 120.038 37.1622 120.604 36.5148C121.171 35.8674 121.899 35.4628 122.708 35.0582C123.517 34.7345 124.408 34.5726 125.379 34.5726C126.512 34.5726 127.483 34.7345 128.292 35.1391C129.101 35.5437 129.749 36.0293 130.234 36.6767C130.72 37.3241 131.124 38.0524 131.367 38.8616C131.61 39.6709 131.691 40.4801 131.691 41.3703V42.2605H121.332ZM141.24 38.1333C140.916 37.8096 140.592 37.4859 140.188 37.2431C139.783 37.0004 139.217 36.8385 138.65 36.8385C138.084 36.8385 137.598 37.0004 137.113 37.2431C136.708 37.4859 136.465 37.8096 136.465 38.2952C136.465 38.6998 136.627 39.0235 136.87 39.1853C137.113 39.4281 137.436 39.59 137.76 39.7518C138.084 39.9137 138.488 39.9946 138.812 40.0755C139.217 40.1564 139.54 40.2374 139.783 40.2374C140.269 40.3992 140.835 40.4801 141.24 40.7229C141.725 40.8848 142.13 41.1275 142.454 41.4512C142.777 41.7749 143.02 42.0986 143.263 42.5033C143.425 42.9079 143.587 43.3934 143.587 44.0408C143.587 44.7692 143.425 45.4166 143.101 45.9021C142.777 46.3877 142.373 46.8732 141.887 47.1969C141.402 47.5206 140.835 47.7634 140.188 47.9252C139.54 48.0871 138.893 48.168 138.327 48.168C137.275 48.168 136.303 48.0062 135.494 47.6825C134.685 47.3588 133.957 46.7923 133.309 45.9021L135.171 44.3645C135.575 44.7692 135.98 45.0929 136.465 45.4166C136.951 45.7403 137.517 45.9021 138.246 45.9021C138.569 45.9021 138.893 45.9021 139.217 45.8212C139.54 45.7403 139.783 45.6593 140.026 45.4975C140.269 45.3356 140.431 45.1738 140.592 45.0119C140.754 44.7692 140.835 44.5264 140.835 44.2836C140.835 43.9599 140.754 43.6362 140.512 43.3934C140.269 43.1507 140.026 42.9888 139.702 42.827C139.379 42.6651 139.055 42.5842 138.731 42.5033L137.76 42.2605C137.275 42.0986 136.708 42.0177 136.303 41.8559C135.818 41.694 135.413 41.4512 135.09 41.2085C134.766 40.9657 134.442 40.5611 134.199 40.1564C133.957 39.7518 133.876 39.1853 133.876 38.6189C133.876 37.9715 134.038 37.3241 134.28 36.8385C134.523 36.353 134.928 35.9483 135.413 35.6247C135.899 35.301 136.384 35.0582 136.951 34.8963C137.517 34.7345 138.165 34.6536 138.731 34.6536C139.621 34.6536 140.431 34.8154 141.24 35.1391C142.049 35.4628 142.697 36.0293 143.182 36.7576L141.24 38.1333ZM145.934 27.2085H148.361V40.3183L153.864 34.8154H157.182L151.275 40.642L157.749 47.6015H154.269L148.361 40.9657V47.6015H145.934V27.2085Z" fill="white"/>
</g>
<defs>
<clipPath id="clip0">
<rect width="140" height="26.7052" fill="white" transform="translate(20.5811 26.8848)"/>
</clipPath>
</defs>
</svg>
