<svg width="75" height="75" viewBox="0 0 75 75" fill="none" xmlns="http://www.w3.org/2000/svg">
<path d="M37.0102 0.748051C46.8926 0.748052 56.1846 4.59683 63.1726 11.5848C70.1622 18.5728 74.011 27.8648 74.011 37.7472C74.011 47.6297 70.1622 56.9233 63.1742 63.9113C56.1862 70.8993 46.8942 74.748 37.0102 74.748C27.1261 74.748 17.8358 70.8993 10.8478 63.9113C3.85977 56.9233 0.0109887 47.6313 0.0109895 37.7489C0.0109904 27.8664 3.85977 18.5745 10.8478 11.5865C17.8358 4.59683 27.1277 0.74805 37.0102 0.748051ZM37.0102 72.234C46.2211 72.234 54.8829 68.6466 61.3962 62.1333C67.9095 55.62 71.497 46.9598 71.497 37.7472C71.497 28.5346 67.9095 19.8745 61.3962 13.3612C54.8829 6.84788 46.2227 3.26043 37.0102 3.26043C27.7976 3.26043 19.1374 6.84787 12.6241 13.3612C6.11081 19.8745 2.52336 28.5346 2.52336 37.7472C2.52336 46.9598 6.11081 55.6183 12.6241 62.1333C19.1391 68.6466 27.7992 72.234 37.0102 72.234Z" fill="url(#paint0_linear)"/>
<ellipse cx="37.011" cy="37.7482" rx="34.4336" ry="34.6129" fill="#121212"/>
<path d="M60.827 41.2072V41.1347C60.827 40.9298 60.7182 40.7409 60.5411 40.6374L49.2061 34.034V31.2243V21.0023C49.2061 21.0002 49.205 20.9981 49.205 20.9959V20.9202C49.205 20.7153 49.0962 20.5253 48.919 20.4229L37.3056 13.6638C37.1273 13.5602 36.9075 13.5592 36.7293 13.6616L25.102 20.3407C24.9237 20.4432 24.8128 20.6342 24.8128 20.8401V20.9202C24.8128 20.9212 24.8128 20.9212 24.8128 20.9223V33.9529L13.481 40.4698C13.3028 40.5723 13.1918 40.7633 13.1929 40.9693V41.0461C13.1929 41.0482 13.1929 41.0493 13.1929 41.0514V54.4961C13.1929 54.701 13.3017 54.8899 13.4789 54.9934L25.0998 61.7568C25.1105 61.7632 25.1212 61.7685 25.1318 61.7739C25.1468 61.7813 25.1617 61.7877 25.1777 61.7931C25.1809 61.7941 25.1831 61.7952 25.1863 61.7963C25.2161 61.808 25.246 61.8155 25.277 61.8219C25.278 61.8219 25.2791 61.8229 25.2802 61.8229C25.2812 61.8229 25.2834 61.8229 25.2844 61.8229C25.3196 61.8293 25.3549 61.8336 25.3901 61.8336C25.3933 61.8336 25.3965 61.8326 25.3986 61.8326C25.3997 61.8326 25.4007 61.8326 25.4018 61.8326C25.405 61.8326 25.4071 61.8315 25.4103 61.8315C25.4338 61.8304 25.4562 61.8293 25.4797 61.8251C25.485 61.824 25.4893 61.8229 25.4947 61.8219C25.5149 61.8176 25.5363 61.8133 25.5565 61.808C25.5619 61.8059 25.5672 61.8037 25.5726 61.8027C25.5918 61.7963 25.611 61.7899 25.6291 61.7813C25.6323 61.7803 25.6355 61.7781 25.6387 61.776C25.6569 61.7675 25.6761 61.7579 25.6931 61.7472C25.6953 61.7461 25.6974 61.744 25.6995 61.7429L37.0121 55.2377L48.3428 61.8315C48.3588 61.8411 48.3748 61.8486 48.3919 61.856C48.3961 61.8582 48.4004 61.8614 48.4057 61.8635C48.4111 61.8656 48.4164 61.8678 48.4218 61.8699C48.4282 61.872 48.4346 61.8731 48.441 61.8752C48.4527 61.8795 48.4634 61.8838 48.474 61.887C48.4826 61.8891 48.4911 61.8902 48.4997 61.8923C48.5146 61.8955 48.5306 61.8998 48.5455 61.9019C48.5594 61.904 48.5722 61.9051 48.5861 61.9062C48.6021 61.9072 48.6181 61.9104 48.6352 61.9104C48.7344 61.9104 48.8337 61.8848 48.9222 61.8336L60.54 55.1524C60.7182 55.0499 60.8292 54.8557 60.8292 54.6498V41.2168C60.8292 41.2158 60.8292 41.2158 60.8292 41.2147C60.8292 41.2136 60.8292 41.2126 60.8292 41.2115C60.827 41.2094 60.827 41.2083 60.827 41.2072ZM48.0547 31.554V34.1141L37.5915 40.1316V28.0133L48.0547 21.9969V31.554ZM36.4348 40.1262L25.9674 34.0351L25.9653 21.9233L36.4348 28.0165V40.1262ZM35.8607 41.1283L25.3943 47.1468L14.9205 41.0514L25.3869 35.0318L35.8607 41.1283ZM38.1699 41.1357L48.633 35.1161L59.1026 41.2083L48.6362 47.2269L38.1699 41.1357ZM37.0142 27.0177L26.5415 20.9234L37.0089 14.9037L47.4816 20.9981L37.0142 27.0177ZM14.3443 42.0535L24.8128 48.1456V60.1774L14.356 54.0917L14.3443 42.0535ZM25.9642 60.1817V48.1585L36.4337 42.1346V54.161L25.9642 60.1817ZM37.5915 54.1663V42.1356L48.0557 48.2246V60.2532L37.5915 54.1663ZM59.6756 54.2368L49.2072 60.2596V48.2332L59.6756 42.2125V54.2368Z" fill="#F1D050"/>
<defs>
<linearGradient id="paint0_linear" x1="63.1739" y1="11.5851" x2="10.8479" y2="63.911" gradientUnits="userSpaceOnUse">
<stop/>
<stop offset="1" stop-color="#515151"/>
</linearGradient>
</defs>
</svg>
