<svg width="75" height="75" viewBox="0 0 75 75" fill="none" xmlns="http://www.w3.org/2000/svg">
<path d="M37.3942 0.10059C47.2766 0.100591 56.5686 3.94937 63.5566 10.9374C70.5463 17.9254 74.395 27.2173 74.395 37.0998C74.395 46.9822 70.5462 56.2758 63.5583 63.2638C56.5703 70.2518 47.2783 74.1006 37.3942 74.1006C27.5101 74.1006 18.2198 70.2518 11.2318 63.2638C4.2438 56.2758 0.39503 46.9838 0.39503 37.1014C0.395031 27.219 4.2438 17.927 11.2318 10.939C18.2198 3.94937 27.5118 0.100589 37.3942 0.10059ZM37.3942 71.5866C46.6051 71.5866 55.2669 67.9991 61.7802 61.4858C68.2935 54.9725 71.881 46.3123 71.881 37.0998C71.881 27.8872 68.2936 19.227 61.7802 12.7137C55.2669 6.20041 46.6068 2.61297 37.3942 2.61297C28.1816 2.61296 19.5215 6.20041 13.0082 12.7137C6.49485 19.227 2.9074 27.8872 2.9074 37.0998C2.9074 46.3123 6.49484 54.9708 13.0082 61.4858C19.5231 67.9991 28.1833 71.5866 37.3942 71.5866Z" fill="url(#paint0_linear)"/>
<circle cx="37.3949" cy="37.1007" r="34.6129" fill="#121212"/>
<g clip-path="url(#clip0)">
<path d="M32.8557 34.1306L37.5363 44.3363L44.4883 40.3847H44.5016V32.4771L32.8557 34.1306Z" fill="#2BBDF7"/>
<path d="M53.4804 26.5474L49.1421 24.9427L44.5015 24.5693V32.477V49.208L51.4623 53.1641L57.0142 42.0249L53.4937 31.308L53.4804 26.5474Z" fill="#2891F9"/>
<path d="M53.0759 24.5693L51.4624 28.5254V53.1018L58.4233 49.1458V24.5693H53.0759Z" fill="#2BBDF7"/>
<path d="M51.4623 20.6177L44.5015 24.5693L51.4623 28.5253L58.4232 24.5693L51.4623 20.6177Z" fill="#2B6DEF"/>
<path d="M37.5363 36.4286L30.5754 28.7476L16.6492 24.5693V49.1458L23.6101 53.1018L25.6059 39.5001L30.5754 40.3847L37.5363 44.3363V36.4286Z" fill="#2891F9"/>
<path d="M23.6101 20.6177L16.6492 24.5693L37.5363 36.4286L40.6922 34.6417L44.5016 32.477L23.6101 20.6177Z" fill="#2B6DEF"/>
<path d="M23.6101 36.4287V53.1019L30.5754 49.1459V40.3848L23.6101 36.4287Z" fill="#2BBDF7"/>
</g>
<defs>
<linearGradient id="paint0_linear" x1="63.5579" y1="10.9376" x2="11.232" y2="63.2635" gradientUnits="userSpaceOnUse">
<stop/>
<stop offset="1" stop-color="#515151"/>
</linearGradient>
<clipPath id="clip0">
<rect width="41.7742" height="32.5464" fill="white" transform="translate(16.6492 20.6177)"/>
</clipPath>
</defs>
</svg>
