<svg width="75" height="75" viewBox="0 0 75 75" fill="none" xmlns="http://www.w3.org/2000/svg">
<path d="M37.0712 0.227543C46.9536 0.227544 56.2456 4.07632 63.2336 11.0643C70.2233 18.0523 74.072 27.3443 74.072 37.2267C74.072 47.1091 70.2232 56.4028 63.2353 63.3908C56.2473 70.3788 46.9553 74.2275 37.0712 74.2275C27.1871 74.2275 17.8968 70.3788 10.9088 63.3908C3.9208 56.4028 0.0720315 47.1108 0.0720323 37.2284C0.0720332 27.3459 3.9208 18.054 10.9088 11.066C17.8968 4.07632 27.1888 0.227543 37.0712 0.227543ZM37.0712 71.7135C46.2821 71.7135 54.9439 68.1261 61.4572 61.6128C67.9706 55.0994 71.558 46.4393 71.558 37.2267C71.558 28.0141 67.9706 19.354 61.4572 12.8407C54.9439 6.32737 46.2838 2.73992 37.0712 2.73992C27.8586 2.73992 19.1985 6.32736 12.6852 12.8407C6.17185 19.354 2.5844 28.0141 2.5844 37.2267C2.5844 46.4393 6.17185 55.0978 12.6852 61.6128C19.2001 68.1261 27.8603 71.7135 37.0712 71.7135Z" fill="url(#paint0_linear)"/>
<circle cx="37.0719" cy="37.2276" r="34.6129" fill="white"/>
<path d="M47.2878 24.8988C47.0754 25.0254 46.89 25.1925 46.7423 25.3908C46.5946 25.589 46.4873 25.8144 46.4268 26.0541C46.3662 26.2938 46.3534 26.5431 46.3892 26.7877C46.425 27.0323 46.5087 27.2675 46.6355 27.4797C48.3881 30.4288 49.3111 33.7968 49.3067 37.2274C49.3067 47.6076 41.0133 56.0525 30.8205 56.0525C29.7879 56.0525 28.7695 55.9678 27.7689 55.7993C33.6922 51.638 37.333 44.7565 37.333 37.2274C37.333 29.6983 33.6922 22.8158 27.7689 18.6554C28.7773 18.4862 29.798 18.4015 30.8205 18.4022C35.1239 18.4022 39.1609 19.8668 42.4939 22.636C42.8779 22.955 43.3728 23.1085 43.8699 23.0626C44.367 23.0167 44.8255 22.7752 45.1445 22.3913C45.4635 22.0073 45.617 21.5124 45.5711 21.0153C45.5252 20.5182 45.2837 20.0597 44.8998 19.7407C40.8825 16.4021 36.0134 14.6372 30.8205 14.6372C27.8329 14.6372 24.9376 15.2264 22.2127 16.3879C21.8738 16.5334 21.5851 16.7751 21.3824 17.0831C21.1796 17.3911 21.0716 17.7517 21.0718 18.1205C21.072 18.4892 21.1804 18.8498 21.3835 19.1575C21.5866 19.4653 21.8756 19.7067 22.2145 19.8518C29.1111 22.7876 33.568 29.607 33.568 37.2274C33.568 44.8469 29.1111 51.6672 22.2145 54.603C21.8756 54.7481 21.5866 54.9895 21.3835 55.2972C21.1804 55.605 21.072 55.9656 21.0718 56.3343C21.0716 56.703 21.1796 57.0637 21.3824 57.3717C21.5851 57.6796 21.8738 57.9213 22.2127 58.0668C24.9336 59.2278 27.8622 59.8234 30.8205 59.8176C43.0897 59.8176 53.0718 49.683 53.0718 37.2274C53.0718 33.1028 51.9649 29.0648 49.8696 25.552C49.743 25.3395 49.5758 25.1541 49.3776 25.0062C49.1793 24.8584 48.9538 24.7511 48.714 24.6904C48.4743 24.6298 48.2249 24.6169 47.9802 24.6527C47.7354 24.6884 47.5001 24.7721 47.2878 24.8988Z" fill="black"/>
<defs>
<linearGradient id="paint0_linear" x1="63.2349" y1="11.0645" x2="10.909" y2="63.3905" gradientUnits="userSpaceOnUse">
<stop/>
<stop offset="1" stop-color="#515151"/>
</linearGradient>
</defs>
</svg>
