<svg width="125" height="125" viewBox="0 0 125 125" fill="none" xmlns="http://www.w3.org/2000/svg">
<path d="M62.3326 0.621104C78.8924 0.621105 94.4627 7.07041 106.172 18.78C117.885 30.4896 124.334 46.06 124.334 62.6197C124.334 79.1795 117.885 94.7526 106.175 106.462C94.4655 118.172 78.8951 124.621 62.3326 124.621C45.7701 124.621 30.2025 118.172 18.4929 106.462C6.78328 94.7526 0.333988 79.1822 0.33399 62.6225C0.333991 46.0627 6.78329 30.4924 18.4929 18.7828C30.2025 7.0704 45.7729 0.621102 62.3326 0.621104ZM62.3326 120.408C77.7671 120.408 92.2815 114.397 103.196 103.483C114.11 92.5686 120.121 78.057 120.121 62.6197C120.121 47.1824 114.11 32.6708 103.196 21.7566C92.2815 10.8424 77.7699 4.83103 62.3326 4.83103C46.8953 4.83103 32.3837 10.8424 21.4695 21.7566C10.5553 32.6708 4.54391 47.1824 4.54391 62.6197C4.54391 78.057 10.5553 92.5658 21.4695 103.483C32.3865 114.397 46.8981 120.408 62.3326 120.408Z" fill="url(#paint0_linear)"/>
<circle cx="62.334" cy="62.6211" r="58" fill="black"/>
<mask id="mask0" mask-type="alpha" maskUnits="userSpaceOnUse" x="4" y="4" width="117" height="117">
<circle cx="62.3965" cy="62.6836" r="58" fill="black"/>
</mask>
<g mask="url(#mask0)">
<circle cx="62.3965" cy="62.6836" r="58" fill="black"/>
</g>
<path d="M96.9969 67.5893V67.4827C96.9969 67.1816 96.8369 66.904 96.5766 66.7519L79.9202 57.0485V52.9197V37.8989C79.9202 37.8958 79.9187 37.8926 79.9187 37.8895V37.7781C79.9187 37.4771 79.7587 37.1979 79.4984 37.0474L62.4328 27.1151C62.1709 26.963 61.8479 26.9614 61.586 27.1119L44.5 36.9267C44.2381 37.0772 44.0751 37.3579 44.0751 37.6605V37.7781C44.0751 37.7797 44.0751 37.7797 44.0751 37.7813V56.9294L27.4234 66.5057C27.1615 66.6563 26.9984 66.937 27 67.2396V67.3525C27 67.3557 27 67.3572 27 67.3604V87.1169C27 87.4179 27.16 87.6955 27.4203 87.8476L44.4969 97.7862C44.5126 97.7956 44.5282 97.8035 44.5439 97.8113C44.5659 97.8223 44.5878 97.8317 44.6113 97.8395C44.616 97.8411 44.6192 97.8427 44.6239 97.8442C44.6678 97.8615 44.7117 97.8725 44.7572 97.8819C44.7587 97.8819 44.7603 97.8834 44.7619 97.8834C44.7634 97.8834 44.7666 97.8834 44.7682 97.8834C44.8199 97.8928 44.8716 97.8991 44.9234 97.8991C44.9281 97.8991 44.9328 97.8975 44.9359 97.8975C44.9375 97.8975 44.9391 97.8975 44.9406 97.8975C44.9453 97.8975 44.9485 97.896 44.9532 97.896C44.9877 97.8944 45.0206 97.8928 45.0551 97.8866C45.063 97.885 45.0692 97.8834 45.0771 97.8819C45.1069 97.8756 45.1382 97.8693 45.168 97.8615C45.1759 97.8583 45.1837 97.8552 45.1915 97.8536C45.2198 97.8442 45.248 97.8348 45.2746 97.8223C45.2794 97.8207 45.2841 97.8176 45.2888 97.8144C45.3154 97.8019 45.3436 97.7878 45.3687 97.7721C45.3719 97.7705 45.375 97.7674 45.3781 97.7658L62.0016 88.2067L78.6517 97.896C78.6752 97.9101 78.6987 97.9211 78.7238 97.932C78.7301 97.9352 78.7363 97.9399 78.7442 97.943C78.752 97.9462 78.7599 97.9493 78.7677 97.9524C78.7771 97.9556 78.7865 97.9571 78.7959 97.9603C78.8132 97.9665 78.8289 97.9728 78.8445 97.9775C78.8571 97.9807 78.8696 97.9822 78.8822 97.9854C78.9041 97.9901 78.9276 97.9963 78.9496 97.9995C78.97 98.0026 78.9888 98.0042 79.0092 98.0057C79.0327 98.0073 79.0562 98.012 79.0813 98.012C79.2272 98.012 79.373 97.9744 79.5031 97.8991L96.575 88.0812C96.8369 87.9307 97 87.6453 97 87.3427V67.6034C97 67.6018 97 67.6018 97 67.6003C97 67.5987 97 67.5971 97 67.5956C96.9969 67.5924 96.9969 67.5909 96.9969 67.5893ZM78.2283 53.4043V57.1661L62.853 66.0087V48.2013L78.2283 39.3604V53.4043ZM61.1532 66.0008L45.7717 57.0501L45.7686 39.2522L61.1532 48.206V66.0008ZM60.3096 67.4733L44.9297 76.3173L29.5388 67.3604L44.9187 58.5147L60.3096 67.4733ZM63.703 67.4842L79.0782 58.6386L94.4628 67.5909L79.0829 76.435L63.703 67.4842ZM62.0047 46.7383L46.6154 37.7829L61.9969 28.9372L77.3862 37.8926L62.0047 46.7383ZM28.692 68.8328L44.0751 77.7851V95.4654L28.7092 86.5225L28.692 68.8328ZM45.767 95.4717V77.8039L61.1517 68.952V86.6245L45.767 95.4717ZM62.853 86.6323V68.9535L78.2298 77.9011V95.5768L62.853 86.6323ZM95.3049 86.7358L79.9218 95.5862V77.9137L95.3049 69.0664V86.7358Z" fill="#F1D050"/>
<defs>
<linearGradient id="paint0_linear" x1="106.175" y1="18.7804" x2="18.4932" y2="106.462" gradientUnits="userSpaceOnUse">
<stop/>
<stop offset="1" stop-color="#515151"/>
</linearGradient>
</defs>
</svg>
