<svg width="125" height="125" viewBox="0 0 125 125" fill="none" xmlns="http://www.w3.org/2000/svg">
<path d="M62.3326 0.621104C78.8924 0.621105 94.4627 7.07041 106.172 18.78C117.885 30.4896 124.334 46.06 124.334 62.6197C124.334 79.1795 117.885 94.7526 106.175 106.462C94.4655 118.172 78.8951 124.621 62.3326 124.621C45.7701 124.621 30.2025 118.172 18.4929 106.462C6.7833 94.7526 0.333996 79.1822 0.333997 62.6225C0.333999 46.0627 6.7833 30.4924 18.4929 18.7828C30.2025 7.0704 45.7729 0.621102 62.3326 0.621104ZM62.3326 120.408C77.7671 120.408 92.2815 114.397 103.196 103.483C114.11 92.5686 120.121 78.057 120.121 62.6197C120.121 47.1824 114.11 32.6708 103.196 21.7566C92.2815 10.8424 77.7699 4.83103 62.3326 4.83103C46.8953 4.83102 32.3837 10.8424 21.4695 21.7566C10.5553 32.6708 4.54392 47.1824 4.54392 62.6197C4.54392 78.057 10.5553 92.5658 21.4695 103.483C32.3865 114.397 46.8981 120.408 62.3326 120.408Z" fill="url(#paint0_linear)"/>
<circle cx="62.334" cy="62.6211" r="58" fill="#121212"/>
<g clip-path="url(#clip0)">
<path d="M54.7284 57.6429L62.5716 74.7444L74.2208 68.1228H74.2432V54.8721L54.7284 57.6429Z" fill="#2BBDF7"/>
<path d="M89.2889 44.9361L82.0193 42.2472L74.2432 41.6216V54.8723V82.908L85.9073 89.5371L95.2104 70.8714L89.3113 52.9133L89.2889 44.9361Z" fill="#2891F9"/>
<path d="M88.6111 41.6216L85.9073 48.2507V89.4328L97.5715 82.8037V41.6216H88.6111Z" fill="#2BBDF7"/>
<path d="M85.9073 35L74.2432 41.6216L85.9073 48.2507L97.5715 41.6216L85.9073 35Z" fill="#2B6DEF"/>
<path d="M62.5715 61.4939L50.9073 48.6231L27.5715 41.6216V82.8037L39.2357 89.4328L42.58 66.6407L50.9073 68.123L62.5715 74.7446V61.4939Z" fill="#2891F9"/>
<path d="M39.2357 35L27.5715 41.6216L62.5715 61.4939L67.8599 58.4997L74.2432 54.8723L39.2357 35Z" fill="#2B6DEF"/>
<path d="M39.2357 61.4941V89.4331L50.9073 82.804V68.1232L39.2357 61.4941Z" fill="#2BBDF7"/>
</g>
<defs>
<linearGradient id="paint0_linear" x1="106.175" y1="18.7804" x2="18.4932" y2="106.462" gradientUnits="userSpaceOnUse">
<stop/>
<stop offset="1" stop-color="#515151"/>
</linearGradient>
<clipPath id="clip0">
<rect width="70" height="54.5371" fill="white" transform="translate(27.5715 35)"/>
</clipPath>
</defs>
</svg>
