<svg width="125" height="125" viewBox="0 0 125 125" fill="none" xmlns="http://www.w3.org/2000/svg">
<path d="M62.3326 0.620615C78.8924 0.620617 94.4627 7.06992 106.172 18.7795C117.885 30.4892 124.334 46.0595 124.334 62.6192C124.334 79.179 117.885 94.7521 106.175 106.462C94.4655 118.171 78.8951 124.621 62.3326 124.621C45.7701 124.621 30.2025 118.171 18.4929 106.462C6.78328 94.7521 0.333988 79.1817 0.33399 62.622C0.333991 46.0622 6.78329 30.4919 18.4929 18.7823C30.2025 7.06991 45.7729 0.620614 62.3326 0.620615ZM62.3326 120.408C77.7671 120.408 92.2815 114.397 103.196 103.482C114.11 92.5681 120.121 78.0565 120.121 62.6192C120.121 47.1819 114.11 32.6703 103.196 21.7561C92.2815 10.8419 77.7699 4.83054 62.3326 4.83054C46.8953 4.83054 32.3837 10.8419 21.4695 21.7561C10.5553 32.6703 4.54391 47.1819 4.54391 62.6192C4.54391 78.0565 10.5553 92.5654 21.4695 103.482C32.3865 114.397 46.8981 120.408 62.3326 120.408Z" fill="url(#paint0_linear)"/>
<circle cx="62.3339" cy="62.6208" r="58" fill="#121212"/>
<circle cx="62.3339" cy="62.6208" r="58" fill="white"/>
<g clip-path="url(#clip0)">
<path d="M78.1619 43.5196C77.8329 43.7157 77.5457 43.9747 77.3168 44.2818C77.0879 44.589 76.9218 44.9382 76.8279 45.3095C76.7341 45.6809 76.7143 46.0671 76.7698 46.4461C76.8253 46.8251 76.9549 47.1895 77.1513 47.5183C79.8668 52.0875 81.2968 57.3057 81.29 62.6208C81.29 78.7034 68.4407 91.7875 52.6484 91.7875C51.0486 91.7875 49.4707 91.6563 47.9205 91.3952C57.0978 84.9479 62.7386 74.2861 62.7386 62.6208C62.7386 50.9556 57.0978 40.2923 47.9205 33.8465C49.4828 33.5843 51.0642 33.453 52.6484 33.4542C59.3159 33.4542 65.5707 35.7233 70.7346 40.0138C71.3295 40.5081 72.0963 40.7458 72.8665 40.6747C73.6366 40.6036 74.347 40.2295 74.8413 39.6346C75.3356 39.0397 75.5733 38.2729 75.5022 37.5027C75.4311 36.7326 75.057 36.0222 74.4621 35.5279C68.238 30.3552 60.694 27.6208 52.6484 27.6208C48.0196 27.6208 43.5338 28.5338 39.3119 30.3333C38.787 30.5588 38.3397 30.9332 38.0255 31.4104C37.7113 31.8875 37.544 32.4463 37.5443 33.0176C37.5446 33.5889 37.7125 34.1476 38.0272 34.6244C38.342 35.1012 38.7896 35.4752 39.3148 35.7C50 40.2486 56.9053 50.8142 56.9053 62.6208C56.9053 74.4261 50 84.9931 39.3148 89.5417C38.7896 89.7665 38.342 90.1405 38.0272 90.6173C37.7125 91.0941 37.5446 91.6528 37.5443 92.2241C37.544 92.7953 37.7113 93.3542 38.0255 93.8313C38.3397 94.3085 38.787 94.6829 39.3119 94.9083C43.5276 96.7071 48.065 97.63 52.6484 97.6208C71.6578 97.6208 87.1234 81.919 87.1234 62.6208C87.1234 56.2304 85.4084 49.9742 82.1621 44.5317C81.966 44.2025 81.707 43.9151 81.3998 43.6861C81.0926 43.457 80.7432 43.2907 80.3717 43.1968C80.0002 43.1028 79.6139 43.0829 79.2347 43.1383C78.8555 43.1937 78.491 43.3233 78.1619 43.5196Z" fill="black"/>
</g>
<defs>
<linearGradient id="paint0_linear" x1="106.175" y1="18.7799" x2="18.4932" y2="106.461" gradientUnits="userSpaceOnUse">
<stop/>
<stop offset="1" stop-color="#515151"/>
</linearGradient>
<clipPath id="clip0">
<rect width="70" height="70" fill="white" transform="translate(27.3339 27.6208)"/>
</clipPath>
</defs>
</svg>
