<svg width="452" height="161" viewBox="0 0 452 161" fill="none" xmlns="http://www.w3.org/2000/svg">
<path d="M450.5 80.5C450.5 91.0003 444.53 101.208 433.274 110.687C422.025 120.16 405.658 128.759 385.303 136.009C344.605 150.505 288.283 159.5 226 159.5C163.717 159.5 107.395 150.505 66.6972 136.009C46.3417 128.759 29.9753 120.16 18.7264 110.687C7.47029 101.208 1.5 91.0003 1.5 80.5C1.5 69.9997 7.47029 59.7923 18.7264 50.3131C29.9753 40.84 46.3417 32.2414 66.6972 24.9909C107.395 10.4946 163.717 1.5 226 1.5C288.283 1.5 344.605 10.4946 385.303 24.9909C405.658 32.2414 422.025 40.84 433.274 50.3131C444.53 59.7923 450.5 69.9997 450.5 80.5Z" stroke="url(#paint0_linear)" stroke-width="3"/>
<defs>
<linearGradient id="paint0_linear" x1="226" y1="0" x2="226" y2="161" gradientUnits="userSpaceOnUse">
<stop/>
<stop offset="1" stop-color="#515151"/>
</linearGradient>
</defs>
</svg>
