<svg width="163" height="452" viewBox="0 0 163 452" fill="none" xmlns="http://www.w3.org/2000/svg">
<path d="M81.5 450.5C70.854 450.5 60.5139 444.521 50.918 433.267C41.327 422.018 32.622 405.652 25.2818 385.297C10.6061 344.601 1.5 288.281 1.50001 226C1.50001 163.719 10.6061 107.399 25.2819 66.7027C32.622 46.3484 41.327 29.9825 50.918 18.7334C60.5139 7.47851 70.854 1.5 81.5 1.5C92.146 1.5 102.486 7.47851 112.082 18.7334C121.673 29.9825 130.378 46.3484 137.718 66.7027C152.394 107.399 161.5 163.719 161.5 226C161.5 288.281 152.394 344.601 137.718 385.297C130.378 405.652 121.673 422.018 112.082 433.267C102.486 444.521 92.146 450.5 81.5 450.5Z" stroke="url(#paint0_linear)" stroke-width="3"/>
<defs>
<linearGradient id="paint0_linear" x1="163" y1="226" x2="5.38002e-06" y2="226" gradientUnits="userSpaceOnUse">
<stop/>
<stop offset="1" stop-color="#515151"/>
</linearGradient>
</defs>
</svg>
