<svg width="275" height="203" viewBox="0 0 275 203" fill="none" xmlns="http://www.w3.org/2000/svg">
<g filter="url(#filter0_d)">
<path d="M203 104.502C203 109.962 200.463 114.938 196.035 118.16L136.633 161.387C128.178 167.538 116.822 167.538 108.367 161.387L48.9647 118.156C44.5407 114.935 42 109.959 42 104.498C42 99.0379 44.5372 94.0616 48.9647 90.8403L108.367 47.6132C116.822 41.4623 128.178 41.4623 136.633 47.6132L196.039 90.8438C200.463 94.0616 203 99.0414 203 104.502Z" fill="url(#paint0_linear)"/>
<path d="M203 104.502C203 109.962 200.463 114.938 196.035 118.16L136.633 161.387C128.178 167.538 116.822 167.538 108.367 161.387L48.9647 118.156C44.5407 114.935 42 109.959 42 104.498C42 99.0379 44.5372 94.0616 48.9647 90.8403L108.367 47.6132C116.822 41.4623 128.178 41.4623 136.633 47.6132L196.039 90.8438C200.463 94.0616 203 99.0414 203 104.502Z" stroke="url(#paint1_linear)" stroke-width="4" stroke-miterlimit="10"/>
</g>
<path d="M88.8923 107.528C88.7856 108.264 88.5296 108.909 88.1243 109.464C87.7189 110.008 87.2069 110.429 86.5883 110.728C85.9696 111.016 85.2869 111.16 84.5403 111.16C83.6123 111.16 82.7696 110.941 82.0123 110.504C81.2549 110.056 80.6576 109.427 80.2203 108.616C79.7936 107.795 79.5803 106.856 79.5803 105.8C79.5803 104.744 79.7936 103.811 80.2203 103C80.6576 102.179 81.2549 101.549 82.0123 101.112C82.7696 100.664 83.6123 100.44 84.5403 100.44C85.2976 100.44 85.9856 100.589 86.6043 100.888C87.2229 101.176 87.7296 101.597 88.1243 102.152C88.5296 102.696 88.7856 103.341 88.8923 104.088H87.7403C87.5163 103.309 87.1163 102.701 86.5403 102.264C85.9643 101.827 85.2976 101.608 84.5403 101.608C83.8789 101.608 83.2656 101.773 82.7003 102.104C82.1349 102.435 81.6816 102.92 81.3403 103.56C80.9989 104.189 80.8283 104.936 80.8283 105.8C80.8283 106.664 80.9989 107.416 81.3403 108.056C81.6816 108.685 82.1349 109.165 82.7003 109.496C83.2656 109.816 83.8789 109.976 84.5403 109.976C85.2976 109.976 85.9643 109.763 86.5403 109.336C87.1163 108.909 87.5163 108.307 87.7403 107.528H88.8923ZM95.5425 111.16C94.6145 111.16 93.7612 110.941 92.9825 110.504C92.2145 110.056 91.6065 109.427 91.1585 108.616C90.7105 107.795 90.4865 106.856 90.4865 105.8C90.4865 104.744 90.7105 103.811 91.1585 103C91.6065 102.179 92.2145 101.549 92.9825 101.112C93.7612 100.664 94.6145 100.44 95.5425 100.44C96.4812 100.44 97.3345 100.664 98.1025 101.112C98.8705 101.549 99.4785 102.179 99.9265 103C100.385 103.811 100.615 104.744 100.615 105.8C100.615 106.856 100.385 107.795 99.9265 108.616C99.4785 109.427 98.8705 110.056 98.1025 110.504C97.3345 110.941 96.4812 111.16 95.5425 111.16ZM95.5425 109.944C96.2145 109.944 96.8385 109.784 97.4145 109.464C98.0012 109.133 98.4705 108.659 98.8225 108.04C99.1852 107.411 99.3665 106.664 99.3665 105.8C99.3665 104.936 99.1852 104.189 98.8225 103.56C98.4705 102.931 98.0012 102.456 97.4145 102.136C96.8385 101.805 96.2145 101.64 95.5425 101.64C94.8705 101.64 94.2412 101.805 93.6545 102.136C93.0785 102.456 92.6145 102.931 92.2625 103.56C91.9105 104.189 91.7345 104.936 91.7345 105.8C91.7345 106.664 91.9105 107.411 92.2625 108.04C92.6145 108.659 93.0785 109.133 93.6545 109.464C94.2412 109.784 94.8705 109.944 95.5425 109.944ZM114.077 100.6V111H112.829V103.352L109.005 111H107.773L103.949 103.368V111H102.701V100.6H103.949L108.381 109.736L112.829 100.6H114.077ZM128.014 100.6V111H126.766V103.352L122.942 111H121.71L117.886 103.368V111H116.638V100.6H117.886L122.318 109.736L126.766 100.6H128.014ZM135.152 111.16C134.224 111.16 133.371 110.941 132.592 110.504C131.824 110.056 131.216 109.427 130.768 108.616C130.32 107.795 130.096 106.856 130.096 105.8C130.096 104.744 130.32 103.811 130.768 103C131.216 102.179 131.824 101.549 132.592 101.112C133.371 100.664 134.224 100.44 135.152 100.44C136.091 100.44 136.944 100.664 137.712 101.112C138.48 101.549 139.088 102.179 139.536 103C139.995 103.811 140.224 104.744 140.224 105.8C140.224 106.856 139.995 107.795 139.536 108.616C139.088 109.427 138.48 110.056 137.712 110.504C136.944 110.941 136.091 111.16 135.152 111.16ZM135.152 109.944C135.824 109.944 136.448 109.784 137.024 109.464C137.611 109.133 138.08 108.659 138.432 108.04C138.795 107.411 138.976 106.664 138.976 105.8C138.976 104.936 138.795 104.189 138.432 103.56C138.08 102.931 137.611 102.456 137.024 102.136C136.448 101.805 135.824 101.64 135.152 101.64C134.48 101.64 133.851 101.805 133.264 102.136C132.688 102.456 132.224 102.931 131.872 103.56C131.52 104.189 131.344 104.936 131.344 105.8C131.344 106.664 131.52 107.411 131.872 108.04C132.224 108.659 132.688 109.133 133.264 109.464C133.851 109.784 134.48 109.944 135.152 109.944ZM145.59 100.6C147.532 100.6 148.934 101.075 149.798 102.024C150.662 102.973 151.094 104.216 151.094 105.752C151.094 106.723 150.902 107.603 150.518 108.392C150.145 109.181 149.548 109.816 148.726 110.296C147.905 110.765 146.86 111 145.59 111H142.31V100.6H145.59ZM145.59 109.8C147.137 109.8 148.236 109.416 148.886 108.648C149.548 107.869 149.878 106.904 149.878 105.752C149.878 104.6 149.548 103.656 148.886 102.92C148.236 102.173 147.137 101.8 145.59 101.8H143.558V109.8H145.59ZM154.738 100.6V111H153.49V100.6H154.738ZM164.791 101.768H161.319V111H160.071V101.768H156.583V100.6H164.791V101.768ZM174.131 100.6L170.483 107.432V111H169.235V107.432L165.587 100.6H166.995L169.891 106.104L172.723 100.6H174.131Z" fill="white"/>
<path opacity="0.5" d="M110.176 3.224V4.412H104.668V6.656H109.18V7.796H104.668V11H103.288V3.224H110.176ZM115.317 11.144C114.397 11.144 113.593 10.98 112.905 10.652C112.225 10.324 111.697 9.86 111.321 9.26C110.953 8.66 110.769 7.944 110.769 7.112C110.769 6.28 110.953 5.564 111.321 4.964C111.697 4.356 112.225 3.892 112.905 3.572C113.593 3.244 114.397 3.08 115.317 3.08C116.253 3.08 117.057 3.244 117.729 3.572C118.409 3.892 118.937 4.356 119.313 4.964C119.689 5.564 119.877 6.28 119.877 7.112C119.877 7.944 119.689 8.66 119.313 9.26C118.937 9.86 118.409 10.324 117.729 10.652C117.057 10.98 116.253 11.144 115.317 11.144ZM115.317 9.92C115.925 9.92 116.461 9.82 116.925 9.62C117.397 9.412 117.765 9.1 118.029 8.684C118.301 8.268 118.437 7.744 118.437 7.112C118.437 6.488 118.301 5.968 118.029 5.552C117.765 5.136 117.397 4.824 116.925 4.616C116.461 4.408 115.925 4.304 115.317 4.304C114.717 4.304 114.177 4.408 113.697 4.616C113.225 4.824 112.853 5.136 112.581 5.552C112.309 5.968 112.173 6.488 112.173 7.112C112.173 7.744 112.309 8.268 112.581 8.684C112.853 9.1 113.225 9.412 113.697 9.62C114.177 9.82 114.717 9.92 115.317 9.92ZM125.676 11.144C124.756 11.144 123.952 10.98 123.264 10.652C122.584 10.324 122.056 9.86 121.68 9.26C121.312 8.66 121.128 7.944 121.128 7.112C121.128 6.28 121.312 5.564 121.68 4.964C122.056 4.356 122.584 3.892 123.264 3.572C123.952 3.244 124.756 3.08 125.676 3.08C126.612 3.08 127.416 3.244 128.088 3.572C128.768 3.892 129.296 4.356 129.672 4.964C130.048 5.564 130.236 6.28 130.236 7.112C130.236 7.944 130.048 8.66 129.672 9.26C129.296 9.86 128.768 10.324 128.088 10.652C127.416 10.98 126.612 11.144 125.676 11.144ZM125.676 9.92C126.284 9.92 126.82 9.82 127.284 9.62C127.756 9.412 128.124 9.1 128.388 8.684C128.66 8.268 128.796 7.744 128.796 7.112C128.796 6.488 128.66 5.968 128.388 5.552C128.124 5.136 127.756 4.824 127.284 4.616C126.82 4.408 126.284 4.304 125.676 4.304C125.076 4.304 124.536 4.408 124.056 4.616C123.584 4.824 123.212 5.136 122.94 5.552C122.668 5.968 122.532 6.488 122.532 7.112C122.532 7.744 122.668 8.268 122.94 8.684C123.212 9.1 123.584 9.412 124.056 9.62C124.536 9.82 125.076 9.92 125.676 9.92ZM135.603 3.224C136.443 3.224 137.147 3.328 137.715 3.536C138.283 3.744 138.735 4.028 139.071 4.388C139.415 4.74 139.659 5.148 139.803 5.612C139.947 6.076 140.019 6.564 140.019 7.076C140.019 7.596 139.939 8.092 139.779 8.564C139.619 9.036 139.363 9.456 139.011 9.824C138.667 10.184 138.215 10.472 137.655 10.688C137.095 10.896 136.411 11 135.603 11H131.799V3.224H135.603ZM133.179 9.788H135.579C136.171 9.788 136.663 9.712 137.055 9.56C137.447 9.408 137.755 9.204 137.979 8.948C138.211 8.692 138.375 8.404 138.471 8.084C138.575 7.756 138.627 7.42 138.627 7.076C138.627 6.74 138.575 6.416 138.471 6.104C138.375 5.784 138.211 5.5 137.979 5.252C137.755 5.004 137.447 4.808 137.055 4.664C136.663 4.512 136.171 4.436 135.579 4.436H133.179V9.788ZM99.7582 22.396V21.256H102.95C103.39 21.256 103.742 21.132 104.006 20.884C104.27 20.628 104.402 20.284 104.402 19.852C104.402 19.404 104.27 19.056 104.006 18.808C103.742 18.56 103.39 18.436 102.95 18.436H99.9502V25H98.5702V17.224H102.854C103.262 17.224 103.642 17.28 103.994 17.392C104.354 17.496 104.666 17.656 104.93 17.872C105.202 18.088 105.414 18.36 105.566 18.688C105.718 19.016 105.794 19.404 105.794 19.852C105.794 20.292 105.718 20.676 105.566 21.004C105.414 21.324 105.202 21.588 104.93 21.796C104.666 22.004 104.354 22.156 103.994 22.252C103.642 22.348 103.262 22.396 102.854 22.396H99.7582ZM107.29 25V17.224H111.946C112.53 17.224 113.034 17.308 113.458 17.476C113.882 17.636 114.21 17.888 114.442 18.232C114.674 18.568 114.79 19 114.79 19.528C114.79 19.888 114.73 20.196 114.61 20.452C114.49 20.7 114.322 20.904 114.106 21.064C113.89 21.224 113.638 21.348 113.35 21.436C113.07 21.516 112.766 21.568 112.438 21.592L112.318 21.508C112.83 21.524 113.258 21.576 113.602 21.664C113.946 21.744 114.206 21.896 114.382 22.12C114.558 22.344 114.646 22.676 114.646 23.116V25H113.254V23.188C113.254 22.884 113.202 22.648 113.098 22.48C112.994 22.312 112.81 22.196 112.546 22.132C112.282 22.06 111.91 22.024 111.43 22.024H108.67V25H107.29ZM108.67 20.896H111.946C112.426 20.896 112.79 20.78 113.038 20.548C113.286 20.308 113.41 19.992 113.41 19.6C113.41 19.224 113.286 18.936 113.038 18.736C112.79 18.536 112.426 18.436 111.946 18.436H108.67V20.896ZM116.693 17.224H118.085V25H116.693V17.224ZM128.448 22.264C128.368 22.872 128.156 23.392 127.812 23.824C127.468 24.248 127.004 24.576 126.42 24.808C125.844 25.032 125.172 25.144 124.404 25.144C123.74 25.144 123.128 25.056 122.568 24.88C122.016 24.704 121.536 24.448 121.128 24.112C120.728 23.768 120.416 23.348 120.192 22.852C119.968 22.348 119.856 21.772 119.856 21.124C119.856 20.468 119.968 19.892 120.192 19.396C120.416 18.892 120.728 18.468 121.128 18.124C121.536 17.78 122.016 17.52 122.568 17.344C123.128 17.168 123.74 17.08 124.404 17.08C125.18 17.08 125.856 17.196 126.432 17.428C127.016 17.66 127.48 17.996 127.824 18.436C128.168 18.868 128.376 19.388 128.448 19.996H127.092C126.988 19.636 126.816 19.332 126.576 19.084C126.336 18.828 126.032 18.636 125.664 18.508C125.296 18.372 124.876 18.304 124.404 18.304C123.804 18.304 123.264 18.412 122.784 18.628C122.312 18.844 121.94 19.16 121.668 19.576C121.404 19.992 121.272 20.508 121.272 21.124C121.272 21.732 121.404 22.244 121.668 22.66C121.94 23.076 122.312 23.392 122.784 23.608C123.264 23.824 123.804 23.932 124.404 23.932C124.876 23.932 125.292 23.868 125.652 23.74C126.02 23.604 126.324 23.412 126.564 23.164C126.804 22.908 126.98 22.608 127.092 22.264H128.448ZM131.392 21.7V23.812H136.912V25H130.012V17.224H136.9V18.412H131.392V20.56H135.904V21.7H131.392ZM138.051 22.408H139.419C139.443 22.704 139.559 22.972 139.767 23.212C139.975 23.444 140.247 23.628 140.583 23.764C140.927 23.892 141.319 23.956 141.759 23.956C142.151 23.956 142.475 23.908 142.731 23.812C142.987 23.716 143.179 23.584 143.307 23.416C143.435 23.248 143.499 23.044 143.499 22.804C143.499 22.572 143.423 22.392 143.271 22.264C143.127 22.136 142.899 22.028 142.587 21.94C142.275 21.852 141.879 21.764 141.399 21.676C140.999 21.596 140.615 21.496 140.247 21.376C139.879 21.256 139.547 21.104 139.251 20.92C138.963 20.736 138.735 20.512 138.567 20.248C138.399 19.984 138.315 19.668 138.315 19.3C138.315 18.876 138.431 18.496 138.663 18.16C138.903 17.824 139.255 17.56 139.719 17.368C140.191 17.176 140.767 17.08 141.447 17.08C142.471 17.08 143.251 17.316 143.787 17.788C144.331 18.252 144.595 18.888 144.579 19.696H143.259C143.227 19.192 143.039 18.832 142.695 18.616C142.351 18.392 141.915 18.28 141.387 18.28C140.907 18.28 140.507 18.364 140.187 18.532C139.867 18.692 139.707 18.96 139.707 19.336C139.707 19.488 139.743 19.624 139.815 19.744C139.895 19.856 140.023 19.96 140.199 20.056C140.383 20.144 140.627 20.232 140.931 20.32C141.243 20.4 141.627 20.484 142.083 20.572C142.467 20.644 142.827 20.736 143.163 20.848C143.507 20.952 143.803 21.092 144.051 21.268C144.307 21.436 144.507 21.652 144.651 21.916C144.795 22.18 144.867 22.504 144.867 22.888C144.867 23.328 144.755 23.72 144.531 24.064C144.307 24.4 143.963 24.668 143.499 24.868C143.035 25.06 142.435 25.156 141.699 25.156C141.139 25.156 140.651 25.092 140.235 24.964C139.827 24.828 139.475 24.656 139.179 24.448C138.891 24.232 138.659 24 138.483 23.752C138.307 23.504 138.183 23.264 138.111 23.032C138.047 22.792 138.027 22.584 138.051 22.408Z" fill="white"/>
<path opacity="0.5" d="M226.429 108.12C225.733 108.12 225.093 107.956 224.509 107.628C223.933 107.292 223.477 106.82 223.141 106.212C222.805 105.596 222.637 104.892 222.637 104.1C222.637 103.308 222.805 102.608 223.141 102C223.477 101.384 223.933 100.912 224.509 100.584C225.093 100.248 225.733 100.08 226.429 100.08C227.133 100.08 227.773 100.248 228.349 100.584C228.925 100.912 229.381 101.384 229.717 102C230.061 102.608 230.233 103.308 230.233 104.1C230.233 104.892 230.061 105.596 229.717 106.212C229.381 106.82 228.925 107.292 228.349 107.628C227.773 107.956 227.133 108.12 226.429 108.12ZM226.429 107.208C226.933 107.208 227.401 107.088 227.833 106.848C228.273 106.6 228.625 106.244 228.889 105.78C229.161 105.308 229.297 104.748 229.297 104.1C229.297 103.452 229.161 102.892 228.889 102.42C228.625 101.948 228.273 101.592 227.833 101.352C227.401 101.104 226.933 100.98 226.429 100.98C225.925 100.98 225.453 101.104 225.013 101.352C224.581 101.592 224.233 101.948 223.969 102.42C223.705 102.892 223.573 103.452 223.573 104.1C223.573 104.748 223.705 105.308 223.969 105.78C224.233 106.244 224.581 106.6 225.013 106.848C225.453 107.088 225.925 107.208 226.429 107.208ZM232.974 100.2V108H232.038V100.2H232.974ZM240.358 107.124V108H236.014H235.138V100.2H236.074V107.124H240.358Z" fill="white"/>
<path d="M122 28L128.062 34.75H115.938L122 28Z" fill="white" fill-opacity="0.5"/>
<path d="M217 104L211 110.062L211 97.9378L217 104Z" fill="white" fill-opacity="0.5"/>
<path d="M123 182L117 176L129 176L123 182Z" fill="white" fill-opacity="0.5"/>
<path opacity="0.5" d="M114.705 194.228L114.693 197H113.781C113.781 196.464 113.813 195.7 113.877 194.708C113.701 195.508 113.377 196.112 112.905 196.52C112.433 196.92 111.825 197.12 111.081 197.12C110.385 197.12 109.761 196.948 109.209 196.604C108.657 196.26 108.225 195.784 107.913 195.176C107.609 194.56 107.457 193.868 107.457 193.1C107.457 192.324 107.613 191.632 107.925 191.024C108.245 190.408 108.685 189.932 109.245 189.596C109.813 189.252 110.457 189.08 111.177 189.08C111.753 189.08 112.273 189.192 112.737 189.416C113.201 189.64 113.573 189.96 113.853 190.376C114.141 190.792 114.313 191.272 114.369 191.816H113.577C113.425 191.248 113.133 190.8 112.701 190.472C112.269 190.144 111.761 189.98 111.177 189.98C110.641 189.98 110.161 190.112 109.737 190.376C109.313 190.64 108.981 191.008 108.741 191.48C108.509 191.952 108.393 192.492 108.393 193.1C108.393 193.708 108.509 194.248 108.741 194.72C108.981 195.184 109.309 195.548 109.725 195.812C110.141 196.076 110.617 196.208 111.153 196.208C111.745 196.208 112.233 196.04 112.617 195.704C113.001 195.36 113.249 194.876 113.361 194.252L111.633 194.276V193.388H114.705V194.228ZM119.804 197.12C119.108 197.12 118.468 196.956 117.884 196.628C117.308 196.292 116.852 195.82 116.516 195.212C116.18 194.596 116.012 193.892 116.012 193.1C116.012 192.308 116.18 191.608 116.516 191C116.852 190.384 117.308 189.912 117.884 189.584C118.468 189.248 119.108 189.08 119.804 189.08C120.508 189.08 121.148 189.248 121.724 189.584C122.3 189.912 122.756 190.384 123.092 191C123.436 191.608 123.608 192.308 123.608 193.1C123.608 193.892 123.436 194.596 123.092 195.212C122.756 195.82 122.3 196.292 121.724 196.628C121.148 196.956 120.508 197.12 119.804 197.12ZM119.804 196.208C120.308 196.208 120.776 196.088 121.208 195.848C121.648 195.6 122 195.244 122.264 194.78C122.536 194.308 122.672 193.748 122.672 193.1C122.672 192.452 122.536 191.892 122.264 191.42C122 190.948 121.648 190.592 121.208 190.352C120.776 190.104 120.308 189.98 119.804 189.98C119.3 189.98 118.828 190.104 118.388 190.352C117.956 190.592 117.608 190.948 117.344 191.42C117.08 191.892 116.948 192.452 116.948 193.1C116.948 193.748 117.08 194.308 117.344 194.78C117.608 195.244 117.956 195.6 118.388 195.848C118.828 196.088 119.3 196.208 119.804 196.208ZM130.393 196.124V197H126.049H125.173V189.2H126.109V196.124H130.393ZM134.418 189.2C135.874 189.2 136.926 189.556 137.574 190.268C138.222 190.98 138.546 191.912 138.546 193.064C138.546 193.792 138.402 194.452 138.114 195.044C137.834 195.636 137.386 196.112 136.77 196.472C136.154 196.824 135.37 197 134.418 197H131.958V189.2H134.418ZM134.418 196.1C135.578 196.1 136.402 195.812 136.89 195.236C137.386 194.652 137.634 193.928 137.634 193.064C137.634 192.2 137.386 191.492 136.89 190.94C136.402 190.38 135.578 190.1 134.418 190.1H132.894V196.1H134.418Z" fill="white"/>
<defs>
<filter id="filter0_d" x="0" y="21" width="205" height="167" filterUnits="userSpaceOnUse" color-interpolation-filters="sRGB">
<feFlood flood-opacity="0" result="BackgroundImageFix"/>
<feColorMatrix in="SourceAlpha" type="matrix" values="0 0 0 0 0 0 0 0 0 0 0 0 0 0 0 0 0 0 127 0"/>
<feOffset dx="-20"/>
<feGaussianBlur stdDeviation="10"/>
<feColorMatrix type="matrix" values="0 0 0 0 0 0 0 0 0 0 0 0 0 0 0 0 0 0 0.4 0"/>
<feBlend mode="normal" in2="BackgroundImageFix" result="effect1_dropShadow"/>
<feBlend mode="normal" in="SourceGraphic" in2="effect1_dropShadow" result="shape"/>
</filter>
<linearGradient id="paint0_linear" x1="167.134" y1="70.5552" x2="75.3274" y2="143.05" gradientUnits="userSpaceOnUse">
<stop stop-color="#171717"/>
<stop offset="1" stop-color="#222222"/>
</linearGradient>
<linearGradient id="paint1_linear" x1="122.501" y1="166.089" x2="122.501" y2="42.9114" gradientUnits="userSpaceOnUse">
<stop/>
<stop offset="1" stop-color="#484646"/>
</linearGradient>
</defs>
</svg>
