<svg width="295" height="196" viewBox="0 0 295 196" fill="none" xmlns="http://www.w3.org/2000/svg">
<g filter="url(#filter0_d)">
<path d="M253 91.5018C253 96.9621 250.479 101.938 246.079 105.16L187.045 148.387C178.643 154.538 167.357 154.538 158.955 148.387L99.9215 105.156C95.525 101.935 93 96.9586 93 91.4982C93 86.0379 95.5214 81.0616 99.9215 77.8403L158.955 34.6132C167.357 28.4623 178.643 28.4623 187.045 34.6132L246.082 77.8438C250.479 81.0616 253 86.0414 253 91.5018Z" fill="url(#paint0_linear)"/>
<path d="M253 91.5018C253 96.9621 250.479 101.938 246.079 105.16L187.045 148.387C178.643 154.538 167.357 154.538 158.955 148.387L99.9215 105.156C95.525 101.935 93 96.9586 93 91.4982C93 86.0379 95.5214 81.0616 99.9215 77.8403L158.955 34.6132C167.357 28.4623 178.643 28.4623 187.045 34.6132L246.082 77.8438C250.479 81.0616 253 86.0414 253 91.5018Z" stroke="url(#paint1_linear)" stroke-width="4" stroke-miterlimit="10"/>
</g>
<path d="M139.79 94.584V93H146.03V94.584H139.79ZM137.374 97L141.934 86.632H143.918L148.526 97H146.51L142.526 87.64H143.326L139.358 97H137.374ZM149.287 93.544H151.111C151.143 93.9387 151.297 94.296 151.575 94.616C151.852 94.9253 152.215 95.1707 152.663 95.352C153.121 95.5227 153.644 95.608 154.231 95.608C154.753 95.608 155.185 95.544 155.527 95.416C155.868 95.288 156.124 95.112 156.295 94.888C156.465 94.664 156.551 94.392 156.551 94.072C156.551 93.7627 156.449 93.5227 156.247 93.352C156.055 93.1813 155.751 93.0373 155.335 92.92C154.919 92.8027 154.391 92.6853 153.751 92.568C153.217 92.4613 152.705 92.328 152.215 92.168C151.724 92.008 151.281 91.8053 150.887 91.56C150.503 91.3147 150.199 91.016 149.975 90.664C149.751 90.312 149.639 89.8907 149.639 89.4C149.639 88.8347 149.793 88.328 150.103 87.88C150.423 87.432 150.892 87.08 151.511 86.824C152.14 86.568 152.908 86.44 153.815 86.44C155.18 86.44 156.22 86.7547 156.935 87.384C157.66 88.0027 158.012 88.8507 157.991 89.928H156.231C156.188 89.256 155.937 88.776 155.479 88.488C155.02 88.1893 154.439 88.04 153.735 88.04C153.095 88.04 152.561 88.152 152.135 88.376C151.708 88.5893 151.495 88.9467 151.495 89.448C151.495 89.6507 151.543 89.832 151.639 89.992C151.745 90.1413 151.916 90.28 152.151 90.408C152.396 90.5253 152.721 90.6427 153.127 90.76C153.543 90.8667 154.055 90.9787 154.663 91.096C155.175 91.192 155.655 91.3147 156.103 91.464C156.561 91.6027 156.956 91.7893 157.287 92.024C157.628 92.248 157.895 92.536 158.087 92.888C158.279 93.24 158.375 93.672 158.375 94.184C158.375 94.7707 158.225 95.2933 157.927 95.752C157.628 96.2 157.169 96.5573 156.551 96.824C155.932 97.08 155.132 97.208 154.151 97.208C153.404 97.208 152.753 97.1227 152.199 96.952C151.655 96.7707 151.185 96.5413 150.791 96.264C150.407 95.976 150.097 95.6667 149.863 95.336C149.628 95.0053 149.463 94.6853 149.367 94.376C149.281 94.056 149.255 93.7787 149.287 93.544ZM159.568 93.544H161.392C161.424 93.9387 161.578 94.296 161.856 94.616C162.133 94.9253 162.496 95.1707 162.944 95.352C163.402 95.5227 163.925 95.608 164.512 95.608C165.034 95.608 165.466 95.544 165.808 95.416C166.149 95.288 166.405 95.112 166.576 94.888C166.746 94.664 166.832 94.392 166.832 94.072C166.832 93.7627 166.73 93.5227 166.528 93.352C166.336 93.1813 166.032 93.0373 165.616 92.92C165.2 92.8027 164.672 92.6853 164.032 92.568C163.498 92.4613 162.986 92.328 162.496 92.168C162.005 92.008 161.562 91.8053 161.168 91.56C160.784 91.3147 160.48 91.016 160.256 90.664C160.032 90.312 159.92 89.8907 159.92 89.4C159.92 88.8347 160.074 88.328 160.384 87.88C160.704 87.432 161.173 87.08 161.792 86.824C162.421 86.568 163.189 86.44 164.096 86.44C165.461 86.44 166.501 86.7547 167.216 87.384C167.941 88.0027 168.293 88.8507 168.272 89.928H166.512C166.469 89.256 166.218 88.776 165.76 88.488C165.301 88.1893 164.72 88.04 164.016 88.04C163.376 88.04 162.842 88.152 162.416 88.376C161.989 88.5893 161.776 88.9467 161.776 89.448C161.776 89.6507 161.824 89.832 161.92 89.992C162.026 90.1413 162.197 90.28 162.432 90.408C162.677 90.5253 163.002 90.6427 163.408 90.76C163.824 90.8667 164.336 90.9787 164.944 91.096C165.456 91.192 165.936 91.3147 166.384 91.464C166.842 91.6027 167.237 91.7893 167.568 92.024C167.909 92.248 168.176 92.536 168.368 92.888C168.56 93.24 168.656 93.672 168.656 94.184C168.656 94.7707 168.506 95.2933 168.208 95.752C167.909 96.2 167.45 96.5573 166.832 96.824C166.213 97.08 165.413 97.208 164.432 97.208C163.685 97.208 163.034 97.1227 162.48 96.952C161.936 96.7707 161.466 96.5413 161.072 96.264C160.688 95.976 160.378 95.6667 160.144 95.336C159.909 95.0053 159.744 94.6853 159.648 94.376C159.562 94.056 159.536 93.7787 159.568 93.544ZM172.377 92.6V95.416H179.737V97H170.537V86.632H179.721V88.216H172.377V91.08H178.393V92.6H172.377ZM180.983 86.632H191.031V88.216H180.983V86.632ZM185.095 88.024H186.935V97H185.095V88.024ZM191.896 93.544H193.72C193.752 93.9387 193.907 94.296 194.184 94.616C194.461 94.9253 194.824 95.1707 195.272 95.352C195.731 95.5227 196.253 95.608 196.84 95.608C197.363 95.608 197.795 95.544 198.136 95.416C198.477 95.288 198.733 95.112 198.904 94.888C199.075 94.664 199.16 94.392 199.16 94.072C199.16 93.7627 199.059 93.5227 198.856 93.352C198.664 93.1813 198.36 93.0373 197.944 92.92C197.528 92.8027 197 92.6853 196.36 92.568C195.827 92.4613 195.315 92.328 194.824 92.168C194.333 92.008 193.891 91.8053 193.496 91.56C193.112 91.3147 192.808 91.016 192.584 90.664C192.36 90.312 192.248 89.8907 192.248 89.4C192.248 88.8347 192.403 88.328 192.712 87.88C193.032 87.432 193.501 87.08 194.12 86.824C194.749 86.568 195.517 86.44 196.424 86.44C197.789 86.44 198.829 86.7547 199.544 87.384C200.269 88.0027 200.621 88.8507 200.6 89.928H198.84C198.797 89.256 198.547 88.776 198.088 88.488C197.629 88.1893 197.048 88.04 196.344 88.04C195.704 88.04 195.171 88.152 194.744 88.376C194.317 88.5893 194.104 88.9467 194.104 89.448C194.104 89.6507 194.152 89.832 194.248 89.992C194.355 90.1413 194.525 90.28 194.76 90.408C195.005 90.5253 195.331 90.6427 195.736 90.76C196.152 90.8667 196.664 90.9787 197.272 91.096C197.784 91.192 198.264 91.3147 198.712 91.464C199.171 91.6027 199.565 91.7893 199.896 92.024C200.237 92.248 200.504 92.536 200.696 92.888C200.888 93.24 200.984 93.672 200.984 94.184C200.984 94.7707 200.835 95.2933 200.536 95.752C200.237 96.2 199.779 96.5573 199.16 96.824C198.541 97.08 197.741 97.208 196.76 97.208C196.013 97.208 195.363 97.1227 194.808 96.952C194.264 96.7707 193.795 96.5413 193.4 96.264C193.016 95.976 192.707 95.6667 192.472 95.336C192.237 95.0053 192.072 94.6853 191.976 94.376C191.891 94.056 191.864 93.7787 191.896 93.544Z" fill="white"/>
<path opacity="0.5" d="M137.721 8.48C137.745 8.816 137.853 9.12 138.045 9.392C138.237 9.656 138.485 9.864 138.789 10.016C139.093 10.168 139.417 10.244 139.761 10.244C140.193 10.244 140.541 10.124 140.805 9.884C141.077 9.644 141.213 9.336 141.213 8.96C141.213 8.72 141.153 8.524 141.033 8.372C140.913 8.212 140.757 8.084 140.565 7.988C140.381 7.884 140.129 7.776 139.809 7.664C139.801 7.656 139.717 7.624 139.557 7.568C138.957 7.336 138.501 7.148 138.189 7.004C137.877 6.852 137.593 6.628 137.337 6.332C137.089 6.036 136.965 5.66 136.965 5.204C136.965 4.812 137.061 4.456 137.253 4.136C137.453 3.808 137.733 3.552 138.093 3.368C138.461 3.176 138.889 3.08 139.377 3.08C140.129 3.08 140.717 3.308 141.141 3.764C141.565 4.212 141.769 4.812 141.753 5.564H140.925C140.909 5.028 140.753 4.632 140.457 4.376C140.161 4.112 139.785 3.98 139.329 3.98C138.929 3.98 138.589 4.076 138.309 4.268C138.037 4.46 137.901 4.756 137.901 5.156C137.901 5.404 137.957 5.604 138.069 5.756C138.189 5.908 138.337 6.032 138.513 6.128C138.697 6.224 138.969 6.34 139.329 6.476L139.797 6.656C139.853 6.68 139.905 6.704 139.953 6.728C140.009 6.752 140.061 6.772 140.109 6.788C140.533 6.956 140.881 7.116 141.153 7.268C141.425 7.42 141.657 7.636 141.849 7.916C142.049 8.188 142.149 8.532 142.149 8.948C142.149 9.596 141.949 10.12 141.549 10.52C141.149 10.92 140.577 11.12 139.833 11.12C139.161 11.12 138.601 10.98 138.153 10.7C137.713 10.412 137.389 10.076 137.181 9.692C136.973 9.3 136.869 8.956 136.869 8.66C136.869 8.604 136.877 8.544 136.893 8.48H137.721ZM148.959 4.076H146.355V11H145.419V4.076H142.803V3.2H148.959V4.076ZM153.776 8.948H150.38L149.636 11H148.652L151.592 3.2H152.564L155.528 11H154.52L153.776 8.948ZM153.44 8.048L152.084 4.328L150.716 8.048H153.44ZM162.539 8.828C162.539 9.508 162.319 10.032 161.879 10.4C161.439 10.76 160.847 10.96 160.103 11H156.731V3.2H159.743C160.543 3.2 161.167 3.384 161.615 3.752C162.063 4.12 162.287 4.632 162.287 5.288C162.287 5.824 162.147 6.232 161.867 6.512C161.587 6.792 161.187 6.976 160.667 7.064C161.251 7.128 161.707 7.292 162.035 7.556C162.371 7.812 162.539 8.236 162.539 8.828ZM159.863 10.076C161.031 10.076 161.615 9.664 161.615 8.84C161.615 8.36 161.427 8.036 161.051 7.868C160.683 7.692 160.207 7.604 159.623 7.604L159.635 7.076L159.623 6.668C160.175 6.668 160.603 6.552 160.907 6.32C161.219 6.088 161.375 5.752 161.375 5.312C161.375 4.896 161.227 4.596 160.931 4.412C160.635 4.22 160.239 4.124 159.743 4.124H157.667V6.668H159.623V7.604H157.667V10.076H159.863ZM169.264 10.124V11H164.92H164.044V3.2H164.98V10.124H169.264ZM176.277 10.112V11H170.829V3.2H176.265V4.076H171.765V6.668H175.449V7.568H171.765V10.112H176.277ZM187.086 8.396C187.006 8.948 186.814 9.432 186.51 9.848C186.206 10.256 185.822 10.572 185.358 10.796C184.894 11.012 184.382 11.12 183.822 11.12C183.126 11.12 182.494 10.956 181.926 10.628C181.358 10.292 180.91 9.82 180.582 9.212C180.262 8.596 180.102 7.892 180.102 7.1C180.102 6.308 180.262 5.608 180.582 5C180.91 4.384 181.358 3.912 181.926 3.584C182.494 3.248 183.126 3.08 183.822 3.08C184.39 3.08 184.906 3.192 185.37 3.416C185.834 3.632 186.214 3.948 186.51 4.364C186.814 4.772 187.006 5.256 187.086 5.816H186.222C186.054 5.232 185.754 4.776 185.322 4.448C184.89 4.12 184.39 3.956 183.822 3.956C183.326 3.956 182.866 4.08 182.442 4.328C182.018 4.576 181.678 4.94 181.422 5.42C181.166 5.892 181.038 6.452 181.038 7.1C181.038 7.748 181.166 8.312 181.422 8.792C181.678 9.264 182.018 9.624 182.442 9.872C182.866 10.112 183.326 10.232 183.822 10.232C184.39 10.232 184.89 10.072 185.322 9.752C185.754 9.432 186.054 8.98 186.222 8.396H187.086ZM192.074 11.12C191.378 11.12 190.738 10.956 190.154 10.628C189.578 10.292 189.122 9.82 188.786 9.212C188.45 8.596 188.282 7.892 188.282 7.1C188.282 6.308 188.45 5.608 188.786 5C189.122 4.384 189.578 3.912 190.154 3.584C190.738 3.248 191.378 3.08 192.074 3.08C192.778 3.08 193.418 3.248 193.994 3.584C194.57 3.912 195.026 4.384 195.362 5C195.706 5.608 195.878 6.308 195.878 7.1C195.878 7.892 195.706 8.596 195.362 9.212C195.026 9.82 194.57 10.292 193.994 10.628C193.418 10.956 192.778 11.12 192.074 11.12ZM192.074 10.208C192.578 10.208 193.046 10.088 193.478 9.848C193.918 9.6 194.27 9.244 194.534 8.78C194.806 8.308 194.942 7.748 194.942 7.1C194.942 6.452 194.806 5.892 194.534 5.42C194.27 4.948 193.918 4.592 193.478 4.352C193.046 4.104 192.578 3.98 192.074 3.98C191.57 3.98 191.098 4.104 190.658 4.352C190.226 4.592 189.878 4.948 189.614 5.42C189.35 5.892 189.218 6.452 189.218 7.1C189.218 7.748 189.35 8.308 189.614 8.78C189.878 9.244 190.226 9.6 190.658 9.848C191.098 10.088 191.57 10.208 192.074 10.208ZM198.618 3.2V11H197.682V3.2H198.618ZM207.418 3.2V11H206.482L201.718 4.7V11H200.782V3.2H201.718L206.482 9.5V3.2H207.418ZM209.709 8.48C209.733 8.816 209.841 9.12 210.033 9.392C210.225 9.656 210.473 9.864 210.777 10.016C211.081 10.168 211.405 10.244 211.749 10.244C212.181 10.244 212.529 10.124 212.793 9.884C213.065 9.644 213.201 9.336 213.201 8.96C213.201 8.72 213.141 8.524 213.021 8.372C212.901 8.212 212.745 8.084 212.553 7.988C212.369 7.884 212.117 7.776 211.797 7.664C211.789 7.656 211.705 7.624 211.545 7.568C210.945 7.336 210.489 7.148 210.177 7.004C209.865 6.852 209.581 6.628 209.325 6.332C209.077 6.036 208.953 5.66 208.953 5.204C208.953 4.812 209.049 4.456 209.241 4.136C209.441 3.808 209.721 3.552 210.081 3.368C210.449 3.176 210.877 3.08 211.365 3.08C212.117 3.08 212.705 3.308 213.129 3.764C213.553 4.212 213.757 4.812 213.741 5.564H212.913C212.897 5.028 212.741 4.632 212.445 4.376C212.149 4.112 211.773 3.98 211.317 3.98C210.917 3.98 210.577 4.076 210.297 4.268C210.025 4.46 209.889 4.756 209.889 5.156C209.889 5.404 209.945 5.604 210.057 5.756C210.177 5.908 210.325 6.032 210.501 6.128C210.685 6.224 210.957 6.34 211.317 6.476L211.785 6.656C211.841 6.68 211.893 6.704 211.941 6.728C211.997 6.752 212.049 6.772 212.097 6.788C212.521 6.956 212.869 7.116 213.141 7.268C213.413 7.42 213.645 7.636 213.837 7.916C214.037 8.188 214.137 8.532 214.137 8.948C214.137 9.596 213.937 10.12 213.537 10.52C213.137 10.92 212.565 11.12 211.821 11.12C211.149 11.12 210.589 10.98 210.141 10.7C209.701 10.412 209.377 10.076 209.169 9.692C208.961 9.3 208.857 8.956 208.857 8.66C208.857 8.604 208.865 8.544 208.881 8.48H209.709Z" fill="white"/>
<path opacity="0.5" d="M158.449 181.12C157.753 181.12 157.113 180.956 156.529 180.628C155.953 180.292 155.497 179.82 155.161 179.212C154.825 178.596 154.657 177.892 154.657 177.1C154.657 176.308 154.825 175.608 155.161 175C155.497 174.384 155.953 173.912 156.529 173.584C157.113 173.248 157.753 173.08 158.449 173.08C159.153 173.08 159.793 173.248 160.369 173.584C160.945 173.912 161.401 174.384 161.737 175C162.081 175.608 162.253 176.308 162.253 177.1C162.253 177.892 162.081 178.596 161.737 179.212C161.401 179.82 160.945 180.292 160.369 180.628C159.793 180.956 159.153 181.12 158.449 181.12ZM158.449 180.208C158.953 180.208 159.421 180.088 159.853 179.848C160.293 179.6 160.645 179.244 160.909 178.78C161.181 178.308 161.317 177.748 161.317 177.1C161.317 176.452 161.181 175.892 160.909 175.42C160.645 174.948 160.293 174.592 159.853 174.352C159.421 174.104 158.953 173.98 158.449 173.98C157.945 173.98 157.473 174.104 157.033 174.352C156.601 174.592 156.253 174.948 155.989 175.42C155.725 175.892 155.593 176.452 155.593 177.1C155.593 177.748 155.725 178.308 155.989 178.78C156.253 179.244 156.601 179.6 157.033 179.848C157.473 180.088 157.945 180.208 158.449 180.208ZM168.959 174.076H166.355V181H165.419V174.076H162.803V173.2H168.959V174.076ZM176.735 173.2V181H175.799V177.544H171.035V181H170.099V173.2H171.035V176.668H175.799V173.2H176.735ZM184.101 180.112V181H178.653V173.2H184.089V174.076H179.589V176.668H183.273V177.568H179.589V180.112H184.101ZM189.882 177.4C190.458 177.44 190.886 177.58 191.166 177.82C191.454 178.052 191.598 178.464 191.598 179.056V181H190.674L190.662 179.044C190.662 178.22 190.086 177.808 188.934 177.808H186.714V181H185.778V173.2H189.15C189.966 173.2 190.598 173.388 191.046 173.764C191.494 174.14 191.718 174.688 191.718 175.408C191.718 175.984 191.554 176.436 191.226 176.764C190.898 177.092 190.45 177.304 189.882 177.4ZM186.714 176.896H189.15V177.364V176.896C189.638 176.896 190.03 176.76 190.326 176.488C190.63 176.208 190.782 175.844 190.782 175.396C190.782 174.988 190.634 174.672 190.338 174.448C190.042 174.216 189.646 174.1 189.15 174.1H186.714V176.896ZM131.482 188.076H128.878V195H127.942V188.076H125.326V187.2H131.482V188.076ZM135.456 195.12C134.76 195.12 134.12 194.956 133.536 194.628C132.96 194.292 132.504 193.82 132.168 193.212C131.832 192.596 131.664 191.892 131.664 191.1C131.664 190.308 131.832 189.608 132.168 189C132.504 188.384 132.96 187.912 133.536 187.584C134.12 187.248 134.76 187.08 135.456 187.08C136.16 187.08 136.8 187.248 137.376 187.584C137.952 187.912 138.408 188.384 138.744 189C139.088 189.608 139.26 190.308 139.26 191.1C139.26 191.892 139.088 192.596 138.744 193.212C138.408 193.82 137.952 194.292 137.376 194.628C136.8 194.956 136.16 195.12 135.456 195.12ZM135.456 194.208C135.96 194.208 136.428 194.088 136.86 193.848C137.3 193.6 137.652 193.244 137.916 192.78C138.188 192.308 138.324 191.748 138.324 191.1C138.324 190.452 138.188 189.892 137.916 189.42C137.652 188.948 137.3 188.592 136.86 188.352C136.428 188.104 135.96 187.98 135.456 187.98C134.952 187.98 134.48 188.104 134.04 188.352C133.608 188.592 133.26 188.948 132.996 189.42C132.732 189.892 132.6 190.452 132.6 191.1C132.6 191.748 132.732 192.308 132.996 192.78C133.26 193.244 133.608 193.6 134.04 193.848C134.48 194.088 134.952 194.208 135.456 194.208ZM145.877 195L141.761 190.92V195H140.825V187.2H141.761V190.92L145.361 187.2H146.609L142.973 190.884L147.113 195H145.877ZM153.762 194.112V195H148.314V187.2H153.75V188.076H149.25V190.668H152.934V191.568H149.25V194.112H153.762ZM162.075 187.2V195H161.139L156.375 188.7V195H155.439V187.2H156.375L161.139 193.5V187.2H162.075ZM165.169 187.2V195H164.233V187.2H165.169ZM167.705 192.48C167.729 192.816 167.837 193.12 168.029 193.392C168.221 193.656 168.469 193.864 168.773 194.016C169.077 194.168 169.401 194.244 169.745 194.244C170.177 194.244 170.525 194.124 170.789 193.884C171.061 193.644 171.197 193.336 171.197 192.96C171.197 192.72 171.137 192.524 171.017 192.372C170.897 192.212 170.741 192.084 170.549 191.988C170.365 191.884 170.113 191.776 169.793 191.664C169.785 191.656 169.701 191.624 169.541 191.568C168.941 191.336 168.485 191.148 168.173 191.004C167.861 190.852 167.577 190.628 167.321 190.332C167.073 190.036 166.949 189.66 166.949 189.204C166.949 188.812 167.045 188.456 167.237 188.136C167.437 187.808 167.717 187.552 168.077 187.368C168.445 187.176 168.873 187.08 169.361 187.08C170.113 187.08 170.701 187.308 171.125 187.764C171.549 188.212 171.753 188.812 171.737 189.564H170.909C170.893 189.028 170.737 188.632 170.441 188.376C170.145 188.112 169.769 187.98 169.313 187.98C168.913 187.98 168.573 188.076 168.293 188.268C168.021 188.46 167.885 188.756 167.885 189.156C167.885 189.404 167.941 189.604 168.053 189.756C168.173 189.908 168.321 190.032 168.497 190.128C168.681 190.224 168.953 190.34 169.313 190.476L169.781 190.656C169.837 190.68 169.889 190.704 169.937 190.728C169.993 190.752 170.045 190.772 170.093 190.788C170.517 190.956 170.865 191.116 171.137 191.268C171.409 191.42 171.641 191.636 171.833 191.916C172.033 192.188 172.133 192.532 172.133 192.948C172.133 193.596 171.933 194.12 171.533 194.52C171.133 194.92 170.561 195.12 169.817 195.12C169.145 195.12 168.585 194.98 168.137 194.7C167.697 194.412 167.373 194.076 167.165 193.692C166.957 193.3 166.853 192.956 166.853 192.66C166.853 192.604 166.861 192.544 166.877 192.48H167.705ZM179.015 194.112V195H173.567V187.2H179.003V188.076H174.503V190.668H178.187V191.568H174.503V194.112H179.015ZM183.152 187.2C184.608 187.2 185.66 187.556 186.308 188.268C186.956 188.98 187.28 189.912 187.28 191.064C187.28 191.792 187.136 192.452 186.848 193.044C186.568 193.636 186.12 194.112 185.504 194.472C184.888 194.824 184.104 195 183.152 195H180.692V187.2H183.152ZM183.152 194.1C184.312 194.1 185.136 193.812 185.624 193.236C186.12 192.652 186.368 191.928 186.368 191.064C186.368 190.2 186.12 189.492 185.624 188.94C185.136 188.38 184.312 188.1 183.152 188.1H181.628V194.1H183.152ZM195.749 192.948H192.353L191.609 195H190.625L193.565 187.2H194.537L197.501 195H196.493L195.749 192.948ZM195.413 192.048L194.057 188.328L192.689 192.048H195.413ZM199.076 192.48C199.1 192.816 199.208 193.12 199.4 193.392C199.592 193.656 199.84 193.864 200.144 194.016C200.448 194.168 200.772 194.244 201.116 194.244C201.548 194.244 201.896 194.124 202.16 193.884C202.432 193.644 202.568 193.336 202.568 192.96C202.568 192.72 202.508 192.524 202.388 192.372C202.268 192.212 202.112 192.084 201.92 191.988C201.736 191.884 201.484 191.776 201.164 191.664C201.156 191.656 201.072 191.624 200.912 191.568C200.312 191.336 199.856 191.148 199.544 191.004C199.232 190.852 198.948 190.628 198.692 190.332C198.444 190.036 198.32 189.66 198.32 189.204C198.32 188.812 198.416 188.456 198.608 188.136C198.808 187.808 199.088 187.552 199.448 187.368C199.816 187.176 200.244 187.08 200.732 187.08C201.484 187.08 202.072 187.308 202.496 187.764C202.92 188.212 203.124 188.812 203.108 189.564H202.28C202.264 189.028 202.108 188.632 201.812 188.376C201.516 188.112 201.14 187.98 200.684 187.98C200.284 187.98 199.944 188.076 199.664 188.268C199.392 188.46 199.256 188.756 199.256 189.156C199.256 189.404 199.312 189.604 199.424 189.756C199.544 189.908 199.692 190.032 199.868 190.128C200.052 190.224 200.324 190.34 200.684 190.476L201.152 190.656C201.208 190.68 201.26 190.704 201.308 190.728C201.364 190.752 201.416 190.772 201.464 190.788C201.888 190.956 202.236 191.116 202.508 191.268C202.78 191.42 203.012 191.636 203.204 191.916C203.404 192.188 203.504 192.532 203.504 192.948C203.504 193.596 203.304 194.12 202.904 194.52C202.504 194.92 201.932 195.12 201.188 195.12C200.516 195.12 199.956 194.98 199.508 194.7C199.068 194.412 198.744 194.076 198.536 193.692C198.328 193.3 198.224 192.956 198.224 192.66C198.224 192.604 198.232 192.544 198.248 192.48H199.076ZM205.311 192.48C205.335 192.816 205.443 193.12 205.635 193.392C205.827 193.656 206.075 193.864 206.379 194.016C206.683 194.168 207.007 194.244 207.351 194.244C207.783 194.244 208.131 194.124 208.395 193.884C208.667 193.644 208.803 193.336 208.803 192.96C208.803 192.72 208.743 192.524 208.623 192.372C208.503 192.212 208.347 192.084 208.155 191.988C207.971 191.884 207.719 191.776 207.399 191.664C207.391 191.656 207.307 191.624 207.147 191.568C206.547 191.336 206.091 191.148 205.779 191.004C205.467 190.852 205.183 190.628 204.927 190.332C204.679 190.036 204.555 189.66 204.555 189.204C204.555 188.812 204.651 188.456 204.843 188.136C205.043 187.808 205.323 187.552 205.683 187.368C206.051 187.176 206.479 187.08 206.967 187.08C207.719 187.08 208.307 187.308 208.731 187.764C209.155 188.212 209.359 188.812 209.343 189.564H208.515C208.499 189.028 208.343 188.632 208.047 188.376C207.751 188.112 207.375 187.98 206.919 187.98C206.519 187.98 206.179 188.076 205.899 188.268C205.627 188.46 205.491 188.756 205.491 189.156C205.491 189.404 205.547 189.604 205.659 189.756C205.779 189.908 205.927 190.032 206.103 190.128C206.287 190.224 206.559 190.34 206.919 190.476L207.387 190.656C207.443 190.68 207.495 190.704 207.543 190.728C207.599 190.752 207.651 190.772 207.699 190.788C208.123 190.956 208.471 191.116 208.743 191.268C209.015 191.42 209.247 191.636 209.439 191.916C209.639 192.188 209.739 192.532 209.739 192.948C209.739 193.596 209.539 194.12 209.139 194.52C208.739 194.92 208.167 195.12 207.423 195.12C206.751 195.12 206.191 194.98 205.743 194.7C205.303 194.412 204.979 194.076 204.771 193.692C204.563 193.3 204.459 192.956 204.459 192.66C204.459 192.604 204.467 192.544 204.483 192.48H205.311ZM216.621 194.112V195H211.173V187.2H216.609V188.076H212.109V190.668H215.793V191.568H212.109V194.112H216.621ZM223.674 188.076H221.07V195H220.134V188.076H217.518V187.2H223.674V188.076Z" fill="white"/>
<path opacity="0.5" d="M7.584 85.396C7.504 85.948 7.312 86.432 7.008 86.848C6.704 87.256 6.32 87.572 5.856 87.796C5.392 88.012 4.88 88.12 4.32 88.12C3.624 88.12 2.992 87.956 2.424 87.628C1.856 87.292 1.408 86.82 1.08 86.212C0.76 85.596 0.6 84.892 0.6 84.1C0.6 83.308 0.76 82.608 1.08 82C1.408 81.384 1.856 80.912 2.424 80.584C2.992 80.248 3.624 80.08 4.32 80.08C4.888 80.08 5.404 80.192 5.868 80.416C6.332 80.632 6.712 80.948 7.008 81.364C7.312 81.772 7.504 82.256 7.584 82.816H6.72C6.552 82.232 6.252 81.776 5.82 81.448C5.388 81.12 4.888 80.956 4.32 80.956C3.824 80.956 3.364 81.08 2.94 81.328C2.516 81.576 2.176 81.94 1.92 82.42C1.664 82.892 1.536 83.452 1.536 84.1C1.536 84.748 1.664 85.312 1.92 85.792C2.176 86.264 2.516 86.624 2.94 86.872C3.364 87.112 3.824 87.232 4.32 87.232C4.888 87.232 5.388 87.072 5.82 86.752C6.252 86.432 6.552 85.98 6.72 85.396H7.584ZM13.2437 84.4C13.8197 84.44 14.2477 84.58 14.5277 84.82C14.8157 85.052 14.9597 85.464 14.9597 86.056V88H14.0357L14.0237 86.044C14.0237 85.22 13.4477 84.808 12.2957 84.808H10.0757V88H9.13969V80.2H12.5117C13.3277 80.2 13.9597 80.388 14.4077 80.764C14.8557 81.14 15.0797 81.688 15.0797 82.408C15.0797 82.984 14.9157 83.436 14.5877 83.764C14.2597 84.092 13.8117 84.304 13.2437 84.4ZM10.0757 83.896H12.5117V84.364V83.896C12.9997 83.896 13.3917 83.76 13.6877 83.488C13.9917 83.208 14.1437 82.844 14.1437 82.396C14.1437 81.988 13.9957 81.672 13.6997 81.448C13.4037 81.216 13.0077 81.1 12.5117 81.1H10.0757V83.896ZM22.3877 80.2L19.6517 85.324V88H18.7157V85.324L15.9797 80.2H17.0357L19.2077 84.328L21.3317 80.2H22.3877ZM26.7795 80.2C27.2595 80.2 27.6915 80.3 28.0755 80.5C28.4675 80.7 28.7755 80.992 28.9995 81.376C29.2235 81.752 29.3355 82.196 29.3355 82.708C29.3355 83.22 29.2235 83.668 28.9995 84.052C28.7755 84.428 28.4675 84.72 28.0755 84.928C27.6915 85.128 27.2595 85.228 26.7795 85.228H24.5595V88H23.6235V80.2H26.7795ZM26.7675 84.316C27.2555 84.316 27.6475 84.172 27.9435 83.884C28.2475 83.588 28.3995 83.196 28.3995 82.708C28.3995 82.212 28.2475 81.82 27.9435 81.532C27.6475 81.244 27.2555 81.1 26.7675 81.1H24.5595V84.316H26.7675ZM36.2071 81.076H33.6031V88H32.6671V81.076H30.0511V80.2H36.2071V81.076ZM40.1811 88.12C39.4851 88.12 38.8451 87.956 38.2611 87.628C37.6851 87.292 37.2291 86.82 36.8931 86.212C36.5571 85.596 36.3891 84.892 36.3891 84.1C36.3891 83.308 36.5571 82.608 36.8931 82C37.2291 81.384 37.6851 80.912 38.2611 80.584C38.8451 80.248 39.4851 80.08 40.1811 80.08C40.8851 80.08 41.5251 80.248 42.1011 80.584C42.6771 80.912 43.1331 81.384 43.4691 82C43.8131 82.608 43.9851 83.308 43.9851 84.1C43.9851 84.892 43.8131 85.596 43.4691 86.212C43.1331 86.82 42.6771 87.292 42.1011 87.628C41.5251 87.956 40.8851 88.12 40.1811 88.12ZM40.1811 87.208C40.6851 87.208 41.1531 87.088 41.5851 86.848C42.0251 86.6 42.3771 86.244 42.6411 85.78C42.9131 85.308 43.0491 84.748 43.0491 84.1C43.0491 83.452 42.9131 82.892 42.6411 82.42C42.3771 81.948 42.0251 81.592 41.5851 81.352C41.1531 81.104 40.6851 80.98 40.1811 80.98C39.6771 80.98 39.2051 81.104 38.7651 81.352C38.3331 81.592 37.9851 81.948 37.7211 82.42C37.4571 82.892 37.3251 83.452 37.3251 84.1C37.3251 84.748 37.4571 85.308 37.7211 85.78C37.9851 86.244 38.3331 86.6 38.7651 86.848C39.2051 87.088 39.6771 87.208 40.1811 87.208ZM7.584 97.396C7.504 97.948 7.312 98.432 7.008 98.848C6.704 99.256 6.32 99.572 5.856 99.796C5.392 100.012 4.88 100.12 4.32 100.12C3.624 100.12 2.992 99.956 2.424 99.628C1.856 99.292 1.408 98.82 1.08 98.212C0.76 97.596 0.6 96.892 0.6 96.1C0.6 95.308 0.76 94.608 1.08 94C1.408 93.384 1.856 92.912 2.424 92.584C2.992 92.248 3.624 92.08 4.32 92.08C4.888 92.08 5.404 92.192 5.868 92.416C6.332 92.632 6.712 92.948 7.008 93.364C7.312 93.772 7.504 94.256 7.584 94.816H6.72C6.552 94.232 6.252 93.776 5.82 93.448C5.388 93.12 4.888 92.956 4.32 92.956C3.824 92.956 3.364 93.08 2.94 93.328C2.516 93.576 2.176 93.94 1.92 94.42C1.664 94.892 1.536 95.452 1.536 96.1C1.536 96.748 1.664 97.312 1.92 97.792C2.176 98.264 2.516 98.624 2.94 98.872C3.364 99.112 3.824 99.232 4.32 99.232C4.888 99.232 5.388 99.072 5.82 98.752C6.252 98.432 6.552 97.98 6.72 97.396H7.584ZM15.4637 92.2V97.012C15.4637 98.068 15.1797 98.852 14.6117 99.364C14.0517 99.868 13.2877 100.12 12.3197 100.12C11.3437 100.12 10.5677 99.868 9.99169 99.364C9.42369 98.852 9.13969 98.068 9.13969 97.012V92.2H10.0757V97.012C10.0757 97.828 10.2757 98.4 10.6757 98.728C11.0837 99.048 11.6317 99.208 12.3197 99.208C12.9917 99.208 13.5277 99.048 13.9277 98.728C14.3357 98.4 14.5397 97.828 14.5397 97.012V92.2H15.4637ZM21.5054 96.4C22.0814 96.44 22.5094 96.58 22.7894 96.82C23.0774 97.052 23.2214 97.464 23.2214 98.056V100H22.2974L22.2854 98.044C22.2854 97.22 21.7094 96.808 20.5574 96.808H18.3374V100H17.4014V92.2H20.7734C21.5894 92.2 22.2214 92.388 22.6694 92.764C23.1174 93.14 23.3414 93.688 23.3414 94.408C23.3414 94.984 23.1774 95.436 22.8494 95.764C22.5214 96.092 22.0734 96.304 21.5054 96.4ZM18.3374 95.896H20.7734V96.364V95.896C21.2614 95.896 21.6534 95.76 21.9494 95.488C22.2534 95.208 22.4054 94.844 22.4054 94.396C22.4054 93.988 22.2574 93.672 21.9614 93.448C21.6654 93.216 21.2694 93.1 20.7734 93.1H18.3374V95.896ZM29.1226 96.4C29.6986 96.44 30.1266 96.58 30.4066 96.82C30.6946 97.052 30.8386 97.464 30.8386 98.056V100H29.9146L29.9026 98.044C29.9026 97.22 29.3266 96.808 28.1746 96.808H25.9546V100H25.0186V92.2H28.3906C29.2066 92.2 29.8386 92.388 30.2866 92.764C30.7346 93.14 30.9586 93.688 30.9586 94.408C30.9586 94.984 30.7946 95.436 30.4666 95.764C30.1386 96.092 29.6906 96.304 29.1226 96.4ZM25.9546 95.896H28.3906V96.364V95.896C28.8786 95.896 29.2706 95.76 29.5666 95.488C29.8706 95.208 30.0226 94.844 30.0226 94.396C30.0226 93.988 29.8746 93.672 29.5786 93.448C29.2826 93.216 28.8866 93.1 28.3906 93.1H25.9546V95.896ZM38.0838 99.112V100H32.6358V92.2H38.0718V93.076H33.5718V95.668H37.2558V96.568H33.5718V99.112H38.0838ZM46.3968 92.2V100H45.4608L40.6968 93.7V100H39.7608V92.2H40.6968L45.4608 98.5V92.2H46.3968ZM54.9395 97.396C54.8595 97.948 54.6675 98.432 54.3635 98.848C54.0595 99.256 53.6755 99.572 53.2115 99.796C52.7475 100.012 52.2355 100.12 51.6755 100.12C50.9795 100.12 50.3475 99.956 49.7795 99.628C49.2115 99.292 48.7635 98.82 48.4355 98.212C48.1155 97.596 47.9555 96.892 47.9555 96.1C47.9555 95.308 48.1155 94.608 48.4355 94C48.7635 93.384 49.2115 92.912 49.7795 92.584C50.3475 92.248 50.9795 92.08 51.6755 92.08C52.2435 92.08 52.7595 92.192 53.2235 92.416C53.6875 92.632 54.0675 92.948 54.3635 93.364C54.6675 93.772 54.8595 94.256 54.9395 94.816H54.0755C53.9075 94.232 53.6075 93.776 53.1755 93.448C52.7435 93.12 52.2435 92.956 51.6755 92.956C51.1795 92.956 50.7195 93.08 50.2955 93.328C49.8715 93.576 49.5315 93.94 49.2755 94.42C49.0195 94.892 48.8915 95.452 48.8915 96.1C48.8915 96.748 49.0195 97.312 49.2755 97.792C49.5315 98.264 49.8715 98.624 50.2955 98.872C50.7195 99.112 51.1795 99.232 51.6755 99.232C52.2435 99.232 52.7435 99.072 53.1755 98.752C53.6075 98.432 53.9075 97.98 54.0755 97.396H54.9395ZM57.6712 92.2V100H56.7352V92.2H57.6712ZM65.283 99.112V100H59.835V92.2H65.271V93.076H60.771V95.668H64.455V96.568H60.771V99.112H65.283ZM67.332 97.48C67.356 97.816 67.464 98.12 67.656 98.392C67.848 98.656 68.096 98.864 68.4 99.016C68.704 99.168 69.028 99.244 69.372 99.244C69.804 99.244 70.152 99.124 70.416 98.884C70.688 98.644 70.824 98.336 70.824 97.96C70.824 97.72 70.764 97.524 70.644 97.372C70.524 97.212 70.368 97.084 70.176 96.988C69.992 96.884 69.74 96.776 69.42 96.664C69.412 96.656 69.328 96.624 69.168 96.568C68.568 96.336 68.112 96.148 67.8 96.004C67.488 95.852 67.204 95.628 66.948 95.332C66.7 95.036 66.576 94.66 66.576 94.204C66.576 93.812 66.672 93.456 66.864 93.136C67.064 92.808 67.344 92.552 67.704 92.368C68.072 92.176 68.5 92.08 68.988 92.08C69.74 92.08 70.328 92.308 70.752 92.764C71.176 93.212 71.38 93.812 71.364 94.564H70.536C70.52 94.028 70.364 93.632 70.068 93.376C69.772 93.112 69.396 92.98 68.94 92.98C68.54 92.98 68.2 93.076 67.92 93.268C67.648 93.46 67.512 93.756 67.512 94.156C67.512 94.404 67.568 94.604 67.68 94.756C67.8 94.908 67.948 95.032 68.124 95.128C68.308 95.224 68.58 95.34 68.94 95.476L69.408 95.656C69.464 95.68 69.516 95.704 69.564 95.728C69.62 95.752 69.672 95.772 69.72 95.788C70.144 95.956 70.492 96.116 70.764 96.268C71.036 96.42 71.268 96.636 71.46 96.916C71.66 97.188 71.76 97.532 71.76 97.948C71.76 98.596 71.56 99.12 71.16 99.52C70.76 99.92 70.188 100.12 69.444 100.12C68.772 100.12 68.212 99.98 67.764 99.7C67.324 99.412 67 99.076 66.792 98.692C66.584 98.3 66.48 97.956 66.48 97.66C66.48 97.604 66.488 97.544 66.504 97.48H67.332Z" fill="white"/>
<path d="M173.5 166L167.871 160L179.129 160L173.5 166Z" fill="white" fill-opacity="0.5"/>
<path d="M173.5 17L179.129 23L167.871 23L173.5 17Z" fill="white" fill-opacity="0.5"/>
<path d="M78 90L84.75 83.9378L84.75 96.0622L78 90Z" fill="white" fill-opacity="0.5"/>
<defs>
<filter id="filter0_d" x="91" y="8" width="204" height="167" filterUnits="userSpaceOnUse" color-interpolation-filters="sRGB">
<feFlood flood-opacity="0" result="BackgroundImageFix"/>
<feColorMatrix in="SourceAlpha" type="matrix" values="0 0 0 0 0 0 0 0 0 0 0 0 0 0 0 0 0 0 127 0"/>
<feOffset dx="20"/>
<feGaussianBlur stdDeviation="10"/>
<feColorMatrix type="matrix" values="0 0 0 0 0 0 0 0 0 0 0 0 0 0 0 0 0 0 0.4 0"/>
<feBlend mode="normal" in2="BackgroundImageFix" result="effect1_dropShadow"/>
<feBlend mode="normal" in="SourceGraphic" in2="effect1_dropShadow" result="shape"/>
</filter>
<linearGradient id="paint0_linear" x1="217.356" y1="57.5552" x2="125.684" y2="129.494" gradientUnits="userSpaceOnUse">
<stop stop-color="#171717"/>
<stop offset="1" stop-color="#222222"/>
</linearGradient>
<linearGradient id="paint1_linear" x1="173.001" y1="153.089" x2="173.001" y2="29.9114" gradientUnits="userSpaceOnUse">
<stop/>
<stop offset="1" stop-color="#484646"/>
</linearGradient>
</defs>
</svg>
