<svg width="338" height="198" viewBox="0 0 338 198" fill="none" xmlns="http://www.w3.org/2000/svg">
<g filter="url(#filter0_d)">
<path d="M237 95.0018C237 100.418 234.463 105.353 230.035 108.549L170.633 151.424C162.178 157.525 150.822 157.525 142.367 151.424L82.9647 108.545C78.5407 105.35 76 100.414 76 94.9982C76 89.5823 78.5372 84.6465 82.9647 81.4513L142.367 38.5757C150.822 32.4748 162.178 32.4748 170.633 38.5757L230.039 81.4548C234.463 84.6465 237 89.5858 237 95.0018Z" fill="url(#paint0_linear)"/>
<path d="M237 95.0018C237 100.418 234.463 105.353 230.035 108.549L170.633 151.424C162.178 157.525 150.822 157.525 142.367 151.424L82.9647 108.545C78.5407 105.35 76 100.414 76 94.9982C76 89.5823 78.5372 84.6465 82.9647 81.4513L142.367 38.5757C150.822 32.4748 162.178 32.4748 170.633 38.5757L230.039 81.4548C234.463 84.6465 237 89.5858 237 95.0018Z" stroke="url(#paint1_linear)" stroke-width="4" stroke-miterlimit="10"/>
</g>
<path d="M127.763 95.816V97H120.499V86.6H127.747V87.768H121.747V91.224H126.659V92.424H121.747V95.816H127.763ZM138.831 93.528C138.724 94.264 138.468 94.9093 138.063 95.464C137.657 96.008 137.145 96.4293 136.527 96.728C135.908 97.016 135.225 97.16 134.479 97.16C133.551 97.16 132.708 96.9413 131.951 96.504C131.193 96.056 130.596 95.4267 130.159 94.616C129.732 93.7947 129.519 92.856 129.519 91.8C129.519 90.744 129.732 89.8107 130.159 89C130.596 88.1787 131.193 87.5493 131.951 87.112C132.708 86.664 133.551 86.44 134.479 86.44C135.236 86.44 135.924 86.5893 136.543 86.888C137.161 87.176 137.668 87.5973 138.063 88.152C138.468 88.696 138.724 89.3413 138.831 90.088H137.679C137.455 89.3093 137.055 88.7013 136.479 88.264C135.903 87.8267 135.236 87.608 134.479 87.608C133.817 87.608 133.204 87.7733 132.639 88.104C132.073 88.4347 131.62 88.92 131.279 89.56C130.937 90.1893 130.767 90.936 130.767 91.8C130.767 92.664 130.937 93.416 131.279 94.056C131.62 94.6853 132.073 95.1653 132.639 95.496C133.204 95.816 133.817 95.976 134.479 95.976C135.236 95.976 135.903 95.7627 136.479 95.336C137.055 94.9093 137.455 94.3067 137.679 93.528H138.831ZM145.481 97.16C144.553 97.16 143.7 96.9413 142.921 96.504C142.153 96.056 141.545 95.4267 141.097 94.616C140.649 93.7947 140.425 92.856 140.425 91.8C140.425 90.744 140.649 89.8107 141.097 89C141.545 88.1787 142.153 87.5493 142.921 87.112C143.7 86.664 144.553 86.44 145.481 86.44C146.42 86.44 147.273 86.664 148.041 87.112C148.809 87.5493 149.417 88.1787 149.865 89C150.324 89.8107 150.553 90.744 150.553 91.8C150.553 92.856 150.324 93.7947 149.865 94.616C149.417 95.4267 148.809 96.056 148.041 96.504C147.273 96.9413 146.42 97.16 145.481 97.16ZM145.481 95.944C146.153 95.944 146.777 95.784 147.353 95.464C147.94 95.1333 148.409 94.6587 148.761 94.04C149.124 93.4107 149.305 92.664 149.305 91.8C149.305 90.936 149.124 90.1893 148.761 89.56C148.409 88.9307 147.94 88.456 147.353 88.136C146.777 87.8053 146.153 87.64 145.481 87.64C144.809 87.64 144.18 87.8053 143.593 88.136C143.017 88.456 142.553 88.9307 142.201 89.56C141.849 90.1893 141.673 90.936 141.673 91.8C141.673 92.664 141.849 93.4107 142.201 94.04C142.553 94.6587 143.017 95.1333 143.593 95.464C144.18 95.784 144.809 95.944 145.481 95.944ZM161.487 86.6V97H160.239L153.887 88.6V97H152.639V86.6H153.887L160.239 95V86.6H161.487ZM168.622 97.16C167.694 97.16 166.84 96.9413 166.062 96.504C165.294 96.056 164.686 95.4267 164.238 94.616C163.79 93.7947 163.566 92.856 163.566 91.8C163.566 90.744 163.79 89.8107 164.238 89C164.686 88.1787 165.294 87.5493 166.062 87.112C166.84 86.664 167.694 86.44 168.622 86.44C169.56 86.44 170.414 86.664 171.182 87.112C171.95 87.5493 172.558 88.1787 173.006 89C173.464 89.8107 173.694 90.744 173.694 91.8C173.694 92.856 173.464 93.7947 173.006 94.616C172.558 95.4267 171.95 96.056 171.182 96.504C170.414 96.9413 169.56 97.16 168.622 97.16ZM168.622 95.944C169.294 95.944 169.918 95.784 170.494 95.464C171.08 95.1333 171.55 94.6587 171.902 94.04C172.264 93.4107 172.446 92.664 172.446 91.8C172.446 90.936 172.264 90.1893 171.902 89.56C171.55 88.9307 171.08 88.456 170.494 88.136C169.918 87.8053 169.294 87.64 168.622 87.64C167.95 87.64 167.32 87.8053 166.734 88.136C166.158 88.456 165.694 88.9307 165.342 89.56C164.99 90.1893 164.814 90.936 164.814 91.8C164.814 92.664 164.99 93.4107 165.342 94.04C165.694 94.6587 166.158 95.1333 166.734 95.464C167.32 95.784 167.95 95.944 168.622 95.944ZM187.156 86.6V97H185.908V89.352L182.084 97H180.852L177.028 89.368V97H175.78V86.6H177.028L181.46 95.736L185.908 86.6H187.156ZM197.382 86.6L193.734 93.432V97H192.486V93.432L188.838 86.6H190.246L193.141 92.104L195.974 86.6H197.382Z" fill="white"/>
<path opacity="0.5" d="M260.896 83.1V85.656H264.58V86.568H260.896V90H259.96V82.2H265.396V83.1H260.896ZM271.871 89.124V90H267.527H266.651V82.2H267.587V89.124H271.871ZM277.841 87.948H274.445L273.701 90H272.717L275.657 82.2H276.629L279.593 90H278.585L277.841 87.948ZM277.505 87.048L276.149 83.328L274.781 87.048H277.505ZM285.469 83.076H282.865V90H281.929V83.076H279.313V82.2H285.469V83.076ZM266.584 99.396C266.504 99.948 266.312 100.432 266.008 100.848C265.704 101.256 265.32 101.572 264.856 101.796C264.392 102.012 263.88 102.12 263.32 102.12C262.624 102.12 261.992 101.956 261.424 101.628C260.856 101.292 260.408 100.82 260.08 100.212C259.76 99.596 259.6 98.892 259.6 98.1C259.6 97.308 259.76 96.608 260.08 96C260.408 95.384 260.856 94.912 261.424 94.584C261.992 94.248 262.624 94.08 263.32 94.08C263.888 94.08 264.404 94.192 264.868 94.416C265.332 94.632 265.712 94.948 266.008 95.364C266.312 95.772 266.504 96.256 266.584 96.816H265.72C265.552 96.232 265.252 95.776 264.82 95.448C264.388 95.12 263.888 94.956 263.32 94.956C262.824 94.956 262.364 95.08 261.94 95.328C261.516 95.576 261.176 95.94 260.92 96.42C260.664 96.892 260.536 97.452 260.536 98.1C260.536 98.748 260.664 99.312 260.92 99.792C261.176 100.264 261.516 100.624 261.94 100.872C262.364 101.112 262.824 101.232 263.32 101.232C263.888 101.232 264.388 101.072 264.82 100.752C265.252 100.432 265.552 99.98 265.72 99.396H266.584ZM274.464 94.2V99.012C274.464 100.068 274.18 100.852 273.612 101.364C273.052 101.868 272.288 102.12 271.32 102.12C270.344 102.12 269.568 101.868 268.992 101.364C268.424 100.852 268.14 100.068 268.14 99.012V94.2H269.076V99.012C269.076 99.828 269.276 100.4 269.676 100.728C270.084 101.048 270.632 101.208 271.32 101.208C271.992 101.208 272.528 101.048 272.928 100.728C273.336 100.4 273.54 99.828 273.54 99.012V94.2H274.464ZM280.505 98.4C281.081 98.44 281.509 98.58 281.789 98.82C282.077 99.052 282.221 99.464 282.221 100.056V102H281.297L281.285 100.044C281.285 99.22 280.709 98.808 279.557 98.808H277.337V102H276.401V94.2H279.773C280.589 94.2 281.221 94.388 281.669 94.764C282.117 95.14 282.341 95.688 282.341 96.408C282.341 96.984 282.177 97.436 281.849 97.764C281.521 98.092 281.073 98.304 280.505 98.4ZM277.337 97.896H279.773V98.364V97.896C280.261 97.896 280.653 97.76 280.949 97.488C281.253 97.208 281.405 96.844 281.405 96.396C281.405 95.988 281.257 95.672 280.961 95.448C280.665 95.216 280.269 95.1 279.773 95.1H277.337V97.896ZM288.123 98.4C288.699 98.44 289.127 98.58 289.407 98.82C289.695 99.052 289.839 99.464 289.839 100.056V102H288.915L288.903 100.044C288.903 99.22 288.327 98.808 287.175 98.808H284.955V102H284.019V94.2H287.391C288.207 94.2 288.839 94.388 289.287 94.764C289.735 95.14 289.959 95.688 289.959 96.408C289.959 96.984 289.795 97.436 289.467 97.764C289.139 98.092 288.691 98.304 288.123 98.4ZM284.955 97.896H287.391V98.364V97.896C287.879 97.896 288.271 97.76 288.567 97.488C288.871 97.208 289.023 96.844 289.023 96.396C289.023 95.988 288.875 95.672 288.579 95.448C288.283 95.216 287.887 95.1 287.391 95.1H284.955V97.896ZM297.084 101.112V102H291.636V94.2H297.072V95.076H292.572V97.668H296.256V98.568H292.572V101.112H297.084ZM305.397 94.2V102H304.461L299.697 95.7V102H298.761V94.2H299.697L304.461 100.5V94.2H305.397ZM313.939 99.396C313.859 99.948 313.667 100.432 313.363 100.848C313.059 101.256 312.675 101.572 312.211 101.796C311.747 102.012 311.235 102.12 310.675 102.12C309.979 102.12 309.347 101.956 308.779 101.628C308.211 101.292 307.763 100.82 307.435 100.212C307.115 99.596 306.955 98.892 306.955 98.1C306.955 97.308 307.115 96.608 307.435 96C307.763 95.384 308.211 94.912 308.779 94.584C309.347 94.248 309.979 94.08 310.675 94.08C311.243 94.08 311.759 94.192 312.223 94.416C312.687 94.632 313.067 94.948 313.363 95.364C313.667 95.772 313.859 96.256 313.939 96.816H313.075C312.907 96.232 312.607 95.776 312.175 95.448C311.743 95.12 311.243 94.956 310.675 94.956C310.179 94.956 309.719 95.08 309.295 95.328C308.871 95.576 308.531 95.94 308.275 96.42C308.019 96.892 307.891 97.452 307.891 98.1C307.891 98.748 308.019 99.312 308.275 99.792C308.531 100.264 308.871 100.624 309.295 100.872C309.719 101.112 310.179 101.232 310.675 101.232C311.243 101.232 311.743 101.072 312.175 100.752C312.607 100.432 312.907 99.98 313.075 99.396H313.939ZM320.763 94.2L318.027 99.324V102H317.091V99.324L314.355 94.2H315.411L317.583 98.328L319.707 94.2H320.763Z" fill="white"/>
<path opacity="0.5" d="M38.9066 96.228L38.8946 99H37.9826C37.9826 98.464 38.0146 97.7 38.0786 96.708C37.9026 97.508 37.5786 98.112 37.1066 98.52C36.6346 98.92 36.0266 99.12 35.2826 99.12C34.5866 99.12 33.9626 98.948 33.4106 98.604C32.8586 98.26 32.4266 97.784 32.1146 97.176C31.8106 96.56 31.6586 95.868 31.6586 95.1C31.6586 94.324 31.8146 93.632 32.1266 93.024C32.4466 92.408 32.8866 91.932 33.4466 91.596C34.0146 91.252 34.6586 91.08 35.3786 91.08C35.9546 91.08 36.4746 91.192 36.9386 91.416C37.4026 91.64 37.7746 91.96 38.0546 92.376C38.3426 92.792 38.5146 93.272 38.5706 93.816H37.7786C37.6266 93.248 37.3346 92.8 36.9026 92.472C36.4706 92.144 35.9626 91.98 35.3786 91.98C34.8426 91.98 34.3626 92.112 33.9386 92.376C33.5146 92.64 33.1826 93.008 32.9426 93.48C32.7106 93.952 32.5946 94.492 32.5946 95.1C32.5946 95.708 32.7106 96.248 32.9426 96.72C33.1826 97.184 33.5106 97.548 33.9266 97.812C34.3426 98.076 34.8186 98.208 35.3546 98.208C35.9466 98.208 36.4346 98.04 36.8186 97.704C37.2026 97.36 37.4506 96.876 37.5626 96.252L35.8346 96.276V95.388H38.9066V96.228ZM43.0333 91.2C44.4893 91.2 45.5413 91.556 46.1893 92.268C46.8373 92.98 47.1613 93.912 47.1613 95.064C47.1613 95.792 47.0173 96.452 46.7293 97.044C46.4493 97.636 46.0013 98.112 45.3853 98.472C44.7693 98.824 43.9853 99 43.0333 99H40.5733V91.2H43.0333ZM43.0333 98.1C44.1933 98.1 45.0173 97.812 45.5053 97.236C46.0013 96.652 46.2493 95.928 46.2493 95.064C46.2493 94.2 46.0013 93.492 45.5053 92.94C45.0173 92.38 44.1933 92.1 43.0333 92.1H41.5093V98.1H43.0333ZM51.8498 91.2C52.3298 91.2 52.7618 91.3 53.1458 91.5C53.5378 91.7 53.8458 91.992 54.0698 92.376C54.2938 92.752 54.4058 93.196 54.4058 93.708C54.4058 94.22 54.2938 94.668 54.0698 95.052C53.8458 95.428 53.5378 95.72 53.1458 95.928C52.7618 96.128 52.3298 96.228 51.8498 96.228H49.6298V99H48.6938V91.2H51.8498ZM51.8378 95.316C52.3258 95.316 52.7178 95.172 53.0138 94.884C53.3178 94.588 53.4698 94.196 53.4698 93.708C53.4698 93.212 53.3178 92.82 53.0138 92.532C52.7178 92.244 52.3258 92.1 51.8378 92.1H49.6298V95.316H51.8378Z" fill="white"/>
<path opacity="0.5" d="M140.804 4.1V6.656H144.488V7.568H140.804V11H139.868V3.2H145.304V4.1H140.804ZM149.628 11.12C148.932 11.12 148.292 10.956 147.708 10.628C147.132 10.292 146.676 9.82 146.34 9.212C146.004 8.596 145.836 7.892 145.836 7.1C145.836 6.308 146.004 5.608 146.34 5C146.676 4.384 147.132 3.912 147.708 3.584C148.292 3.248 148.932 3.08 149.628 3.08C150.332 3.08 150.972 3.248 151.548 3.584C152.124 3.912 152.58 4.384 152.916 5C153.26 5.608 153.432 6.308 153.432 7.1C153.432 7.892 153.26 8.596 152.916 9.212C152.58 9.82 152.124 10.292 151.548 10.628C150.972 10.956 150.332 11.12 149.628 11.12ZM149.628 10.208C150.132 10.208 150.6 10.088 151.032 9.848C151.472 9.6 151.824 9.244 152.088 8.78C152.36 8.308 152.496 7.748 152.496 7.1C152.496 6.452 152.36 5.892 152.088 5.42C151.824 4.948 151.472 4.592 151.032 4.352C150.6 4.104 150.132 3.98 149.628 3.98C149.124 3.98 148.652 4.104 148.212 4.352C147.78 4.592 147.432 4.948 147.168 5.42C146.904 5.892 146.772 6.452 146.772 7.1C146.772 7.748 146.904 8.308 147.168 8.78C147.432 9.244 147.78 9.6 148.212 9.848C148.652 10.088 149.124 10.208 149.628 10.208ZM159.101 7.4C159.677 7.44 160.105 7.58 160.385 7.82C160.673 8.052 160.817 8.464 160.817 9.056V11H159.893L159.881 9.044C159.881 8.22 159.305 7.808 158.153 7.808H155.933V11H154.997V3.2H158.369C159.185 3.2 159.817 3.388 160.265 3.764C160.713 4.14 160.937 4.688 160.937 5.408C160.937 5.984 160.773 6.436 160.445 6.764C160.117 7.092 159.669 7.304 159.101 7.4ZM155.933 6.896H158.369V7.364V6.896C158.857 6.896 159.249 6.76 159.545 6.488C159.849 6.208 160.001 5.844 160.001 5.396C160.001 4.988 159.853 4.672 159.557 4.448C159.261 4.216 158.865 4.1 158.369 4.1H155.933V6.896ZM168.062 10.112V11H162.614V3.2H168.05V4.076H163.55V6.668H167.234V7.568H163.55V10.112H168.062ZM172.955 7.004L175.571 11H174.407L172.427 7.796L170.339 11H169.295L171.923 7.016L169.415 3.2H170.459L172.451 6.236L174.527 3.2H175.571L172.955 7.004Z" fill="white"/>
<path d="M157.5 18L163.129 24.75H151.871L157.5 18Z" fill="white" fill-opacity="0.5"/>
<path d="M254 91.5L247.25 97.1292L247.25 85.8708L254 91.5Z" fill="white" fill-opacity="0.5"/>
<path d="M59 94L65.75 87.9378L65.75 100.062L59 94Z" fill="white" fill-opacity="0.5"/>
<defs>
<filter id="filter0_d" x="54" y="32" width="205" height="166" filterUnits="userSpaceOnUse" color-interpolation-filters="sRGB">
<feFlood flood-opacity="0" result="BackgroundImageFix"/>
<feColorMatrix in="SourceAlpha" type="matrix" values="0 0 0 0 0 0 0 0 0 0 0 0 0 0 0 0 0 0 127 0"/>
<feOffset dy="20"/>
<feGaussianBlur stdDeviation="10"/>
<feColorMatrix type="matrix" values="0 0 0 0 0 0 0 0 0 0 0 0 0 0 0 0 0 0 0.4 0"/>
<feBlend mode="normal" in2="BackgroundImageFix" result="effect1_dropShadow"/>
<feBlend mode="normal" in="SourceGraphic" in2="effect1_dropShadow" result="shape"/>
</filter>
<linearGradient id="paint0_linear" x1="201.134" y1="61.3312" x2="109.904" y2="133.961" gradientUnits="userSpaceOnUse">
<stop stop-color="#171717"/>
<stop offset="1" stop-color="#222222"/>
</linearGradient>
<linearGradient id="paint1_linear" x1="156.501" y1="156.088" x2="156.501" y2="33.9122" gradientUnits="userSpaceOnUse">
<stop/>
<stop offset="1" stop-color="#484646"/>
</linearGradient>
</defs>
</svg>
