<svg width="372" height="198" viewBox="0 0 372 198" fill="none" xmlns="http://www.w3.org/2000/svg">
<g filter="url(#filter0_d)">
<path d="M264 103.502C264 108.962 261.479 113.938 257.079 117.16L198.045 160.387C189.643 166.538 178.357 166.538 169.955 160.387L110.921 117.156C106.525 113.935 104 108.959 104 103.498C104 98.0379 106.521 93.0616 110.921 89.8403L169.955 46.6132C178.357 40.4623 189.643 40.4623 198.045 46.6132L257.082 89.8438C261.479 93.0616 264 98.0414 264 103.502Z" fill="url(#paint0_linear)"/>
<path d="M264 103.502C264 108.962 261.479 113.938 257.079 117.16L198.045 160.387C189.643 166.538 178.357 166.538 169.955 160.387L110.921 117.156C106.525 113.935 104 108.959 104 103.498C104 98.0379 106.521 93.0616 110.921 89.8403L169.955 46.6132C178.357 40.4623 189.643 40.4623 198.045 46.6132L257.082 89.8438C261.479 93.0616 264 98.0414 264 103.502Z" stroke="url(#paint1_linear)" stroke-width="4" stroke-miterlimit="10"/>
</g>
<path d="M152.75 109.04H151.902L157.454 99.632H159.294V110H157.454V102.256L157.87 102.384L153.342 110H151.326L146.798 102.4L147.214 102.288V110H145.374V99.632H147.214L152.75 109.04ZM163.252 107.584V106H169.492V107.584H163.252ZM160.836 110L165.396 99.632H167.38L171.988 110H169.972L165.988 100.64H166.788L162.82 110H160.836ZM173.53 110V99.632H179.738C180.517 99.632 181.189 99.744 181.754 99.968C182.319 100.181 182.757 100.517 183.066 100.976C183.375 101.424 183.53 102 183.53 102.704C183.53 103.184 183.45 103.595 183.29 103.936C183.13 104.267 182.906 104.539 182.618 104.752C182.33 104.965 181.994 105.131 181.61 105.248C181.237 105.355 180.831 105.424 180.394 105.456L180.234 105.344C180.917 105.365 181.487 105.435 181.946 105.552C182.405 105.659 182.751 105.861 182.986 106.16C183.221 106.459 183.338 106.901 183.338 107.488V110H181.482V107.584C181.482 107.179 181.413 106.864 181.274 106.64C181.135 106.416 180.89 106.261 180.538 106.176C180.186 106.08 179.69 106.032 179.05 106.032H175.37V110H173.53ZM175.37 104.528H179.738C180.378 104.528 180.863 104.373 181.194 104.064C181.525 103.744 181.69 103.323 181.69 102.8C181.69 102.299 181.525 101.915 181.194 101.648C180.863 101.381 180.378 101.248 179.738 101.248H175.37V104.528ZM189.54 104.96V104.08L196.196 110H193.556L187.604 104.56L192.884 99.632H195.476L189.54 104.96ZM185.764 99.632H187.604V110H185.764V99.632ZM199.651 105.6V108.416H207.011V110H197.811V99.632H206.995V101.216H199.651V104.08H205.667V105.6H199.651ZM208.257 99.632H218.305V101.216H208.257V99.632ZM212.369 101.024H214.209V110H212.369V101.024ZM219.17 106.544H220.994C221.026 106.939 221.181 107.296 221.458 107.616C221.735 107.925 222.098 108.171 222.546 108.352C223.005 108.523 223.527 108.608 224.114 108.608C224.637 108.608 225.069 108.544 225.41 108.416C225.751 108.288 226.007 108.112 226.178 107.888C226.349 107.664 226.434 107.392 226.434 107.072C226.434 106.763 226.333 106.523 226.13 106.352C225.938 106.181 225.634 106.037 225.218 105.92C224.802 105.803 224.274 105.685 223.634 105.568C223.101 105.461 222.589 105.328 222.098 105.168C221.607 105.008 221.165 104.805 220.77 104.56C220.386 104.315 220.082 104.016 219.858 103.664C219.634 103.312 219.522 102.891 219.522 102.4C219.522 101.835 219.677 101.328 219.986 100.88C220.306 100.432 220.775 100.08 221.394 99.824C222.023 99.568 222.791 99.44 223.698 99.44C225.063 99.44 226.103 99.7547 226.818 100.384C227.543 101.003 227.895 101.851 227.874 102.928H226.114C226.071 102.256 225.821 101.776 225.362 101.488C224.903 101.189 224.322 101.04 223.618 101.04C222.978 101.04 222.445 101.152 222.018 101.376C221.591 101.589 221.378 101.947 221.378 102.448C221.378 102.651 221.426 102.832 221.522 102.992C221.629 103.141 221.799 103.28 222.034 103.408C222.279 103.525 222.605 103.643 223.01 103.76C223.426 103.867 223.938 103.979 224.546 104.096C225.058 104.192 225.538 104.315 225.986 104.464C226.445 104.603 226.839 104.789 227.17 105.024C227.511 105.248 227.778 105.536 227.97 105.888C228.162 106.24 228.258 106.672 228.258 107.184C228.258 107.771 228.109 108.293 227.81 108.752C227.511 109.2 227.053 109.557 226.434 109.824C225.815 110.08 225.015 110.208 224.034 110.208C223.287 110.208 222.637 110.123 222.082 109.952C221.538 109.771 221.069 109.541 220.674 109.264C220.29 108.976 219.981 108.667 219.746 108.336C219.511 108.005 219.346 107.685 219.25 107.376C219.165 107.056 219.138 106.779 219.17 106.544Z" fill="white"/>
<path opacity="0.5" d="M24.4712 105V97.224H28.4792C29.4392 97.224 30.1752 97.404 30.6872 97.764C31.1992 98.116 31.4552 98.628 31.4552 99.3C31.4552 99.732 31.3552 100.076 31.1552 100.332C30.9552 100.58 30.6752 100.768 30.3152 100.896C29.9552 101.016 29.5272 101.092 29.0312 101.124L29.0792 101.052C29.4392 101.06 29.7792 101.092 30.0992 101.148C30.4192 101.196 30.6992 101.284 30.9392 101.412C31.1872 101.54 31.3792 101.72 31.5152 101.952C31.6592 102.176 31.7312 102.468 31.7312 102.828C31.7312 103.308 31.6112 103.704 31.3712 104.016C31.1312 104.328 30.7952 104.568 30.3632 104.736C29.9392 104.896 29.4472 104.984 28.8872 105H24.4712ZM25.8512 103.824H28.6952C29.2152 103.824 29.6152 103.736 29.8952 103.56C30.1832 103.376 30.3272 103.092 30.3272 102.708C30.3272 102.412 30.2392 102.196 30.0632 102.06C29.8952 101.924 29.6712 101.836 29.3912 101.796C29.1112 101.756 28.8192 101.736 28.5152 101.736H25.8512V103.824ZM25.8512 100.584H28.3952C28.9152 100.584 29.3152 100.496 29.5952 100.32C29.8832 100.136 30.0272 99.852 30.0272 99.468C30.0272 99.084 29.8832 98.812 29.5952 98.652C29.3152 98.484 28.9472 98.4 28.4912 98.4H25.8512V100.584ZM37.4025 105.144C36.4825 105.144 35.6785 104.98 34.9905 104.652C34.3105 104.324 33.7825 103.86 33.4065 103.26C33.0385 102.66 32.8545 101.944 32.8545 101.112C32.8545 100.28 33.0385 99.564 33.4065 98.964C33.7825 98.356 34.3105 97.892 34.9905 97.572C35.6785 97.244 36.4825 97.08 37.4025 97.08C38.3385 97.08 39.1425 97.244 39.8145 97.572C40.4945 97.892 41.0225 98.356 41.3985 98.964C41.7745 99.564 41.9625 100.28 41.9625 101.112C41.9625 101.944 41.7745 102.66 41.3985 103.26C41.0225 103.86 40.4945 104.324 39.8145 104.652C39.1425 104.98 38.3385 105.144 37.4025 105.144ZM37.4025 103.92C38.0105 103.92 38.5465 103.82 39.0105 103.62C39.4825 103.412 39.8505 103.1 40.1145 102.684C40.3865 102.268 40.5225 101.744 40.5225 101.112C40.5225 100.488 40.3865 99.968 40.1145 99.552C39.8505 99.136 39.4825 98.824 39.0105 98.616C38.5465 98.408 38.0105 98.304 37.4025 98.304C36.8025 98.304 36.2625 98.408 35.7825 98.616C35.3105 98.824 34.9385 99.136 34.6665 99.552C34.3945 99.968 34.2585 100.488 34.2585 101.112C34.2585 101.744 34.3945 102.268 34.6665 102.684C34.9385 103.1 35.3105 103.412 35.7825 103.62C36.2625 103.82 36.8025 103.92 37.4025 103.92ZM50.7858 103.56L50.3538 103.728V97.224H51.7458V105H50.3538L44.4858 98.7L44.9058 98.532V105H43.5258V97.224H44.9058L50.7858 103.56ZM57.4197 97.224C58.2597 97.224 58.9637 97.328 59.5317 97.536C60.0997 97.744 60.5517 98.028 60.8877 98.388C61.2317 98.74 61.4757 99.148 61.6197 99.612C61.7637 100.076 61.8357 100.564 61.8357 101.076C61.8357 101.596 61.7557 102.092 61.5957 102.564C61.4357 103.036 61.1797 103.456 60.8277 103.824C60.4837 104.184 60.0317 104.472 59.4717 104.688C58.9117 104.896 58.2277 105 57.4197 105H53.6157V97.224H57.4197ZM54.9957 103.788H57.3957C57.9877 103.788 58.4797 103.712 58.8717 103.56C59.2637 103.408 59.5717 103.204 59.7957 102.948C60.0277 102.692 60.1917 102.404 60.2877 102.084C60.3917 101.756 60.4437 101.42 60.4437 101.076C60.4437 100.74 60.3917 100.416 60.2877 100.104C60.1917 99.784 60.0277 99.5 59.7957 99.252C59.5717 99.004 59.2637 98.808 58.8717 98.664C58.4797 98.512 57.9877 98.436 57.3957 98.436H54.9957V103.788ZM28.1178 111.224L24.9258 116.48V119H23.5338V116.48L20.3418 111.224H21.9378L24.6378 115.82H23.8698L26.5218 111.224H28.1178ZM29.539 111.224H30.931V119H29.539V111.224ZM34.3941 115.7V117.812H39.9141V119H33.0141V111.224H39.9021V112.412H34.3941V114.56H38.9061V115.7H34.3941ZM42.9488 111.224V117.812H47.8328V119H41.5688V111.224H42.9488ZM53.1541 111.224C53.9941 111.224 54.6981 111.328 55.2661 111.536C55.8341 111.744 56.2861 112.028 56.6221 112.388C56.9661 112.74 57.2101 113.148 57.3541 113.612C57.4981 114.076 57.5701 114.564 57.5701 115.076C57.5701 115.596 57.4901 116.092 57.3301 116.564C57.1701 117.036 56.9141 117.456 56.5621 117.824C56.2181 118.184 55.7661 118.472 55.2061 118.688C54.6461 118.896 53.9621 119 53.1541 119H49.3501V111.224H53.1541ZM50.7301 117.788H53.1301C53.7221 117.788 54.2141 117.712 54.6061 117.56C54.9981 117.408 55.3061 117.204 55.5301 116.948C55.7621 116.692 55.9261 116.404 56.0221 116.084C56.1261 115.756 56.1781 115.42 56.1781 115.076C56.1781 114.74 56.1261 114.416 56.0221 114.104C55.9261 113.784 55.7621 113.5 55.5301 113.252C55.3061 113.004 54.9981 112.808 54.6061 112.664C54.2141 112.512 53.7221 112.436 53.1301 112.436H50.7301V117.788ZM58.6192 116.408H59.9872C60.0112 116.704 60.1272 116.972 60.3352 117.212C60.5432 117.444 60.8152 117.628 61.1512 117.764C61.4952 117.892 61.8872 117.956 62.3272 117.956C62.7192 117.956 63.0432 117.908 63.2992 117.812C63.5552 117.716 63.7472 117.584 63.8752 117.416C64.0032 117.248 64.0672 117.044 64.0672 116.804C64.0672 116.572 63.9912 116.392 63.8392 116.264C63.6952 116.136 63.4672 116.028 63.1552 115.94C62.8432 115.852 62.4472 115.764 61.9672 115.676C61.5672 115.596 61.1832 115.496 60.8152 115.376C60.4472 115.256 60.1152 115.104 59.8192 114.92C59.5312 114.736 59.3032 114.512 59.1352 114.248C58.9672 113.984 58.8832 113.668 58.8832 113.3C58.8832 112.876 58.9992 112.496 59.2312 112.16C59.4712 111.824 59.8232 111.56 60.2872 111.368C60.7592 111.176 61.3352 111.08 62.0152 111.08C63.0392 111.08 63.8192 111.316 64.3552 111.788C64.8992 112.252 65.1632 112.888 65.1472 113.696H63.8272C63.7952 113.192 63.6072 112.832 63.2632 112.616C62.9192 112.392 62.4832 112.28 61.9552 112.28C61.4752 112.28 61.0752 112.364 60.7552 112.532C60.4352 112.692 60.2752 112.96 60.2752 113.336C60.2752 113.488 60.3112 113.624 60.3832 113.744C60.4632 113.856 60.5912 113.96 60.7672 114.056C60.9512 114.144 61.1952 114.232 61.4992 114.32C61.8112 114.4 62.1952 114.484 62.6512 114.572C63.0352 114.644 63.3952 114.736 63.7312 114.848C64.0752 114.952 64.3712 115.092 64.6192 115.268C64.8752 115.436 65.0752 115.652 65.2192 115.916C65.3632 116.18 65.4352 116.504 65.4352 116.888C65.4352 117.328 65.3232 117.72 65.0992 118.064C64.8752 118.4 64.5312 118.668 64.0672 118.868C63.6032 119.06 63.0032 119.156 62.2672 119.156C61.7072 119.156 61.2192 119.092 60.8032 118.964C60.3952 118.828 60.0432 118.656 59.7472 118.448C59.4592 118.232 59.2272 118 59.0512 117.752C58.8752 117.504 58.7512 117.264 58.6792 117.032C58.6152 116.792 58.5952 116.584 58.6192 116.408Z" fill="white"/>
<path opacity="0.5" d="M150.488 184.2V192H149.552V186.264L146.684 192H145.76L142.892 186.276V192H141.956V184.2H142.892L146.216 191.052L149.552 184.2H150.488ZM155.841 192.12C155.145 192.12 154.505 191.956 153.921 191.628C153.345 191.292 152.889 190.82 152.553 190.212C152.217 189.596 152.049 188.892 152.049 188.1C152.049 187.308 152.217 186.608 152.553 186C152.889 185.384 153.345 184.912 153.921 184.584C154.505 184.248 155.145 184.08 155.841 184.08C156.545 184.08 157.185 184.248 157.761 184.584C158.337 184.912 158.793 185.384 159.129 186C159.473 186.608 159.645 187.308 159.645 188.1C159.645 188.892 159.473 189.596 159.129 190.212C158.793 190.82 158.337 191.292 157.761 191.628C157.185 191.956 156.545 192.12 155.841 192.12ZM155.841 191.208C156.345 191.208 156.813 191.088 157.245 190.848C157.685 190.6 158.037 190.244 158.301 189.78C158.573 189.308 158.709 188.748 158.709 188.1C158.709 187.452 158.573 186.892 158.301 186.42C158.037 185.948 157.685 185.592 157.245 185.352C156.813 185.104 156.345 184.98 155.841 184.98C155.337 184.98 154.865 185.104 154.425 185.352C153.993 185.592 153.645 185.948 153.381 186.42C153.117 186.892 152.985 187.452 152.985 188.1C152.985 188.748 153.117 189.308 153.381 189.78C153.645 190.244 153.993 190.6 154.425 190.848C154.865 191.088 155.337 191.208 155.841 191.208ZM167.846 184.2V192H166.91L162.146 185.7V192H161.21V184.2H162.146L166.91 190.5V184.2H167.846ZM175.213 191.112V192H169.765V184.2H175.201V185.076H170.701V187.668H174.385V188.568H170.701V191.112H175.213ZM182.638 184.2L179.902 189.324V192H178.966V189.324L176.23 184.2H177.286L179.458 188.328L181.582 184.2H182.638ZM194.937 184.2V192H194.001V186.264L191.133 192H190.209L187.341 186.276V192H186.405V184.2H187.341L190.665 191.052L194.001 184.2H194.937ZM201.262 189.948H197.866L197.122 192H196.138L199.078 184.2H200.05L203.014 192H202.006L201.262 189.948ZM200.926 189.048L199.57 185.328L198.202 189.048H200.926ZM208.322 188.4C208.898 188.44 209.326 188.58 209.606 188.82C209.894 189.052 210.038 189.464 210.038 190.056V192H209.114L209.102 190.044C209.102 189.22 208.526 188.808 207.374 188.808H205.154V192H204.218V184.2H207.59C208.406 184.2 209.038 184.388 209.486 184.764C209.934 185.14 210.158 185.688 210.158 186.408C210.158 186.984 209.994 187.436 209.666 187.764C209.338 188.092 208.89 188.304 208.322 188.4ZM205.154 187.896H207.59V188.364V187.896C208.078 187.896 208.47 187.76 208.766 187.488C209.07 187.208 209.222 186.844 209.222 186.396C209.222 185.988 209.074 185.672 208.778 185.448C208.482 185.216 208.086 185.1 207.59 185.1H205.154V187.896ZM216.887 192L212.771 187.92V192H211.835V184.2H212.771V187.92L216.371 184.2H217.619L213.983 187.884L218.123 192H216.887ZM224.771 191.112V192H219.323V184.2H224.759V185.076H220.259V187.668H223.943V188.568H220.259V191.112H224.771ZM231.824 185.076H229.22V192H228.284V185.076H225.668V184.2H231.824V185.076Z" fill="white"/>
<path opacity="0.5" d="M306.754 104.408H308.122C308.146 104.704 308.262 104.972 308.47 105.212C308.678 105.444 308.95 105.628 309.286 105.764C309.63 105.892 310.022 105.956 310.462 105.956C310.854 105.956 311.178 105.908 311.434 105.812C311.69 105.716 311.882 105.584 312.01 105.416C312.138 105.248 312.202 105.044 312.202 104.804C312.202 104.572 312.126 104.392 311.974 104.264C311.83 104.136 311.602 104.028 311.29 103.94C310.978 103.852 310.582 103.764 310.102 103.676C309.702 103.596 309.318 103.496 308.95 103.376C308.582 103.256 308.25 103.104 307.954 102.92C307.666 102.736 307.438 102.512 307.27 102.248C307.102 101.984 307.018 101.668 307.018 101.3C307.018 100.876 307.134 100.496 307.366 100.16C307.606 99.824 307.958 99.56 308.422 99.368C308.894 99.176 309.47 99.08 310.15 99.08C311.174 99.08 311.954 99.316 312.49 99.788C313.034 100.252 313.298 100.888 313.282 101.696H311.962C311.93 101.192 311.742 100.832 311.398 100.616C311.054 100.392 310.618 100.28 310.09 100.28C309.61 100.28 309.21 100.364 308.89 100.532C308.57 100.692 308.41 100.96 308.41 101.336C308.41 101.488 308.446 101.624 308.518 101.744C308.598 101.856 308.726 101.96 308.902 102.056C309.086 102.144 309.33 102.232 309.634 102.32C309.946 102.4 310.33 102.484 310.786 102.572C311.17 102.644 311.53 102.736 311.866 102.848C312.21 102.952 312.506 103.092 312.754 103.268C313.01 103.436 313.21 103.652 313.354 103.916C313.498 104.18 313.57 104.504 313.57 104.888C313.57 105.328 313.458 105.72 313.234 106.064C313.01 106.4 312.666 106.668 312.202 106.868C311.738 107.06 311.138 107.156 310.402 107.156C309.842 107.156 309.354 107.092 308.938 106.964C308.53 106.828 308.178 106.656 307.882 106.448C307.594 106.232 307.362 106 307.186 105.752C307.01 105.504 306.886 105.264 306.814 105.032C306.75 104.792 306.73 104.584 306.754 104.408ZM314.261 99.224H321.797V100.412H314.261V99.224ZM317.345 100.268H318.725V107H317.345V100.268ZM326.6 107.144C325.68 107.144 324.876 106.98 324.188 106.652C323.508 106.324 322.98 105.86 322.604 105.26C322.236 104.66 322.052 103.944 322.052 103.112C322.052 102.28 322.236 101.564 322.604 100.964C322.98 100.356 323.508 99.892 324.188 99.572C324.876 99.244 325.68 99.08 326.6 99.08C327.536 99.08 328.34 99.244 329.012 99.572C329.692 99.892 330.22 100.356 330.596 100.964C330.972 101.564 331.16 102.28 331.16 103.112C331.16 103.944 330.972 104.66 330.596 105.26C330.22 105.86 329.692 106.324 329.012 106.652C328.34 106.98 327.536 107.144 326.6 107.144ZM326.6 105.92C327.208 105.92 327.744 105.82 328.208 105.62C328.68 105.412 329.048 105.1 329.312 104.684C329.584 104.268 329.72 103.744 329.72 103.112C329.72 102.488 329.584 101.968 329.312 101.552C329.048 101.136 328.68 100.824 328.208 100.616C327.744 100.408 327.208 100.304 326.6 100.304C326 100.304 325.46 100.408 324.98 100.616C324.508 100.824 324.136 101.136 323.864 101.552C323.592 101.968 323.456 102.488 323.456 103.112C323.456 103.744 323.592 104.268 323.864 104.684C324.136 105.1 324.508 105.412 324.98 105.62C325.46 105.82 326 105.92 326.6 105.92ZM341.003 104.264C340.923 104.872 340.711 105.392 340.367 105.824C340.023 106.248 339.559 106.576 338.975 106.808C338.399 107.032 337.727 107.144 336.959 107.144C336.295 107.144 335.683 107.056 335.123 106.88C334.571 106.704 334.091 106.448 333.683 106.112C333.283 105.768 332.971 105.348 332.747 104.852C332.523 104.348 332.411 103.772 332.411 103.124C332.411 102.468 332.523 101.892 332.747 101.396C332.971 100.892 333.283 100.468 333.683 100.124C334.091 99.78 334.571 99.52 335.123 99.344C335.683 99.168 336.295 99.08 336.959 99.08C337.735 99.08 338.411 99.196 338.987 99.428C339.571 99.66 340.035 99.996 340.379 100.436C340.723 100.868 340.931 101.388 341.003 101.996H339.647C339.543 101.636 339.371 101.332 339.131 101.084C338.891 100.828 338.587 100.636 338.219 100.508C337.851 100.372 337.431 100.304 336.959 100.304C336.359 100.304 335.819 100.412 335.339 100.628C334.867 100.844 334.495 101.16 334.223 101.576C333.959 101.992 333.827 102.508 333.827 103.124C333.827 103.732 333.959 104.244 334.223 104.66C334.495 105.076 334.867 105.392 335.339 105.608C335.819 105.824 336.359 105.932 336.959 105.932C337.431 105.932 337.847 105.868 338.207 105.74C338.575 105.604 338.879 105.412 339.119 105.164C339.359 104.908 339.535 104.608 339.647 104.264H341.003ZM345.399 103.22V102.56L350.391 107H348.411L343.947 102.92L347.907 99.224H349.851L345.399 103.22ZM342.567 99.224H343.947V107H342.567V99.224ZM302.969 113.224H304.361V121H302.969V113.224ZM313.704 119.56L313.272 119.728V113.224H314.664V121H313.272L307.404 114.7L307.824 114.532V121H306.444V113.224H307.824L313.704 119.56ZM320.338 113.224C321.178 113.224 321.882 113.328 322.45 113.536C323.018 113.744 323.47 114.028 323.806 114.388C324.15 114.74 324.394 115.148 324.538 115.612C324.682 116.076 324.754 116.564 324.754 117.076C324.754 117.596 324.674 118.092 324.514 118.564C324.354 119.036 324.098 119.456 323.746 119.824C323.402 120.184 322.95 120.472 322.39 120.688C321.83 120.896 321.146 121 320.338 121H316.534V113.224H320.338ZM317.914 119.788H320.314C320.906 119.788 321.398 119.712 321.79 119.56C322.182 119.408 322.49 119.204 322.714 118.948C322.946 118.692 323.11 118.404 323.206 118.084C323.31 117.756 323.362 117.42 323.362 117.076C323.362 116.74 323.31 116.416 323.206 116.104C323.11 115.784 322.946 115.5 322.714 115.252C322.49 115.004 322.182 114.808 321.79 114.664C321.398 114.512 320.906 114.436 320.314 114.436H317.914V119.788ZM326.547 113.224H327.939V121H326.547V113.224ZM338.302 118.264C338.222 118.872 338.01 119.392 337.666 119.824C337.322 120.248 336.858 120.576 336.274 120.808C335.698 121.032 335.026 121.144 334.258 121.144C333.594 121.144 332.982 121.056 332.422 120.88C331.87 120.704 331.39 120.448 330.982 120.112C330.582 119.768 330.27 119.348 330.046 118.852C329.822 118.348 329.71 117.772 329.71 117.124C329.71 116.468 329.822 115.892 330.046 115.396C330.27 114.892 330.582 114.468 330.982 114.124C331.39 113.78 331.87 113.52 332.422 113.344C332.982 113.168 333.594 113.08 334.258 113.08C335.034 113.08 335.71 113.196 336.286 113.428C336.87 113.66 337.334 113.996 337.678 114.436C338.022 114.868 338.23 115.388 338.302 115.996H336.946C336.842 115.636 336.67 115.332 336.43 115.084C336.19 114.828 335.886 114.636 335.518 114.508C335.15 114.372 334.73 114.304 334.258 114.304C333.658 114.304 333.118 114.412 332.638 114.628C332.166 114.844 331.794 115.16 331.522 115.576C331.258 115.992 331.126 116.508 331.126 117.124C331.126 117.732 331.258 118.244 331.522 118.66C331.794 119.076 332.166 119.392 332.638 119.608C333.118 119.824 333.658 119.932 334.258 119.932C334.73 119.932 335.146 119.868 335.506 119.74C335.874 119.604 336.178 119.412 336.418 119.164C336.658 118.908 336.834 118.608 336.946 118.264H338.302ZM341.246 117.7V119.812H346.766V121H339.866V113.224H346.754V114.412H341.246V116.56H345.758V117.7H341.246ZM347.904 118.408H349.272C349.296 118.704 349.412 118.972 349.62 119.212C349.828 119.444 350.1 119.628 350.436 119.764C350.78 119.892 351.172 119.956 351.612 119.956C352.004 119.956 352.328 119.908 352.584 119.812C352.84 119.716 353.032 119.584 353.16 119.416C353.288 119.248 353.352 119.044 353.352 118.804C353.352 118.572 353.276 118.392 353.124 118.264C352.98 118.136 352.752 118.028 352.44 117.94C352.128 117.852 351.732 117.764 351.252 117.676C350.852 117.596 350.468 117.496 350.1 117.376C349.732 117.256 349.4 117.104 349.104 116.92C348.816 116.736 348.588 116.512 348.42 116.248C348.252 115.984 348.168 115.668 348.168 115.3C348.168 114.876 348.284 114.496 348.516 114.16C348.756 113.824 349.108 113.56 349.572 113.368C350.044 113.176 350.62 113.08 351.3 113.08C352.324 113.08 353.104 113.316 353.64 113.788C354.184 114.252 354.448 114.888 354.432 115.696H353.112C353.08 115.192 352.892 114.832 352.548 114.616C352.204 114.392 351.768 114.28 351.24 114.28C350.76 114.28 350.36 114.364 350.04 114.532C349.72 114.692 349.56 114.96 349.56 115.336C349.56 115.488 349.596 115.624 349.668 115.744C349.748 115.856 349.876 115.96 350.052 116.056C350.236 116.144 350.48 116.232 350.784 116.32C351.096 116.4 351.48 116.484 351.936 116.572C352.32 116.644 352.68 116.736 353.016 116.848C353.36 116.952 353.656 117.092 353.904 117.268C354.16 117.436 354.36 117.652 354.504 117.916C354.648 118.18 354.72 118.504 354.72 118.888C354.72 119.328 354.608 119.72 354.384 120.064C354.16 120.4 353.816 120.668 353.352 120.868C352.888 121.06 352.288 121.156 351.552 121.156C350.992 121.156 350.504 121.092 350.088 120.964C349.68 120.828 349.328 120.656 349.032 120.448C348.744 120.232 348.512 120 348.336 119.752C348.16 119.504 348.036 119.264 347.964 119.032C347.9 118.792 347.88 118.584 347.904 118.408Z" fill="white"/>
<path d="M185 178L178.938 171.25L191.062 171.25L185 178Z" fill="white" fill-opacity="0.5"/>
<path d="M87 102L93 95.9378L93 108.062L87 102Z" fill="white" fill-opacity="0.5"/>
<path d="M280 103L274 109.062L274 96.9378L280 103Z" fill="white" fill-opacity="0.5"/>
<defs>
<filter id="filter0_d" x="82" y="0" width="204" height="167" filterUnits="userSpaceOnUse" color-interpolation-filters="sRGB">
<feFlood flood-opacity="0" result="BackgroundImageFix"/>
<feColorMatrix in="SourceAlpha" type="matrix" values="0 0 0 0 0 0 0 0 0 0 0 0 0 0 0 0 0 0 127 0"/>
<feOffset dy="-20"/>
<feGaussianBlur stdDeviation="10"/>
<feColorMatrix type="matrix" values="0 0 0 0 0 0 0 0 0 0 0 0 0 0 0 0 0 0 0.4 0"/>
<feBlend mode="normal" in2="BackgroundImageFix" result="effect1_dropShadow"/>
<feBlend mode="normal" in="SourceGraphic" in2="effect1_dropShadow" result="shape"/>
</filter>
<linearGradient id="paint0_linear" x1="228.356" y1="69.5552" x2="136.684" y2="141.494" gradientUnits="userSpaceOnUse">
<stop stop-color="#171717"/>
<stop offset="1" stop-color="#222222"/>
</linearGradient>
<linearGradient id="paint1_linear" x1="184.001" y1="165.089" x2="184.001" y2="41.9114" gradientUnits="userSpaceOnUse">
<stop/>
<stop offset="1" stop-color="#484646"/>
</linearGradient>
</defs>
</svg>
