<svg width="68" height="16" viewBox="0 0 68 16" fill="none" xmlns="http://www.w3.org/2000/svg">
<path d="M67.3536 8.14488C67.5488 7.94962 67.5488 7.63304 67.3536 7.43777L64.1716 4.25579C63.9763 4.06053 63.6598 4.06053 63.4645 4.25579C63.2692 4.45105 63.2692 4.76764 63.4645 4.9629L66.2929 7.79133L63.4645 10.6198C63.2692 10.815 63.2692 11.1316 63.4645 11.3269C63.6598 11.5221 63.9763 11.5221 64.1716 11.3269L67.3536 8.14488ZM0.282898 8.29132L3.98941 8.29132L3.98941 7.29132L0.282898 7.29132L0.282898 8.29132ZM7.69591 8.29132L15.1089 8.29132L15.1089 7.29132L7.69591 7.29132L7.69591 8.29132ZM18.8154 8.29132L26.2285 8.29132L26.2285 7.29132L18.8154 7.29132L18.8154 8.29132ZM29.935 8.29132L37.348 8.29132L37.348 7.29132L29.935 7.29132L29.935 8.29132ZM41.0545 8.29132L48.4675 8.29133L48.4675 7.29133L41.0545 7.29132L41.0545 8.29132ZM52.174 8.29133L59.587 8.29133L59.587 7.29133L52.174 7.29133L52.174 8.29133ZM63.2935 8.29133L67 8.29133L67 7.29133L63.2935 7.29133L63.2935 8.29133ZM67.7071 8.49843C68.0977 8.10791 68.0977 7.47474 67.7071 7.08422L61.3432 0.720258C60.9527 0.329734 60.3195 0.329734 59.929 0.720258C59.5384 1.11078 59.5384 1.74395 59.929 2.13447L65.5858 7.79133L59.929 13.4482C59.5384 13.8387 59.5384 14.4719 59.929 14.8624C60.3195 15.2529 60.9527 15.2529 61.3432 14.8624L67.7071 8.49843ZM0.282898 8.79132L3.98941 8.79132L3.98941 6.79132L0.282898 6.79132L0.282898 8.79132ZM7.69591 8.79132L15.1089 8.79132L15.1089 6.79132L7.69591 6.79132L7.69591 8.79132ZM18.8154 8.79132L26.2285 8.79132L26.2285 6.79132L18.8154 6.79132L18.8154 8.79132ZM29.935 8.79132L37.348 8.79132L37.348 6.79132L29.935 6.79132L29.935 8.79132ZM41.0545 8.79132L48.4675 8.79133L48.4675 6.79133L41.0545 6.79132L41.0545 8.79132ZM52.174 8.79133L59.587 8.79133L59.587 6.79133L52.174 6.79133L52.174 8.79133ZM63.2935 8.79133L67 8.79133L67 6.79133L63.2935 6.79133L63.2935 8.79133Z" fill="white"/>
</svg>
