<svg width="573" height="320" viewBox="0 0 573 320" fill="none" xmlns="http://www.w3.org/2000/svg">
<line y1="-1.41324" x2="87.0343" y2="-1.41324" transform="matrix(-0.889735 0.456477 0.456477 0.889735 256.395 58.4822)" stroke="url(#paint0_linear)" stroke-width="2.82649"/>
<path d="M255.749 66.4146L178.312 106.144" stroke="url(#paint1_linear)" stroke-width="2.82649"/>
<rect width="37.6982" height="37.6982" transform="matrix(0.866025 -0.5 0.866025 0.5 127.207 78.6706)" fill="url(#paint2_linear)"/>
<rect width="37.6982" height="37.6982" transform="matrix(0.866025 0.5 -2.20305e-08 1 127.207 78.6706)" fill="url(#paint3_linear)"/>
<rect width="37.6982" height="37.6982" transform="matrix(0.866025 -0.5 2.20305e-08 1 159.856 97.5205)" fill="url(#paint4_linear)"/>
<rect width="37.6982" height="37.6982" transform="matrix(0.866025 -0.5 0.866025 0.5 127.207 215.199)" fill="url(#paint5_linear)"/>
<rect width="37.6982" height="37.6982" transform="matrix(0.866025 0.5 -2.20305e-08 1 127.207 215.199)" fill="url(#paint6_linear)"/>
<rect width="37.6982" height="37.6982" transform="matrix(0.866025 -0.5 2.20305e-08 1 159.856 234.049)" fill="url(#paint7_linear)"/>
<rect width="37.6982" height="37.6982" transform="matrix(0.866025 -0.5 0.866025 0.5 253.635 263.341)" fill="url(#paint8_linear)"/>
<rect width="37.6982" height="37.6982" transform="matrix(0.866025 0.5 -2.20305e-08 1 253.635 263.341)" fill="url(#paint9_linear)"/>
<rect width="37.6982" height="37.6982" transform="matrix(0.866025 -0.5 2.20305e-08 1 286.284 282.191)" fill="url(#paint10_linear)"/>
<rect width="37.6982" height="37.6982" transform="matrix(0.866025 -0.5 0.866025 0.5 253.635 42.5017)" fill="url(#paint11_linear)"/>
<rect width="37.6982" height="37.6982" transform="matrix(0.866025 0.5 -2.20305e-08 1 253.635 42.5017)" fill="url(#paint12_linear)"/>
<rect width="37.6982" height="37.6982" transform="matrix(0.866025 -0.5 2.20305e-08 1 286.284 61.3511)" fill="url(#paint13_linear)"/>
<line x1="177.544" y1="239.441" x2="254.982" y2="279.171" stroke="url(#paint14_linear)" stroke-width="2.82649"/>
<path d="M177.545 248.631L254.982 288.361" stroke="url(#paint15_linear)" stroke-width="2.82649"/>
<path d="M162.58 133.589L165.506 131.896V215.2H162.681L162.58 133.589Z" fill="url(#paint16_linear)"/>
<rect width="2.82506" height="81.5095" transform="matrix(1 0 0 -1 154.205 215.2)" fill="url(#paint17_linear)"/>
<path d="M415.423 146.303L418.349 144.609V227.913H415.523L415.423 146.303Z" fill="url(#paint18_linear)"/>
<rect width="2.82506" height="81.5095" transform="matrix(1 0 0 -1 407.048 227.913)" fill="url(#paint19_linear)"/>
<rect width="37.6982" height="37.6982" transform="matrix(0.866025 -0.5 0.866025 0.5 380.126 92.1718)" fill="url(#paint20_linear)"/>
<rect width="37.6982" height="37.6982" transform="matrix(0.866025 0.5 -2.20305e-08 1 380.126 92.1718)" fill="url(#paint21_linear)"/>
<rect width="37.6982" height="37.6982" transform="matrix(0.866025 -0.5 2.20305e-08 1 412.775 111.022)" fill="url(#paint22_linear)"/>
<line x1="303.259" y1="65.7001" x2="380.696" y2="105.429" stroke="url(#paint23_linear)" stroke-width="2.82649"/>
<path d="M303.259 74.8904L380.696 114.62" stroke="url(#paint24_linear)" stroke-width="2.82649"/>
<rect width="37.6982" height="71.3208" transform="matrix(0.866025 0.5 2.20305e-08 -1 380.039 92.1712)" fill="url(#paint25_linear)"/>
<rect width="37.6982" height="71.3208" transform="matrix(0.866025 -0.5 -2.20305e-08 -1 412.774 111.021)" fill="url(#paint26_linear)"/>
<rect opacity="0.6" width="37.6982" height="37.6982" transform="matrix(0.866025 -0.5 0.866025 0.5 380.04 27.9823)" fill="#121212"/>
<rect opacity="0.4" width="37.6982" height="37.6982" transform="matrix(0.866025 -0.5 0.866025 0.5 380.04 35.1141)" fill="#121212"/>
<rect width="37.6982" height="37.6982" transform="matrix(0.866025 -0.5 0.866025 0.5 380.04 20.8493)" fill="#121212"/>
<g filter="url(#filter0_d)">
<circle r="12.9668" transform="matrix(0.866025 0.5 -0.866025 0.5 412.774 20.8499)" fill="white"/>
</g>
<g filter="url(#filter1_d)">
<circle r="12.9668" transform="matrix(0.866025 0.5 -0.866025 0.5 413.195 21.2936)" fill="white"/>
</g>
<g opacity="0.8">
<path d="M422.521 25.3314L423.649 20.326C423.733 19.9532 423.508 19.5816 423.032 19.3066C422.555 19.0316 421.912 18.9018 421.266 18.9503L420.323 19.0213L420.446 18.4769C420.53 18.1039 420.305 17.7324 419.829 17.4575C419.353 17.1825 418.709 17.0527 418.063 17.1012L417.132 17.1711L417.253 16.6332C417.337 16.2603 417.112 15.8887 416.635 15.6137C416.159 15.3387 415.516 15.2089 414.87 15.2575L406.2 15.9087C404.967 16.0015 404.03 16.5422 403.869 17.2545L402.741 22.2599C402.657 22.6327 402.882 23.0043 403.358 23.2793C403.834 23.5543 404.478 23.6841 405.124 23.6355L409.738 23.2889L409.614 23.8387L409.614 23.8385C409.613 23.8405 409.613 23.8424 409.613 23.8445L409.137 25.9527C409.054 26.3256 409.278 26.6971 409.754 26.9721C410.231 27.2471 410.874 27.3769 411.52 27.3284L420.189 26.6772C421.423 26.5846 422.36 26.0437 422.521 25.3314ZM418.248 17.6894C418.568 17.6654 418.886 17.7297 419.122 17.8658C419.357 18.0018 419.468 18.1858 419.427 18.3702L419.262 19.101L416.652 19.2971L416.993 17.7838L418.248 17.6894ZM404.939 23.0472C404.62 23.0712 404.301 23.0069 404.066 22.8708C403.83 22.7347 403.719 22.5508 403.76 22.3664L404.888 17.361C404.991 16.9036 405.593 16.5563 406.385 16.4969L415.054 15.8456C415.374 15.8217 415.692 15.886 415.928 16.0221C416.164 16.1581 416.275 16.3421 416.234 16.5265L416.07 17.2506L409.394 17.7523C408.16 17.845 407.223 18.3857 407.062 19.0996L406.999 19.3914L407 19.3914L406.402 21.9842C406.327 22.3132 406.494 22.6414 406.862 22.9028L404.939 23.0472ZM408.601 22.7723L408.6 22.7718C408.281 22.7957 407.962 22.7314 407.727 22.5953C407.491 22.4593 407.38 22.2753 407.421 22.0916L408.036 19.4256L408.034 19.4254L408.082 19.2046C408.185 18.7471 408.787 18.3999 409.579 18.3404L415.932 17.8634L415.592 19.3768L412.597 19.6017C411.363 19.6945 410.427 20.2352 410.266 20.9475L409.876 22.6765L408.601 22.7723ZM415.453 19.9891L415.105 21.5319C415.002 21.9893 414.401 22.3365 413.609 22.396L410.937 22.5968L411.284 21.054C411.387 20.5966 411.989 20.2493 412.781 20.1899L415.453 19.9891ZM413.794 22.9843C415.028 22.8915 415.964 22.3508 416.125 21.6385L416.514 19.9096L419.124 19.7134L418.299 23.3758C418.196 23.8332 417.595 24.1804 416.799 24.2402L415.774 24.3216L411.812 24.6261C411.492 24.65 411.174 24.5857 410.938 24.4497C410.705 24.315 410.594 24.1337 410.632 23.9511L410.799 23.2092L413.794 22.9843ZM420.005 26.089L411.336 26.7401C411.016 26.764 410.698 26.6997 410.462 26.5636C410.226 26.4276 410.115 26.2436 410.156 26.0592L410.407 24.9491C410.86 25.1609 411.427 25.257 411.998 25.2141L415.402 24.9524L415.402 24.9539L415.964 24.9092L416.615 24.8591L416.615 24.8574L416.987 24.8277C418.22 24.7349 419.157 24.1942 419.318 23.4819L420.185 19.6338L421.451 19.5387C421.771 19.5147 422.089 19.579 422.325 19.7151C422.56 19.8511 422.671 20.0351 422.63 20.2195L421.502 25.2249C421.399 25.6821 420.797 26.0294 420.005 26.089Z" fill="url(#paint27_linear)"/>
<path opacity="0.6" d="M407.02 23.005C406.963 22.972 406.91 22.9375 406.86 22.902L404.99 23.046L405.192 23.6349L408.603 23.3758C408.024 23.3873 407.449 23.2523 407.02 23.005Z" fill="url(#paint28_linear)"/>
<path opacity="0.6" d="M410.229 24.8574C410.286 24.8904 410.346 24.9212 410.407 24.9499L410.158 26.0294L409.138 25.9131L409.592 23.9491C409.572 24.2835 409.8 24.6101 410.229 24.8574Z" fill="url(#paint29_linear)"/>
<path opacity="0.6" d="M409.876 22.6716L409.737 23.296L408.109 23.4089L408.231 22.7949L409.876 22.6716Z" fill="url(#paint30_linear)"/>
<path d="M416.072 17.2518L415.931 17.8683L412.07 18.1619L411.923 17.5697L416.072 17.2518Z" fill="url(#paint31_linear)"/>
<path d="M415.594 19.3774L415.448 19.9911L412.976 20.1837L412.829 19.5913L415.594 19.3774Z" fill="url(#paint32_linear)"/>
<path d="M419.265 19.1015L419.125 19.7151L416.518 19.9107L416.656 19.2971L419.265 19.1015Z" fill="url(#paint33_linear)"/>
</g>
<rect width="37.6982" height="71.3208" transform="matrix(0.866025 0.5 2.20305e-08 -1 253.548 264.615)" fill="url(#paint34_linear)"/>
<rect width="37.6982" height="71.3208" transform="matrix(0.866025 -0.5 -2.20305e-08 -1 286.195 283.464)" fill="url(#paint35_linear)"/>
<rect opacity="0.6" width="37.6982" height="37.6982" transform="matrix(0.866025 -0.5 0.866025 0.5 253.548 200.426)" fill="#121212"/>
<rect opacity="0.4" width="37.6982" height="37.6982" transform="matrix(0.866025 -0.5 0.866025 0.5 253.548 207.558)" fill="#121212"/>
<rect width="37.6982" height="37.6982" transform="matrix(0.866025 -0.5 0.866025 0.5 253.548 193.293)" fill="#121212"/>
<g filter="url(#filter2_d)">
<circle r="12.9668" transform="matrix(0.866025 0.5 -0.866025 0.5 286.195 193.294)" fill="white"/>
</g>
<g opacity="0.8">
<path d="M295.521 197.331L296.649 192.326C296.733 191.953 296.508 191.582 296.032 191.307C295.555 191.032 294.912 190.902 294.266 190.95L293.323 191.021L293.446 190.477C293.53 190.104 293.305 189.732 292.829 189.457C292.353 189.182 291.709 189.053 291.063 189.101L290.132 189.171L290.253 188.633C290.337 188.26 290.112 187.889 289.635 187.614C289.159 187.339 288.516 187.209 287.87 187.257L279.2 187.909C277.967 188.001 277.03 188.542 276.869 189.254L275.741 194.26C275.657 194.633 275.882 195.004 276.358 195.279C276.834 195.554 277.478 195.684 278.124 195.636L282.738 195.289L282.614 195.839L282.614 195.839C282.613 195.84 282.613 195.842 282.613 195.844L282.137 197.953C282.054 198.326 282.278 198.697 282.754 198.972C283.231 199.247 283.874 199.377 284.52 199.328L293.189 198.677C294.423 198.585 295.36 198.044 295.521 197.331ZM291.248 189.689C291.568 189.665 291.886 189.73 292.122 189.866C292.357 190.002 292.468 190.186 292.427 190.37L292.262 191.101L289.652 191.297L289.993 189.784L291.248 189.689ZM277.939 195.047C277.62 195.071 277.301 195.007 277.066 194.871C276.83 194.735 276.719 194.551 276.76 194.366L277.888 189.361C277.991 188.904 278.593 188.556 279.385 188.497L288.054 187.846C288.374 187.822 288.692 187.886 288.928 188.022C289.164 188.158 289.275 188.342 289.234 188.526L289.07 189.251L282.394 189.752C281.16 189.845 280.223 190.386 280.062 191.1L279.999 191.391L280 191.391L279.402 193.984C279.327 194.313 279.494 194.641 279.862 194.903L277.939 195.047ZM281.601 194.772L281.6 194.772C281.281 194.796 280.962 194.731 280.727 194.595C280.491 194.459 280.38 194.275 280.421 194.092L281.036 191.426L281.034 191.425L281.082 191.205C281.185 190.747 281.787 190.4 282.579 190.34L288.932 189.863L288.592 191.377L285.597 191.602C284.363 191.695 283.427 192.235 283.266 192.948L282.876 194.676L281.601 194.772ZM288.453 191.989L288.105 193.532C288.002 193.989 287.401 194.337 286.609 194.396L283.937 194.597L284.284 193.054C284.387 192.597 284.989 192.249 285.781 192.19L288.453 191.989ZM286.794 194.984C288.028 194.892 288.964 194.351 289.125 193.639L289.514 191.91L292.124 191.713L291.299 195.376C291.196 195.833 290.595 196.18 289.799 196.24L288.774 196.322L284.812 196.626C284.492 196.65 284.174 196.586 283.938 196.45C283.705 196.315 283.594 196.134 283.632 195.951L283.799 195.209L286.794 194.984ZM293.005 198.089L284.336 198.74C284.016 198.764 283.698 198.7 283.462 198.564C283.226 198.428 283.115 198.244 283.156 198.059L283.407 196.949C283.86 197.161 284.427 197.257 284.998 197.214L288.402 196.952L288.402 196.954L288.964 196.909L289.615 196.859L289.615 196.857L289.987 196.828C291.22 196.735 292.157 196.194 292.318 195.482L293.185 191.634L294.451 191.539C294.771 191.515 295.089 191.579 295.325 191.715C295.56 191.851 295.671 192.035 295.63 192.22L294.502 197.225C294.399 197.682 293.797 198.029 293.005 198.089Z" fill="url(#paint36_linear)"/>
<path opacity="0.6" d="M280.02 195.005C279.963 194.972 279.91 194.938 279.86 194.902L277.99 195.046L278.192 195.635L281.603 195.376C281.024 195.387 280.449 195.252 280.02 195.005Z" fill="url(#paint37_linear)"/>
<path opacity="0.6" d="M283.229 196.857C283.286 196.89 283.346 196.921 283.407 196.95L283.158 198.029L282.138 197.913L282.592 195.949C282.572 196.283 282.8 196.61 283.229 196.857Z" fill="url(#paint38_linear)"/>
<path opacity="0.6" d="M282.876 194.672L282.737 195.296L281.109 195.409L281.231 194.795L282.876 194.672Z" fill="url(#paint39_linear)"/>
<path d="M289.072 189.252L288.931 189.868L285.07 190.162L284.923 189.57L289.072 189.252Z" fill="url(#paint40_linear)"/>
<path d="M288.594 191.377L288.448 191.991L285.976 192.184L285.829 191.591L288.594 191.377Z" fill="url(#paint41_linear)"/>
<path d="M292.265 191.102L292.125 191.715L289.518 191.911L289.656 191.297L292.265 191.102Z" fill="url(#paint42_linear)"/>
</g>
<rect width="37.6982" height="37.6982" transform="matrix(0.866025 -0.5 0.866025 0.5 381.016 215.199)" fill="url(#paint43_linear)"/>
<rect width="37.6982" height="37.6982" transform="matrix(0.866025 0.5 -2.20305e-08 1 381.016 215.199)" fill="url(#paint44_linear)"/>
<rect width="37.6982" height="37.6982" transform="matrix(0.866025 -0.5 2.20305e-08 1 413.665 234.049)" fill="url(#paint45_linear)"/>
<rect width="37.6982" height="37.6982" transform="matrix(0.866025 -0.5 0.866025 0.5 507.505 263.341)" fill="url(#paint46_linear)"/>
<rect width="37.6982" height="37.6982" transform="matrix(0.866025 0.5 -2.20305e-08 1 507.505 263.341)" fill="url(#paint47_linear)"/>
<rect width="37.6982" height="37.6982" transform="matrix(0.866025 -0.5 2.20305e-08 1 540.154 282.191)" fill="url(#paint48_linear)"/>
<line x1="430.387" y1="236.616" x2="507.824" y2="276.346" stroke="url(#paint49_linear)" stroke-width="2.82649"/>
<path d="M430.387 245.806L507.825 285.536" stroke="url(#paint50_linear)" stroke-width="2.82649"/>
<rect width="37.6982" height="37.6982" transform="matrix(0.866025 -0.5 0.866025 0.5 0.800781 163.058)" fill="url(#paint51_linear)"/>
<rect width="37.6982" height="37.6982" transform="matrix(0.866025 0.5 -2.20305e-08 1 0.800781 163.058)" fill="url(#paint52_linear)"/>
<rect width="37.6982" height="37.6982" transform="matrix(0.866025 -0.5 2.20305e-08 1 33.4496 181.908)" fill="url(#paint53_linear)"/>
<line x1="50.4142" y1="188.59" x2="127.852" y2="228.319" stroke="url(#paint54_linear)" stroke-width="2.82649"/>
<path d="M50.4149 197.78L127.852 237.509" stroke="url(#paint55_linear)" stroke-width="2.82649"/>
<defs>
<filter id="filter0_d" x="385.587" y="0.375026" width="54.374" height="40.9497" filterUnits="userSpaceOnUse" color-interpolation-filters="sRGB">
<feFlood flood-opacity="0" result="BackgroundImageFix"/>
<feColorMatrix in="SourceAlpha" type="matrix" values="0 0 0 0 0 0 0 0 0 0 0 0 0 0 0 0 0 0 127 0"/>
<feOffset/>
<feGaussianBlur stdDeviation="5.65297"/>
<feColorMatrix type="matrix" values="0 0 0 0 1 0 0 0 0 1 0 0 0 0 1 0 0 0 0.5 0"/>
<feBlend mode="normal" in2="BackgroundImageFix" result="effect1_dropShadow"/>
<feBlend mode="normal" in="SourceGraphic" in2="effect1_dropShadow" result="shape"/>
</filter>
<filter id="filter1_d" x="386.008" y="0.81869" width="54.374" height="40.9497" filterUnits="userSpaceOnUse" color-interpolation-filters="sRGB">
<feFlood flood-opacity="0" result="BackgroundImageFix"/>
<feColorMatrix in="SourceAlpha" type="matrix" values="0 0 0 0 0 0 0 0 0 0 0 0 0 0 0 0 0 0 127 0"/>
<feOffset/>
<feGaussianBlur stdDeviation="5.65297"/>
<feColorMatrix type="matrix" values="0 0 0 0 1 0 0 0 0 1 0 0 0 0 1 0 0 0 0.5 0"/>
<feBlend mode="normal" in2="BackgroundImageFix" result="effect1_dropShadow"/>
<feBlend mode="normal" in="SourceGraphic" in2="effect1_dropShadow" result="shape"/>
</filter>
<filter id="filter2_d" x="259.008" y="172.819" width="54.374" height="40.9497" filterUnits="userSpaceOnUse" color-interpolation-filters="sRGB">
<feFlood flood-opacity="0" result="BackgroundImageFix"/>
<feColorMatrix in="SourceAlpha" type="matrix" values="0 0 0 0 0 0 0 0 0 0 0 0 0 0 0 0 0 0 127 0"/>
<feOffset/>
<feGaussianBlur stdDeviation="5.65297"/>
<feColorMatrix type="matrix" values="0 0 0 0 1 0 0 0 0 1 0 0 0 0 1 0 0 0 0.5 0"/>
<feBlend mode="normal" in2="BackgroundImageFix" result="effect1_dropShadow"/>
<feBlend mode="normal" in="SourceGraphic" in2="effect1_dropShadow" result="shape"/>
</filter>
<linearGradient id="paint0_linear" x1="0.945461" y1="-0.466771" x2="85.2745" y2="-3.47034" gradientUnits="userSpaceOnUse">
<stop stop-color="#FC8770"/>
<stop offset="1" stop-color="#FC8770" stop-opacity="0"/>
</linearGradient>
<linearGradient id="paint1_linear" x1="255.151" y1="67.3208" x2="178.75" y2="103.143" gradientUnits="userSpaceOnUse">
<stop stop-color="#FC8770" stop-opacity="0"/>
<stop offset="1" stop-color="#FC8770"/>
</linearGradient>
<linearGradient id="paint2_linear" x1="5.52123" y1="5.52086" x2="32.1775" y2="32.1771" gradientUnits="userSpaceOnUse">
<stop stop-color="#FF8B71"/>
<stop offset="0.704" stop-color="#C33F50"/>
<stop offset="1" stop-color="#A81E41"/>
</linearGradient>
<linearGradient id="paint3_linear" x1="5.52123" y1="5.52086" x2="32.1775" y2="32.1771" gradientUnits="userSpaceOnUse">
<stop stop-color="#FF8B71"/>
<stop offset="0.704" stop-color="#C33F50"/>
<stop offset="1" stop-color="#A81E41"/>
</linearGradient>
<linearGradient id="paint4_linear" x1="5.52123" y1="5.52086" x2="32.1775" y2="32.1771" gradientUnits="userSpaceOnUse">
<stop stop-color="#FF8B71"/>
<stop offset="0.704" stop-color="#C33F50"/>
<stop offset="1" stop-color="#A81E41"/>
</linearGradient>
<linearGradient id="paint5_linear" x1="5.52123" y1="5.52086" x2="32.1775" y2="32.1771" gradientUnits="userSpaceOnUse">
<stop stop-color="#FF8B71"/>
<stop offset="0.704" stop-color="#C33F50"/>
<stop offset="1" stop-color="#A81E41"/>
</linearGradient>
<linearGradient id="paint6_linear" x1="5.52123" y1="5.52086" x2="32.1775" y2="32.1771" gradientUnits="userSpaceOnUse">
<stop stop-color="#FF8B71"/>
<stop offset="0.704" stop-color="#C33F50"/>
<stop offset="1" stop-color="#A81E41"/>
</linearGradient>
<linearGradient id="paint7_linear" x1="5.52123" y1="5.52086" x2="32.1775" y2="32.1771" gradientUnits="userSpaceOnUse">
<stop stop-color="#FF8B71"/>
<stop offset="0.704" stop-color="#C33F50"/>
<stop offset="1" stop-color="#A81E41"/>
</linearGradient>
<linearGradient id="paint8_linear" x1="5.52123" y1="5.52086" x2="32.1775" y2="32.1771" gradientUnits="userSpaceOnUse">
<stop stop-color="#FF8B71"/>
<stop offset="0.704" stop-color="#C33F50"/>
<stop offset="1" stop-color="#A81E41"/>
</linearGradient>
<linearGradient id="paint9_linear" x1="5.52123" y1="5.52086" x2="32.1775" y2="32.1771" gradientUnits="userSpaceOnUse">
<stop stop-color="#FF8B71"/>
<stop offset="0.704" stop-color="#C33F50"/>
<stop offset="1" stop-color="#A81E41"/>
</linearGradient>
<linearGradient id="paint10_linear" x1="5.52123" y1="5.52086" x2="32.1775" y2="32.1771" gradientUnits="userSpaceOnUse">
<stop stop-color="#FF8B71"/>
<stop offset="0.704" stop-color="#C33F50"/>
<stop offset="1" stop-color="#A81E41"/>
</linearGradient>
<linearGradient id="paint11_linear" x1="5.52123" y1="5.52086" x2="32.1775" y2="32.1771" gradientUnits="userSpaceOnUse">
<stop stop-color="#FF8B71"/>
<stop offset="0.704" stop-color="#C33F50"/>
<stop offset="1" stop-color="#A81E41"/>
</linearGradient>
<linearGradient id="paint12_linear" x1="5.52123" y1="5.52086" x2="32.1775" y2="32.1771" gradientUnits="userSpaceOnUse">
<stop stop-color="#FF8B71"/>
<stop offset="0.704" stop-color="#C33F50"/>
<stop offset="1" stop-color="#A81E41"/>
</linearGradient>
<linearGradient id="paint13_linear" x1="5.52123" y1="5.52086" x2="32.1775" y2="32.1771" gradientUnits="userSpaceOnUse">
<stop stop-color="#FF8B71"/>
<stop offset="0.704" stop-color="#C33F50"/>
<stop offset="1" stop-color="#A81E41"/>
</linearGradient>
<linearGradient id="paint14_linear" x1="177.953" y1="240.715" x2="254.355" y2="276.537" gradientUnits="userSpaceOnUse">
<stop stop-color="#FC8770"/>
<stop offset="1" stop-color="#FC8770" stop-opacity="0"/>
</linearGradient>
<linearGradient id="paint15_linear" x1="178.142" y1="249.538" x2="254.544" y2="285.359" gradientUnits="userSpaceOnUse">
<stop stop-color="#FC8770" stop-opacity="0"/>
<stop offset="1" stop-color="#FC8770"/>
</linearGradient>
<linearGradient id="paint16_linear" x1="164.093" y1="133.69" x2="164.093" y2="215.2" gradientUnits="userSpaceOnUse">
<stop offset="0.28125" stop-color="#FC8770"/>
<stop offset="1" stop-color="#FC8770" stop-opacity="0"/>
</linearGradient>
<linearGradient id="paint17_linear" x1="1.41253" y1="0" x2="1.41253" y2="81.5095" gradientUnits="userSpaceOnUse">
<stop offset="0.28125" stop-color="#FC8770"/>
<stop offset="1" stop-color="#FC8770" stop-opacity="0"/>
</linearGradient>
<linearGradient id="paint18_linear" x1="416.936" y1="146.404" x2="416.936" y2="227.913" gradientUnits="userSpaceOnUse">
<stop offset="0.28125" stop-color="#FC8770"/>
<stop offset="1" stop-color="#FC8770" stop-opacity="0"/>
</linearGradient>
<linearGradient id="paint19_linear" x1="1.41253" y1="0" x2="1.41253" y2="81.5095" gradientUnits="userSpaceOnUse">
<stop offset="0.28125" stop-color="#FC8770"/>
<stop offset="1" stop-color="#FC8770" stop-opacity="0"/>
</linearGradient>
<linearGradient id="paint20_linear" x1="5.52123" y1="5.52086" x2="32.1775" y2="32.1771" gradientUnits="userSpaceOnUse">
<stop stop-color="#FF8B71"/>
<stop offset="0.704" stop-color="#C33F50"/>
<stop offset="1" stop-color="#A81E41"/>
</linearGradient>
<linearGradient id="paint21_linear" x1="5.52123" y1="5.52086" x2="32.1775" y2="32.1771" gradientUnits="userSpaceOnUse">
<stop stop-color="#FF8B71"/>
<stop offset="0.704" stop-color="#C33F50"/>
<stop offset="1" stop-color="#A81E41"/>
</linearGradient>
<linearGradient id="paint22_linear" x1="5.52123" y1="5.52086" x2="32.1775" y2="32.1771" gradientUnits="userSpaceOnUse">
<stop stop-color="#FF8B71"/>
<stop offset="0.704" stop-color="#C33F50"/>
<stop offset="1" stop-color="#A81E41"/>
</linearGradient>
<linearGradient id="paint23_linear" x1="303.668" y1="66.9738" x2="380.07" y2="102.796" gradientUnits="userSpaceOnUse">
<stop stop-color="#FC8770"/>
<stop offset="1" stop-color="#FC8770" stop-opacity="0"/>
</linearGradient>
<linearGradient id="paint24_linear" x1="303.856" y1="75.7966" x2="380.258" y2="111.619" gradientUnits="userSpaceOnUse">
<stop stop-color="#FC8770" stop-opacity="0"/>
<stop offset="1" stop-color="#FC8770"/>
</linearGradient>
<linearGradient id="paint25_linear" x1="18.8491" y1="1.55001" x2="53.7284" y2="32.4709" gradientUnits="userSpaceOnUse">
<stop stop-color="#FF8B71"/>
<stop offset="1" stop-color="#C33F50" stop-opacity="0"/>
</linearGradient>
<linearGradient id="paint26_linear" x1="18.8491" y1="-0.075685" x2="50.3968" y2="49.4255" gradientUnits="userSpaceOnUse">
<stop stop-color="#FF8B71"/>
<stop offset="0.9999" stop-color="#C33F50" stop-opacity="0"/>
<stop offset="1" stop-color="#A81E41" stop-opacity="0"/>
</linearGradient>
<linearGradient id="paint27_linear" x1="402.666" y1="21.1342" x2="423.667" y2="20.184" gradientUnits="userSpaceOnUse">
<stop stop-color="#FF8506"/>
<stop offset="0.5805" stop-color="#FD3947"/>
<stop offset="1" stop-color="#FB0078"/>
</linearGradient>
<linearGradient id="paint28_linear" x1="408.148" y1="23.0964" x2="405.422" y2="24.0274" gradientUnits="userSpaceOnUse">
<stop stop-color="#78005B"/>
<stop offset="0.3483" stop-color="#7A025A" stop-opacity="0.6517"/>
<stop offset="0.51" stop-color="#820955" stop-opacity="0.49"/>
<stop offset="0.6332" stop-color="#8E154E" stop-opacity="0.3668"/>
<stop offset="0.7369" stop-color="#A12643" stop-opacity="0.2631"/>
<stop offset="0.8283" stop-color="#B83C36" stop-opacity="0.1717"/>
<stop offset="0.9111" stop-color="#D65725" stop-opacity="0.0889"/>
<stop offset="0.9857" stop-color="#F87711" stop-opacity="0.0143"/>
<stop offset="1" stop-color="#FF7E0D" stop-opacity="0"/>
</linearGradient>
<linearGradient id="paint29_linear" x1="409.663" y1="25.7833" x2="409.858" y2="24.1321" gradientUnits="userSpaceOnUse">
<stop stop-color="#FF7E0D" stop-opacity="0"/>
<stop offset="0.00928743" stop-color="#F97811" stop-opacity="0.0127"/>
<stop offset="0.0651" stop-color="#D65825" stop-opacity="0.0888"/>
<stop offset="0.1269" stop-color="#B93D36" stop-opacity="0.1729"/>
<stop offset="0.1949" stop-color="#A12643" stop-opacity="0.2657"/>
<stop offset="0.272" stop-color="#8F154E" stop-opacity="0.3707"/>
<stop offset="0.3632" stop-color="#820955" stop-opacity="0.495"/>
<stop offset="0.4822" stop-color="#7A025A" stop-opacity="0.6573"/>
<stop offset="0.7336" stop-color="#78005B"/>
</linearGradient>
<linearGradient id="paint30_linear" x1="408.198" y1="23.1155" x2="410.28" y2="22.3763" gradientUnits="userSpaceOnUse">
<stop stop-color="#FF7E0D" stop-opacity="0"/>
<stop offset="0.0133" stop-color="#F97910" stop-opacity="0.0192"/>
<stop offset="0.1144" stop-color="#D25427" stop-opacity="0.1659"/>
<stop offset="0.219" stop-color="#B1363A" stop-opacity="0.3175"/>
<stop offset="0.3263" stop-color="#981E48" stop-opacity="0.4731"/>
<stop offset="0.4375" stop-color="#860D53" stop-opacity="0.6344"/>
<stop offset="0.5551" stop-color="#7B0359" stop-opacity="0.8048"/>
<stop offset="0.6897" stop-color="#78005B"/>
</linearGradient>
<linearGradient id="paint31_linear" x1="411.928" y1="17.6745" x2="416.083" y2="17.4865" gradientUnits="userSpaceOnUse">
<stop stop-color="#FF4630" stop-opacity="0"/>
<stop offset="0.5722" stop-color="#B31F48" stop-opacity="0.5722"/>
<stop offset="1" stop-color="#78005B"/>
</linearGradient>
<linearGradient id="paint32_linear" x1="412.837" y1="19.7588" x2="415.606" y2="19.6335" gradientUnits="userSpaceOnUse">
<stop stop-color="#FF4630" stop-opacity="0"/>
<stop offset="0.5722" stop-color="#B31F48" stop-opacity="0.5722"/>
<stop offset="1" stop-color="#78005B"/>
</linearGradient>
<linearGradient id="paint33_linear" x1="416.499" y1="19.4852" x2="419.277" y2="19.3595" gradientUnits="userSpaceOnUse">
<stop stop-color="#FF4630" stop-opacity="0"/>
<stop offset="0.5722" stop-color="#B31F48" stop-opacity="0.5722"/>
<stop offset="1" stop-color="#78005B"/>
</linearGradient>
<linearGradient id="paint34_linear" x1="18.8491" y1="1.55001" x2="53.7284" y2="32.4709" gradientUnits="userSpaceOnUse">
<stop stop-color="#FF8B71"/>
<stop offset="1" stop-color="#C33F50" stop-opacity="0"/>
</linearGradient>
<linearGradient id="paint35_linear" x1="18.8491" y1="-0.075685" x2="50.3968" y2="49.4255" gradientUnits="userSpaceOnUse">
<stop stop-color="#FF8B71"/>
<stop offset="0.9999" stop-color="#C33F50" stop-opacity="0"/>
<stop offset="1" stop-color="#A81E41" stop-opacity="0"/>
</linearGradient>
<linearGradient id="paint36_linear" x1="275.666" y1="193.134" x2="296.667" y2="192.184" gradientUnits="userSpaceOnUse">
<stop stop-color="#FF8506"/>
<stop offset="0.5805" stop-color="#FD3947"/>
<stop offset="1" stop-color="#FB0078"/>
</linearGradient>
<linearGradient id="paint37_linear" x1="281.148" y1="195.096" x2="278.422" y2="196.027" gradientUnits="userSpaceOnUse">
<stop stop-color="#78005B"/>
<stop offset="0.3483" stop-color="#7A025A" stop-opacity="0.6517"/>
<stop offset="0.51" stop-color="#820955" stop-opacity="0.49"/>
<stop offset="0.6332" stop-color="#8E154E" stop-opacity="0.3668"/>
<stop offset="0.7369" stop-color="#A12643" stop-opacity="0.2631"/>
<stop offset="0.8283" stop-color="#B83C36" stop-opacity="0.1717"/>
<stop offset="0.9111" stop-color="#D65725" stop-opacity="0.0889"/>
<stop offset="0.9857" stop-color="#F87711" stop-opacity="0.0143"/>
<stop offset="1" stop-color="#FF7E0D" stop-opacity="0"/>
</linearGradient>
<linearGradient id="paint38_linear" x1="282.663" y1="197.783" x2="282.858" y2="196.132" gradientUnits="userSpaceOnUse">
<stop stop-color="#FF7E0D" stop-opacity="0"/>
<stop offset="0.00928743" stop-color="#F97811" stop-opacity="0.0127"/>
<stop offset="0.0651" stop-color="#D65825" stop-opacity="0.0888"/>
<stop offset="0.1269" stop-color="#B93D36" stop-opacity="0.1729"/>
<stop offset="0.1949" stop-color="#A12643" stop-opacity="0.2657"/>
<stop offset="0.272" stop-color="#8F154E" stop-opacity="0.3707"/>
<stop offset="0.3632" stop-color="#820955" stop-opacity="0.495"/>
<stop offset="0.4822" stop-color="#7A025A" stop-opacity="0.6573"/>
<stop offset="0.7336" stop-color="#78005B"/>
</linearGradient>
<linearGradient id="paint39_linear" x1="281.198" y1="195.116" x2="283.28" y2="194.376" gradientUnits="userSpaceOnUse">
<stop stop-color="#FF7E0D" stop-opacity="0"/>
<stop offset="0.0133" stop-color="#F97910" stop-opacity="0.0192"/>
<stop offset="0.1144" stop-color="#D25427" stop-opacity="0.1659"/>
<stop offset="0.219" stop-color="#B1363A" stop-opacity="0.3175"/>
<stop offset="0.3263" stop-color="#981E48" stop-opacity="0.4731"/>
<stop offset="0.4375" stop-color="#860D53" stop-opacity="0.6344"/>
<stop offset="0.5551" stop-color="#7B0359" stop-opacity="0.8048"/>
<stop offset="0.6897" stop-color="#78005B"/>
</linearGradient>
<linearGradient id="paint40_linear" x1="284.928" y1="189.675" x2="289.083" y2="189.487" gradientUnits="userSpaceOnUse">
<stop stop-color="#FF4630" stop-opacity="0"/>
<stop offset="0.5722" stop-color="#B31F48" stop-opacity="0.5722"/>
<stop offset="1" stop-color="#78005B"/>
</linearGradient>
<linearGradient id="paint41_linear" x1="285.837" y1="191.759" x2="288.606" y2="191.634" gradientUnits="userSpaceOnUse">
<stop stop-color="#FF4630" stop-opacity="0"/>
<stop offset="0.5722" stop-color="#B31F48" stop-opacity="0.5722"/>
<stop offset="1" stop-color="#78005B"/>
</linearGradient>
<linearGradient id="paint42_linear" x1="289.499" y1="191.485" x2="292.277" y2="191.36" gradientUnits="userSpaceOnUse">
<stop stop-color="#FF4630" stop-opacity="0"/>
<stop offset="0.5722" stop-color="#B31F48" stop-opacity="0.5722"/>
<stop offset="1" stop-color="#78005B"/>
</linearGradient>
<linearGradient id="paint43_linear" x1="5.52123" y1="5.52086" x2="32.1775" y2="32.1771" gradientUnits="userSpaceOnUse">
<stop stop-color="#FF8B71"/>
<stop offset="0.704" stop-color="#C33F50"/>
<stop offset="1" stop-color="#A81E41"/>
</linearGradient>
<linearGradient id="paint44_linear" x1="5.52123" y1="5.52086" x2="32.1775" y2="32.1771" gradientUnits="userSpaceOnUse">
<stop stop-color="#FF8B71"/>
<stop offset="0.704" stop-color="#C33F50"/>
<stop offset="1" stop-color="#A81E41"/>
</linearGradient>
<linearGradient id="paint45_linear" x1="5.52123" y1="5.52086" x2="32.1775" y2="32.1771" gradientUnits="userSpaceOnUse">
<stop stop-color="#FF8B71"/>
<stop offset="0.704" stop-color="#C33F50"/>
<stop offset="1" stop-color="#A81E41"/>
</linearGradient>
<linearGradient id="paint46_linear" x1="5.52123" y1="5.52086" x2="32.1775" y2="32.1771" gradientUnits="userSpaceOnUse">
<stop stop-color="#FF8B71"/>
<stop offset="0.704" stop-color="#C33F50"/>
<stop offset="1" stop-color="#A81E41"/>
</linearGradient>
<linearGradient id="paint47_linear" x1="5.52123" y1="5.52086" x2="32.1775" y2="32.1771" gradientUnits="userSpaceOnUse">
<stop stop-color="#FF8B71"/>
<stop offset="0.704" stop-color="#C33F50"/>
<stop offset="1" stop-color="#A81E41"/>
</linearGradient>
<linearGradient id="paint48_linear" x1="5.52123" y1="5.52086" x2="32.1775" y2="32.1771" gradientUnits="userSpaceOnUse">
<stop stop-color="#FF8B71"/>
<stop offset="0.704" stop-color="#C33F50"/>
<stop offset="1" stop-color="#A81E41"/>
</linearGradient>
<linearGradient id="paint49_linear" x1="430.796" y1="237.89" x2="507.197" y2="273.712" gradientUnits="userSpaceOnUse">
<stop stop-color="#FC8770"/>
<stop offset="1" stop-color="#FC8770" stop-opacity="0"/>
</linearGradient>
<linearGradient id="paint50_linear" x1="430.985" y1="246.713" x2="507.386" y2="282.535" gradientUnits="userSpaceOnUse">
<stop stop-color="#FC8770" stop-opacity="0"/>
<stop offset="1" stop-color="#FC8770"/>
</linearGradient>
<linearGradient id="paint51_linear" x1="5.52123" y1="5.52086" x2="32.1775" y2="32.1771" gradientUnits="userSpaceOnUse">
<stop stop-color="#FF8B71"/>
<stop offset="0.704" stop-color="#C33F50"/>
<stop offset="1" stop-color="#A81E41"/>
</linearGradient>
<linearGradient id="paint52_linear" x1="5.52123" y1="5.52086" x2="32.1775" y2="32.1771" gradientUnits="userSpaceOnUse">
<stop stop-color="#FF8B71"/>
<stop offset="0.704" stop-color="#C33F50"/>
<stop offset="1" stop-color="#A81E41"/>
</linearGradient>
<linearGradient id="paint53_linear" x1="5.52123" y1="5.52086" x2="32.1775" y2="32.1771" gradientUnits="userSpaceOnUse">
<stop stop-color="#FF8B71"/>
<stop offset="0.704" stop-color="#C33F50"/>
<stop offset="1" stop-color="#A81E41"/>
</linearGradient>
<linearGradient id="paint54_linear" x1="50.8234" y1="189.864" x2="127.225" y2="225.686" gradientUnits="userSpaceOnUse">
<stop stop-color="#FC8770"/>
<stop offset="1" stop-color="#FC8770" stop-opacity="0"/>
</linearGradient>
<linearGradient id="paint55_linear" x1="51.0128" y1="198.686" x2="127.414" y2="234.508" gradientUnits="userSpaceOnUse">
<stop stop-color="#FC8770" stop-opacity="0"/>
<stop offset="1" stop-color="#FC8770"/>
</linearGradient>
</defs>
</svg>
