<svg width="281" height="74" viewBox="0 0 281 74" fill="none" xmlns="http://www.w3.org/2000/svg">
<path d="M277.588 37.044C277.588 40.4737 274.887 44.5274 267.998 48.8006C261.271 52.9733 251.337 56.8403 238.796 60.1306C213.758 66.6995 179.004 70.7971 140.5 70.7971C101.996 70.7971 67.2419 66.6995 42.204 60.1306C29.6628 56.8403 19.7291 52.9733 13.002 48.8006C6.11285 44.5274 3.41187 40.4737 3.41187 37.044C3.41187 33.6142 6.11285 29.5606 13.002 25.2874C19.7291 21.1147 29.6628 17.2477 42.204 13.9574C67.2419 7.3885 101.996 3.29083 140.5 3.29083C179.004 3.29083 213.758 7.3885 238.796 13.9574C251.337 17.2477 261.271 21.1147 267.998 25.2874C274.887 29.5606 277.588 33.6142 277.588 37.044Z" stroke="url(#paint0_linear)" stroke-width="6"/>
<defs>
<linearGradient id="paint0_linear" x1="140.5" y1="0.290833" x2="140.5" y2="73.7971" gradientUnits="userSpaceOnUse">
<stop stop-color="#FB866F" stop-opacity="0"/>
<stop offset="1" stop-color="#AD2444"/>
</linearGradient>
</defs>
</svg>
