<svg width="207" height="207" viewBox="0 0 207 207" fill="none" xmlns="http://www.w3.org/2000/svg">
<path d="M24.0631 24.0623C25.8763 22.2491 29.5819 21.3995 36.0483 22.8982C42.3334 24.3548 50.3274 27.8452 59.533 33.2077C77.9045 43.9096 100.5 61.7121 122.894 84.1055C145.287 106.499 163.09 129.095 173.791 147.466C179.154 156.672 182.644 164.666 184.101 170.951C185.6 177.417 184.75 181.123 182.937 182.936C181.124 184.749 177.418 185.599 170.952 184.1C164.667 182.643 156.673 179.153 147.467 173.791C129.096 163.089 106.5 145.286 84.1064 122.893C61.7129 100.499 43.9105 77.9036 33.2085 59.5321C27.846 50.3266 24.3556 42.3325 22.899 36.0475C21.4003 29.581 22.25 25.8755 24.0631 24.0623Z" stroke="url(#paint0_linear)" stroke-width="6"/>
<defs>
<linearGradient id="paint0_linear" x1="81.985" y1="125.014" x2="125.015" y2="81.9842" gradientUnits="userSpaceOnUse">
<stop stop-color="#FB866F" stop-opacity="0"/>
<stop offset="1" stop-color="#AD2444"/>
</linearGradient>
</defs>
</svg>
