<svg width="223" height="223" viewBox="0 0 223 223" fill="none" xmlns="http://www.w3.org/2000/svg">
<path d="M191.128 32.2551C194.319 35.4459 195.849 40.5587 195.27 47.722C194.693 54.8693 192.033 63.6374 187.394 73.4901C178.127 93.1709 161.253 116.568 138.91 138.911C116.567 161.254 93.1699 178.128 73.4891 187.395C63.6365 192.034 54.8683 194.694 47.721 195.271C40.5577 195.85 35.4449 194.32 32.2541 191.129C29.0634 187.938 27.5333 182.825 28.1119 175.662C28.6892 168.515 31.349 159.747 35.9883 149.894C45.2553 130.213 62.1294 106.816 84.4723 84.4734C106.815 62.1304 130.212 45.2564 149.893 35.9893C159.745 31.35 168.514 28.6902 175.661 28.1129C182.824 27.5343 187.937 29.0644 191.128 32.2551Z" stroke="url(#paint0_linear)" stroke-width="6"/>
<defs>
<linearGradient id="paint0_linear" x1="82.351" y1="82.352" x2="141.031" y2="141.032" gradientUnits="userSpaceOnUse">
<stop stop-color="#FB866F" stop-opacity="0"/>
<stop offset="1" stop-color="#AD2444"/>
</linearGradient>
</defs>
</svg>
