<svg width="88" height="261" viewBox="0 0 88 261" fill="none" xmlns="http://www.w3.org/2000/svg">
<path d="M44.1633 2.99936C48.886 2.99936 53.8581 5.85591 58.812 12.1163C63.7402 18.3442 68.3098 27.5417 72.2031 39.1742C79.9794 62.4081 84.8409 94.6967 84.8409 130.5C84.8409 166.303 79.9794 198.591 72.2031 221.825C68.3098 233.458 63.7402 242.655 58.812 248.883C53.8581 255.143 48.886 258 44.1633 258C39.4405 258 34.4684 255.143 29.5145 248.883C24.5863 242.655 20.0167 233.458 16.1234 221.825C8.34711 198.591 3.4856 166.303 3.4856 130.5C3.4856 94.6967 8.34712 62.4081 16.1234 39.1742C20.0167 27.5417 24.5863 18.3442 29.5145 12.1163C34.4684 5.85591 39.4405 2.99936 44.1633 2.99936Z" stroke="url(#paint0_linear)" stroke-width="6"/>
<defs>
<linearGradient id="paint0_linear" x1="0.485597" y1="130.5" x2="87.8409" y2="130.5" gradientUnits="userSpaceOnUse">
<stop stop-color="#FB866F" stop-opacity="0"/>
<stop offset="1" stop-color="#AD2444"/>
</linearGradient>
</defs>
</svg>
