<svg width="217" height="168" viewBox="0 0 217 168" fill="none" xmlns="http://www.w3.org/2000/svg">
<g filter="url(#filter0_d)">
<path d="M175 83.9236C175 89.384 172.479 94.3602 168.079 97.5816L109.045 140.809C100.643 146.96 89.357 146.96 80.9546 140.809L21.9215 97.5781C17.525 94.3567 15 89.3804 15 83.9201C15 78.4598 17.5214 73.4835 21.9215 70.2621L80.9546 27.035C89.357 20.8842 100.643 20.8842 109.045 27.035L168.082 70.2657C172.479 73.4835 175 78.4633 175 83.9236Z" fill="url(#paint0_linear)"/>
<path d="M175 83.9236C175 89.384 172.479 94.3602 168.079 97.5816L109.045 140.809C100.643 146.96 89.357 146.96 80.9546 140.809L21.9215 97.5781C17.525 94.3567 15 89.3804 15 83.9201C15 78.4598 17.5214 73.4835 21.9215 70.2621L80.9546 27.035C89.357 20.8842 100.643 20.8842 109.045 27.035L168.082 70.2657C172.479 73.4835 175 78.4633 175 83.9236Z" stroke="url(#paint1_linear)" stroke-width="4" stroke-miterlimit="10"/>
</g>
<path d="M65.9633 86.7019V85.5019H70.9553V86.7019H65.9633ZM63.8513 89.4219L67.8033 79.0219H69.1473L73.1313 89.4219H71.7552L68.2833 80.0139H68.6673L65.1953 89.4219H63.8513ZM74.0291 86.0459H75.1811C75.2131 86.4939 75.3465 86.8939 75.5811 87.2459C75.8158 87.5979 76.1358 87.8752 76.5411 88.0779C76.9571 88.2805 77.4425 88.3819 77.9971 88.3819C78.4771 88.3819 78.8771 88.3125 79.1971 88.1739C79.5278 88.0245 79.7731 87.8219 79.9331 87.5659C80.1038 87.3099 80.1891 87.0112 80.1891 86.6699C80.1891 86.3179 80.1038 86.0352 79.9331 85.8219C79.7625 85.6085 79.5171 85.4272 79.1971 85.2779C78.8771 85.1285 78.4985 84.9845 78.0611 84.8459C77.6451 84.7179 77.2238 84.5685 76.7971 84.3979C76.3705 84.2272 75.9705 84.0192 75.5971 83.7739C75.2345 83.5285 74.9411 83.2352 74.7171 82.8939C74.4931 82.5419 74.3811 82.1205 74.3811 81.6299C74.3811 81.1499 74.5091 80.7019 74.7651 80.2859C75.0318 79.8592 75.4158 79.5179 75.9171 79.2619C76.4291 78.9952 77.0425 78.8619 77.7571 78.8619C78.8771 78.8619 79.7145 79.1659 80.2691 79.7739C80.8238 80.3819 81.0905 81.1872 81.0691 82.1899H79.9171C79.8958 81.4325 79.6825 80.8885 79.2771 80.5579C78.8718 80.2272 78.3438 80.0619 77.6931 80.0619C77.1491 80.0619 76.6745 80.1899 76.2691 80.4459C75.8638 80.6912 75.6611 81.0805 75.6611 81.6139C75.6611 81.8485 75.7038 82.0565 75.7891 82.2379C75.8851 82.4085 76.0345 82.5685 76.2371 82.7179C76.4505 82.8672 76.7331 83.0165 77.0851 83.1659C77.4478 83.3045 77.8905 83.4592 78.4131 83.6299C78.7545 83.7365 79.1011 83.8645 79.4531 84.0139C79.8158 84.1632 80.1465 84.3499 80.4451 84.5739C80.7545 84.7979 80.9998 85.0859 81.1811 85.4379C81.3731 85.7792 81.4691 86.2112 81.4691 86.7339C81.4691 87.2352 81.3465 87.7045 81.1011 88.1419C80.8665 88.5685 80.4931 88.9152 79.9811 89.1819C79.4798 89.4485 78.8291 89.5819 78.0291 89.5819C77.3465 89.5819 76.7598 89.4912 76.2691 89.3099C75.7891 89.1179 75.3945 88.8725 75.0851 88.5739C74.7758 88.2752 74.5358 87.9659 74.3651 87.6459C74.2051 87.3152 74.0985 87.0059 74.0451 86.7179C73.9918 86.4299 73.9865 86.2059 74.0291 86.0459ZM82.6854 86.0459H83.8374C83.8694 86.4939 84.0027 86.8939 84.2374 87.2459C84.472 87.5979 84.792 87.8752 85.1974 88.0779C85.6134 88.2805 86.0987 88.3819 86.6534 88.3819C87.1334 88.3819 87.5334 88.3125 87.8534 88.1739C88.184 88.0245 88.4294 87.8219 88.5894 87.5659C88.76 87.3099 88.8454 87.0112 88.8454 86.6699C88.8454 86.3179 88.76 86.0352 88.5894 85.8219C88.4187 85.6085 88.1734 85.4272 87.8534 85.2779C87.5334 85.1285 87.1547 84.9845 86.7174 84.8459C86.3014 84.7179 85.88 84.5685 85.4534 84.3979C85.0267 84.2272 84.6267 84.0192 84.2534 83.7739C83.8907 83.5285 83.5974 83.2352 83.3734 82.8939C83.1494 82.5419 83.0374 82.1205 83.0374 81.6299C83.0374 81.1499 83.1654 80.7019 83.4214 80.2859C83.688 79.8592 84.072 79.5179 84.5734 79.2619C85.0854 78.9952 85.6987 78.8619 86.4134 78.8619C87.5334 78.8619 88.3707 79.1659 88.9254 79.7739C89.48 80.3819 89.7467 81.1872 89.7254 82.1899H88.5734C88.552 81.4325 88.3387 80.8885 87.9334 80.5579C87.528 80.2272 87 80.0619 86.3494 80.0619C85.8054 80.0619 85.3307 80.1899 84.9254 80.4459C84.52 80.6912 84.3174 81.0805 84.3174 81.6139C84.3174 81.8485 84.36 82.0565 84.4454 82.2379C84.5414 82.4085 84.6907 82.5685 84.8934 82.7179C85.1067 82.8672 85.3894 83.0165 85.7414 83.1659C86.104 83.3045 86.5467 83.4592 87.0694 83.6299C87.4107 83.7365 87.7574 83.8645 88.1094 84.0139C88.472 84.1632 88.8027 84.3499 89.1014 84.5739C89.4107 84.7979 89.656 85.0859 89.8374 85.4379C90.0294 85.7792 90.1254 86.2112 90.1254 86.7339C90.1254 87.2352 90.0027 87.7045 89.7574 88.1419C89.5227 88.5685 89.1494 88.9152 88.6374 89.1819C88.136 89.4485 87.4854 89.5819 86.6854 89.5819C86.0027 89.5819 85.416 89.4912 84.9254 89.3099C84.4454 89.1179 84.0507 88.8725 83.7414 88.5739C83.432 88.2752 83.192 87.9659 83.0214 87.6459C82.8614 87.3152 82.7547 87.0059 82.7014 86.7179C82.648 86.4299 82.6427 86.2059 82.6854 86.0459ZM93.3256 84.8459V88.2219H99.4216V89.4219H92.0456V79.0219H99.4056V80.2219H93.3256V83.6459H98.3016V84.8459H93.3256ZM100.615 79.0219H108.935V80.2219H100.615V79.0219ZM104.135 80.0939H105.415V89.4219H104.135V80.0939ZM109.748 86.0459H110.9C110.932 86.4939 111.065 86.8939 111.3 87.2459C111.535 87.5979 111.855 87.8752 112.26 88.0779C112.676 88.2805 113.161 88.3819 113.716 88.3819C114.196 88.3819 114.596 88.3125 114.916 88.1739C115.247 88.0245 115.492 87.8219 115.652 87.5659C115.823 87.3099 115.908 87.0112 115.908 86.6699C115.908 86.3179 115.823 86.0352 115.652 85.8219C115.481 85.6085 115.236 85.4272 114.916 85.2779C114.596 85.1285 114.217 84.9845 113.78 84.8459C113.364 84.7179 112.943 84.5685 112.516 84.3979C112.089 84.2272 111.689 84.0192 111.316 83.7739C110.953 83.5285 110.66 83.2352 110.436 82.8939C110.212 82.5419 110.1 82.1205 110.1 81.6299C110.1 81.1499 110.228 80.7019 110.484 80.2859C110.751 79.8592 111.135 79.5179 111.636 79.2619C112.148 78.9952 112.761 78.8619 113.476 78.8619C114.596 78.8619 115.433 79.1659 115.988 79.7739C116.543 80.3819 116.809 81.1872 116.788 82.1899H115.636C115.615 81.4325 115.401 80.8885 114.996 80.5579C114.591 80.2272 114.063 80.0619 113.412 80.0619C112.868 80.0619 112.393 80.1899 111.988 80.4459C111.583 80.6912 111.38 81.0805 111.38 81.6139C111.38 81.8485 111.423 82.0565 111.508 82.2379C111.604 82.4085 111.753 82.5685 111.956 82.7179C112.169 82.8672 112.452 83.0165 112.804 83.1659C113.167 83.3045 113.609 83.4592 114.132 83.6299C114.473 83.7365 114.82 83.8645 115.172 84.0139C115.535 84.1632 115.865 84.3499 116.164 84.5739C116.473 84.7979 116.719 85.0859 116.9 85.4379C117.092 85.7792 117.188 86.2112 117.188 86.7339C117.188 87.2352 117.065 87.7045 116.82 88.1419C116.585 88.5685 116.212 88.9152 115.7 89.1819C115.199 89.4485 114.548 89.5819 113.748 89.5819C113.065 89.5819 112.479 89.4912 111.988 89.3099C111.508 89.1179 111.113 88.8725 110.804 88.5739C110.495 88.2752 110.255 87.9659 110.084 87.6459C109.924 87.3152 109.817 87.0059 109.764 86.7179C109.711 86.4299 109.705 86.2059 109.748 86.0459Z" fill="white"/>

<defs>
<filter id="filter0_d" x="13" y="0.421875" width="204" height="167" filterUnits="userSpaceOnUse" color-interpolation-filters="sRGB">
<feFlood flood-opacity="0" result="BackgroundImageFix"/>
<feColorMatrix in="SourceAlpha" type="matrix" values="0 0 0 0 0 0 0 0 0 0 0 0 0 0 0 0 0 0 127 0"/>
<feOffset dx="20"/>
<feGaussianBlur stdDeviation="10"/>
<feColorMatrix type="matrix" values="0 0 0 0 0 0 0 0 0 0 0 0 0 0 0 0 0 0 0.4 0"/>
<feBlend mode="normal" in2="BackgroundImageFix" result="effect1_dropShadow"/>
<feBlend mode="normal" in="SourceGraphic" in2="effect1_dropShadow" result="shape"/>
</filter>
<linearGradient id="paint0_linear" x1="139.356" y1="49.9771" x2="47.6844" y2="121.916" gradientUnits="userSpaceOnUse">
<stop stop-color="#171717"/>
<stop offset="1" stop-color="#222222"/>
</linearGradient>
<linearGradient id="paint1_linear" x1="95.0008" y1="145.511" x2="95.0008" y2="22.3333" gradientUnits="userSpaceOnUse">
<stop/>
<stop offset="1" stop-color="#484646"/>
</linearGradient>
</defs>
</svg>
