<svg width="217" height="168" viewBox="0 0 217 168" fill="none" xmlns="http://www.w3.org/2000/svg">
<g filter="url(#filter0_d)">
<path d="M202 83.9236C202 89.384 199.479 94.3602 195.079 97.5816L136.045 140.809C127.643 146.96 116.357 146.96 107.955 140.809L48.9215 97.5781C44.525 94.3567 42 89.3804 42 83.9201C42 78.4598 44.5214 73.4835 48.9215 70.2621L107.955 27.035C116.357 20.8842 127.643 20.8842 136.045 27.035L195.082 70.2657C199.479 73.4835 202 78.4633 202 83.9236Z" fill="url(#paint0_linear)"/>
<path d="M202 83.9236C202 89.384 199.479 94.3602 195.079 97.5816L136.045 140.809C127.643 146.96 116.357 146.96 107.955 140.809L48.9215 97.5781C44.525 94.3567 42 89.3804 42 83.9201C42 78.4598 44.5214 73.4835 48.9215 70.2621L107.955 27.035C116.357 20.8842 127.643 20.8842 136.045 27.035L195.082 70.2657C199.479 73.4835 202 78.4633 202 83.9236Z" stroke="url(#paint1_linear)" stroke-width="4" stroke-miterlimit="10"/>
</g>
<path d="M78.4105 86.9499C78.3039 87.6965 78.0479 88.3419 77.6425 88.8859C77.2372 89.4299 76.7199 89.8512 76.0905 90.1499C75.4719 90.4379 74.7785 90.5819 74.0105 90.5819C73.2959 90.5819 72.6345 90.4592 72.0265 90.2139C71.4185 89.9579 70.8852 89.5952 70.4265 89.1259C69.9785 88.6565 69.6265 88.0912 69.3705 87.4299C69.1145 86.7685 68.9865 86.0325 68.9865 85.2219C68.9865 84.4005 69.1145 83.6645 69.3705 83.0139C69.6265 82.3525 69.9785 81.7872 70.4265 81.3179C70.8852 80.8485 71.4185 80.4912 72.0265 80.2459C72.6345 79.9899 73.2959 79.8619 74.0105 79.8619C74.7892 79.8619 75.4879 80.0112 76.1065 80.3099C76.7359 80.5979 77.2532 81.0192 77.6585 81.5739C78.0639 82.1179 78.3199 82.7685 78.4265 83.5259H77.2425C77.0932 82.9925 76.8585 82.5445 76.5385 82.1819C76.2292 81.8192 75.8559 81.5419 75.4185 81.3499C74.9812 81.1579 74.5119 81.0619 74.0105 81.0619C73.3599 81.0619 72.7465 81.2219 72.1705 81.5419C71.6052 81.8619 71.1465 82.3312 70.7945 82.9499C70.4425 83.5685 70.2665 84.3259 70.2665 85.2219C70.2665 86.1179 70.4425 86.8752 70.7945 87.4939C71.1465 88.1125 71.6052 88.5819 72.1705 88.9019C72.7465 89.2219 73.3599 89.3819 74.0105 89.3819C74.5119 89.3819 74.9759 89.2912 75.4025 89.1099C75.8399 88.9179 76.2132 88.6405 76.5225 88.2779C76.8425 87.9152 77.0772 87.4725 77.2265 86.9499H78.4105ZM85.1534 90.5819C84.2041 90.5819 83.3401 90.3632 82.5614 89.9259C81.7934 89.4779 81.1801 88.8539 80.7214 88.0539C80.2627 87.2539 80.0334 86.3099 80.0334 85.2219C80.0334 84.1339 80.2627 83.1899 80.7214 82.3899C81.1801 81.5792 81.7934 80.9552 82.5614 80.5179C83.3401 80.0805 84.2041 79.8619 85.1534 79.8619C86.1027 79.8619 86.9614 80.0805 87.7294 80.5179C88.5081 80.9552 89.1267 81.5792 89.5854 82.3899C90.0441 83.1899 90.2734 84.1339 90.2734 85.2219C90.2734 86.3099 90.0441 87.2539 89.5854 88.0539C89.1267 88.8539 88.5081 89.4779 87.7294 89.9259C86.9614 90.3632 86.1027 90.5819 85.1534 90.5819ZM85.1534 89.3819C85.8787 89.3819 86.5294 89.2272 87.1054 88.9179C87.6814 88.5979 88.1401 88.1285 88.4814 87.5099C88.8227 86.8912 88.9934 86.1285 88.9934 85.2219C88.9934 84.3152 88.8227 83.5579 88.4814 82.9499C88.1401 82.3312 87.6814 81.8619 87.1054 81.5419C86.5294 81.2219 85.8787 81.0619 85.1534 81.0619C84.4387 81.0619 83.7881 81.2219 83.2014 81.5419C82.6254 81.8619 82.1667 82.3312 81.8254 82.9499C81.4841 83.5579 81.3134 84.3152 81.3134 85.2219C81.3134 86.1285 81.4841 86.8912 81.8254 87.5099C82.1667 88.1285 82.6254 88.5979 83.2014 88.9179C83.7881 89.2272 84.4387 89.3819 85.1534 89.3819ZM98.3731 89.6539H97.8611L102.597 80.0219H103.877V90.4219H102.597V82.2459L102.853 82.3099L98.7571 90.4219H97.4771L93.3811 82.3259L93.6371 82.2619V90.4219H92.3571V80.0219H93.6371L98.3731 89.6539ZM112.451 89.6539H111.939L116.675 80.0219H117.955V90.4219H116.675V82.2459L116.931 82.3099L112.835 90.4219H111.555L107.459 82.3259L107.715 82.2619V90.4219H106.435V80.0219H107.715L112.451 89.6539ZM125.153 90.5819C124.204 90.5819 123.34 90.3632 122.561 89.9259C121.793 89.4779 121.18 88.8539 120.721 88.0539C120.263 87.2539 120.033 86.3099 120.033 85.2219C120.033 84.1339 120.263 83.1899 120.721 82.3899C121.18 81.5792 121.793 80.9552 122.561 80.5179C123.34 80.0805 124.204 79.8619 125.153 79.8619C126.103 79.8619 126.961 80.0805 127.729 80.5179C128.508 80.9552 129.127 81.5792 129.585 82.3899C130.044 83.1899 130.273 84.1339 130.273 85.2219C130.273 86.3099 130.044 87.2539 129.585 88.0539C129.127 88.8539 128.508 89.4779 127.729 89.9259C126.961 90.3632 126.103 90.5819 125.153 90.5819ZM125.153 89.3819C125.879 89.3819 126.529 89.2272 127.105 88.9179C127.681 88.5979 128.14 88.1285 128.481 87.5099C128.823 86.8912 128.993 86.1285 128.993 85.2219C128.993 84.3152 128.823 83.5579 128.481 82.9499C128.14 82.3312 127.681 81.8619 127.105 81.5419C126.529 81.2219 125.879 81.0619 125.153 81.0619C124.439 81.0619 123.788 81.2219 123.201 81.5419C122.625 81.8619 122.167 82.3312 121.825 82.9499C121.484 83.5579 121.313 84.3152 121.313 85.2219C121.313 86.1285 121.484 86.8912 121.825 87.5099C122.167 88.1285 122.625 88.5979 123.201 88.9179C123.788 89.2272 124.439 89.3819 125.153 89.3819ZM135.733 80.0219C136.778 80.0219 137.653 80.1605 138.357 80.4379C139.072 80.7045 139.642 81.0779 140.069 81.5579C140.496 82.0379 140.805 82.5872 140.997 83.2059C141.189 83.8245 141.285 84.4805 141.285 85.1739C141.285 85.8672 141.184 86.5285 140.981 87.1579C140.778 87.7872 140.453 88.3472 140.005 88.8379C139.568 89.3285 138.997 89.7179 138.293 90.0059C137.589 90.2832 136.736 90.4219 135.733 90.4219H132.357V80.0219H135.733ZM133.637 89.2219H135.733C136.576 89.2219 137.269 89.1045 137.813 88.8699C138.368 88.6352 138.805 88.3259 139.125 87.9419C139.445 87.5472 139.669 87.1099 139.797 86.6299C139.936 86.1499 140.005 85.6645 140.005 85.1739C140.005 84.6832 139.936 84.2032 139.797 83.7339C139.669 83.2645 139.445 82.8432 139.125 82.4699C138.805 82.0859 138.368 81.7819 137.813 81.5579C137.269 81.3339 136.576 81.2219 135.733 81.2219H133.637V89.2219ZM143.693 80.0219H144.973V90.4219H143.693V80.0219ZM146.817 80.0219H155.137V81.2219H146.817V80.0219ZM150.337 81.0939H151.617V90.4219H150.337V81.0939ZM156.974 80.0219H158.254V90.4219H156.974V80.0219ZM162.418 85.8459V89.2219H168.514V90.4219H161.138V80.0219H168.498V81.2219H162.418V84.6459H167.394V85.8459H162.418ZM170.044 87.0459H171.196C171.228 87.4939 171.361 87.8939 171.596 88.2459C171.83 88.5979 172.15 88.8752 172.556 89.0779C172.972 89.2805 173.457 89.3819 174.012 89.3819C174.492 89.3819 174.892 89.3125 175.212 89.1739C175.542 89.0245 175.788 88.8219 175.948 88.5659C176.118 88.3099 176.204 88.0112 176.204 87.6699C176.204 87.3179 176.118 87.0352 175.948 86.8219C175.777 86.6085 175.532 86.4272 175.212 86.2779C174.892 86.1285 174.513 85.9845 174.076 85.8459C173.66 85.7179 173.238 85.5685 172.812 85.3979C172.385 85.2272 171.985 85.0192 171.612 84.7739C171.249 84.5285 170.956 84.2352 170.732 83.8939C170.508 83.5419 170.396 83.1205 170.396 82.6299C170.396 82.1499 170.524 81.7019 170.78 81.2859C171.046 80.8592 171.43 80.5179 171.932 80.2619C172.444 79.9952 173.057 79.8619 173.772 79.8619C174.892 79.8619 175.729 80.1659 176.284 80.7739C176.838 81.3819 177.105 82.1872 177.084 83.1899H175.932C175.91 82.4325 175.697 81.8885 175.292 81.5579C174.886 81.2272 174.358 81.0619 173.708 81.0619C173.164 81.0619 172.689 81.1899 172.284 81.4459C171.878 81.6912 171.676 82.0805 171.676 82.6139C171.676 82.8485 171.718 83.0565 171.804 83.2379C171.9 83.4085 172.049 83.5685 172.252 83.7179C172.465 83.8672 172.748 84.0165 173.1 84.1659C173.462 84.3045 173.905 84.4592 174.428 84.6299C174.769 84.7365 175.116 84.8645 175.468 85.0139C175.83 85.1632 176.161 85.3499 176.46 85.5739C176.769 85.7979 177.014 86.0859 177.196 86.4379C177.388 86.7792 177.484 87.2112 177.484 87.7339C177.484 88.2352 177.361 88.7045 177.116 89.1419C176.881 89.5685 176.508 89.9152 175.996 90.1819C175.494 90.4485 174.844 90.5819 174.044 90.5819C173.361 90.5819 172.774 90.4912 172.284 90.3099C171.804 90.1179 171.409 89.8725 171.1 89.5739C170.79 89.2752 170.55 88.9659 170.38 88.6459C170.22 88.3152 170.113 88.0059 170.06 87.7179C170.006 87.4299 170.001 87.2059 170.044 87.0459Z" fill="white"/>

<defs>
<filter id="filter0_d" x="0" y="0.421875" width="204" height="167" filterUnits="userSpaceOnUse" color-interpolation-filters="sRGB">
<feFlood flood-opacity="0" result="BackgroundImageFix"/>
<feColorMatrix in="SourceAlpha" type="matrix" values="0 0 0 0 0 0 0 0 0 0 0 0 0 0 0 0 0 0 127 0"/>
<feOffset dx="-20"/>
<feGaussianBlur stdDeviation="10"/>
<feColorMatrix type="matrix" values="0 0 0 0 0 0 0 0 0 0 0 0 0 0 0 0 0 0 0.4 0"/>
<feBlend mode="normal" in2="BackgroundImageFix" result="effect1_dropShadow"/>
<feBlend mode="normal" in="SourceGraphic" in2="effect1_dropShadow" result="shape"/>
</filter>
<linearGradient id="paint0_linear" x1="166.356" y1="49.9771" x2="74.6844" y2="121.916" gradientUnits="userSpaceOnUse">
<stop stop-color="#171717"/>
<stop offset="1" stop-color="#222222"/>
</linearGradient>
<linearGradient id="paint1_linear" x1="122.001" y1="145.511" x2="122.001" y2="22.3333" gradientUnits="userSpaceOnUse">
<stop/>
<stop offset="1" stop-color="#484646"/>
</linearGradient>
</defs>
</svg>
