<svg width="275" height="203" viewBox="0 0 275 203" fill="none" xmlns="http://www.w3.org/2000/svg">
<g filter="url(#filter0_d)">
<path d="M202 107.924C202 113.384 199.479 118.36 195.079 121.582L136.045 164.809C127.643 170.96 116.357 170.96 107.955 164.809L48.9215 121.578C44.525 118.357 42 113.38 42 107.92C42 102.46 44.5214 97.4835 48.9215 94.2621L107.955 51.035C116.357 44.8842 127.643 44.8842 136.045 51.035L195.082 94.2657C199.479 97.4835 202 102.463 202 107.924Z" fill="url(#paint0_linear)"/>
<path d="M202 107.924C202 113.384 199.479 118.36 195.079 121.582L136.045 164.809C127.643 170.96 116.357 170.96 107.955 164.809L48.9215 121.578C44.525 118.357 42 113.38 42 107.92C42 102.46 44.5214 97.4835 48.9215 94.2621L107.955 51.035C116.357 44.8842 127.643 44.8842 136.045 51.035L195.082 94.2657C199.479 97.4835 202 102.463 202 107.924Z" stroke="url(#paint1_linear)" stroke-width="4" stroke-miterlimit="10"/>
</g>
<path d="M78.4105 110.95C78.3039 111.697 78.0479 112.342 77.6425 112.886C77.2372 113.43 76.7199 113.851 76.0905 114.15C75.4719 114.438 74.7785 114.582 74.0105 114.582C73.2959 114.582 72.6345 114.459 72.0265 114.214C71.4185 113.958 70.8852 113.595 70.4265 113.126C69.9785 112.657 69.6265 112.091 69.3705 111.43C69.1145 110.769 68.9865 110.033 68.9865 109.222C68.9865 108.401 69.1145 107.665 69.3705 107.014C69.6265 106.353 69.9785 105.787 70.4265 105.318C70.8852 104.849 71.4185 104.491 72.0265 104.246C72.6345 103.99 73.2959 103.862 74.0105 103.862C74.7892 103.862 75.4879 104.011 76.1065 104.31C76.7359 104.598 77.2532 105.019 77.6585 105.574C78.0639 106.118 78.3199 106.769 78.4265 107.526H77.2425C77.0932 106.993 76.8585 106.545 76.5385 106.182C76.2292 105.819 75.8559 105.542 75.4185 105.35C74.9812 105.158 74.5119 105.062 74.0105 105.062C73.3599 105.062 72.7465 105.222 72.1705 105.542C71.6052 105.862 71.1465 106.331 70.7945 106.95C70.4425 107.569 70.2665 108.326 70.2665 109.222C70.2665 110.118 70.4425 110.875 70.7945 111.494C71.1465 112.113 71.6052 112.582 72.1705 112.902C72.7465 113.222 73.3599 113.382 74.0105 113.382C74.5119 113.382 74.9759 113.291 75.4025 113.11C75.8399 112.918 76.2132 112.641 76.5225 112.278C76.8425 111.915 77.0772 111.473 77.2265 110.95H78.4105ZM85.1534 114.582C84.2041 114.582 83.3401 114.363 82.5614 113.926C81.7934 113.478 81.1801 112.854 80.7214 112.054C80.2627 111.254 80.0334 110.31 80.0334 109.222C80.0334 108.134 80.2627 107.19 80.7214 106.39C81.1801 105.579 81.7934 104.955 82.5614 104.518C83.3401 104.081 84.2041 103.862 85.1534 103.862C86.1027 103.862 86.9614 104.081 87.7294 104.518C88.5081 104.955 89.1267 105.579 89.5854 106.39C90.0441 107.19 90.2734 108.134 90.2734 109.222C90.2734 110.31 90.0441 111.254 89.5854 112.054C89.1267 112.854 88.5081 113.478 87.7294 113.926C86.9614 114.363 86.1027 114.582 85.1534 114.582ZM85.1534 113.382C85.8787 113.382 86.5294 113.227 87.1054 112.918C87.6814 112.598 88.1401 112.129 88.4814 111.51C88.8227 110.891 88.9934 110.129 88.9934 109.222C88.9934 108.315 88.8227 107.558 88.4814 106.95C88.1401 106.331 87.6814 105.862 87.1054 105.542C86.5294 105.222 85.8787 105.062 85.1534 105.062C84.4387 105.062 83.7881 105.222 83.2014 105.542C82.6254 105.862 82.1667 106.331 81.8254 106.95C81.4841 107.558 81.3134 108.315 81.3134 109.222C81.3134 110.129 81.4841 110.891 81.8254 111.51C82.1667 112.129 82.6254 112.598 83.2014 112.918C83.7881 113.227 84.4387 113.382 85.1534 113.382ZM98.3731 113.654H97.8611L102.597 104.022H103.877V114.422H102.597V106.246L102.853 106.31L98.7571 114.422H97.4771L93.3811 106.326L93.6371 106.262V114.422H92.3571V104.022H93.6371L98.3731 113.654ZM112.451 113.654H111.939L116.675 104.022H117.955V114.422H116.675V106.246L116.931 106.31L112.835 114.422H111.555L107.459 106.326L107.715 106.262V114.422H106.435V104.022H107.715L112.451 113.654ZM125.153 114.582C124.204 114.582 123.34 114.363 122.561 113.926C121.793 113.478 121.18 112.854 120.721 112.054C120.263 111.254 120.033 110.31 120.033 109.222C120.033 108.134 120.263 107.19 120.721 106.39C121.18 105.579 121.793 104.955 122.561 104.518C123.34 104.081 124.204 103.862 125.153 103.862C126.103 103.862 126.961 104.081 127.729 104.518C128.508 104.955 129.127 105.579 129.585 106.39C130.044 107.19 130.273 108.134 130.273 109.222C130.273 110.31 130.044 111.254 129.585 112.054C129.127 112.854 128.508 113.478 127.729 113.926C126.961 114.363 126.103 114.582 125.153 114.582ZM125.153 113.382C125.879 113.382 126.529 113.227 127.105 112.918C127.681 112.598 128.14 112.129 128.481 111.51C128.823 110.891 128.993 110.129 128.993 109.222C128.993 108.315 128.823 107.558 128.481 106.95C128.14 106.331 127.681 105.862 127.105 105.542C126.529 105.222 125.879 105.062 125.153 105.062C124.439 105.062 123.788 105.222 123.201 105.542C122.625 105.862 122.167 106.331 121.825 106.95C121.484 107.558 121.313 108.315 121.313 109.222C121.313 110.129 121.484 110.891 121.825 111.51C122.167 112.129 122.625 112.598 123.201 112.918C123.788 113.227 124.439 113.382 125.153 113.382ZM135.733 104.022C136.778 104.022 137.653 104.161 138.357 104.438C139.072 104.705 139.642 105.078 140.069 105.558C140.496 106.038 140.805 106.587 140.997 107.206C141.189 107.825 141.285 108.481 141.285 109.174C141.285 109.867 141.184 110.529 140.981 111.158C140.778 111.787 140.453 112.347 140.005 112.838C139.568 113.329 138.997 113.718 138.293 114.006C137.589 114.283 136.736 114.422 135.733 114.422H132.357V104.022H135.733ZM133.637 113.222H135.733C136.576 113.222 137.269 113.105 137.813 112.87C138.368 112.635 138.805 112.326 139.125 111.942C139.445 111.547 139.669 111.11 139.797 110.63C139.936 110.15 140.005 109.665 140.005 109.174C140.005 108.683 139.936 108.203 139.797 107.734C139.669 107.265 139.445 106.843 139.125 106.47C138.805 106.086 138.368 105.782 137.813 105.558C137.269 105.334 136.576 105.222 135.733 105.222H133.637V113.222ZM143.693 104.022H144.973V114.422H143.693V104.022ZM146.817 104.022H155.137V105.222H146.817V104.022ZM150.337 105.094H151.617V114.422H150.337V105.094ZM156.974 104.022H158.254V114.422H156.974V104.022ZM162.418 109.846V113.222H168.514V114.422H161.138V104.022H168.498V105.222H162.418V108.646H167.394V109.846H162.418ZM170.044 111.046H171.196C171.228 111.494 171.361 111.894 171.596 112.246C171.83 112.598 172.15 112.875 172.556 113.078C172.972 113.281 173.457 113.382 174.012 113.382C174.492 113.382 174.892 113.313 175.212 113.174C175.542 113.025 175.788 112.822 175.948 112.566C176.118 112.31 176.204 112.011 176.204 111.67C176.204 111.318 176.118 111.035 175.948 110.822C175.777 110.609 175.532 110.427 175.212 110.278C174.892 110.129 174.513 109.985 174.076 109.846C173.66 109.718 173.238 109.569 172.812 109.398C172.385 109.227 171.985 109.019 171.612 108.774C171.249 108.529 170.956 108.235 170.732 107.894C170.508 107.542 170.396 107.121 170.396 106.63C170.396 106.15 170.524 105.702 170.78 105.286C171.046 104.859 171.43 104.518 171.932 104.262C172.444 103.995 173.057 103.862 173.772 103.862C174.892 103.862 175.729 104.166 176.284 104.774C176.838 105.382 177.105 106.187 177.084 107.19H175.932C175.91 106.433 175.697 105.889 175.292 105.558C174.886 105.227 174.358 105.062 173.708 105.062C173.164 105.062 172.689 105.19 172.284 105.446C171.878 105.691 171.676 106.081 171.676 106.614C171.676 106.849 171.718 107.057 171.804 107.238C171.9 107.409 172.049 107.569 172.252 107.718C172.465 107.867 172.748 108.017 173.1 108.166C173.462 108.305 173.905 108.459 174.428 108.63C174.769 108.737 175.116 108.865 175.468 109.014C175.83 109.163 176.161 109.35 176.46 109.574C176.769 109.798 177.014 110.086 177.196 110.438C177.388 110.779 177.484 111.211 177.484 111.734C177.484 112.235 177.361 112.705 177.116 113.142C176.881 113.569 176.508 113.915 175.996 114.182C175.494 114.449 174.844 114.582 174.044 114.582C173.361 114.582 172.774 114.491 172.284 114.31C171.804 114.118 171.409 113.873 171.1 113.574C170.79 113.275 170.55 112.966 170.38 112.646C170.22 112.315 170.113 112.006 170.06 111.718C170.006 111.43 170.001 111.206 170.044 111.046Z" fill="white"/>
<path opacity="0.5" d="M111.755 3.62187V4.52187H107.195V7.08987H110.927V7.98987H107.195V11.4219H106.235V3.62187H111.755ZM116.137 11.5419C115.425 11.5419 114.777 11.3779 114.193 11.0499C113.617 10.7139 113.157 10.2459 112.813 9.64587C112.469 9.04587 112.297 8.33787 112.297 7.52187C112.297 6.70587 112.469 5.99787 112.813 5.39787C113.157 4.78987 113.617 4.32187 114.193 3.99387C114.777 3.66587 115.425 3.50187 116.137 3.50187C116.849 3.50187 117.493 3.66587 118.069 3.99387C118.653 4.32187 119.117 4.78987 119.461 5.39787C119.805 5.99787 119.977 6.70587 119.977 7.52187C119.977 8.33787 119.805 9.04587 119.461 9.64587C119.117 10.2459 118.653 10.7139 118.069 11.0499C117.493 11.3779 116.849 11.5419 116.137 11.5419ZM116.137 10.6419C116.681 10.6419 117.169 10.5259 117.601 10.2939C118.033 10.0539 118.377 9.70187 118.633 9.23787C118.889 8.77387 119.017 8.20187 119.017 7.52187C119.017 6.84187 118.889 6.27387 118.633 5.81787C118.377 5.35387 118.033 5.00187 117.601 4.76187C117.169 4.52187 116.681 4.40187 116.137 4.40187C115.601 4.40187 115.113 4.52187 114.673 4.76187C114.241 5.00187 113.897 5.35387 113.641 5.81787C113.385 6.27387 113.257 6.84187 113.257 7.52187C113.257 8.20187 113.385 8.77387 113.641 9.23787C113.897 9.70187 114.241 10.0539 114.673 10.2939C115.113 10.5259 115.601 10.6419 116.137 10.6419ZM125.02 11.5419C124.308 11.5419 123.66 11.3779 123.076 11.0499C122.5 10.7139 122.04 10.2459 121.696 9.64587C121.352 9.04587 121.18 8.33787 121.18 7.52187C121.18 6.70587 121.352 5.99787 121.696 5.39787C122.04 4.78987 122.5 4.32187 123.076 3.99387C123.66 3.66587 124.308 3.50187 125.02 3.50187C125.732 3.50187 126.376 3.66587 126.952 3.99387C127.536 4.32187 128 4.78987 128.344 5.39787C128.688 5.99787 128.86 6.70587 128.86 7.52187C128.86 8.33787 128.688 9.04587 128.344 9.64587C128 10.2459 127.536 10.7139 126.952 11.0499C126.376 11.3779 125.732 11.5419 125.02 11.5419ZM125.02 10.6419C125.564 10.6419 126.052 10.5259 126.484 10.2939C126.916 10.0539 127.26 9.70187 127.516 9.23787C127.772 8.77387 127.9 8.20187 127.9 7.52187C127.9 6.84187 127.772 6.27387 127.516 5.81787C127.26 5.35387 126.916 5.00187 126.484 4.76187C126.052 4.52187 125.564 4.40187 125.02 4.40187C124.484 4.40187 123.996 4.52187 123.556 4.76187C123.124 5.00187 122.78 5.35387 122.524 5.81787C122.268 6.27387 122.14 6.84187 122.14 7.52187C122.14 8.20187 122.268 8.77387 122.524 9.23787C122.78 9.70187 123.124 10.0539 123.556 10.2939C123.996 10.5259 124.484 10.6419 125.02 10.6419ZM132.955 3.62187C133.739 3.62187 134.395 3.72587 134.923 3.93387C135.459 4.13387 135.887 4.41387 136.207 4.77387C136.527 5.13387 136.759 5.54587 136.903 6.00987C137.047 6.47387 137.119 6.96587 137.119 7.48587C137.119 8.00587 137.043 8.50187 136.891 8.97387C136.739 9.44587 136.495 9.86587 136.159 10.2339C135.831 10.6019 135.403 10.8939 134.875 11.1099C134.347 11.3179 133.707 11.4219 132.955 11.4219H130.423V3.62187H132.955ZM131.383 10.5219H132.955C133.587 10.5219 134.107 10.4339 134.515 10.2579C134.931 10.0819 135.259 9.84987 135.499 9.56187C135.739 9.26587 135.907 8.93787 136.003 8.57787C136.107 8.21787 136.159 7.85387 136.159 7.48587C136.159 7.11787 136.107 6.75787 136.003 6.40587C135.907 6.05387 135.739 5.73787 135.499 5.45787C135.259 5.16987 134.931 4.94187 134.515 4.77387C134.107 4.60587 133.587 4.52187 132.955 4.52187H131.383V10.5219ZM103.042 22.6619V21.7619H105.49C105.97 21.7619 106.358 21.6139 106.654 21.3179C106.958 21.0139 107.11 20.6219 107.11 20.1419C107.11 19.6459 106.958 19.2539 106.654 18.9659C106.358 18.6699 105.97 18.5219 105.49 18.5219H103.234V25.4219H102.274V17.6219H105.49C105.85 17.6219 106.186 17.6779 106.498 17.7899C106.81 17.9019 107.082 18.0659 107.314 18.2819C107.554 18.4979 107.738 18.7619 107.866 19.0739C108.002 19.3859 108.07 19.7419 108.07 20.1419C108.07 20.5419 108.002 20.8979 107.866 21.2099C107.738 21.5219 107.554 21.7859 107.314 22.0019C107.082 22.2179 106.81 22.3819 106.498 22.4939C106.186 22.6059 105.85 22.6619 105.49 22.6619H103.042ZM109.575 25.4219V17.6219H113.019C113.563 17.6219 114.027 17.7059 114.411 17.8739C114.795 18.0339 115.087 18.2779 115.287 18.6059C115.495 18.9339 115.599 19.3459 115.599 19.8419C115.599 20.1779 115.543 20.4659 115.431 20.7059C115.327 20.9459 115.179 21.1499 114.987 21.3179C114.795 21.4779 114.567 21.6019 114.303 21.6899C114.047 21.7779 113.767 21.8339 113.463 21.8579L113.427 21.7979C113.851 21.8139 114.215 21.8659 114.519 21.9539C114.823 22.0419 115.059 22.2019 115.227 22.4339C115.395 22.6659 115.479 23.0139 115.479 23.4779V25.4219H114.519V23.4779C114.519 23.1579 114.463 22.9099 114.351 22.7339C114.247 22.5499 114.067 22.4219 113.811 22.3499C113.563 22.2699 113.219 22.2299 112.779 22.2299H110.535V25.4219H109.575ZM110.535 21.3299H113.019C113.563 21.3299 113.967 21.1939 114.231 20.9219C114.503 20.6419 114.639 20.2819 114.639 19.8419C114.639 19.4179 114.503 19.0939 114.231 18.8699C113.967 18.6379 113.563 18.5219 113.019 18.5219H110.535V21.3299ZM117.514 17.6219H118.474V25.4219H117.514V17.6219ZM127.346 22.8179C127.266 23.3779 127.074 23.8619 126.77 24.2699C126.466 24.6779 126.078 24.9939 125.606 25.2179C125.142 25.4339 124.622 25.5419 124.046 25.5419C123.51 25.5419 123.014 25.4499 122.558 25.2659C122.102 25.0739 121.702 24.8019 121.358 24.4499C121.022 24.0979 120.758 23.6739 120.566 23.1779C120.374 22.6819 120.278 22.1299 120.278 21.5219C120.278 20.9059 120.374 20.3539 120.566 19.8659C120.758 19.3699 121.022 18.9459 121.358 18.5939C121.702 18.2419 122.102 17.9739 122.558 17.7899C123.014 17.5979 123.51 17.5019 124.046 17.5019C124.63 17.5019 125.154 17.6139 125.618 17.8379C126.09 18.0539 126.478 18.3699 126.782 18.7859C127.086 19.1939 127.278 19.6819 127.358 20.2499H126.47C126.358 19.8499 126.182 19.5139 125.942 19.2419C125.71 18.9699 125.43 18.7619 125.102 18.6179C124.774 18.4739 124.422 18.4019 124.046 18.4019C123.558 18.4019 123.098 18.5219 122.666 18.7619C122.242 19.0019 121.898 19.3539 121.634 19.8179C121.37 20.2819 121.238 20.8499 121.238 21.5219C121.238 22.1939 121.37 22.7619 121.634 23.2259C121.898 23.6899 122.242 24.0419 122.666 24.2819C123.098 24.5219 123.558 24.6419 124.046 24.6419C124.422 24.6419 124.77 24.5739 125.09 24.4379C125.418 24.2939 125.698 24.0859 125.93 23.8139C126.17 23.5419 126.346 23.2099 126.458 22.8179H127.346ZM129.883 21.9899V24.5219H134.455V25.4219H128.923V17.6219H134.443V18.5219H129.883V21.0899H133.615V21.9899H129.883ZM135.602 22.8899H136.466C136.49 23.2259 136.59 23.5259 136.766 23.7899C136.942 24.0539 137.182 24.2619 137.486 24.4139C137.798 24.5659 138.162 24.6419 138.578 24.6419C138.938 24.6419 139.238 24.5899 139.478 24.4859C139.726 24.3739 139.91 24.2219 140.03 24.0299C140.158 23.8379 140.222 23.6139 140.222 23.3579C140.222 23.0939 140.158 22.8819 140.03 22.7219C139.902 22.5619 139.718 22.4259 139.478 22.3139C139.238 22.2019 138.954 22.0939 138.626 21.9899C138.314 21.8939 137.998 21.7819 137.678 21.6539C137.358 21.5259 137.058 21.3699 136.778 21.1859C136.506 21.0019 136.286 20.7819 136.118 20.5259C135.95 20.2619 135.866 19.9459 135.866 19.5779C135.866 19.2179 135.962 18.8819 136.154 18.5699C136.354 18.2499 136.642 17.9939 137.018 17.8019C137.402 17.6019 137.862 17.5019 138.398 17.5019C139.238 17.5019 139.866 17.7299 140.282 18.1859C140.698 18.6419 140.898 19.2459 140.882 19.9979H140.018C140.002 19.4299 139.842 19.0219 139.538 18.7739C139.234 18.5259 138.838 18.4019 138.35 18.4019C137.942 18.4019 137.586 18.4979 137.282 18.6899C136.978 18.8739 136.826 19.1659 136.826 19.5659C136.826 19.7419 136.858 19.8979 136.922 20.0339C136.994 20.1619 137.106 20.2819 137.258 20.3939C137.418 20.5059 137.63 20.6179 137.894 20.7299C138.166 20.8339 138.498 20.9499 138.89 21.0779C139.146 21.1579 139.406 21.2539 139.67 21.3659C139.942 21.4779 140.19 21.6179 140.414 21.7859C140.646 21.9539 140.83 22.1699 140.966 22.4339C141.11 22.6899 141.182 23.0139 141.182 23.4059C141.182 23.7819 141.09 24.1339 140.906 24.4619C140.73 24.7819 140.45 25.0419 140.066 25.2419C139.69 25.4419 139.202 25.5419 138.602 25.5419C138.09 25.5419 137.65 25.4739 137.282 25.3379C136.922 25.1939 136.626 25.0099 136.394 24.7859C136.162 24.5619 135.982 24.3299 135.854 24.0899C135.734 23.8419 135.654 23.6099 135.614 23.3939C135.574 23.1779 135.57 23.0099 135.602 22.8899Z" fill="white"/>
<path opacity="0.5" d="M225.895 111.542C225.183 111.542 224.535 111.378 223.951 111.05C223.375 110.714 222.915 110.246 222.571 109.646C222.227 109.046 222.055 108.338 222.055 107.522C222.055 106.706 222.227 105.998 222.571 105.398C222.915 104.79 223.375 104.322 223.951 103.994C224.535 103.666 225.183 103.502 225.895 103.502C226.607 103.502 227.251 103.666 227.827 103.994C228.411 104.322 228.875 104.79 229.219 105.398C229.563 105.998 229.735 106.706 229.735 107.522C229.735 108.338 229.563 109.046 229.219 109.646C228.875 110.246 228.411 110.714 227.827 111.05C227.251 111.378 226.607 111.542 225.895 111.542ZM225.895 110.642C226.439 110.642 226.927 110.526 227.359 110.294C227.791 110.054 228.135 109.702 228.391 109.238C228.647 108.774 228.775 108.202 228.775 107.522C228.775 106.842 228.647 106.274 228.391 105.818C228.135 105.354 227.791 105.002 227.359 104.762C226.927 104.522 226.439 104.402 225.895 104.402C225.359 104.402 224.871 104.522 224.431 104.762C223.999 105.002 223.655 105.354 223.399 105.818C223.143 106.274 223.015 106.842 223.015 107.522C223.015 108.202 223.143 108.774 223.399 109.238C223.655 109.702 223.999 110.054 224.431 110.294C224.871 110.526 225.359 110.642 225.895 110.642ZM231.538 103.622H232.498V111.422H231.538V103.622ZM235.621 103.622V110.522H239.941V111.422H234.661V103.622H235.621Z" fill="white"/>
<path d="M122 31.4219L128.062 38.1719H115.938L122 31.4219Z" fill="white" fill-opacity="0.5"/>
<path d="M217 107.422L211 113.484L211 101.36L217 107.422Z" fill="white" fill-opacity="0.5"/>
<path d="M123 185.422L117 179.422L129 179.422L123 185.422Z" fill="white" fill-opacity="0.5"/>
<path opacity="0.5" d="M109.455 199.566C108.783 199.566 108.179 199.478 107.643 199.302C107.107 199.126 106.643 198.87 106.251 198.534C105.867 198.19 105.571 197.774 105.363 197.286C105.163 196.79 105.063 196.226 105.063 195.594C105.063 194.962 105.171 194.394 105.387 193.89C105.611 193.386 105.923 192.958 106.323 192.606C106.723 192.246 107.199 191.974 107.751 191.79C108.311 191.598 108.931 191.502 109.611 191.502C110.387 191.502 111.063 191.622 111.639 191.862C112.215 192.102 112.671 192.438 113.007 192.87C113.351 193.294 113.547 193.802 113.595 194.394H112.299C112.195 194.05 112.027 193.754 111.795 193.506C111.563 193.258 111.263 193.066 110.895 192.93C110.535 192.794 110.107 192.726 109.611 192.726C108.963 192.726 108.403 192.846 107.931 193.086C107.467 193.326 107.107 193.662 106.851 194.094C106.603 194.526 106.479 195.026 106.479 195.594C106.479 196.154 106.587 196.642 106.803 197.058C107.027 197.466 107.363 197.782 107.811 198.006C108.259 198.23 108.819 198.342 109.491 198.342C110.011 198.342 110.467 198.266 110.859 198.114C111.251 197.962 111.575 197.75 111.831 197.478C112.095 197.198 112.279 196.874 112.383 196.506L112.995 196.35C112.883 197.382 112.515 198.178 111.891 198.738C111.267 199.29 110.455 199.566 109.455 199.566ZM112.659 199.422C112.659 199.166 112.671 198.878 112.695 198.558C112.719 198.23 112.751 197.898 112.791 197.562C112.831 197.226 112.867 196.918 112.899 196.638H109.659V195.654H113.895V199.422H112.659ZM119.807 199.566C118.887 199.566 118.083 199.402 117.395 199.074C116.715 198.746 116.187 198.282 115.811 197.682C115.443 197.082 115.259 196.366 115.259 195.534C115.259 194.702 115.443 193.986 115.811 193.386C116.187 192.778 116.715 192.314 117.395 191.994C118.083 191.666 118.887 191.502 119.807 191.502C120.743 191.502 121.547 191.666 122.219 191.994C122.899 192.314 123.427 192.778 123.803 193.386C124.179 193.986 124.367 194.702 124.367 195.534C124.367 196.366 124.179 197.082 123.803 197.682C123.427 198.282 122.899 198.746 122.219 199.074C121.547 199.402 120.743 199.566 119.807 199.566ZM119.807 198.342C120.415 198.342 120.951 198.242 121.415 198.042C121.887 197.834 122.255 197.522 122.519 197.106C122.791 196.69 122.927 196.166 122.927 195.534C122.927 194.91 122.791 194.39 122.519 193.974C122.255 193.558 121.887 193.246 121.415 193.038C120.951 192.83 120.415 192.726 119.807 192.726C119.207 192.726 118.667 192.83 118.187 193.038C117.715 193.246 117.343 193.558 117.071 193.974C116.799 194.39 116.663 194.91 116.663 195.534C116.663 196.166 116.799 196.69 117.071 197.106C117.343 197.522 117.715 197.834 118.187 198.042C118.667 198.242 119.207 198.342 119.807 198.342ZM127.31 191.646V198.234H132.194V199.422H125.93V191.646H127.31ZM137.515 191.646C138.355 191.646 139.059 191.75 139.627 191.958C140.195 192.166 140.647 192.45 140.983 192.81C141.327 193.162 141.571 193.57 141.715 194.034C141.859 194.498 141.931 194.986 141.931 195.498C141.931 196.018 141.851 196.514 141.691 196.986C141.531 197.458 141.275 197.878 140.923 198.246C140.579 198.606 140.127 198.894 139.567 199.11C139.007 199.318 138.323 199.422 137.515 199.422H133.711V191.646H137.515ZM135.091 198.21H137.491C138.083 198.21 138.575 198.134 138.967 197.982C139.359 197.83 139.667 197.626 139.891 197.37C140.123 197.114 140.287 196.826 140.383 196.506C140.487 196.178 140.539 195.842 140.539 195.498C140.539 195.162 140.487 194.838 140.383 194.526C140.287 194.206 140.123 193.922 139.891 193.674C139.667 193.426 139.359 193.23 138.967 193.086C138.575 192.934 138.083 192.858 137.491 192.858H135.091V198.21Z" fill="white"/>
<defs>
<filter id="filter0_d" x="0" y="24.4219" width="204" height="167" filterUnits="userSpaceOnUse" color-interpolation-filters="sRGB">
<feFlood flood-opacity="0" result="BackgroundImageFix"/>
<feColorMatrix in="SourceAlpha" type="matrix" values="0 0 0 0 0 0 0 0 0 0 0 0 0 0 0 0 0 0 127 0"/>
<feOffset dx="-20"/>
<feGaussianBlur stdDeviation="10"/>
<feColorMatrix type="matrix" values="0 0 0 0 0 0 0 0 0 0 0 0 0 0 0 0 0 0 0.4 0"/>
<feBlend mode="normal" in2="BackgroundImageFix" result="effect1_dropShadow"/>
<feBlend mode="normal" in="SourceGraphic" in2="effect1_dropShadow" result="shape"/>
</filter>
<linearGradient id="paint0_linear" x1="166.356" y1="73.9771" x2="74.6844" y2="145.916" gradientUnits="userSpaceOnUse">
<stop stop-color="#171717"/>
<stop offset="1" stop-color="#222222"/>
</linearGradient>
<linearGradient id="paint1_linear" x1="122.001" y1="169.511" x2="122.001" y2="46.3333" gradientUnits="userSpaceOnUse">
<stop/>
<stop offset="1" stop-color="#484646"/>
</linearGradient>
</defs>
</svg>
