<svg width="301" height="198" viewBox="0 0 301 198" fill="none" xmlns="http://www.w3.org/2000/svg">
<g filter="url(#filter0_d)">
<path d="M259 91.9236C259 97.384 256.479 102.36 252.079 105.582L193.045 148.809C184.643 154.96 173.357 154.96 164.955 148.809L105.921 105.578C101.525 102.357 99 97.3804 99 91.9201C99 86.4598 101.521 81.4835 105.921 78.2621L164.955 35.035C173.357 28.8842 184.643 28.8842 193.045 35.035L252.082 78.2657C256.479 81.4835 259 86.4633 259 91.9236Z" fill="url(#paint0_linear)"/>
<path d="M259 91.9236C259 97.384 256.479 102.36 252.079 105.582L193.045 148.809C184.643 154.96 173.357 154.96 164.955 148.809L105.921 105.578C101.525 102.357 99 97.3804 99 91.9201C99 86.4598 101.521 81.4835 105.921 78.2621L164.955 35.035C173.357 28.8842 184.643 28.8842 193.045 35.035L252.082 78.2657C256.479 81.4835 259 86.4633 259 91.9236Z" stroke="url(#paint1_linear)" stroke-width="4" stroke-miterlimit="10"/>
</g>
<path d="M149.963 94.7019V93.5019H154.955V94.7019H149.963ZM147.851 97.4219L151.803 87.0219H153.147L157.131 97.4219H155.755L152.283 88.0139H152.667L149.195 97.4219H147.851ZM158.029 94.0459H159.181C159.213 94.4939 159.346 94.8939 159.581 95.2459C159.816 95.5979 160.136 95.8752 160.541 96.0779C160.957 96.2805 161.442 96.3819 161.997 96.3819C162.477 96.3819 162.877 96.3125 163.197 96.1739C163.528 96.0245 163.773 95.8219 163.933 95.5659C164.104 95.3099 164.189 95.0112 164.189 94.6699C164.189 94.3179 164.104 94.0352 163.933 93.8219C163.762 93.6085 163.517 93.4272 163.197 93.2779C162.877 93.1285 162.498 92.9845 162.061 92.8459C161.645 92.7179 161.224 92.5685 160.797 92.3979C160.37 92.2272 159.97 92.0192 159.597 91.7739C159.234 91.5285 158.941 91.2352 158.717 90.8939C158.493 90.5419 158.381 90.1205 158.381 89.6299C158.381 89.1499 158.509 88.7019 158.765 88.2859C159.032 87.8592 159.416 87.5179 159.917 87.2619C160.429 86.9952 161.042 86.8619 161.757 86.8619C162.877 86.8619 163.714 87.1659 164.269 87.7739C164.824 88.3819 165.09 89.1872 165.069 90.1899H163.917C163.896 89.4325 163.682 88.8885 163.277 88.5579C162.872 88.2272 162.344 88.0619 161.693 88.0619C161.149 88.0619 160.674 88.1899 160.269 88.4459C159.864 88.6912 159.661 89.0805 159.661 89.6139C159.661 89.8485 159.704 90.0565 159.789 90.2379C159.885 90.4085 160.034 90.5685 160.237 90.7179C160.45 90.8672 160.733 91.0165 161.085 91.1659C161.448 91.3045 161.89 91.4592 162.413 91.6299C162.754 91.7365 163.101 91.8645 163.453 92.0139C163.816 92.1632 164.146 92.3499 164.445 92.5739C164.754 92.7979 165 93.0859 165.181 93.4379C165.373 93.7792 165.469 94.2112 165.469 94.7339C165.469 95.2352 165.346 95.7045 165.101 96.1419C164.866 96.5685 164.493 96.9152 163.981 97.1819C163.48 97.4485 162.829 97.5819 162.029 97.5819C161.346 97.5819 160.76 97.4912 160.269 97.3099C159.789 97.1179 159.394 96.8725 159.085 96.5739C158.776 96.2752 158.536 95.9659 158.365 95.6459C158.205 95.3152 158.098 95.0059 158.045 94.7179C157.992 94.4299 157.986 94.2059 158.029 94.0459ZM166.685 94.0459H167.837C167.869 94.4939 168.003 94.8939 168.237 95.2459C168.472 95.5979 168.792 95.8752 169.197 96.0779C169.613 96.2805 170.099 96.3819 170.653 96.3819C171.133 96.3819 171.533 96.3125 171.853 96.1739C172.184 96.0245 172.429 95.8219 172.589 95.5659C172.76 95.3099 172.845 95.0112 172.845 94.6699C172.845 94.3179 172.76 94.0352 172.589 93.8219C172.419 93.6085 172.173 93.4272 171.853 93.2779C171.533 93.1285 171.155 92.9845 170.717 92.8459C170.301 92.7179 169.88 92.5685 169.453 92.3979C169.027 92.2272 168.627 92.0192 168.253 91.7739C167.891 91.5285 167.597 91.2352 167.373 90.8939C167.149 90.5419 167.037 90.1205 167.037 89.6299C167.037 89.1499 167.165 88.7019 167.421 88.2859C167.688 87.8592 168.072 87.5179 168.573 87.2619C169.085 86.9952 169.699 86.8619 170.413 86.8619C171.533 86.8619 172.371 87.1659 172.925 87.7739C173.48 88.3819 173.747 89.1872 173.725 90.1899H172.573C172.552 89.4325 172.339 88.8885 171.933 88.5579C171.528 88.2272 171 88.0619 170.349 88.0619C169.805 88.0619 169.331 88.1899 168.925 88.4459C168.52 88.6912 168.317 89.0805 168.317 89.6139C168.317 89.8485 168.36 90.0565 168.445 90.2379C168.541 90.4085 168.691 90.5685 168.893 90.7179C169.107 90.8672 169.389 91.0165 169.741 91.1659C170.104 91.3045 170.547 91.4592 171.069 91.6299C171.411 91.7365 171.757 91.8645 172.109 92.0139C172.472 92.1632 172.803 92.3499 173.101 92.5739C173.411 92.7979 173.656 93.0859 173.837 93.4379C174.029 93.7792 174.125 94.2112 174.125 94.7339C174.125 95.2352 174.003 95.7045 173.757 96.1419C173.523 96.5685 173.149 96.9152 172.637 97.1819C172.136 97.4485 171.485 97.5819 170.685 97.5819C170.003 97.5819 169.416 97.4912 168.925 97.3099C168.445 97.1179 168.051 96.8725 167.741 96.5739C167.432 96.2752 167.192 95.9659 167.021 95.6459C166.861 95.3152 166.755 95.0059 166.701 94.7179C166.648 94.4299 166.643 94.2059 166.685 94.0459ZM177.326 92.8459V96.2219H183.422V97.4219H176.046V87.0219H183.406V88.2219H177.326V91.6459H182.302V92.8459H177.326ZM184.615 87.0219H192.935V88.2219H184.615V87.0219ZM188.135 88.0939H189.415V97.4219H188.135V88.0939ZM193.748 94.0459H194.9C194.932 94.4939 195.065 94.8939 195.3 95.2459C195.535 95.5979 195.855 95.8752 196.26 96.0779C196.676 96.2805 197.161 96.3819 197.716 96.3819C198.196 96.3819 198.596 96.3125 198.916 96.1739C199.247 96.0245 199.492 95.8219 199.652 95.5659C199.823 95.3099 199.908 95.0112 199.908 94.6699C199.908 94.3179 199.823 94.0352 199.652 93.8219C199.481 93.6085 199.236 93.4272 198.916 93.2779C198.596 93.1285 198.217 92.9845 197.78 92.8459C197.364 92.7179 196.943 92.5685 196.516 92.3979C196.089 92.2272 195.689 92.0192 195.316 91.7739C194.953 91.5285 194.66 91.2352 194.436 90.8939C194.212 90.5419 194.1 90.1205 194.1 89.6299C194.1 89.1499 194.228 88.7019 194.484 88.2859C194.751 87.8592 195.135 87.5179 195.636 87.2619C196.148 86.9952 196.761 86.8619 197.476 86.8619C198.596 86.8619 199.433 87.1659 199.988 87.7739C200.543 88.3819 200.809 89.1872 200.788 90.1899H199.636C199.615 89.4325 199.401 88.8885 198.996 88.5579C198.591 88.2272 198.063 88.0619 197.412 88.0619C196.868 88.0619 196.393 88.1899 195.988 88.4459C195.583 88.6912 195.38 89.0805 195.38 89.6139C195.38 89.8485 195.423 90.0565 195.508 90.2379C195.604 90.4085 195.753 90.5685 195.956 90.7179C196.169 90.8672 196.452 91.0165 196.804 91.1659C197.167 91.3045 197.609 91.4592 198.132 91.6299C198.473 91.7365 198.82 91.8645 199.172 92.0139C199.535 92.1632 199.865 92.3499 200.164 92.5739C200.473 92.7979 200.719 93.0859 200.9 93.4379C201.092 93.7792 201.188 94.2112 201.188 94.7339C201.188 95.2352 201.065 95.7045 200.82 96.1419C200.585 96.5685 200.212 96.9152 199.7 97.1819C199.199 97.4485 198.548 97.5819 197.748 97.5819C197.065 97.5819 196.479 97.4912 195.988 97.3099C195.508 97.1179 195.113 96.8725 194.804 96.5739C194.495 96.2752 194.255 95.9659 194.084 95.6459C193.924 95.3152 193.817 95.0059 193.764 94.7179C193.711 94.4299 193.705 94.2059 193.748 94.0459Z" fill="white"/>
<path opacity="0.5" d="M141.711 8.88987H142.575C142.599 9.22587 142.699 9.52587 142.875 9.78987C143.051 10.0539 143.291 10.2619 143.595 10.4139C143.907 10.5659 144.271 10.6419 144.687 10.6419C145.047 10.6419 145.347 10.5899 145.587 10.4859C145.835 10.3739 146.019 10.2219 146.139 10.0299C146.267 9.83787 146.331 9.61387 146.331 9.35787C146.331 9.09387 146.267 8.88187 146.139 8.72187C146.011 8.56187 145.827 8.42587 145.587 8.31387C145.347 8.20187 145.063 8.09387 144.735 7.98987C144.423 7.89387 144.107 7.78187 143.787 7.65387C143.467 7.52587 143.167 7.36987 142.887 7.18587C142.615 7.00187 142.395 6.78187 142.227 6.52587C142.059 6.26187 141.975 5.94587 141.975 5.57787C141.975 5.21787 142.071 4.88187 142.263 4.56987C142.463 4.24987 142.751 3.99387 143.127 3.80187C143.511 3.60187 143.971 3.50187 144.507 3.50187C145.347 3.50187 145.975 3.72987 146.391 4.18587C146.807 4.64187 147.007 5.24587 146.991 5.99787H146.127C146.111 5.42987 145.951 5.02187 145.647 4.77387C145.343 4.52587 144.947 4.40187 144.459 4.40187C144.051 4.40187 143.695 4.49787 143.391 4.68987C143.087 4.87387 142.935 5.16587 142.935 5.56587C142.935 5.74187 142.967 5.89787 143.031 6.03387C143.103 6.16187 143.215 6.28187 143.367 6.39387C143.527 6.50587 143.739 6.61787 144.003 6.72987C144.275 6.83387 144.607 6.94987 144.999 7.07787C145.255 7.15787 145.515 7.25387 145.779 7.36587C146.051 7.47787 146.299 7.61787 146.523 7.78587C146.755 7.95387 146.939 8.16987 147.075 8.43387C147.219 8.68987 147.291 9.01387 147.291 9.40587C147.291 9.78187 147.199 10.1339 147.015 10.4619C146.839 10.7819 146.559 11.0419 146.175 11.2419C145.799 11.4419 145.311 11.5419 144.711 11.5419C144.199 11.5419 143.759 11.4739 143.391 11.3379C143.031 11.1939 142.735 11.0099 142.503 10.7859C142.271 10.5619 142.091 10.3299 141.963 10.0899C141.843 9.84187 141.763 9.60987 141.723 9.39387C141.683 9.17787 141.679 9.00987 141.711 8.88987ZM147.951 3.62187H154.191V4.52187H147.951V3.62187ZM150.591 4.42587H151.551V11.4219H150.591V4.42587ZM155.478 9.38187V8.48187H159.222V9.38187H155.478ZM153.894 11.4219L156.858 3.62187H157.866L160.854 11.4219H159.822L157.218 4.36588H157.506L154.902 11.4219H153.894ZM162.056 11.4219V3.62187H165.128C165.936 3.62187 166.564 3.80587 167.012 4.17387C167.468 4.54187 167.696 5.05387 167.696 5.70987C167.696 6.11787 167.612 6.44987 167.444 6.70587C167.284 6.96187 167.056 7.15387 166.76 7.28187C166.464 7.40987 166.116 7.49387 165.716 7.53387L165.74 7.46187C166.036 7.47787 166.316 7.51787 166.58 7.58187C166.844 7.63787 167.076 7.72987 167.276 7.85787C167.484 7.98587 167.648 8.16187 167.768 8.38587C167.888 8.60987 167.948 8.89787 167.948 9.24987C167.948 9.72187 167.844 10.1139 167.636 10.4259C167.428 10.7379 167.136 10.9779 166.76 11.1459C166.392 11.3059 165.968 11.3979 165.488 11.4219H162.056ZM163.016 10.5219H165.248C165.792 10.5219 166.216 10.4219 166.52 10.2219C166.832 10.0139 166.988 9.68987 166.988 9.24987C166.988 8.89787 166.888 8.63387 166.688 8.45787C166.496 8.28187 166.248 8.16587 165.944 8.10987C165.64 8.04587 165.328 8.01387 165.008 8.01387H163.016V10.5219ZM163.016 7.11387H165.008C165.552 7.11387 165.976 6.99787 166.28 6.76587C166.592 6.52587 166.748 6.18587 166.748 5.74587C166.748 5.31387 166.592 5.00187 166.28 4.80988C165.976 4.61787 165.592 4.52187 165.128 4.52187H163.016V7.11387ZM170.41 3.62187V10.5219H174.73V11.4219H169.45V3.62187H170.41ZM177.254 7.98987V10.5219H181.826V11.4219H176.294V3.62187H181.814V4.52187H177.254V7.08987H180.986V7.98987H177.254ZM192.729 8.81787C192.649 9.37787 192.457 9.86187 192.153 10.2699C191.849 10.6779 191.461 10.9939 190.989 11.2179C190.525 11.4339 190.005 11.5419 189.429 11.5419C188.893 11.5419 188.397 11.4499 187.941 11.2659C187.485 11.0739 187.085 10.8019 186.741 10.4499C186.405 10.0979 186.141 9.67387 185.949 9.17787C185.757 8.68187 185.661 8.12987 185.661 7.52187C185.661 6.90587 185.757 6.35387 185.949 5.86587C186.141 5.36987 186.405 4.94587 186.741 4.59387C187.085 4.24187 187.485 3.97387 187.941 3.78987C188.397 3.59787 188.893 3.50187 189.429 3.50187C190.013 3.50187 190.537 3.61387 191.001 3.83787C191.473 4.05387 191.861 4.36987 192.165 4.78587C192.469 5.19387 192.661 5.68187 192.741 6.24987H191.853C191.741 5.84987 191.565 5.51387 191.325 5.24187C191.093 4.96987 190.813 4.76187 190.485 4.61787C190.157 4.47387 189.805 4.40187 189.429 4.40187C188.941 4.40187 188.481 4.52187 188.049 4.76187C187.625 5.00187 187.281 5.35387 187.017 5.81787C186.753 6.28187 186.621 6.84987 186.621 7.52187C186.621 8.19387 186.753 8.76187 187.017 9.22587C187.281 9.68987 187.625 10.0419 188.049 10.2819C188.481 10.5219 188.941 10.6419 189.429 10.6419C189.805 10.6419 190.153 10.5739 190.473 10.4379C190.801 10.2939 191.081 10.0859 191.313 9.81387C191.553 9.54187 191.729 9.20987 191.841 8.81787H192.729ZM197.786 11.5419C197.074 11.5419 196.426 11.3779 195.842 11.0499C195.266 10.7139 194.806 10.2459 194.462 9.64587C194.118 9.04587 193.946 8.33787 193.946 7.52187C193.946 6.70587 194.118 5.99787 194.462 5.39787C194.806 4.78987 195.266 4.32187 195.842 3.99387C196.426 3.66587 197.074 3.50187 197.786 3.50187C198.498 3.50187 199.142 3.66587 199.718 3.99387C200.302 4.32187 200.766 4.78987 201.11 5.39787C201.454 5.99787 201.626 6.70587 201.626 7.52187C201.626 8.33787 201.454 9.04587 201.11 9.64587C200.766 10.2459 200.302 10.7139 199.718 11.0499C199.142 11.3779 198.498 11.5419 197.786 11.5419ZM197.786 10.6419C198.33 10.6419 198.818 10.5259 199.25 10.2939C199.682 10.0539 200.026 9.70187 200.282 9.23787C200.538 8.77387 200.666 8.20187 200.666 7.52187C200.666 6.84187 200.538 6.27387 200.282 5.81787C200.026 5.35387 199.682 5.00187 199.25 4.76187C198.818 4.52187 198.33 4.40187 197.786 4.40187C197.25 4.40187 196.762 4.52187 196.322 4.76187C195.89 5.00187 195.546 5.35387 195.29 5.81787C195.034 6.27387 194.906 6.84187 194.906 7.52187C194.906 8.20187 195.034 8.77387 195.29 9.23787C195.546 9.70187 195.89 10.0539 196.322 10.2939C196.762 10.5259 197.25 10.6419 197.786 10.6419ZM203.429 3.62187H204.389V11.4219H203.429V3.62187ZM212.576 10.2819L212.312 10.3659V3.62187H213.272V11.4219H212.312L207.248 4.77387L207.512 4.68987V11.4219H206.552V3.62187H207.512L212.576 10.2819ZM214.661 8.88987H215.525C215.549 9.22587 215.649 9.52587 215.825 9.78987C216.001 10.0539 216.241 10.2619 216.545 10.4139C216.857 10.5659 217.221 10.6419 217.637 10.6419C217.997 10.6419 218.297 10.5899 218.537 10.4859C218.785 10.3739 218.969 10.2219 219.089 10.0299C219.217 9.83787 219.281 9.61387 219.281 9.35787C219.281 9.09387 219.217 8.88187 219.089 8.72187C218.961 8.56187 218.777 8.42587 218.537 8.31387C218.297 8.20187 218.013 8.09387 217.685 7.98987C217.373 7.89387 217.057 7.78187 216.737 7.65387C216.417 7.52587 216.117 7.36987 215.837 7.18587C215.565 7.00187 215.345 6.78187 215.177 6.52587C215.009 6.26187 214.925 5.94587 214.925 5.57787C214.925 5.21787 215.021 4.88187 215.213 4.56987C215.413 4.24987 215.701 3.99387 216.077 3.80187C216.461 3.60187 216.921 3.50187 217.457 3.50187C218.297 3.50187 218.925 3.72987 219.341 4.18587C219.757 4.64187 219.957 5.24587 219.941 5.99787H219.077C219.061 5.42987 218.901 5.02187 218.597 4.77387C218.293 4.52587 217.897 4.40187 217.409 4.40187C217.001 4.40187 216.645 4.49787 216.341 4.68987C216.037 4.87387 215.885 5.16587 215.885 5.56587C215.885 5.74187 215.917 5.89787 215.981 6.03387C216.053 6.16187 216.165 6.28187 216.317 6.39387C216.477 6.50587 216.689 6.61787 216.953 6.72987C217.225 6.83387 217.557 6.94987 217.949 7.07787C218.205 7.15787 218.465 7.25387 218.729 7.36587C219.001 7.47787 219.249 7.61787 219.473 7.78587C219.705 7.95387 219.889 8.16987 220.025 8.43387C220.169 8.68987 220.241 9.01387 220.241 9.40587C220.241 9.78187 220.149 10.1339 219.965 10.4619C219.789 10.7819 219.509 11.0419 219.125 11.2419C218.749 11.4419 218.261 11.5419 217.661 11.5419C217.149 11.5419 216.709 11.4739 216.341 11.3379C215.981 11.1939 215.685 11.0099 215.453 10.7859C215.221 10.5619 215.041 10.3299 214.913 10.0899C214.793 9.84187 214.713 9.60987 214.673 9.39387C214.633 9.17787 214.629 9.00987 214.661 8.88987Z" fill="white"/>
<path opacity="0.5" d="M164.786 180.542C164.074 180.542 163.426 180.378 162.842 180.05C162.266 179.714 161.806 179.246 161.462 178.646C161.118 178.046 160.946 177.338 160.946 176.522C160.946 175.706 161.118 174.998 161.462 174.398C161.806 173.79 162.266 173.322 162.842 172.994C163.426 172.666 164.074 172.502 164.786 172.502C165.498 172.502 166.142 172.666 166.718 172.994C167.302 173.322 167.766 173.79 168.11 174.398C168.454 174.998 168.626 175.706 168.626 176.522C168.626 177.338 168.454 178.046 168.11 178.646C167.766 179.246 167.302 179.714 166.718 180.05C166.142 180.378 165.498 180.542 164.786 180.542ZM164.786 179.642C165.33 179.642 165.818 179.526 166.25 179.294C166.682 179.054 167.026 178.702 167.282 178.238C167.538 177.774 167.666 177.202 167.666 176.522C167.666 175.842 167.538 175.274 167.282 174.818C167.026 174.354 166.682 174.002 166.25 173.762C165.818 173.522 165.33 173.402 164.786 173.402C164.25 173.402 163.762 173.522 163.322 173.762C162.89 174.002 162.546 174.354 162.29 174.818C162.034 175.274 161.906 175.842 161.906 176.522C161.906 177.202 162.034 177.774 162.29 178.238C162.546 178.702 162.89 179.054 163.322 179.294C163.762 179.526 164.25 179.642 164.786 179.642ZM169.174 172.622H175.414V173.522H169.174V172.622ZM171.814 173.426H172.774V180.422H171.814V173.426ZM177.428 176.078H182.372V176.978H177.428V176.078ZM182.312 172.622H183.272V180.422H182.312V172.622ZM176.552 172.622H177.512V180.422H176.552V172.622ZM186.149 176.99V179.522H190.721V180.422H185.189V172.622H190.709V173.522H186.149V176.09H189.881V176.99H186.149ZM192.396 180.422V172.622H195.84C196.384 172.622 196.848 172.706 197.232 172.874C197.616 173.034 197.908 173.278 198.108 173.606C198.316 173.934 198.42 174.346 198.42 174.842C198.42 175.178 198.364 175.466 198.252 175.706C198.148 175.946 198 176.15 197.808 176.318C197.616 176.478 197.388 176.602 197.124 176.69C196.868 176.778 196.588 176.834 196.284 176.858L196.248 176.798C196.672 176.814 197.036 176.866 197.34 176.954C197.644 177.042 197.88 177.202 198.048 177.434C198.216 177.666 198.3 178.014 198.3 178.478V180.422H197.34V178.478C197.34 178.158 197.284 177.91 197.172 177.734C197.068 177.55 196.888 177.422 196.632 177.35C196.384 177.27 196.04 177.23 195.6 177.23H193.356V180.422H192.396ZM193.356 176.33H195.84C196.384 176.33 196.788 176.194 197.052 175.922C197.324 175.642 197.46 175.282 197.46 174.842C197.46 174.418 197.324 174.094 197.052 173.87C196.788 173.638 196.384 173.522 195.84 173.522H193.356V176.33ZM127.748 186.622H133.988V187.522H127.748V186.622ZM130.388 187.426H131.348V194.422H130.388V187.426ZM138.008 194.542C137.296 194.542 136.648 194.378 136.064 194.05C135.488 193.714 135.028 193.246 134.684 192.646C134.34 192.046 134.168 191.338 134.168 190.522C134.168 189.706 134.34 188.998 134.684 188.398C135.028 187.79 135.488 187.322 136.064 186.994C136.648 186.666 137.296 186.502 138.008 186.502C138.72 186.502 139.364 186.666 139.94 186.994C140.524 187.322 140.988 187.79 141.332 188.398C141.676 188.998 141.848 189.706 141.848 190.522C141.848 191.338 141.676 192.046 141.332 192.646C140.988 193.246 140.524 193.714 139.94 194.05C139.364 194.378 138.72 194.542 138.008 194.542ZM138.008 193.642C138.552 193.642 139.04 193.526 139.472 193.294C139.904 193.054 140.248 192.702 140.504 192.238C140.76 191.774 140.888 191.202 140.888 190.522C140.888 189.842 140.76 189.274 140.504 188.818C140.248 188.354 139.904 188.002 139.472 187.762C139.04 187.522 138.552 187.402 138.008 187.402C137.472 187.402 136.984 187.522 136.544 187.762C136.112 188.002 135.768 188.354 135.512 188.818C135.256 189.274 135.128 189.842 135.128 190.522C135.128 191.202 135.256 191.774 135.512 192.238C135.768 192.702 136.112 193.054 136.544 193.294C136.984 193.526 137.472 193.642 138.008 193.642ZM145.271 190.63V190.006L149.783 194.422H148.475L144.371 190.342L147.983 186.622H149.279L145.271 190.63ZM143.411 186.622H144.371V194.422H143.411V186.622ZM151.941 190.99V193.522H156.513V194.422H150.981V186.622H156.501V187.522H151.941V190.09H155.673V190.99H151.941ZM164.213 193.282L163.949 193.366V186.622H164.909V194.422H163.949L158.885 187.774L159.149 187.69V194.422H158.189V186.622H159.149L164.213 193.282ZM167.065 186.622H168.025V194.422H167.065V186.622ZM169.661 191.89H170.525C170.549 192.226 170.649 192.526 170.825 192.79C171.001 193.054 171.241 193.262 171.545 193.414C171.857 193.566 172.221 193.642 172.637 193.642C172.997 193.642 173.297 193.59 173.537 193.486C173.785 193.374 173.969 193.222 174.089 193.03C174.217 192.838 174.281 192.614 174.281 192.358C174.281 192.094 174.217 191.882 174.089 191.722C173.961 191.562 173.777 191.426 173.537 191.314C173.297 191.202 173.013 191.094 172.685 190.99C172.373 190.894 172.057 190.782 171.737 190.654C171.417 190.526 171.117 190.37 170.837 190.186C170.565 190.002 170.345 189.782 170.177 189.526C170.009 189.262 169.925 188.946 169.925 188.578C169.925 188.218 170.021 187.882 170.213 187.57C170.413 187.25 170.701 186.994 171.077 186.802C171.461 186.602 171.921 186.502 172.457 186.502C173.297 186.502 173.925 186.73 174.341 187.186C174.757 187.642 174.957 188.246 174.941 188.998H174.077C174.061 188.43 173.901 188.022 173.597 187.774C173.293 187.526 172.897 187.402 172.409 187.402C172.001 187.402 171.645 187.498 171.341 187.69C171.037 187.874 170.885 188.166 170.885 188.566C170.885 188.742 170.917 188.898 170.981 189.034C171.053 189.162 171.165 189.282 171.317 189.394C171.477 189.506 171.689 189.618 171.953 189.73C172.225 189.834 172.557 189.95 172.949 190.078C173.205 190.158 173.465 190.254 173.729 190.366C174.001 190.478 174.249 190.618 174.473 190.786C174.705 190.954 174.889 191.17 175.025 191.434C175.169 191.69 175.241 192.014 175.241 192.406C175.241 192.782 175.149 193.134 174.965 193.462C174.789 193.782 174.509 194.042 174.125 194.242C173.749 194.442 173.261 194.542 172.661 194.542C172.149 194.542 171.709 194.474 171.341 194.338C170.981 194.194 170.685 194.01 170.453 193.786C170.221 193.562 170.041 193.33 169.913 193.09C169.793 192.842 169.713 192.61 169.673 192.394C169.633 192.178 169.629 192.01 169.661 191.89ZM177.641 190.99V193.522H182.213V194.422H176.681V186.622H182.201V187.522H177.641V190.09H181.373V190.99H177.641ZM186.42 186.622C187.204 186.622 187.86 186.726 188.388 186.934C188.924 187.134 189.352 187.414 189.672 187.774C189.992 188.134 190.224 188.546 190.368 189.01C190.512 189.474 190.584 189.966 190.584 190.486C190.584 191.006 190.508 191.502 190.356 191.974C190.204 192.446 189.96 192.866 189.624 193.234C189.296 193.602 188.868 193.894 188.34 194.11C187.812 194.318 187.172 194.422 186.42 194.422H183.888V186.622H186.42ZM184.848 193.522H186.42C187.052 193.522 187.572 193.434 187.98 193.258C188.396 193.082 188.724 192.85 188.964 192.562C189.204 192.266 189.372 191.938 189.468 191.578C189.572 191.218 189.624 190.854 189.624 190.486C189.624 190.118 189.572 189.758 189.468 189.406C189.372 189.054 189.204 188.738 188.964 188.458C188.724 188.17 188.396 187.942 187.98 187.774C187.572 187.606 187.052 187.522 186.42 187.522H184.848V193.522ZM195.533 192.382V191.482H199.277V192.382H195.533ZM193.949 194.422L196.913 186.622H197.921L200.909 194.422H199.877L197.273 187.366H197.561L194.957 194.422H193.949ZM201.582 191.89H202.446C202.47 192.226 202.57 192.526 202.746 192.79C202.922 193.054 203.162 193.262 203.466 193.414C203.778 193.566 204.142 193.642 204.558 193.642C204.918 193.642 205.218 193.59 205.458 193.486C205.706 193.374 205.89 193.222 206.01 193.03C206.138 192.838 206.202 192.614 206.202 192.358C206.202 192.094 206.138 191.882 206.01 191.722C205.882 191.562 205.698 191.426 205.458 191.314C205.218 191.202 204.934 191.094 204.606 190.99C204.294 190.894 203.978 190.782 203.658 190.654C203.338 190.526 203.038 190.37 202.758 190.186C202.486 190.002 202.266 189.782 202.098 189.526C201.93 189.262 201.846 188.946 201.846 188.578C201.846 188.218 201.942 187.882 202.134 187.57C202.334 187.25 202.622 186.994 202.998 186.802C203.382 186.602 203.842 186.502 204.378 186.502C205.218 186.502 205.846 186.73 206.262 187.186C206.678 187.642 206.878 188.246 206.862 188.998H205.998C205.982 188.43 205.822 188.022 205.518 187.774C205.214 187.526 204.818 187.402 204.33 187.402C203.922 187.402 203.566 187.498 203.262 187.69C202.958 187.874 202.806 188.166 202.806 188.566C202.806 188.742 202.838 188.898 202.902 189.034C202.974 189.162 203.086 189.282 203.238 189.394C203.398 189.506 203.61 189.618 203.874 189.73C204.146 189.834 204.478 189.95 204.87 190.078C205.126 190.158 205.386 190.254 205.65 190.366C205.922 190.478 206.17 190.618 206.394 190.786C206.626 190.954 206.81 191.17 206.946 191.434C207.09 191.69 207.162 192.014 207.162 192.406C207.162 192.782 207.07 193.134 206.886 193.462C206.71 193.782 206.43 194.042 206.046 194.242C205.67 194.442 205.182 194.542 204.582 194.542C204.07 194.542 203.63 194.474 203.262 194.338C202.902 194.194 202.606 194.01 202.374 193.786C202.142 193.562 201.962 193.33 201.834 193.09C201.714 192.842 201.634 192.61 201.594 192.394C201.554 192.178 201.55 192.01 201.582 191.89ZM208.075 191.89H208.939C208.963 192.226 209.063 192.526 209.239 192.79C209.415 193.054 209.655 193.262 209.959 193.414C210.271 193.566 210.635 193.642 211.051 193.642C211.411 193.642 211.711 193.59 211.951 193.486C212.199 193.374 212.383 193.222 212.503 193.03C212.631 192.838 212.695 192.614 212.695 192.358C212.695 192.094 212.631 191.882 212.503 191.722C212.375 191.562 212.191 191.426 211.951 191.314C211.711 191.202 211.427 191.094 211.099 190.99C210.787 190.894 210.471 190.782 210.151 190.654C209.831 190.526 209.531 190.37 209.251 190.186C208.979 190.002 208.759 189.782 208.591 189.526C208.423 189.262 208.339 188.946 208.339 188.578C208.339 188.218 208.435 187.882 208.627 187.57C208.827 187.25 209.115 186.994 209.491 186.802C209.875 186.602 210.335 186.502 210.871 186.502C211.711 186.502 212.339 186.73 212.755 187.186C213.171 187.642 213.371 188.246 213.355 188.998H212.491C212.475 188.43 212.315 188.022 212.011 187.774C211.707 187.526 211.311 187.402 210.823 187.402C210.415 187.402 210.059 187.498 209.755 187.69C209.451 187.874 209.299 188.166 209.299 188.566C209.299 188.742 209.331 188.898 209.395 189.034C209.467 189.162 209.579 189.282 209.731 189.394C209.891 189.506 210.103 189.618 210.367 189.73C210.639 189.834 210.971 189.95 211.363 190.078C211.619 190.158 211.879 190.254 212.143 190.366C212.415 190.478 212.663 190.618 212.887 190.786C213.119 190.954 213.303 191.17 213.439 191.434C213.583 191.69 213.655 192.014 213.655 192.406C213.655 192.782 213.563 193.134 213.379 193.462C213.203 193.782 212.923 194.042 212.539 194.242C212.163 194.442 211.675 194.542 211.075 194.542C210.563 194.542 210.123 194.474 209.755 194.338C209.395 194.194 209.099 194.01 208.867 193.786C208.635 193.562 208.455 193.33 208.327 193.09C208.207 192.842 208.127 192.61 208.087 192.394C208.047 192.178 208.043 192.01 208.075 191.89ZM216.055 190.99V193.522H220.627V194.422H215.095V186.622H220.615V187.522H216.055V190.09H219.787V190.99H216.055ZM221.522 186.622H227.762V187.522H221.522V186.622ZM224.162 187.426H225.122V194.422H224.162V187.426ZM228.371 191.89H229.235C229.259 192.226 229.359 192.526 229.535 192.79C229.711 193.054 229.951 193.262 230.255 193.414C230.567 193.566 230.931 193.642 231.347 193.642C231.707 193.642 232.007 193.59 232.247 193.486C232.495 193.374 232.679 193.222 232.799 193.03C232.927 192.838 232.991 192.614 232.991 192.358C232.991 192.094 232.927 191.882 232.799 191.722C232.671 191.562 232.487 191.426 232.247 191.314C232.007 191.202 231.723 191.094 231.395 190.99C231.083 190.894 230.767 190.782 230.447 190.654C230.127 190.526 229.827 190.37 229.547 190.186C229.275 190.002 229.055 189.782 228.887 189.526C228.719 189.262 228.635 188.946 228.635 188.578C228.635 188.218 228.731 187.882 228.923 187.57C229.123 187.25 229.411 186.994 229.787 186.802C230.171 186.602 230.631 186.502 231.167 186.502C232.007 186.502 232.635 186.73 233.051 187.186C233.467 187.642 233.667 188.246 233.651 188.998H232.787C232.771 188.43 232.611 188.022 232.307 187.774C232.003 187.526 231.607 187.402 231.119 187.402C230.711 187.402 230.355 187.498 230.051 187.69C229.747 187.874 229.595 188.166 229.595 188.566C229.595 188.742 229.627 188.898 229.691 189.034C229.763 189.162 229.875 189.282 230.027 189.394C230.187 189.506 230.399 189.618 230.663 189.73C230.935 189.834 231.267 189.95 231.659 190.078C231.915 190.158 232.175 190.254 232.439 190.366C232.711 190.478 232.959 190.618 233.183 190.786C233.415 190.954 233.599 191.17 233.735 191.434C233.879 191.69 233.951 192.014 233.951 192.406C233.951 192.782 233.859 193.134 233.675 193.462C233.499 193.782 233.219 194.042 232.835 194.242C232.459 194.442 231.971 194.542 231.371 194.542C230.859 194.542 230.419 194.474 230.051 194.338C229.691 194.194 229.395 194.01 229.163 193.786C228.931 193.562 228.751 193.33 228.623 193.09C228.503 192.842 228.423 192.61 228.383 192.394C228.343 192.178 228.339 192.01 228.371 191.89Z" fill="white"/>
<path opacity="0.5" d="M20.8555 86.396C20.7755 86.956 20.5835 87.44 20.2795 87.848C19.9755 88.256 19.5875 88.572 19.1155 88.796C18.6515 89.012 18.1315 89.12 17.5555 89.12C17.0195 89.12 16.5235 89.028 16.0675 88.844C15.6115 88.652 15.2115 88.38 14.8675 88.028C14.5315 87.676 14.2675 87.252 14.0755 86.756C13.8835 86.26 13.7875 85.708 13.7875 85.1C13.7875 84.484 13.8835 83.932 14.0755 83.444C14.2675 82.948 14.5315 82.524 14.8675 82.172C15.2115 81.82 15.6115 81.552 16.0675 81.368C16.5235 81.176 17.0195 81.08 17.5555 81.08C18.1395 81.08 18.6635 81.192 19.1275 81.416C19.5995 81.632 19.9875 81.948 20.2915 82.364C20.5955 82.772 20.7875 83.26 20.8675 83.828H19.9795C19.8675 83.428 19.6915 83.092 19.4515 82.82C19.2195 82.548 18.9395 82.34 18.6115 82.196C18.2835 82.052 17.9315 81.98 17.5555 81.98C17.0675 81.98 16.6075 82.1 16.1755 82.34C15.7515 82.58 15.4075 82.932 15.1435 83.396C14.8795 83.86 14.7475 84.428 14.7475 85.1C14.7475 85.772 14.8795 86.34 15.1435 86.804C15.4075 87.268 15.7515 87.62 16.1755 87.86C16.6075 88.1 17.0675 88.22 17.5555 88.22C17.9315 88.22 18.2795 88.152 18.5995 88.016C18.9275 87.872 19.2075 87.664 19.4395 87.392C19.6795 87.12 19.8555 86.788 19.9675 86.396H20.8555ZM22.4327 89V81.2H25.8767C26.4207 81.2 26.8847 81.284 27.2687 81.452C27.6527 81.612 27.9447 81.856 28.1447 82.184C28.3527 82.512 28.4567 82.924 28.4567 83.42C28.4567 83.756 28.4007 84.044 28.2887 84.284C28.1847 84.524 28.0367 84.728 27.8447 84.896C27.6527 85.056 27.4247 85.18 27.1607 85.268C26.9047 85.356 26.6247 85.412 26.3207 85.436L26.2847 85.376C26.7087 85.392 27.0727 85.444 27.3767 85.532C27.6807 85.62 27.9167 85.78 28.0847 86.012C28.2527 86.244 28.3367 86.592 28.3367 87.056V89H27.3767V87.056C27.3767 86.736 27.3207 86.488 27.2087 86.312C27.1047 86.128 26.9247 86 26.6687 85.928C26.4207 85.848 26.0767 85.808 25.6367 85.808H23.3927V89H22.4327ZM23.3927 84.908H25.8767C26.4207 84.908 26.8247 84.772 27.0887 84.5C27.3607 84.22 27.4967 83.86 27.4967 83.42C27.4967 82.996 27.3607 82.672 27.0887 82.448C26.8247 82.216 26.4207 82.1 25.8767 82.1H23.3927V84.908ZM35.8347 81.2L33.0747 86.324V89H32.1147V86.324L29.3547 81.2H30.4347L32.8107 85.7H32.4267L34.7547 81.2H35.8347ZM37.8368 86.24V85.34H40.2848C40.7648 85.34 41.1528 85.192 41.4488 84.896C41.7528 84.592 41.9048 84.2 41.9048 83.72C41.9048 83.224 41.7528 82.832 41.4488 82.544C41.1528 82.248 40.7648 82.1 40.2848 82.1H38.0288V89H37.0688V81.2H40.2848C40.6448 81.2 40.9808 81.256 41.2928 81.368C41.6048 81.48 41.8768 81.644 42.1088 81.86C42.3488 82.076 42.5328 82.34 42.6608 82.652C42.7968 82.964 42.8648 83.32 42.8648 83.72C42.8648 84.12 42.7968 84.476 42.6608 84.788C42.5328 85.1 42.3488 85.364 42.1088 85.58C41.8768 85.796 41.6048 85.96 41.2928 86.072C40.9808 86.184 40.6448 86.24 40.2848 86.24H37.8368ZM43.5902 81.2H49.8302V82.1H43.5902V81.2ZM46.2302 82.004H47.1902V89H46.2302V82.004ZM53.8502 89.12C53.1382 89.12 52.4902 88.956 51.9062 88.628C51.3302 88.292 50.8702 87.824 50.5262 87.224C50.1822 86.624 50.0102 85.916 50.0102 85.1C50.0102 84.284 50.1822 83.576 50.5262 82.976C50.8702 82.368 51.3302 81.9 51.9062 81.572C52.4902 81.244 53.1382 81.08 53.8502 81.08C54.5622 81.08 55.2062 81.244 55.7822 81.572C56.3662 81.9 56.8302 82.368 57.1742 82.976C57.5182 83.576 57.6902 84.284 57.6902 85.1C57.6902 85.916 57.5182 86.624 57.1742 87.224C56.8302 87.824 56.3662 88.292 55.7822 88.628C55.2062 88.956 54.5622 89.12 53.8502 89.12ZM53.8502 88.22C54.3942 88.22 54.8822 88.104 55.3142 87.872C55.7462 87.632 56.0902 87.28 56.3462 86.816C56.6022 86.352 56.7302 85.78 56.7302 85.1C56.7302 84.42 56.6022 83.852 56.3462 83.396C56.0902 82.932 55.7462 82.58 55.3142 82.34C54.8822 82.1 54.3942 81.98 53.8502 81.98C53.3142 81.98 52.8262 82.1 52.3862 82.34C51.9542 82.58 51.6102 82.932 51.3542 83.396C51.0982 83.852 50.9702 84.42 50.9702 85.1C50.9702 85.78 51.0982 86.352 51.3542 86.816C51.6102 87.28 51.9542 87.632 52.3862 87.872C52.8262 88.104 53.3142 88.22 53.8502 88.22ZM8.05863 100.396C7.97863 100.956 7.78663 101.44 7.48263 101.848C7.17863 102.256 6.79063 102.572 6.31863 102.796C5.85463 103.012 5.33463 103.12 4.75863 103.12C4.22263 103.12 3.72663 103.028 3.27063 102.844C2.81463 102.652 2.41463 102.38 2.07063 102.028C1.73463 101.676 1.47063 101.252 1.27863 100.756C1.08663 100.26 0.990625 99.708 0.990625 99.1C0.990625 98.484 1.08663 97.932 1.27863 97.444C1.47063 96.948 1.73463 96.524 2.07063 96.172C2.41463 95.82 2.81463 95.552 3.27063 95.368C3.72663 95.176 4.22263 95.08 4.75863 95.08C5.34263 95.08 5.86663 95.192 6.33063 95.416C6.80263 95.632 7.19063 95.948 7.49463 96.364C7.79863 96.772 7.99063 97.26 8.07063 97.828H7.18263C7.07063 97.428 6.89463 97.092 6.65463 96.82C6.42263 96.548 6.14263 96.34 5.81463 96.196C5.48663 96.052 5.13463 95.98 4.75863 95.98C4.27063 95.98 3.81063 96.1 3.37863 96.34C2.95463 96.58 2.61063 96.932 2.34663 97.396C2.08263 97.86 1.95063 98.428 1.95063 99.1C1.95063 99.772 2.08263 100.34 2.34663 100.804C2.61063 101.268 2.95463 101.62 3.37863 101.86C3.81063 102.1 4.27063 102.22 4.75863 102.22C5.13463 102.22 5.48263 102.152 5.80263 102.016C6.13063 101.872 6.41063 101.664 6.64263 101.392C6.88263 101.12 7.05862 100.788 7.17062 100.396H8.05863ZM15.0958 100V95.2H16.0558V100C16.0558 100.44 16.0038 100.832 15.8998 101.176C15.7958 101.512 15.6478 101.804 15.4558 102.052C15.2718 102.3 15.0478 102.504 14.7838 102.664C14.5198 102.816 14.2238 102.928 13.8958 103C13.5758 103.08 13.2318 103.12 12.8638 103.12C12.4878 103.12 12.1358 103.08 11.8078 103C11.4798 102.928 11.1798 102.816 10.9078 102.664C10.6438 102.504 10.4158 102.3 10.2238 102.052C10.0398 101.804 9.89578 101.512 9.79178 101.176C9.68778 100.832 9.63578 100.44 9.63578 100V95.2H10.5958V100C10.5958 100.6 10.6998 101.06 10.9078 101.38C11.1158 101.7 11.3918 101.92 11.7358 102.04C12.0798 102.16 12.4558 102.22 12.8638 102.22C13.2638 102.22 13.6318 102.16 13.9678 102.04C14.3038 101.92 14.5758 101.7 14.7838 101.38C14.9918 101.06 15.0958 100.6 15.0958 100ZM17.9795 103V95.2H21.4235C21.9675 95.2 22.4315 95.284 22.8155 95.452C23.1995 95.612 23.4915 95.856 23.6915 96.184C23.8995 96.512 24.0035 96.924 24.0035 97.42C24.0035 97.756 23.9475 98.044 23.8355 98.284C23.7315 98.524 23.5835 98.728 23.3915 98.896C23.1995 99.056 22.9715 99.18 22.7075 99.268C22.4515 99.356 22.1715 99.412 21.8675 99.436L21.8315 99.376C22.2555 99.392 22.6195 99.444 22.9235 99.532C23.2275 99.62 23.4635 99.78 23.6315 100.012C23.7995 100.244 23.8835 100.592 23.8835 101.056V103H22.9235V101.056C22.9235 100.736 22.8675 100.488 22.7555 100.312C22.6515 100.128 22.4715 100 22.2155 99.928C21.9675 99.848 21.6235 99.808 21.1835 99.808H18.9395V103H17.9795ZM18.9395 98.908H21.4235C21.9675 98.908 22.3715 98.772 22.6355 98.5C22.9075 98.22 23.0435 97.86 23.0435 97.42C23.0435 96.996 22.9075 96.672 22.6355 96.448C22.3715 96.216 21.9675 96.1 21.4235 96.1H18.9395V98.908ZM25.6788 103V95.2H29.1228C29.6668 95.2 30.1308 95.284 30.5148 95.452C30.8988 95.612 31.1908 95.856 31.3908 96.184C31.5988 96.512 31.7028 96.924 31.7028 97.42C31.7028 97.756 31.6468 98.044 31.5348 98.284C31.4308 98.524 31.2828 98.728 31.0908 98.896C30.8988 99.056 30.6708 99.18 30.4068 99.268C30.1508 99.356 29.8708 99.412 29.5668 99.436L29.5308 99.376C29.9548 99.392 30.3188 99.444 30.6228 99.532C30.9268 99.62 31.1628 99.78 31.3307 100.012C31.4988 100.244 31.5828 100.592 31.5828 101.056V103H30.6228V101.056C30.6228 100.736 30.5668 100.488 30.4548 100.312C30.3508 100.128 30.1708 100 29.9148 99.928C29.6668 99.848 29.3228 99.808 28.8828 99.808H26.6388V103H25.6788ZM26.6388 98.908H29.1228C29.6668 98.908 30.0708 98.772 30.3348 98.5C30.6068 98.22 30.7428 97.86 30.7428 97.42C30.7428 96.996 30.6068 96.672 30.3348 96.448C30.0708 96.216 29.6668 96.1 29.1228 96.1H26.6388V98.908ZM34.338 99.568V102.1H38.91V103H33.378V95.2H38.898V96.1H34.338V98.668H38.07V99.568H34.338ZM46.609 101.86L46.345 101.944V95.2H47.305V103H46.345L41.281 96.352L41.545 96.268V103H40.585V95.2H41.545L46.609 101.86ZM55.9297 100.396C55.8497 100.956 55.6577 101.44 55.3537 101.848C55.0497 102.256 54.6617 102.572 54.1897 102.796C53.7257 103.012 53.2057 103.12 52.6297 103.12C52.0937 103.12 51.5977 103.028 51.1417 102.844C50.6857 102.652 50.2857 102.38 49.9417 102.028C49.6057 101.676 49.3417 101.252 49.1497 100.756C48.9577 100.26 48.8617 99.708 48.8617 99.1C48.8617 98.484 48.9577 97.932 49.1497 97.444C49.3417 96.948 49.6057 96.524 49.9417 96.172C50.2857 95.82 50.6857 95.552 51.1417 95.368C51.5977 95.176 52.0937 95.08 52.6297 95.08C53.2137 95.08 53.7377 95.192 54.2017 95.416C54.6737 95.632 55.0617 95.948 55.3657 96.364C55.6697 96.772 55.8617 97.26 55.9417 97.828H55.0537C54.9417 97.428 54.7657 97.092 54.5257 96.82C54.2937 96.548 54.0137 96.34 53.6857 96.196C53.3577 96.052 53.0057 95.98 52.6297 95.98C52.1417 95.98 51.6817 96.1 51.2497 96.34C50.8257 96.58 50.4817 96.932 50.2177 97.396C49.9537 97.86 49.8217 98.428 49.8217 99.1C49.8217 99.772 49.9537 100.34 50.2177 100.804C50.4817 101.268 50.8257 101.62 51.2497 101.86C51.6817 102.1 52.1417 102.22 52.6297 102.22C53.0057 102.22 53.3537 102.152 53.6737 102.016C54.0017 101.872 54.2817 101.664 54.5137 101.392C54.7537 101.12 54.9297 100.788 55.0417 100.396H55.9297ZM57.7469 95.2H58.7069V103H57.7469V95.2ZM61.8302 99.568V102.1H66.4022V103H60.8702V95.2H66.3902V96.1H61.8302V98.668H65.5622V99.568H61.8302ZM67.5492 100.468H68.4132C68.4372 100.804 68.5372 101.104 68.7132 101.368C68.8892 101.632 69.1292 101.84 69.4332 101.992C69.7452 102.144 70.1092 102.22 70.5252 102.22C70.8852 102.22 71.1852 102.168 71.4252 102.064C71.6732 101.952 71.8572 101.8 71.9772 101.608C72.1052 101.416 72.1692 101.192 72.1692 100.936C72.1692 100.672 72.1052 100.46 71.9772 100.3C71.8492 100.14 71.6652 100.004 71.4252 99.892C71.1852 99.78 70.9012 99.672 70.5732 99.568C70.2612 99.472 69.9452 99.36 69.6252 99.232C69.3052 99.104 69.0052 98.948 68.7252 98.764C68.4532 98.58 68.2332 98.36 68.0652 98.104C67.8972 97.84 67.8132 97.524 67.8132 97.156C67.8132 96.796 67.9092 96.46 68.1012 96.148C68.3012 95.828 68.5892 95.572 68.9652 95.38C69.3492 95.18 69.8092 95.08 70.3452 95.08C71.1852 95.08 71.8132 95.308 72.2292 95.764C72.6452 96.22 72.8452 96.824 72.8292 97.576H71.9652C71.9492 97.008 71.7892 96.6 71.4852 96.352C71.1812 96.104 70.7852 95.98 70.2972 95.98C69.8892 95.98 69.5332 96.076 69.2292 96.268C68.9252 96.452 68.7732 96.744 68.7732 97.144C68.7732 97.32 68.8052 97.476 68.8692 97.612C68.9412 97.74 69.0532 97.86 69.2052 97.972C69.3652 98.084 69.5772 98.196 69.8412 98.308C70.1132 98.412 70.4452 98.528 70.8372 98.656C71.0932 98.736 71.3532 98.832 71.6172 98.944C71.8892 99.056 72.1372 99.196 72.3612 99.364C72.5932 99.532 72.7772 99.748 72.9132 100.012C73.0572 100.268 73.1292 100.592 73.1292 100.984C73.1292 101.36 73.0372 101.712 72.8532 102.04C72.6772 102.36 72.3972 102.62 72.0132 102.82C71.6372 103.02 71.1492 103.12 70.5492 103.12C70.0372 103.12 69.5972 103.052 69.2292 102.916C68.8692 102.772 68.5732 102.588 68.3412 102.364C68.1092 102.14 67.9292 101.908 67.8012 101.668C67.6812 101.42 67.6012 101.188 67.5612 100.972C67.5212 100.756 67.5172 100.588 67.5492 100.468Z" fill="white"/>
<path d="M179.5 166.422L173.871 160.422L185.129 160.422L179.5 166.422Z" fill="white" fill-opacity="0.5"/>
<path d="M179.5 17.4219L185.129 23.4219L173.871 23.4219L179.5 17.4219Z" fill="white" fill-opacity="0.5"/>
<path d="M84 90.4219L90.75 84.3597L90.75 96.4841L84 90.4219Z" fill="white" fill-opacity="0.5"/>
<defs>
<filter id="filter0_d" x="97" y="8.42188" width="204" height="167" filterUnits="userSpaceOnUse" color-interpolation-filters="sRGB">
<feFlood flood-opacity="0" result="BackgroundImageFix"/>
<feColorMatrix in="SourceAlpha" type="matrix" values="0 0 0 0 0 0 0 0 0 0 0 0 0 0 0 0 0 0 127 0"/>
<feOffset dx="20"/>
<feGaussianBlur stdDeviation="10"/>
<feColorMatrix type="matrix" values="0 0 0 0 0 0 0 0 0 0 0 0 0 0 0 0 0 0 0.4 0"/>
<feBlend mode="normal" in2="BackgroundImageFix" result="effect1_dropShadow"/>
<feBlend mode="normal" in="SourceGraphic" in2="effect1_dropShadow" result="shape"/>
</filter>
<linearGradient id="paint0_linear" x1="223.356" y1="57.9771" x2="131.684" y2="129.916" gradientUnits="userSpaceOnUse">
<stop stop-color="#171717"/>
<stop offset="1" stop-color="#222222"/>
</linearGradient>
<linearGradient id="paint1_linear" x1="179.001" y1="153.511" x2="179.001" y2="30.3333" gradientUnits="userSpaceOnUse">
<stop/>
<stop offset="1" stop-color="#484646"/>
</linearGradient>
</defs>
</svg>
