<svg width="338" height="198" viewBox="0 0 338 198" fill="none" xmlns="http://www.w3.org/2000/svg">
<g filter="url(#filter0_d)">
<path d="M207 93.9236C207 99.384 204.479 104.36 200.079 107.582L141.045 150.809C132.643 156.96 121.357 156.96 112.955 150.809L53.9215 107.578C49.525 104.357 47 99.3804 47 93.9201C47 88.4598 49.5214 83.4835 53.9215 80.2621L112.955 37.035C121.357 30.8841 132.643 30.8841 141.045 37.035L200.082 80.2657C204.479 83.4835 207 88.4633 207 93.9236Z" fill="url(#paint0_linear)"/>
<path d="M207 93.9236C207 99.384 204.479 104.36 200.079 107.582L141.045 150.809C132.643 156.96 121.357 156.96 112.955 150.809L53.9215 107.578C49.525 104.357 47 99.3804 47 93.9201C47 88.4598 49.5214 83.4835 53.9215 80.2621L112.955 37.035C121.357 30.8841 132.643 30.8841 141.045 37.035L200.082 80.2657C204.479 83.4835 207 88.4633 207 93.9236Z" stroke="url(#paint1_linear)" stroke-width="4" stroke-miterlimit="10"/>
</g>
<path d="M92.3725 91.8459V95.2219H98.4685V96.4219H91.0925V86.0219H98.4525V87.2219H92.3725V90.6459H97.3485V91.8459H92.3725ZM109.646 92.9499C109.539 93.6965 109.283 94.3419 108.878 94.8859C108.473 95.4299 107.955 95.8512 107.326 96.1499C106.707 96.4379 106.014 96.5819 105.246 96.5819C104.531 96.5819 103.87 96.4592 103.262 96.2139C102.654 95.9579 102.121 95.5952 101.662 95.1259C101.214 94.6565 100.862 94.0912 100.606 93.4299C100.35 92.7685 100.222 92.0325 100.222 91.2219C100.222 90.4005 100.35 89.6645 100.606 89.0139C100.862 88.3525 101.214 87.7872 101.662 87.3179C102.121 86.8485 102.654 86.4912 103.262 86.2459C103.87 85.9899 104.531 85.8619 105.246 85.8619C106.025 85.8619 106.723 86.0112 107.342 86.3099C107.971 86.5979 108.489 87.0192 108.894 87.5739C109.299 88.1179 109.555 88.7685 109.662 89.5259H108.478C108.329 88.9925 108.094 88.5445 107.774 88.1819C107.465 87.8192 107.091 87.5419 106.654 87.3499C106.217 87.1579 105.747 87.0619 105.246 87.0619C104.595 87.0619 103.982 87.2219 103.406 87.5419C102.841 87.8619 102.382 88.3312 102.03 88.9499C101.678 89.5685 101.502 90.3259 101.502 91.2219C101.502 92.1179 101.678 92.8752 102.03 93.4939C102.382 94.1125 102.841 94.5819 103.406 94.9019C103.982 95.2219 104.595 95.3819 105.246 95.3819C105.747 95.3819 106.211 95.2912 106.638 95.1099C107.075 94.9179 107.449 94.6405 107.758 94.2779C108.078 93.9152 108.313 93.4725 108.462 92.9499H109.646ZM116.389 96.5819C115.439 96.5819 114.575 96.3632 113.797 95.9259C113.029 95.4779 112.415 94.8539 111.957 94.0539C111.498 93.2539 111.269 92.3099 111.269 91.2219C111.269 90.1339 111.498 89.1899 111.957 88.3899C112.415 87.5792 113.029 86.9552 113.797 86.5179C114.575 86.0805 115.439 85.8619 116.389 85.8619C117.338 85.8619 118.197 86.0805 118.965 86.5179C119.743 86.9552 120.362 87.5792 120.821 88.3899C121.279 89.1899 121.509 90.1339 121.509 91.2219C121.509 92.3099 121.279 93.2539 120.821 94.0539C120.362 94.8539 119.743 95.4779 118.965 95.9259C118.197 96.3632 117.338 96.5819 116.389 96.5819ZM116.389 95.3819C117.114 95.3819 117.765 95.2272 118.341 94.9179C118.917 94.5979 119.375 94.1285 119.717 93.5099C120.058 92.8912 120.229 92.1285 120.229 91.2219C120.229 90.3152 120.058 89.5579 119.717 88.9499C119.375 88.3312 118.917 87.8619 118.341 87.5419C117.765 87.2219 117.114 87.0619 116.389 87.0619C115.674 87.0619 115.023 87.2219 114.437 87.5419C113.861 87.8619 113.402 88.3312 113.061 88.9499C112.719 89.5579 112.549 90.3152 112.549 91.2219C112.549 92.1285 112.719 92.8912 113.061 93.5099C113.402 94.1285 113.861 94.5979 114.437 94.9179C115.023 95.2272 115.674 95.3819 116.389 95.3819ZM131.625 94.9019L131.273 95.0139V86.0219H132.553V96.4219H131.273L124.521 87.5579L124.873 87.4459V96.4219H123.593V86.0219H124.873L131.625 94.9019ZM139.748 96.5819C138.799 96.5819 137.935 96.3632 137.156 95.9259C136.388 95.4779 135.775 94.8539 135.316 94.0539C134.857 93.2539 134.628 92.3099 134.628 91.2219C134.628 90.1339 134.857 89.1899 135.316 88.3899C135.775 87.5792 136.388 86.9552 137.156 86.5179C137.935 86.0805 138.799 85.8619 139.748 85.8619C140.697 85.8619 141.556 86.0805 142.324 86.5179C143.103 86.9552 143.721 87.5792 144.18 88.3899C144.639 89.1899 144.868 90.1339 144.868 91.2219C144.868 92.3099 144.639 93.2539 144.18 94.0539C143.721 94.8539 143.103 95.4779 142.324 95.9259C141.556 96.3632 140.697 96.5819 139.748 96.5819ZM139.748 95.3819C140.473 95.3819 141.124 95.2272 141.7 94.9179C142.276 94.5979 142.735 94.1285 143.076 93.5099C143.417 92.8912 143.588 92.1285 143.588 91.2219C143.588 90.3152 143.417 89.5579 143.076 88.9499C142.735 88.3312 142.276 87.8619 141.7 87.5419C141.124 87.2219 140.473 87.0619 139.748 87.0619C139.033 87.0619 138.383 87.2219 137.796 87.5419C137.22 87.8619 136.761 88.3312 136.42 88.9499C136.079 89.5579 135.908 90.3152 135.908 91.2219C135.908 92.1285 136.079 92.8912 136.42 93.5099C136.761 94.1285 137.22 94.5979 137.796 94.9179C138.383 95.2272 139.033 95.3819 139.748 95.3819ZM152.968 95.6539H152.456L157.192 86.0219H158.472V96.4219H157.192V88.2459L157.448 88.3099L153.352 96.4219H152.072L147.976 88.3259L148.232 88.2619V96.4219H146.952V86.0219H148.232L152.968 95.6539ZM168.79 86.0219L165.11 92.8539V96.4219H163.83V92.8539L160.15 86.0219H161.59L164.758 92.0219H164.246L167.35 86.0219H168.79Z" fill="white"/>
<path opacity="0.5" d="M262.244 81.6219V82.5219H257.684V85.0899H261.416V85.9899H257.684V89.4219H256.724V81.6219H262.244ZM263.749 81.6219H264.709V89.4219H263.749V81.6219ZM267.736 87.3819V86.4819H271.48V87.3819H267.736ZM266.152 89.4219L269.116 81.6219H270.124L273.112 89.4219H272.08L269.476 82.3659H269.764L267.16 89.4219H266.152ZM272.819 81.6219H279.059V82.5219H272.819V81.6219ZM275.459 82.4259H276.419V89.4219H275.459V82.4259ZM243.791 98.8179C243.711 99.3779 243.519 99.8619 243.215 100.27C242.911 100.678 242.523 100.994 242.051 101.218C241.587 101.434 241.067 101.542 240.491 101.542C239.955 101.542 239.459 101.45 239.003 101.266C238.547 101.074 238.147 100.802 237.803 100.45C237.467 100.098 237.203 99.6739 237.011 99.1779C236.819 98.6819 236.723 98.1299 236.723 97.5219C236.723 96.9059 236.819 96.3539 237.011 95.8659C237.203 95.3699 237.467 94.9459 237.803 94.5939C238.147 94.2419 238.547 93.9739 239.003 93.7899C239.459 93.5979 239.955 93.5019 240.491 93.5019C241.075 93.5019 241.599 93.6139 242.063 93.8379C242.535 94.0539 242.923 94.3699 243.227 94.7859C243.531 95.1939 243.723 95.6819 243.803 96.2499H242.915C242.803 95.8499 242.627 95.5139 242.387 95.2419C242.155 94.9699 241.875 94.7619 241.547 94.6179C241.219 94.4739 240.867 94.4019 240.491 94.4019C240.003 94.4019 239.543 94.5219 239.111 94.7619C238.687 95.0019 238.343 95.3539 238.079 95.8179C237.815 96.2819 237.683 96.8499 237.683 97.5219C237.683 98.1939 237.815 98.7619 238.079 99.2259C238.343 99.6899 238.687 100.042 239.111 100.282C239.543 100.522 240.003 100.642 240.491 100.642C240.867 100.642 241.215 100.574 241.535 100.438C241.863 100.294 242.143 100.086 242.375 99.8139C242.615 99.5419 242.791 99.2099 242.903 98.8179H243.791ZM250.828 98.4219V93.6219H251.788V98.4219C251.788 98.8619 251.736 99.2539 251.632 99.5979C251.528 99.9339 251.38 100.226 251.188 100.474C251.004 100.722 250.78 100.926 250.516 101.086C250.252 101.238 249.956 101.35 249.628 101.422C249.308 101.502 248.964 101.542 248.596 101.542C248.22 101.542 247.868 101.502 247.54 101.422C247.212 101.35 246.912 101.238 246.64 101.086C246.376 100.926 246.148 100.722 245.956 100.474C245.772 100.226 245.628 99.9339 245.524 99.5979C245.42 99.2539 245.368 98.8619 245.368 98.4219V93.6219H246.328V98.4219C246.328 99.0219 246.432 99.4819 246.64 99.8019C246.848 100.122 247.124 100.342 247.468 100.462C247.812 100.582 248.188 100.642 248.596 100.642C248.996 100.642 249.364 100.582 249.7 100.462C250.036 100.342 250.308 100.122 250.516 99.8019C250.724 99.4819 250.828 99.0219 250.828 98.4219ZM253.712 101.422V93.6219H257.156C257.7 93.6219 258.164 93.7059 258.548 93.8739C258.932 94.0339 259.224 94.2779 259.424 94.6059C259.632 94.9339 259.736 95.3459 259.736 95.8419C259.736 96.1779 259.68 96.4659 259.568 96.7059C259.464 96.9459 259.316 97.1499 259.124 97.3179C258.932 97.4779 258.704 97.6019 258.44 97.6899C258.184 97.7779 257.904 97.8339 257.6 97.8579L257.564 97.7979C257.988 97.8139 258.352 97.8659 258.656 97.9539C258.96 98.0419 259.196 98.2019 259.364 98.4339C259.532 98.6659 259.616 99.0139 259.616 99.4779V101.422H258.656V99.4779C258.656 99.1579 258.6 98.9099 258.488 98.7339C258.384 98.5499 258.204 98.4219 257.948 98.3499C257.7 98.2699 257.356 98.2299 256.916 98.2299H254.672V101.422H253.712ZM254.672 97.3299H257.156C257.7 97.3299 258.104 97.1939 258.368 96.9219C258.64 96.6419 258.776 96.2819 258.776 95.8419C258.776 95.4179 258.64 95.0939 258.368 94.8699C258.104 94.6379 257.7 94.5219 257.156 94.5219H254.672V97.3299ZM261.411 101.422V93.6219H264.855C265.399 93.6219 265.863 93.7059 266.247 93.8739C266.631 94.0339 266.923 94.2779 267.123 94.6059C267.331 94.9339 267.435 95.3459 267.435 95.8419C267.435 96.1779 267.379 96.4659 267.267 96.7059C267.163 96.9459 267.015 97.1499 266.823 97.3179C266.631 97.4779 266.403 97.6019 266.139 97.6899C265.883 97.7779 265.603 97.8339 265.299 97.8579L265.263 97.7979C265.687 97.8139 266.051 97.8659 266.355 97.9539C266.659 98.0419 266.895 98.2019 267.063 98.4339C267.231 98.6659 267.315 99.0139 267.315 99.4779V101.422H266.355V99.4779C266.355 99.1579 266.299 98.9099 266.187 98.7339C266.083 98.5499 265.903 98.4219 265.647 98.3499C265.399 98.2699 265.055 98.2299 264.615 98.2299H262.371V101.422H261.411ZM262.371 97.3299H264.855C265.399 97.3299 265.803 97.1939 266.067 96.9219C266.339 96.6419 266.475 96.2819 266.475 95.8419C266.475 95.4179 266.339 95.0939 266.067 94.8699C265.803 94.6379 265.399 94.5219 264.855 94.5219H262.371V97.3299ZM270.07 97.9899V100.522H274.642V101.422H269.11V93.6219H274.63V94.5219H270.07V97.0899H273.802V97.9899H270.07ZM282.341 100.282L282.077 100.366V93.6219H283.037V101.422H282.077L277.013 94.7739L277.277 94.6899V101.422H276.317V93.6219H277.277L282.341 100.282ZM291.662 98.8179C291.582 99.3779 291.39 99.8619 291.086 100.27C290.782 100.678 290.394 100.994 289.922 101.218C289.458 101.434 288.938 101.542 288.362 101.542C287.826 101.542 287.33 101.45 286.874 101.266C286.418 101.074 286.018 100.802 285.674 100.45C285.338 100.098 285.074 99.6739 284.882 99.1779C284.69 98.6819 284.594 98.1299 284.594 97.5219C284.594 96.9059 284.69 96.3539 284.882 95.8659C285.074 95.3699 285.338 94.9459 285.674 94.5939C286.018 94.2419 286.418 93.9739 286.874 93.7899C287.33 93.5979 287.826 93.5019 288.362 93.5019C288.946 93.5019 289.47 93.6139 289.934 93.8379C290.406 94.0539 290.794 94.3699 291.098 94.7859C291.402 95.1939 291.594 95.6819 291.674 96.2499H290.786C290.674 95.8499 290.498 95.5139 290.258 95.2419C290.026 94.9699 289.746 94.7619 289.418 94.6179C289.09 94.4739 288.738 94.4019 288.362 94.4019C287.874 94.4019 287.414 94.5219 286.982 94.7619C286.558 95.0019 286.214 95.3539 285.95 95.8179C285.686 96.2819 285.554 96.8499 285.554 97.5219C285.554 98.1939 285.686 98.7619 285.95 99.2259C286.214 99.6899 286.558 100.042 286.982 100.282C287.414 100.522 287.874 100.642 288.362 100.642C288.738 100.642 289.086 100.574 289.406 100.438C289.734 100.294 290.014 100.086 290.246 99.8139C290.486 99.5419 290.662 99.2099 290.774 98.8179H291.662ZM298.579 93.6219L295.819 98.7459V101.422H294.859V98.7459L292.099 93.6219H293.179L295.555 98.1219H295.171L297.499 93.6219H298.579Z" fill="white"/>
<path opacity="0.5" d="M4.67825 98.5419C4.11025 98.5419 3.59825 98.4459 3.14225 98.2539C2.69425 98.0619 2.31025 97.7939 1.99025 97.4499C1.67025 97.0979 1.42625 96.6779 1.25825 96.1899C1.09025 95.7019 1.00625 95.1659 1.00625 94.5819C1.00625 93.9899 1.09825 93.4459 1.28225 92.9499C1.46625 92.4459 1.72625 92.0139 2.06225 91.6539C2.39825 91.2859 2.79425 91.0019 3.25025 90.8019C3.71425 90.6019 4.22225 90.5019 4.77425 90.5019C5.37425 90.5019 5.90625 90.6179 6.37025 90.8499C6.83425 91.0739 7.21025 91.3939 7.49825 91.8099C7.78625 92.2179 7.95825 92.6979 8.01425 93.2499H7.19825C7.09425 92.8659 6.92625 92.5379 6.69425 92.2659C6.46225 91.9859 6.18225 91.7739 5.85425 91.6299C5.53425 91.4779 5.17425 91.4019 4.77425 91.4019C4.22225 91.4019 3.73425 91.5419 3.31025 91.8219C2.89425 92.0939 2.56625 92.4699 2.32625 92.9499C2.08625 93.4299 1.96625 93.9739 1.96625 94.5819C1.96625 95.1899 2.07425 95.7259 2.29025 96.1899C2.50625 96.6459 2.81825 97.0019 3.22625 97.2579C3.63425 97.5139 4.11825 97.6419 4.67825 97.6419C5.11025 97.6419 5.48625 97.5579 5.80625 97.3899C6.13425 97.2219 6.39825 96.9779 6.59825 96.6579C6.79825 96.3299 6.93425 95.9299 7.00625 95.4579H7.59425C7.46625 96.4899 7.14225 97.2619 6.62225 97.7739C6.10225 98.2859 5.45425 98.5419 4.67825 98.5419ZM7.40225 98.4219C7.40225 98.1579 7.40625 97.8619 7.41425 97.5339C7.43025 97.1979 7.45025 96.8579 7.47425 96.5139C7.49825 96.1699 7.51825 95.8619 7.53425 95.5899H4.89425V94.6899H8.33825V98.4219H7.40225ZM12.5467 90.6219C13.3307 90.6219 13.9867 90.7259 14.5147 90.9339C15.0507 91.1339 15.4787 91.4139 15.7987 91.7739C16.1187 92.1339 16.3507 92.5459 16.4947 93.0099C16.6387 93.4739 16.7107 93.9659 16.7107 94.4859C16.7107 95.0059 16.6347 95.5019 16.4827 95.9739C16.3307 96.4459 16.0867 96.8659 15.7507 97.2339C15.4227 97.6019 14.9947 97.8939 14.4667 98.1099C13.9387 98.3179 13.2987 98.4219 12.5467 98.4219H10.0147V90.6219H12.5467ZM10.9747 97.5219H12.5467C13.1787 97.5219 13.6987 97.4339 14.1067 97.2579C14.5227 97.0819 14.8507 96.8499 15.0907 96.5619C15.3307 96.2659 15.4987 95.9379 15.5947 95.5779C15.6987 95.2179 15.7507 94.8539 15.7507 94.4859C15.7507 94.1179 15.6987 93.7579 15.5947 93.4059C15.4987 93.0539 15.3307 92.7379 15.0907 92.4579C14.8507 92.1699 14.5227 91.9419 14.1067 91.7739C13.6987 91.6059 13.1787 91.5219 12.5467 91.5219H10.9747V97.5219ZM19.0204 95.6619V94.7619H21.4684C21.9484 94.7619 22.3364 94.6139 22.6324 94.3179C22.9364 94.0139 23.0884 93.6219 23.0884 93.1419C23.0884 92.6459 22.9364 92.2539 22.6324 91.9659C22.3364 91.6699 21.9484 91.5219 21.4684 91.5219H19.2124V98.4219H18.2524V90.6219H21.4684C21.8284 90.6219 22.1644 90.6779 22.4764 90.7899C22.7884 90.9019 23.0604 91.0659 23.2924 91.2819C23.5324 91.4979 23.7164 91.7619 23.8444 92.0739C23.9804 92.3859 24.0484 92.7419 24.0484 93.1419C24.0484 93.5419 23.9804 93.8979 23.8444 94.2099C23.7164 94.5219 23.5324 94.7859 23.2924 95.0019C23.0604 95.2179 22.7884 95.3819 22.4764 95.4939C22.1644 95.6059 21.8284 95.6619 21.4684 95.6619H19.0204Z" fill="white"/>
<path opacity="0.5" d="M115.677 3.62187V4.52187H111.117V7.08987H114.849V7.98987H111.117V11.4219H110.157V3.62187H115.677ZM120.059 11.5419C119.347 11.5419 118.699 11.3779 118.115 11.0499C117.539 10.7139 117.079 10.2459 116.735 9.64587C116.391 9.04587 116.219 8.33787 116.219 7.52187C116.219 6.70587 116.391 5.99787 116.735 5.39787C117.079 4.78987 117.539 4.32187 118.115 3.99387C118.699 3.66587 119.347 3.50187 120.059 3.50187C120.771 3.50187 121.415 3.66587 121.991 3.99387C122.575 4.32187 123.039 4.78987 123.383 5.39787C123.727 5.99787 123.899 6.70587 123.899 7.52187C123.899 8.33787 123.727 9.04587 123.383 9.64587C123.039 10.2459 122.575 10.7139 121.991 11.0499C121.415 11.3779 120.771 11.5419 120.059 11.5419ZM120.059 10.6419C120.603 10.6419 121.091 10.5259 121.523 10.2939C121.955 10.0539 122.299 9.70187 122.555 9.23787C122.811 8.77387 122.939 8.20187 122.939 7.52187C122.939 6.84187 122.811 6.27387 122.555 5.81787C122.299 5.35387 121.955 5.00187 121.523 4.76187C121.091 4.52187 120.603 4.40187 120.059 4.40187C119.523 4.40187 119.035 4.52187 118.595 4.76187C118.163 5.00187 117.819 5.35387 117.563 5.81787C117.307 6.27387 117.179 6.84187 117.179 7.52187C117.179 8.20187 117.307 8.77387 117.563 9.23787C117.819 9.70187 118.163 10.0539 118.595 10.2939C119.035 10.5259 119.523 10.6419 120.059 10.6419ZM125.462 11.4219V3.62187H128.906C129.45 3.62187 129.914 3.70587 130.298 3.87387C130.682 4.03387 130.974 4.27787 131.174 4.60587C131.382 4.93387 131.486 5.34587 131.486 5.84187C131.486 6.17787 131.43 6.46587 131.318 6.70587C131.214 6.94587 131.066 7.14987 130.874 7.31787C130.682 7.47787 130.454 7.60187 130.19 7.68987C129.934 7.77787 129.654 7.83387 129.35 7.85787L129.314 7.79787C129.738 7.81387 130.102 7.86587 130.406 7.95387C130.71 8.04187 130.946 8.20187 131.114 8.43387C131.282 8.66587 131.366 9.01387 131.366 9.47787V11.4219H130.406V9.47787C130.406 9.15787 130.35 8.90987 130.238 8.73387C130.134 8.54987 129.954 8.42187 129.698 8.34987C129.45 8.26987 129.106 8.22987 128.666 8.22987H126.422V11.4219H125.462ZM126.422 7.32987H128.906C129.45 7.32987 129.854 7.19387 130.118 6.92187C130.39 6.64187 130.526 6.28187 130.526 5.84187C130.526 5.41787 130.39 5.09387 130.118 4.86987C129.854 4.63787 129.45 4.52187 128.906 4.52187H126.422V7.32987ZM134.121 7.98987V10.5219H138.693V11.4219H133.161V3.62187H138.681V4.52187H134.121V7.08987H137.853V7.98987H134.121ZM145.204 3.62187H146.284L143.404 7.77387L143.38 7.80987L141.004 11.4219H139.924L142.852 7.02987L142.876 7.00587L145.204 3.62187ZM141.124 3.62187L143.356 6.99387L143.368 7.01787L146.284 11.4219H145.084L142.816 7.78587L142.792 7.76187L140.044 3.62187H141.124Z" fill="white"/>
<path d="M128.5 17.4219L134.129 24.1719H122.871L128.5 17.4219Z" fill="white" fill-opacity="0.5"/>
<path d="M225 90.9219L218.25 96.551L218.25 85.2927L225 90.9219Z" fill="white" fill-opacity="0.5"/>
<path d="M30 93.4219L36.75 87.3597L36.75 99.4841L30 93.4219Z" fill="white" fill-opacity="0.5"/>
<defs>
<filter id="filter0_d" x="25" y="30.4219" width="204" height="167" filterUnits="userSpaceOnUse" color-interpolation-filters="sRGB">
<feFlood flood-opacity="0" result="BackgroundImageFix"/>
<feColorMatrix in="SourceAlpha" type="matrix" values="0 0 0 0 0 0 0 0 0 0 0 0 0 0 0 0 0 0 127 0"/>
<feOffset dy="20"/>
<feGaussianBlur stdDeviation="10"/>
<feColorMatrix type="matrix" values="0 0 0 0 0 0 0 0 0 0 0 0 0 0 0 0 0 0 0.4 0"/>
<feBlend mode="normal" in2="BackgroundImageFix" result="effect1_dropShadow"/>
<feBlend mode="normal" in="SourceGraphic" in2="effect1_dropShadow" result="shape"/>
</filter>
<linearGradient id="paint0_linear" x1="171.356" y1="59.977" x2="79.6844" y2="131.916" gradientUnits="userSpaceOnUse">
<stop stop-color="#171717"/>
<stop offset="1" stop-color="#222222"/>
</linearGradient>
<linearGradient id="paint1_linear" x1="127.001" y1="155.511" x2="127.001" y2="32.3333" gradientUnits="userSpaceOnUse">
<stop/>
<stop offset="1" stop-color="#484646"/>
</linearGradient>
</defs>
</svg>
