<svg width="204" height="181" viewBox="0 0 204 181" fill="none" xmlns="http://www.w3.org/2000/svg">
<g filter="url(#filter0_d)">
<path d="M182 76.9236C182 82.384 179.479 87.3602 175.079 90.5816L116.045 133.809C107.643 139.96 96.357 139.96 87.9546 133.809L28.9215 90.5781C24.525 87.3567 22 82.3804 22 76.9201C22 71.4598 24.5214 66.4835 28.9215 63.2621L87.9546 20.035C96.357 13.8841 107.643 13.8841 116.045 20.035L175.082 63.2657C179.479 66.4835 182 71.4633 182 76.9236Z" fill="url(#paint0_linear)"/>
<path d="M182 76.9236C182 82.384 179.479 87.3602 175.079 90.5816L116.045 133.809C107.643 139.96 96.357 139.96 87.9546 133.809L28.9215 90.5781C24.525 87.3567 22 82.3804 22 76.9201C22 71.4598 24.5214 66.4835 28.9215 63.2621L87.9546 20.035C96.357 13.8841 107.643 13.8841 116.045 20.035L175.082 63.2657C179.479 66.4835 182 71.4633 182 76.9236Z" stroke="url(#paint1_linear)" stroke-width="4" stroke-miterlimit="10"/>
</g>
<path d="M67.3725 74.8459V78.2219H73.4685V79.4219H66.0925V69.0219H73.4525V70.2219H67.3725V73.6459H72.3485V74.8459H67.3725ZM84.6459 75.9499C84.5392 76.6965 84.2832 77.3419 83.8779 77.8859C83.4725 78.4299 82.9552 78.8512 82.3259 79.1499C81.7072 79.4379 81.0139 79.5819 80.2459 79.5819C79.5312 79.5819 78.8699 79.4592 78.2619 79.2139C77.6539 78.9579 77.1205 78.5952 76.6619 78.1259C76.2139 77.6565 75.8619 77.0912 75.6059 76.4299C75.3499 75.7685 75.2219 75.0325 75.2219 74.2219C75.2219 73.4005 75.3499 72.6645 75.6059 72.0139C75.8619 71.3525 76.2139 70.7872 76.6619 70.3179C77.1205 69.8485 77.6539 69.4912 78.2619 69.2459C78.8699 68.9899 79.5312 68.8619 80.2459 68.8619C81.0245 68.8619 81.7232 69.0112 82.3419 69.3099C82.9712 69.5979 83.4885 70.0192 83.8939 70.5739C84.2992 71.1179 84.5552 71.7685 84.6619 72.5259H83.4779C83.3285 71.9925 83.0939 71.5445 82.7739 71.1819C82.4645 70.8192 82.0912 70.5419 81.6539 70.3499C81.2165 70.1579 80.7472 70.0619 80.2459 70.0619C79.5952 70.0619 78.9819 70.2219 78.4059 70.5419C77.8405 70.8619 77.3819 71.3312 77.0299 71.9499C76.6779 72.5685 76.5019 73.3259 76.5019 74.2219C76.5019 75.1179 76.6779 75.8752 77.0299 76.4939C77.3819 77.1125 77.8405 77.5819 78.4059 77.9019C78.9819 78.2219 79.5952 78.3819 80.2459 78.3819C80.7472 78.3819 81.2112 78.2912 81.6379 78.1099C82.0752 77.9179 82.4485 77.6405 82.7579 77.2779C83.0779 76.9152 83.3125 76.4725 83.4619 75.9499H84.6459ZM91.3888 79.5819C90.4394 79.5819 89.5754 79.3632 88.7968 78.9259C88.0288 78.4779 87.4154 77.8539 86.9568 77.0539C86.4981 76.2539 86.2688 75.3099 86.2688 74.2219C86.2688 73.1339 86.4981 72.1899 86.9568 71.3899C87.4154 70.5792 88.0288 69.9552 88.7968 69.5179C89.5754 69.0805 90.4394 68.8619 91.3888 68.8619C92.3381 68.8619 93.1968 69.0805 93.9648 69.5179C94.7434 69.9552 95.3621 70.5792 95.8208 71.3899C96.2794 72.1899 96.5088 73.1339 96.5088 74.2219C96.5088 75.3099 96.2794 76.2539 95.8208 77.0539C95.3621 77.8539 94.7434 78.4779 93.9648 78.9259C93.1968 79.3632 92.3381 79.5819 91.3888 79.5819ZM91.3888 78.3819C92.1141 78.3819 92.7648 78.2272 93.3408 77.9179C93.9168 77.5979 94.3754 77.1285 94.7168 76.5099C95.0581 75.8912 95.2288 75.1285 95.2288 74.2219C95.2288 73.3152 95.0581 72.5579 94.7168 71.9499C94.3754 71.3312 93.9168 70.8619 93.3408 70.5419C92.7648 70.2219 92.1141 70.0619 91.3888 70.0619C90.6741 70.0619 90.0234 70.2219 89.4368 70.5419C88.8608 70.8619 88.4021 71.3312 88.0608 71.9499C87.7194 72.5579 87.5488 73.3152 87.5488 74.2219C87.5488 75.1285 87.7194 75.8912 88.0608 76.5099C88.4021 77.1285 88.8608 77.5979 89.4368 77.9179C90.0234 78.2272 90.6741 78.3819 91.3888 78.3819ZM106.625 77.9019L106.273 78.0139V69.0219H107.553V79.4219H106.273L99.5205 70.5579L99.8725 70.4459V79.4219H98.5925V69.0219H99.8725L106.625 77.9019ZM114.748 79.5819C113.799 79.5819 112.935 79.3632 112.156 78.9259C111.388 78.4779 110.775 77.8539 110.316 77.0539C109.857 76.2539 109.628 75.3099 109.628 74.2219C109.628 73.1339 109.857 72.1899 110.316 71.3899C110.775 70.5792 111.388 69.9552 112.156 69.5179C112.935 69.0805 113.799 68.8619 114.748 68.8619C115.697 68.8619 116.556 69.0805 117.324 69.5179C118.103 69.9552 118.721 70.5792 119.18 71.3899C119.639 72.1899 119.868 73.1339 119.868 74.2219C119.868 75.3099 119.639 76.2539 119.18 77.0539C118.721 77.8539 118.103 78.4779 117.324 78.9259C116.556 79.3632 115.697 79.5819 114.748 79.5819ZM114.748 78.3819C115.473 78.3819 116.124 78.2272 116.7 77.9179C117.276 77.5979 117.735 77.1285 118.076 76.5099C118.417 75.8912 118.588 75.1285 118.588 74.2219C118.588 73.3152 118.417 72.5579 118.076 71.9499C117.735 71.3312 117.276 70.8619 116.7 70.5419C116.124 70.2219 115.473 70.0619 114.748 70.0619C114.033 70.0619 113.383 70.2219 112.796 70.5419C112.22 70.8619 111.761 71.3312 111.42 71.9499C111.079 72.5579 110.908 73.3152 110.908 74.2219C110.908 75.1285 111.079 75.8912 111.42 76.5099C111.761 77.1285 112.22 77.5979 112.796 77.9179C113.383 78.2272 114.033 78.3819 114.748 78.3819ZM127.968 78.6539H127.456L132.192 69.0219H133.472V79.4219H132.192V71.2459L132.448 71.3099L128.352 79.4219H127.072L122.976 71.3259L123.232 71.2619V79.4219H121.952V69.0219H123.232L127.968 78.6539ZM143.79 69.0219L140.11 75.8539V79.4219H138.83V75.8539L135.15 69.0219H136.59L139.758 75.0219H139.246L142.35 69.0219H143.79Z" fill="white"/>

<defs>
<filter id="filter0_d" x="0" y="13.4219" width="204" height="167" filterUnits="userSpaceOnUse" color-interpolation-filters="sRGB">
<feFlood flood-opacity="0" result="BackgroundImageFix"/>
<feColorMatrix in="SourceAlpha" type="matrix" values="0 0 0 0 0 0 0 0 0 0 0 0 0 0 0 0 0 0 127 0"/>
<feOffset dy="20"/>
<feGaussianBlur stdDeviation="10"/>
<feColorMatrix type="matrix" values="0 0 0 0 0 0 0 0 0 0 0 0 0 0 0 0 0 0 0.4 0"/>
<feBlend mode="normal" in2="BackgroundImageFix" result="effect1_dropShadow"/>
<feBlend mode="normal" in="SourceGraphic" in2="effect1_dropShadow" result="shape"/>
</filter>
<linearGradient id="paint0_linear" x1="146.356" y1="42.977" x2="54.6844" y2="114.916" gradientUnits="userSpaceOnUse">
<stop stop-color="#171717"/>
<stop offset="1" stop-color="#222222"/>
</linearGradient>
<linearGradient id="paint1_linear" x1="102.001" y1="138.511" x2="102.001" y2="15.3333" gradientUnits="userSpaceOnUse">
<stop/>
<stop offset="1" stop-color="#484646"/>
</linearGradient>
</defs>
</svg>
