<svg width="204" height="177" viewBox="0 0 204 177" fill="none" xmlns="http://www.w3.org/2000/svg">
<g filter="url(#filter0_d)">
<path d="M182 103.924C182 109.384 179.479 114.36 175.079 117.582L116.045 160.809C107.643 166.96 96.357 166.96 87.9546 160.809L28.9215 117.578C24.525 114.357 22 109.38 22 103.92C22 98.4598 24.5214 93.4835 28.9215 90.2621L87.9546 47.035C96.357 40.8842 107.643 40.8842 116.045 47.035L175.082 90.2657C179.479 93.4835 182 98.4633 182 103.924Z" fill="url(#paint0_linear)"/>
<path d="M182 103.924C182 109.384 179.479 114.36 175.079 117.582L116.045 160.809C107.643 166.96 96.357 166.96 87.9546 160.809L28.9215 117.578C24.525 114.357 22 109.38 22 103.92C22 98.4598 24.5214 93.4835 28.9215 90.2621L87.9546 47.035C96.357 40.8842 107.643 40.8842 116.045 47.035L175.082 90.2657C179.479 93.4835 182 98.4633 182 103.924Z" stroke="url(#paint1_linear)" stroke-width="4" stroke-miterlimit="10"/>
</g>
<path d="M76.0936 109.654H75.5816L80.3176 100.022H81.5976V110.422H80.3176V102.246L80.5736 102.31L76.4776 110.422H75.1976L71.1016 102.326L71.3576 102.262V110.422H70.0776V100.022H71.3576L76.0936 109.654ZM85.3077 107.702V106.502H90.2997V107.702H85.3077ZM83.1957 110.422L87.1477 100.022H88.4917L92.4757 110.422H91.0997L87.6277 101.014H88.0117L84.5397 110.422H83.1957ZM94.0776 110.422V100.022H98.6696C99.3949 100.022 100.014 100.134 100.526 100.358C101.038 100.571 101.427 100.897 101.694 101.334C101.971 101.771 102.11 102.321 102.11 102.982C102.11 103.43 102.035 103.814 101.886 104.134C101.747 104.454 101.55 104.726 101.294 104.95C101.038 105.163 100.734 105.329 100.382 105.446C100.04 105.563 99.6669 105.638 99.2616 105.67L99.2136 105.59C99.7789 105.611 100.264 105.681 100.67 105.798C101.075 105.915 101.39 106.129 101.614 106.438C101.838 106.747 101.95 107.211 101.95 107.83V110.422H100.67V107.83C100.67 107.403 100.595 107.073 100.446 106.838C100.307 106.593 100.067 106.422 99.7256 106.326C99.3949 106.219 98.9363 106.166 98.3496 106.166H95.3576V110.422H94.0776ZM95.3576 104.966H98.6696C99.3949 104.966 99.9336 104.785 100.286 104.422C100.648 104.049 100.83 103.569 100.83 102.982C100.83 102.417 100.648 101.985 100.286 101.686C99.9336 101.377 99.3949 101.222 98.6696 101.222H95.3576V104.966ZM106.823 105.366V104.534L112.839 110.422H111.095L105.623 104.982L110.439 100.022H112.167L106.823 105.366ZM104.343 100.022H105.623V110.422H104.343V100.022ZM115.717 105.846V109.222H121.813V110.422H114.437V100.022H121.797V101.222H115.717V104.646H120.693V105.846H115.717ZM123.006 100.022H131.326V101.222H123.006V100.022ZM126.526 101.094H127.806V110.422H126.526V101.094ZM132.139 107.046H133.291C133.323 107.494 133.457 107.894 133.691 108.246C133.926 108.598 134.246 108.875 134.651 109.078C135.067 109.281 135.553 109.382 136.107 109.382C136.587 109.382 136.987 109.313 137.307 109.174C137.638 109.025 137.883 108.822 138.043 108.566C138.214 108.31 138.299 108.011 138.299 107.67C138.299 107.318 138.214 107.035 138.043 106.822C137.873 106.609 137.627 106.427 137.307 106.278C136.987 106.129 136.609 105.985 136.171 105.846C135.755 105.718 135.334 105.569 134.907 105.398C134.481 105.227 134.081 105.019 133.707 104.774C133.345 104.529 133.051 104.235 132.827 103.894C132.603 103.542 132.491 103.121 132.491 102.63C132.491 102.15 132.619 101.702 132.875 101.286C133.142 100.859 133.526 100.518 134.027 100.262C134.539 99.9952 135.153 99.8619 135.867 99.8619C136.987 99.8619 137.825 100.166 138.379 100.774C138.934 101.382 139.201 102.187 139.179 103.19H138.027C138.006 102.433 137.793 101.889 137.387 101.558C136.982 101.227 136.454 101.062 135.803 101.062C135.259 101.062 134.785 101.19 134.379 101.446C133.974 101.691 133.771 102.081 133.771 102.614C133.771 102.849 133.814 103.057 133.899 103.238C133.995 103.409 134.145 103.569 134.347 103.718C134.561 103.867 134.843 104.017 135.195 104.166C135.558 104.305 136.001 104.459 136.523 104.63C136.865 104.737 137.211 104.865 137.563 105.014C137.926 105.163 138.257 105.35 138.555 105.574C138.865 105.798 139.11 106.086 139.291 106.438C139.483 106.779 139.579 107.211 139.579 107.734C139.579 108.235 139.457 108.705 139.211 109.142C138.977 109.569 138.603 109.915 138.091 110.182C137.59 110.449 136.939 110.582 136.139 110.582C135.457 110.582 134.87 110.491 134.379 110.31C133.899 110.118 133.505 109.873 133.195 109.574C132.886 109.275 132.646 108.966 132.475 108.646C132.315 108.315 132.209 108.006 132.155 107.718C132.102 107.43 132.097 107.206 132.139 107.046Z" fill="white"/>

<defs>
<filter id="filter0_d" x="0" y="0.421875" width="204" height="167" filterUnits="userSpaceOnUse" color-interpolation-filters="sRGB">
<feFlood flood-opacity="0" result="BackgroundImageFix"/>
<feColorMatrix in="SourceAlpha" type="matrix" values="0 0 0 0 0 0 0 0 0 0 0 0 0 0 0 0 0 0 127 0"/>
<feOffset dy="-20"/>
<feGaussianBlur stdDeviation="10"/>
<feColorMatrix type="matrix" values="0 0 0 0 0 0 0 0 0 0 0 0 0 0 0 0 0 0 0.4 0"/>
<feBlend mode="normal" in2="BackgroundImageFix" result="effect1_dropShadow"/>
<feBlend mode="normal" in="SourceGraphic" in2="effect1_dropShadow" result="shape"/>
</filter>
<linearGradient id="paint0_linear" x1="146.356" y1="69.9771" x2="54.6844" y2="141.916" gradientUnits="userSpaceOnUse">
<stop stop-color="#171717"/>
<stop offset="1" stop-color="#222222"/>
</linearGradient>
<linearGradient id="paint1_linear" x1="102.001" y1="165.511" x2="102.001" y2="42.3333" gradientUnits="userSpaceOnUse">
<stop/>
<stop offset="1" stop-color="#484646"/>
</linearGradient>
</defs>
</svg>
