<svg width="372" height="197" viewBox="0 0 372 197" fill="none" xmlns="http://www.w3.org/2000/svg">
<g filter="url(#filter0_d)">
<path d="M229 103.924C229 109.384 226.479 114.36 222.079 117.582L163.045 160.809C154.643 166.96 143.357 166.96 134.955 160.809L75.9215 117.578C71.525 114.357 69 109.38 69 103.92C69 98.4598 71.5214 93.4835 75.9215 90.2621L134.955 47.035C143.357 40.8842 154.643 40.8842 163.045 47.035L222.082 90.2657C226.479 93.4835 229 98.4633 229 103.924Z" fill="url(#paint0_linear)"/>
<path d="M229 103.924C229 109.384 226.479 114.36 222.079 117.582L163.045 160.809C154.643 166.96 143.357 166.96 134.955 160.809L75.9215 117.578C71.525 114.357 69 109.38 69 103.92C69 98.4598 71.5214 93.4835 75.9215 90.2621L134.955 47.035C143.357 40.8842 154.643 40.8842 163.045 47.035L222.082 90.2657C226.479 93.4835 229 98.4633 229 103.924Z" stroke="url(#paint1_linear)" stroke-width="4" stroke-miterlimit="10"/>
</g>
<path d="M123.094 109.654H122.582L127.318 100.022H128.598V110.422H127.318V102.246L127.574 102.31L123.478 110.422H122.198L118.102 102.326L118.358 102.262V110.422H117.078V100.022H118.358L123.094 109.654ZM132.308 107.702V106.502H137.3V107.702H132.308ZM130.196 110.422L134.148 100.022H135.492L139.476 110.422H138.1L134.628 101.014H135.012L131.54 110.422H130.196ZM141.078 110.422V100.022H145.67C146.395 100.022 147.014 100.134 147.526 100.358C148.038 100.571 148.427 100.897 148.694 101.334C148.971 101.771 149.11 102.321 149.11 102.982C149.11 103.43 149.035 103.814 148.886 104.134C148.747 104.454 148.55 104.726 148.294 104.95C148.038 105.163 147.734 105.329 147.382 105.446C147.04 105.563 146.667 105.638 146.262 105.67L146.214 105.59C146.779 105.611 147.264 105.681 147.67 105.798C148.075 105.915 148.39 106.129 148.614 106.438C148.838 106.747 148.95 107.211 148.95 107.83V110.422H147.67V107.83C147.67 107.403 147.595 107.073 147.446 106.838C147.307 106.593 147.067 106.422 146.726 106.326C146.395 106.219 145.936 106.166 145.35 106.166H142.358V110.422H141.078ZM142.358 104.966H145.67C146.395 104.966 146.934 104.785 147.286 104.422C147.648 104.049 147.83 103.569 147.83 102.982C147.83 102.417 147.648 101.985 147.286 101.686C146.934 101.377 146.395 101.222 145.67 101.222H142.358V104.966ZM153.823 105.366V104.534L159.839 110.422H158.095L152.623 104.982L157.439 100.022H159.167L153.823 105.366ZM151.343 100.022H152.623V110.422H151.343V100.022ZM162.717 105.846V109.222H168.813V110.422H161.437V100.022H168.797V101.222H162.717V104.646H167.693V105.846H162.717ZM170.006 100.022H178.326V101.222H170.006V100.022ZM173.526 101.094H174.806V110.422H173.526V101.094ZM179.139 107.046H180.291C180.323 107.494 180.457 107.894 180.691 108.246C180.926 108.598 181.246 108.875 181.651 109.078C182.067 109.281 182.553 109.382 183.107 109.382C183.587 109.382 183.987 109.313 184.307 109.174C184.638 109.025 184.883 108.822 185.043 108.566C185.214 108.31 185.299 108.011 185.299 107.67C185.299 107.318 185.214 107.035 185.043 106.822C184.873 106.609 184.627 106.427 184.307 106.278C183.987 106.129 183.609 105.985 183.171 105.846C182.755 105.718 182.334 105.569 181.907 105.398C181.481 105.227 181.081 105.019 180.707 104.774C180.345 104.529 180.051 104.235 179.827 103.894C179.603 103.542 179.491 103.121 179.491 102.63C179.491 102.15 179.619 101.702 179.875 101.286C180.142 100.859 180.526 100.518 181.027 100.262C181.539 99.9952 182.153 99.8619 182.867 99.8619C183.987 99.8619 184.825 100.166 185.379 100.774C185.934 101.382 186.201 102.187 186.179 103.19H185.027C185.006 102.433 184.793 101.889 184.387 101.558C183.982 101.227 183.454 101.062 182.803 101.062C182.259 101.062 181.785 101.19 181.379 101.446C180.974 101.691 180.771 102.081 180.771 102.614C180.771 102.849 180.814 103.057 180.899 103.238C180.995 103.409 181.145 103.569 181.347 103.718C181.561 103.867 181.843 104.017 182.195 104.166C182.558 104.305 183.001 104.459 183.523 104.63C183.865 104.737 184.211 104.865 184.563 105.014C184.926 105.163 185.257 105.35 185.555 105.574C185.865 105.798 186.11 106.086 186.291 106.438C186.483 106.779 186.579 107.211 186.579 107.734C186.579 108.235 186.457 108.705 186.211 109.142C185.977 109.569 185.603 109.915 185.091 110.182C184.59 110.449 183.939 110.582 183.139 110.582C182.457 110.582 181.87 110.491 181.379 110.31C180.899 110.118 180.505 109.873 180.195 109.574C179.886 109.275 179.646 108.966 179.475 108.646C179.315 108.315 179.209 108.006 179.155 107.718C179.102 107.43 179.097 107.206 179.139 107.046Z" fill="white"/>
<path opacity="0.5" d="M8.87211 105V97.2H11.9441C12.7521 97.2 13.3801 97.384 13.8281 97.752C14.2841 98.12 14.5121 98.632 14.5121 99.288C14.5121 99.696 14.4281 100.028 14.2601 100.284C14.1001 100.54 13.8721 100.732 13.5761 100.86C13.2801 100.988 12.9321 101.072 12.5321 101.112L12.5561 101.04C12.8521 101.056 13.1321 101.096 13.3961 101.16C13.6601 101.216 13.8921 101.308 14.0921 101.436C14.3001 101.564 14.4641 101.74 14.5841 101.964C14.7041 102.188 14.7641 102.476 14.7641 102.828C14.7641 103.3 14.6601 103.692 14.4521 104.004C14.2441 104.316 13.9521 104.556 13.5761 104.724C13.2081 104.884 12.7841 104.976 12.3041 105H8.87211ZM9.83211 104.1H12.0641C12.6081 104.1 13.0321 104 13.3361 103.8C13.6481 103.592 13.8041 103.268 13.8041 102.828C13.8041 102.476 13.7041 102.212 13.5041 102.036C13.3121 101.86 13.0641 101.744 12.7601 101.688C12.4561 101.624 12.1441 101.592 11.8241 101.592H9.83211V104.1ZM9.83211 100.692H11.8241C12.3681 100.692 12.7921 100.576 13.0961 100.344C13.4081 100.104 13.5641 99.764 13.5641 99.324C13.5641 98.892 13.4081 98.58 13.0961 98.388C12.7921 98.196 12.4081 98.1 11.9441 98.1H9.83211V100.692ZM19.7466 105.12C19.0346 105.12 18.3866 104.956 17.8026 104.628C17.2266 104.292 16.7666 103.824 16.4226 103.224C16.0786 102.624 15.9066 101.916 15.9066 101.1C15.9066 100.284 16.0786 99.576 16.4226 98.976C16.7666 98.368 17.2266 97.9 17.8026 97.572C18.3866 97.244 19.0346 97.08 19.7466 97.08C20.4586 97.08 21.1026 97.244 21.6786 97.572C22.2626 97.9 22.7266 98.368 23.0706 98.976C23.4146 99.576 23.5866 100.284 23.5866 101.1C23.5866 101.916 23.4146 102.624 23.0706 103.224C22.7266 103.824 22.2626 104.292 21.6786 104.628C21.1026 104.956 20.4586 105.12 19.7466 105.12ZM19.7466 104.22C20.2906 104.22 20.7786 104.104 21.2106 103.872C21.6426 103.632 21.9866 103.28 22.2426 102.816C22.4986 102.352 22.6266 101.78 22.6266 101.1C22.6266 100.42 22.4986 99.852 22.2426 99.396C21.9866 98.932 21.6426 98.58 21.2106 98.34C20.7786 98.1 20.2906 97.98 19.7466 97.98C19.2106 97.98 18.7226 98.1 18.2826 98.34C17.8506 98.58 17.5066 98.932 17.2506 99.396C16.9946 99.852 16.8666 100.42 16.8666 101.1C16.8666 101.78 16.9946 102.352 17.2506 102.816C17.5066 103.28 17.8506 103.632 18.2826 103.872C18.7226 104.104 19.2106 104.22 19.7466 104.22ZM31.1735 103.86L30.9095 103.944V97.2H31.8695V105H30.9095L25.8455 98.352L26.1095 98.268V105H25.1495V97.2H26.1095L31.1735 103.86ZM36.3182 97.2C37.1022 97.2 37.7582 97.304 38.2862 97.512C38.8222 97.712 39.2502 97.992 39.5702 98.352C39.8902 98.712 40.1222 99.124 40.2662 99.588C40.4102 100.052 40.4822 100.544 40.4822 101.064C40.4822 101.584 40.4062 102.08 40.2542 102.552C40.1022 103.024 39.8582 103.444 39.5222 103.812C39.1942 104.18 38.7662 104.472 38.2382 104.688C37.7102 104.896 37.0702 105 36.3182 105H33.7862V97.2H36.3182ZM34.7462 104.1H36.3182C36.9502 104.1 37.4702 104.012 37.8782 103.836C38.2942 103.66 38.6222 103.428 38.8622 103.14C39.1022 102.844 39.2702 102.516 39.3662 102.156C39.4702 101.796 39.5222 101.432 39.5222 101.064C39.5222 100.696 39.4702 100.336 39.3662 99.984C39.2702 99.632 39.1022 99.316 38.8622 99.036C38.6222 98.748 38.2942 98.52 37.8782 98.352C37.4702 98.184 36.9502 98.1 36.3182 98.1H34.7462V104.1ZM11.657 111.2L8.89695 116.324V119H7.93695V116.324L5.17695 111.2H6.25695L8.63295 115.7H8.24895L10.577 111.2H11.657ZM13.1551 111.2H14.1151V119H13.1551V111.2ZM17.2384 115.568V118.1H21.8104V119H16.2784V111.2H21.7984V112.1H17.2384V114.668H20.9704V115.568H17.2384ZM24.4454 111.2V118.1H28.7654V119H23.4854V111.2H24.4454ZM32.8611 111.2C33.6451 111.2 34.3011 111.304 34.8291 111.512C35.3651 111.712 35.7931 111.992 36.1131 112.352C36.4331 112.712 36.6651 113.124 36.8091 113.588C36.9531 114.052 37.0251 114.544 37.0251 115.064C37.0251 115.584 36.9491 116.08 36.7971 116.552C36.6451 117.024 36.4011 117.444 36.0651 117.812C35.7371 118.18 35.3091 118.472 34.7811 118.688C34.2531 118.896 33.6131 119 32.8611 119H30.3291V111.2H32.8611ZM31.2891 118.1H32.8611C33.4931 118.1 34.0131 118.012 34.4211 117.836C34.8371 117.66 35.1651 117.428 35.4051 117.14C35.6451 116.844 35.8131 116.516 35.9091 116.156C36.0131 115.796 36.0651 115.432 36.0651 115.064C36.0651 114.696 36.0131 114.336 35.9091 113.984C35.8131 113.632 35.6451 113.316 35.4051 113.036C35.1651 112.748 34.8371 112.52 34.4211 112.352C34.0131 112.184 33.4931 112.1 32.8611 112.1H31.2891V118.1ZM38.0629 116.468H38.9269C38.9509 116.804 39.0509 117.104 39.2269 117.368C39.4029 117.632 39.6429 117.84 39.9469 117.992C40.2589 118.144 40.6229 118.22 41.0389 118.22C41.3989 118.22 41.6989 118.168 41.9389 118.064C42.1869 117.952 42.3709 117.8 42.4909 117.608C42.6189 117.416 42.6829 117.192 42.6829 116.936C42.6829 116.672 42.6189 116.46 42.4909 116.3C42.3629 116.14 42.1789 116.004 41.9389 115.892C41.6989 115.78 41.4149 115.672 41.0869 115.568C40.7749 115.472 40.4589 115.36 40.1389 115.232C39.8189 115.104 39.5189 114.948 39.2389 114.764C38.9669 114.58 38.7469 114.36 38.5789 114.104C38.4109 113.84 38.3269 113.524 38.3269 113.156C38.3269 112.796 38.4229 112.46 38.6149 112.148C38.8149 111.828 39.1029 111.572 39.4789 111.38C39.8629 111.18 40.3229 111.08 40.8589 111.08C41.6989 111.08 42.3269 111.308 42.7429 111.764C43.1589 112.22 43.3589 112.824 43.3429 113.576H42.4789C42.4629 113.008 42.3029 112.6 41.9989 112.352C41.6949 112.104 41.2989 111.98 40.8109 111.98C40.4029 111.98 40.0469 112.076 39.7429 112.268C39.4389 112.452 39.2869 112.744 39.2869 113.144C39.2869 113.32 39.3189 113.476 39.3829 113.612C39.4549 113.74 39.5669 113.86 39.7189 113.972C39.8789 114.084 40.0909 114.196 40.3549 114.308C40.6269 114.412 40.9589 114.528 41.3509 114.656C41.6069 114.736 41.8669 114.832 42.1309 114.944C42.4029 115.056 42.6509 115.196 42.8749 115.364C43.1069 115.532 43.2909 115.748 43.4269 116.012C43.5709 116.268 43.6429 116.592 43.6429 116.984C43.6429 117.36 43.5509 117.712 43.3669 118.04C43.1909 118.36 42.9109 118.62 42.5269 118.82C42.1509 119.02 41.6629 119.12 41.0629 119.12C40.5509 119.12 40.1109 119.052 39.7429 118.916C39.3829 118.772 39.0869 118.588 38.8549 118.364C38.6229 118.14 38.4429 117.908 38.3149 117.668C38.1949 117.42 38.1149 117.188 38.0749 116.972C38.0349 116.756 38.0309 116.588 38.0629 116.468Z" fill="white"/>
<path opacity="0.5" d="M110.993 190.424H110.609L114.161 183.2H115.121V191H114.161V184.868L114.353 184.916L111.281 191H110.321L107.249 184.928L107.441 184.88V191H106.481V183.2H107.441L110.993 190.424ZM120.52 191.12C119.808 191.12 119.16 190.956 118.576 190.628C118 190.292 117.54 189.824 117.196 189.224C116.852 188.624 116.68 187.916 116.68 187.1C116.68 186.284 116.852 185.576 117.196 184.976C117.54 184.368 118 183.9 118.576 183.572C119.16 183.244 119.808 183.08 120.52 183.08C121.232 183.08 121.876 183.244 122.452 183.572C123.036 183.9 123.5 184.368 123.844 184.976C124.188 185.576 124.36 186.284 124.36 187.1C124.36 187.916 124.188 188.624 123.844 189.224C123.5 189.824 123.036 190.292 122.452 190.628C121.876 190.956 121.232 191.12 120.52 191.12ZM120.52 190.22C121.064 190.22 121.552 190.104 121.984 189.872C122.416 189.632 122.76 189.28 123.016 188.816C123.272 188.352 123.4 187.78 123.4 187.1C123.4 186.42 123.272 185.852 123.016 185.396C122.76 184.932 122.416 184.58 121.984 184.34C121.552 184.1 121.064 183.98 120.52 183.98C119.984 183.98 119.496 184.1 119.056 184.34C118.624 184.58 118.28 184.932 118.024 185.396C117.768 185.852 117.64 186.42 117.64 187.1C117.64 187.78 117.768 188.352 118.024 188.816C118.28 189.28 118.624 189.632 119.056 189.872C119.496 190.104 119.984 190.22 120.52 190.22ZM131.947 189.86L131.683 189.944V183.2H132.643V191H131.683L126.619 184.352L126.883 184.268V191H125.923V183.2H126.883L131.947 189.86ZM135.52 187.568V190.1H140.092V191H134.56V183.2H140.08V184.1H135.52V186.668H139.252V187.568H135.52ZM147.587 183.2L144.827 188.324V191H143.867V188.324L141.107 183.2H142.187L144.563 187.7H144.179L146.507 183.2H147.587ZM155.876 190.424H155.492L159.044 183.2H160.004V191H159.044V184.868L159.236 184.916L156.164 191H155.204L152.132 184.928L152.324 184.88V191H151.364V183.2H152.324L155.876 190.424ZM162.787 188.96V188.06H166.531V188.96H162.787ZM161.203 191L164.167 183.2H165.175L168.163 191H167.131L164.527 183.944H164.815L162.211 191H161.203ZM169.364 191V183.2H172.808C173.352 183.2 173.816 183.284 174.2 183.452C174.584 183.612 174.876 183.856 175.076 184.184C175.284 184.512 175.388 184.924 175.388 185.42C175.388 185.756 175.332 186.044 175.22 186.284C175.116 186.524 174.968 186.728 174.776 186.896C174.584 187.056 174.356 187.18 174.092 187.268C173.836 187.356 173.556 187.412 173.252 187.436L173.216 187.376C173.64 187.392 174.004 187.444 174.308 187.532C174.612 187.62 174.848 187.78 175.016 188.012C175.184 188.244 175.268 188.592 175.268 189.056V191H174.308V189.056C174.308 188.736 174.252 188.488 174.14 188.312C174.036 188.128 173.856 188 173.6 187.928C173.352 187.848 173.008 187.808 172.568 187.808H170.324V191H169.364ZM170.324 186.908H172.808C173.352 186.908 173.756 186.772 174.02 186.5C174.292 186.22 174.428 185.86 174.428 185.42C174.428 184.996 174.292 184.672 174.02 184.448C173.756 184.216 173.352 184.1 172.808 184.1H170.324V186.908ZM178.924 187.208V186.584L183.436 191H182.128L178.024 186.92L181.636 183.2H182.932L178.924 187.208ZM177.064 183.2H178.024V191H177.064V183.2ZM185.594 187.568V190.1H190.166V191H184.634V183.2H190.154V184.1H185.594V186.668H189.326V187.568H185.594ZM191.061 183.2H197.301V184.1H191.061V183.2ZM193.701 184.004H194.661V191H193.701V184.004Z" fill="white"/>
<path opacity="0.5" d="M255.557 98.468H256.421C256.445 98.804 256.545 99.104 256.721 99.368C256.897 99.632 257.137 99.84 257.441 99.992C257.753 100.144 258.117 100.22 258.533 100.22C258.893 100.22 259.193 100.168 259.433 100.064C259.681 99.952 259.865 99.8 259.985 99.608C260.113 99.416 260.177 99.192 260.177 98.936C260.177 98.672 260.113 98.46 259.985 98.3C259.857 98.14 259.673 98.004 259.433 97.892C259.193 97.78 258.909 97.672 258.581 97.568C258.269 97.472 257.953 97.36 257.633 97.232C257.313 97.104 257.013 96.948 256.733 96.764C256.461 96.58 256.241 96.36 256.073 96.104C255.905 95.84 255.821 95.524 255.821 95.156C255.821 94.796 255.917 94.46 256.109 94.148C256.309 93.828 256.597 93.572 256.973 93.38C257.357 93.18 257.817 93.08 258.353 93.08C259.193 93.08 259.821 93.308 260.237 93.764C260.653 94.22 260.853 94.824 260.837 95.576H259.973C259.957 95.008 259.797 94.6 259.493 94.352C259.189 94.104 258.793 93.98 258.305 93.98C257.897 93.98 257.541 94.076 257.237 94.268C256.933 94.452 256.781 94.744 256.781 95.144C256.781 95.32 256.813 95.476 256.877 95.612C256.949 95.74 257.061 95.86 257.213 95.972C257.373 96.084 257.585 96.196 257.849 96.308C258.121 96.412 258.453 96.528 258.845 96.656C259.101 96.736 259.361 96.832 259.625 96.944C259.897 97.056 260.145 97.196 260.369 97.364C260.601 97.532 260.785 97.748 260.921 98.012C261.065 98.268 261.137 98.592 261.137 98.984C261.137 99.36 261.045 99.712 260.861 100.04C260.685 100.36 260.405 100.62 260.021 100.82C259.645 101.02 259.157 101.12 258.557 101.12C258.045 101.12 257.605 101.052 257.237 100.916C256.877 100.772 256.581 100.588 256.349 100.364C256.117 100.14 255.937 99.908 255.809 99.668C255.689 99.42 255.609 99.188 255.569 98.972C255.529 98.756 255.525 98.588 255.557 98.468ZM261.797 93.2H268.037V94.1H261.797V93.2ZM264.437 94.004H265.397V101H264.437V94.004ZM272.057 101.12C271.345 101.12 270.697 100.956 270.113 100.628C269.537 100.292 269.077 99.824 268.733 99.224C268.389 98.624 268.217 97.916 268.217 97.1C268.217 96.284 268.389 95.576 268.733 94.976C269.077 94.368 269.537 93.9 270.113 93.572C270.697 93.244 271.345 93.08 272.057 93.08C272.769 93.08 273.413 93.244 273.989 93.572C274.573 93.9 275.037 94.368 275.381 94.976C275.725 95.576 275.897 96.284 275.897 97.1C275.897 97.916 275.725 98.624 275.381 99.224C275.037 99.824 274.573 100.292 273.989 100.628C273.413 100.956 272.769 101.12 272.057 101.12ZM272.057 100.22C272.601 100.22 273.089 100.104 273.521 99.872C273.953 99.632 274.297 99.28 274.553 98.816C274.809 98.352 274.937 97.78 274.937 97.1C274.937 96.42 274.809 95.852 274.553 95.396C274.297 94.932 273.953 94.58 273.521 94.34C273.089 94.1 272.601 93.98 272.057 93.98C271.521 93.98 271.033 94.1 270.593 94.34C270.161 94.58 269.817 94.932 269.561 95.396C269.305 95.852 269.177 96.42 269.177 97.1C269.177 97.78 269.305 98.352 269.561 98.816C269.817 99.28 270.161 99.632 270.593 99.872C271.033 100.104 271.521 100.22 272.057 100.22ZM284.168 98.396C284.088 98.956 283.896 99.44 283.592 99.848C283.288 100.256 282.9 100.572 282.428 100.796C281.964 101.012 281.444 101.12 280.868 101.12C280.332 101.12 279.836 101.028 279.38 100.844C278.924 100.652 278.524 100.38 278.18 100.028C277.844 99.676 277.58 99.252 277.388 98.756C277.196 98.26 277.1 97.708 277.1 97.1C277.1 96.484 277.196 95.932 277.388 95.444C277.58 94.948 277.844 94.524 278.18 94.172C278.524 93.82 278.924 93.552 279.38 93.368C279.836 93.176 280.332 93.08 280.868 93.08C281.452 93.08 281.976 93.192 282.44 93.416C282.912 93.632 283.3 93.948 283.604 94.364C283.908 94.772 284.1 95.26 284.18 95.828H283.292C283.18 95.428 283.004 95.092 282.764 94.82C282.532 94.548 282.252 94.34 281.924 94.196C281.596 94.052 281.244 93.98 280.868 93.98C280.38 93.98 279.92 94.1 279.488 94.34C279.064 94.58 278.72 94.932 278.456 95.396C278.192 95.86 278.06 96.428 278.06 97.1C278.06 97.772 278.192 98.34 278.456 98.804C278.72 99.268 279.064 99.62 279.488 99.86C279.92 100.1 280.38 100.22 280.868 100.22C281.244 100.22 281.592 100.152 281.912 100.016C282.24 99.872 282.52 99.664 282.752 99.392C282.992 99.12 283.168 98.788 283.28 98.396H284.168ZM287.605 97.208V96.584L292.117 101H290.809L286.705 96.92L290.317 93.2H291.613L287.605 97.208ZM285.745 93.2H286.705V101H285.745V93.2ZM253.395 107.2H254.355V115H253.395V107.2ZM262.543 113.86L262.279 113.944V107.2H263.239V115H262.279L257.215 108.352L257.479 108.268V115H256.519V107.2H257.479L262.543 113.86ZM267.687 107.2C268.471 107.2 269.127 107.304 269.655 107.512C270.191 107.712 270.619 107.992 270.939 108.352C271.259 108.712 271.491 109.124 271.635 109.588C271.779 110.052 271.851 110.544 271.851 111.064C271.851 111.584 271.775 112.08 271.623 112.552C271.471 113.024 271.227 113.444 270.891 113.812C270.563 114.18 270.135 114.472 269.607 114.688C269.079 114.896 268.439 115 267.687 115H265.155V107.2H267.687ZM266.115 114.1H267.687C268.319 114.1 268.839 114.012 269.247 113.836C269.663 113.66 269.991 113.428 270.231 113.14C270.471 112.844 270.639 112.516 270.735 112.156C270.839 111.796 270.891 111.432 270.891 111.064C270.891 110.696 270.839 110.336 270.735 109.984C270.639 109.632 270.471 109.316 270.231 109.036C269.991 108.748 269.663 108.52 269.247 108.352C268.839 108.184 268.319 108.1 267.687 108.1H266.115V114.1ZM273.657 107.2H274.617V115H273.657V107.2ZM283.488 112.396C283.408 112.956 283.216 113.44 282.912 113.848C282.608 114.256 282.22 114.572 281.748 114.796C281.284 115.012 280.764 115.12 280.188 115.12C279.652 115.12 279.156 115.028 278.7 114.844C278.244 114.652 277.844 114.38 277.5 114.028C277.164 113.676 276.9 113.252 276.708 112.756C276.516 112.26 276.42 111.708 276.42 111.1C276.42 110.484 276.516 109.932 276.708 109.444C276.9 108.948 277.164 108.524 277.5 108.172C277.844 107.82 278.244 107.552 278.7 107.368C279.156 107.176 279.652 107.08 280.188 107.08C280.772 107.08 281.296 107.192 281.76 107.416C282.232 107.632 282.62 107.948 282.924 108.364C283.228 108.772 283.42 109.26 283.5 109.828H282.612C282.5 109.428 282.324 109.092 282.084 108.82C281.852 108.548 281.572 108.34 281.244 108.196C280.916 108.052 280.564 107.98 280.188 107.98C279.7 107.98 279.24 108.1 278.808 108.34C278.384 108.58 278.04 108.932 277.776 109.396C277.512 109.86 277.38 110.428 277.38 111.1C277.38 111.772 277.512 112.34 277.776 112.804C278.04 113.268 278.384 113.62 278.808 113.86C279.24 114.1 279.7 114.22 280.188 114.22C280.564 114.22 280.912 114.152 281.232 114.016C281.56 113.872 281.84 113.664 282.072 113.392C282.312 113.12 282.488 112.788 282.6 112.396H283.488ZM286.025 111.568V114.1H290.597V115H285.065V107.2H290.585V108.1H286.025V110.668H289.757V111.568H286.025ZM291.745 112.468H292.609C292.633 112.804 292.733 113.104 292.909 113.368C293.085 113.632 293.325 113.84 293.629 113.992C293.941 114.144 294.305 114.22 294.721 114.22C295.081 114.22 295.381 114.168 295.621 114.064C295.869 113.952 296.053 113.8 296.173 113.608C296.301 113.416 296.365 113.192 296.365 112.936C296.365 112.672 296.301 112.46 296.173 112.3C296.045 112.14 295.861 112.004 295.621 111.892C295.381 111.78 295.097 111.672 294.769 111.568C294.457 111.472 294.141 111.36 293.821 111.232C293.501 111.104 293.201 110.948 292.921 110.764C292.649 110.58 292.429 110.36 292.261 110.104C292.093 109.84 292.009 109.524 292.009 109.156C292.009 108.796 292.105 108.46 292.297 108.148C292.497 107.828 292.785 107.572 293.161 107.38C293.545 107.18 294.005 107.08 294.541 107.08C295.381 107.08 296.009 107.308 296.425 107.764C296.841 108.22 297.041 108.824 297.025 109.576H296.161C296.145 109.008 295.985 108.6 295.681 108.352C295.377 108.104 294.981 107.98 294.493 107.98C294.085 107.98 293.729 108.076 293.425 108.268C293.121 108.452 292.969 108.744 292.969 109.144C292.969 109.32 293.001 109.476 293.065 109.612C293.137 109.74 293.249 109.86 293.401 109.972C293.561 110.084 293.773 110.196 294.037 110.308C294.309 110.412 294.641 110.528 295.033 110.656C295.289 110.736 295.549 110.832 295.813 110.944C296.085 111.056 296.333 111.196 296.557 111.364C296.789 111.532 296.973 111.748 297.109 112.012C297.253 112.268 297.325 112.592 297.325 112.984C297.325 113.36 297.233 113.712 297.049 114.04C296.873 114.36 296.593 114.62 296.209 114.82C295.833 115.02 295.345 115.12 294.745 115.12C294.233 115.12 293.793 115.052 293.425 114.916C293.065 114.772 292.769 114.588 292.537 114.364C292.305 114.14 292.125 113.908 291.997 113.668C291.877 113.42 291.797 113.188 291.757 112.972C291.717 112.756 291.713 112.588 291.745 112.468Z" fill="white"/>
<path d="M150 177L143.938 170.25L156.062 170.25L150 177Z" fill="white" fill-opacity="0.5"/>
<path d="M52 102.422L58 96.3597L58 108.484L52 102.422Z" fill="white" fill-opacity="0.5"/>
<path d="M245 102L239 108.062L239 95.9378L245 102Z" fill="white" fill-opacity="0.5"/>
<defs>
<filter id="filter0_d" x="47" y="0.421875" width="204" height="167" filterUnits="userSpaceOnUse" color-interpolation-filters="sRGB">
<feFlood flood-opacity="0" result="BackgroundImageFix"/>
<feColorMatrix in="SourceAlpha" type="matrix" values="0 0 0 0 0 0 0 0 0 0 0 0 0 0 0 0 0 0 127 0"/>
<feOffset dy="-20"/>
<feGaussianBlur stdDeviation="10"/>
<feColorMatrix type="matrix" values="0 0 0 0 0 0 0 0 0 0 0 0 0 0 0 0 0 0 0.4 0"/>
<feBlend mode="normal" in2="BackgroundImageFix" result="effect1_dropShadow"/>
<feBlend mode="normal" in="SourceGraphic" in2="effect1_dropShadow" result="shape"/>
</filter>
<linearGradient id="paint0_linear" x1="193.356" y1="69.9771" x2="101.684" y2="141.916" gradientUnits="userSpaceOnUse">
<stop stop-color="#171717"/>
<stop offset="1" stop-color="#222222"/>
</linearGradient>
<linearGradient id="paint1_linear" x1="149.001" y1="165.511" x2="149.001" y2="42.3333" gradientUnits="userSpaceOnUse">
<stop/>
<stop offset="1" stop-color="#484646"/>
</linearGradient>
</defs>
</svg>
