<svg width="44" height="44" viewBox="0 0 44 44" fill="none" xmlns="http://www.w3.org/2000/svg">
<g clip-path="url(#clip0)">
<ellipse rx="22" ry="22" transform="matrix(1 0 0 -1 22 22.0001)" fill="#2A2827"/>
<mask id="mask0" mask-type="alpha" maskUnits="userSpaceOnUse" x="10" y="19" width="24" height="12">
<rect x="10.084" y="19.7086" width="23.8333" height="11" fill="#C4C4C4"/>
</mask>
<g mask="url(#mask0)">
<path d="M11.4599 31.373L19.3547 23.1353C20.7981 21.6291 23.2057 21.6291 24.6492 23.1353L32.5439 31.373" stroke="white" stroke-width="1.54458"/>
<path d="M11.4599 31.373L19.3547 23.1353C20.7981 21.6291 23.2057 21.6291 24.6492 23.1353L32.5439 31.373" stroke="url(#paint0_linear)" stroke-width="1.54458"/>
</g>
<g filter="url(#filter0_d)">
<mask id="mask1" mask-type="alpha" maskUnits="userSpaceOnUse" x="10" y="13" width="24" height="12">
<rect width="23.8333" height="11" transform="matrix(1 0 0 -1 10.084 24.2922)" fill="#C4C4C4"/>
</mask>
<g mask="url(#mask1)">
<path d="M11.4584 12.6278L19.3532 20.8656C20.7967 22.3717 23.2042 22.3717 24.6477 20.8656L32.5425 12.6278" stroke="white" stroke-width="1.54458"/>
<path d="M11.4584 12.6278L19.3532 20.8656C20.7967 22.3717 23.2042 22.3717 24.6477 20.8656L32.5425 12.6278" stroke="url(#paint1_linear)" stroke-width="1.54458"/>
</g>
</g>
</g>
<defs>
<filter id="filter0_d" x="9.06755" y="12.3756" width="25.8659" height="13.142" filterUnits="userSpaceOnUse" color-interpolation-filters="sRGB">
<feFlood flood-opacity="0" result="BackgroundImageFix"/>
<feColorMatrix in="SourceAlpha" type="matrix" values="0 0 0 0 0 0 0 0 0 0 0 0 0 0 0 0 0 0 127 0"/>
<feOffset dy="0.916667"/>
<feGaussianBlur stdDeviation="0.916667"/>
<feColorMatrix type="matrix" values="0 0 0 0 0 0 0 0 0 0 0 0 0 0 0 0 0 0 0.7 0"/>
<feBlend mode="normal" in2="BackgroundImageFix" result="effect1_dropShadow"/>
<feBlend mode="normal" in="SourceGraphic" in2="effect1_dropShadow" result="shape"/>
</filter>
<linearGradient id="paint0_linear" x1="29.1652" y1="30.3738" x2="23.9107" y2="19.2157" gradientUnits="userSpaceOnUse">
<stop stop-color="#FF8506"/>
<stop offset="0.5805" stop-color="#FD3947"/>
<stop offset="1" stop-color="#FB0078"/>
</linearGradient>
<linearGradient id="paint1_linear" x1="29.1637" y1="13.627" x2="23.9092" y2="24.7852" gradientUnits="userSpaceOnUse">
<stop stop-color="#FF8506"/>
<stop offset="0.5805" stop-color="#FD3947"/>
<stop offset="1" stop-color="#FB0078"/>
</linearGradient>
<clipPath id="clip0">
<rect width="44" height="44" fill="white" transform="matrix(1 0 0 -1 0 44)"/>
</clipPath>
</defs>
</svg>
