<svg width="530" height="378" viewBox="0 0 530 378" fill="none" xmlns="http://www.w3.org/2000/svg">
<g opacity="0.88">
<path d="M78.3521 58.8302L88.8029 61.6304L81.1524 69.281L78.3521 58.8302Z" fill="white"/>
<path d="M247.466 73.6065L248.095 81.3575L241.068 78.0271L247.466 73.6065Z" fill="white"/>
<path d="M181.586 308.702L190.934 310.418L184.774 317.655L181.586 308.702Z" fill="white"/>
<path d="M517.784 17.4106L517.905 25.1862L511.111 21.4027L517.784 17.4106Z" fill="white"/>
<path d="M344.213 354.346L344.398 366.316L333.939 360.491L344.213 354.346Z" fill="white"/>
<path d="M281.544 223.78L286.361 236.432L272.996 234.278L281.544 223.78Z" fill="white"/>
<path d="M19.7431 281.559L11.3784 294.362L4.47322 280.716L19.7431 281.559Z" fill="white"/>
<path d="M391.014 41.5988L380.009 58.4437L370.924 40.4901L391.014 41.5988Z" fill="white"/>
<path d="M220.998 320.851L236.93 320.286L229.453 334.366L220.998 320.851Z" fill="white"/>
<path d="M345.404 102.478L355.009 107.637L345.739 113.376L345.404 102.478Z" fill="white"/>
<path d="M110.642 343.262L97.9119 359.384L90.3145 340.299L110.642 343.262Z" fill="white"/>
<path d="M417.317 142.908L400.365 147.703L404.689 130.625L417.317 142.908Z" fill="white"/>
<path d="M153.771 242.013L149.994 252.871L142.48 244.171L153.771 242.013Z" fill="white"/>
<path d="M512.523 273.195L501.015 276.55L503.863 264.906L512.523 273.195Z" fill="white"/>
<path d="M131.65 24.0613L134.32 37.5152L121.334 33.1002L131.65 24.0613Z" fill="white"/>
<path d="M197.797 12.534L185.821 13.0518L191.361 2.42142L197.797 12.534Z" fill="white"/>
<path d="M134.837 182.467L142.349 184.48L136.85 189.979L134.837 182.467Z" fill="white"/>
<path d="M37.1818 361.569L46.1736 354.632L47.6847 365.888L37.1818 361.569Z" fill="white"/>
<path d="M14.9417 46.1889L13.3413 54.6516L6.81259 49.0342L14.9417 46.1889Z" fill="white"/>
<path d="M99.4012 145.981L112.419 153.77L99.1645 161.15L99.4012 145.981Z" fill="white"/>
<path d="M291.738 131.873L305.118 133.712L296.836 144.38L291.738 131.873Z" fill="white"/>
<path d="M468.731 236.128L475.434 250.192L459.903 248.965L468.731 236.128Z" fill="white"/>
<path d="M516.365 356.383L527.266 370.082L509.951 372.672L516.365 356.383Z" fill="white"/>
<circle cx="127.532" cy="104.107" r="4.1608" fill="white"/>
<circle cx="201.321" cy="134.95" r="2.98956" fill="white"/>
<circle cx="398.029" cy="338.685" r="5.2706" fill="white"/>
<circle cx="521.595" cy="128.056" r="3.90415" fill="white"/>
<circle cx="46.6554" cy="106.779" r="2.5377" fill="white"/>
<circle cx="406.618" cy="268.41" r="3.31853" fill="white"/>
<circle cx="268.606" cy="350.202" r="2.7329" fill="white"/>
<circle cx="369.904" cy="210.65" r="2.14728" fill="white"/>
<circle cx="497.18" cy="119.683" r="2.14728" fill="white"/>
<circle cx="145.025" cy="178.636" r="2.14728" fill="white"/>
<circle cx="78.2792" cy="284.417" r="2.92811" fill="white"/>
<circle cx="290.469" cy="41.7744" r="3.51373" fill="white"/>
<circle cx="412.669" cy="211.995" r="2.34249" fill="white"/>
<circle cx="19.9115" cy="163.974" r="3.90415" fill="white"/>
<path fill-rule="evenodd" clip-rule="evenodd" d="M175.723 48.3313L182.28 41.7745L184.739 44.2333L178.182 50.7902L185.149 57.7569L182.69 60.2157L182.69 60.2157L176.133 66.7726L173.674 64.3138L180.231 57.7569L173.264 50.7902L175.723 48.3314L175.723 48.3313Z" fill="white"/>
<path fill-rule="evenodd" clip-rule="evenodd" d="M213.629 242.586L220.389 248.933L218.008 251.468L211.248 245.121L213.629 242.586ZM197.59 241.041L204.35 247.388L201.969 249.923L195.209 243.576L197.59 241.041ZM213.629 242.586L211.094 240.206L201.969 249.923L204.504 252.303L213.629 242.586Z" fill="white"/>
<path fill-rule="evenodd" clip-rule="evenodd" d="M474.917 340.964L476.652 337.951L468.114 333.034L472.742 324.999L469.728 323.263L465.101 331.299L465.101 331.299L463.366 334.312L474.917 340.964ZM474.917 340.964L470.289 349L467.276 347.265L471.903 339.229L474.917 340.964Z" fill="white"/>
<path fill-rule="evenodd" clip-rule="evenodd" d="M238.495 160.711L240.234 163.722L251.778 157.057L250.039 154.046L241.507 158.972L236.871 150.941L233.859 152.68L238.496 160.711L238.495 160.711ZM253.403 166.826L248.767 158.796L251.778 157.057L256.414 165.088L253.403 166.826Z" fill="white"/>
<path fill-rule="evenodd" clip-rule="evenodd" d="M487.8 21.8584L489.538 24.8698L501.082 18.205L499.344 15.1935L487.8 21.8584ZM487.8 21.8583L483.163 13.8278L486.175 12.0892L490.811 20.1197L487.8 21.8583ZM502.707 27.9742L498.071 19.9437L501.082 18.205L505.719 26.2356L502.707 27.9742Z" fill="white"/>
<path fill-rule="evenodd" clip-rule="evenodd" d="M323.54 300.71L332.693 302.195L332.136 305.627L322.983 304.142L323.54 300.71ZM309.376 308.392L318.529 309.878L317.972 313.31L308.819 311.825L309.376 308.392ZM323.54 300.71L320.108 300.153L317.972 313.31L321.405 313.867L323.54 300.71Z" fill="white"/>
<path fill-rule="evenodd" clip-rule="evenodd" d="M47.8816 240.455L39.851 245.092L38.1124 242.08L46.1427 237.444L41.2165 228.912L44.2279 227.173L44.2279 227.173L52.2584 222.536L53.9971 225.548L45.9666 230.184L50.8928 238.717L47.8815 240.455L47.8816 240.455Z" fill="white"/>
<path fill-rule="evenodd" clip-rule="evenodd" d="M57.3504 28.8266L49.2221 24.3638L50.8957 21.3157L59.024 25.7785L57.3504 28.8266ZM66.8139 18.8158L66.8139 18.8158L63.7658 17.1422L57.3505 28.8266L60.3986 30.5002L65.1403 21.8639L73.2686 26.3267L74.9421 23.2786L66.8139 18.8158Z" fill="white"/>
<path fill-rule="evenodd" clip-rule="evenodd" d="M346.355 202.379L337.661 205.605L336.452 202.345L345.146 199.119L346.355 202.379ZM344.979 188.673L344.979 188.672L341.719 189.882L346.355 202.379L349.615 201.17L346.188 191.933L354.882 188.707L353.673 185.447L344.979 188.673Z" fill="white"/>
<path fill-rule="evenodd" clip-rule="evenodd" d="M341.551 27.4275L344.92 28.2889L348.222 15.3747L344.853 14.5133L342.412 24.0585L333.429 21.7614L332.567 25.1304L341.551 27.4274L341.551 27.4275ZM356.344 21.0407L347.361 18.7436L348.222 15.3747L357.206 17.6718L356.344 21.0407Z" fill="white"/>
<path fill-rule="evenodd" clip-rule="evenodd" d="M509.187 203.379L504.417 195.427L507.399 193.638L512.169 201.59L509.187 203.379ZM522.406 199.504L522.406 199.504L520.618 196.522L509.187 203.379L510.976 206.361L519.424 201.293L524.194 209.245L527.176 207.456L522.406 199.504Z" fill="white"/>
</g>
</svg>
