<svg width="262" height="272" viewBox="0 0 262 272" fill="none" xmlns="http://www.w3.org/2000/svg">
<mask id="mask0" mask-type="alpha" maskUnits="userSpaceOnUse" x="0" y="0" width="262" height="272">
<rect width="262" height="272" transform="matrix(1 0 0 -1 0 272)" fill="url(#paint0_radial)"/>
</mask>
<g mask="url(#mask0)">
<g opacity="0.9">
<path opacity="0.3" d="M95.7739 -93.3798C98.3017 -91.9353 100.308 -88.4044 100.308 -85.5154V-7.99496L123.299 5.28624V85.2543C123.299 88.1432 121.253 89.3068 118.765 87.8624C116.237 86.4179 114.231 82.8869 114.231 79.998V10.5024L91.1997 -2.73865V-90.7717C91.1997 -93.6607 93.2461 -94.8243 95.7739 -93.3798Z" fill="url(#paint1_linear)"/>
<path opacity="0.3" d="M108.294 243.345C110.822 244.789 112.828 243.626 112.828 240.737V182.636L135.819 195.918V157.88C135.819 154.991 133.773 151.46 131.285 150.015C128.757 148.571 126.751 149.734 126.751 152.623V180.189L103.76 166.908V235.48C103.76 238.369 105.806 241.9 108.294 243.345Z" fill="url(#paint2_linear)"/>
<path opacity="0.3" d="M143.643 -36.4833C146.171 -35.0388 148.177 -31.5079 148.177 -28.6189V103.27C148.177 106.159 146.131 107.323 143.643 105.878C141.115 104.434 139.109 100.903 139.109 98.0139V-33.8752C139.109 -36.7642 141.155 -37.9278 143.643 -36.4833Z" fill="url(#paint3_linear)"/>
<path d="M117.883 236.724C117.883 244.669 113.229 248.441 107.491 245.11C101.753 241.82 97.0986 232.672 97.0986 224.727C97.0986 216.782 101.753 213.011 107.491 216.341C113.229 219.631 117.883 228.78 117.883 236.724Z" fill="#FFA981"/>
<path opacity="0.3" d="M194.24 29.6417C191.712 28.1972 189.706 29.3608 189.706 32.2498V71.4112L166.715 58.1301V106.239C166.715 109.128 168.761 112.659 171.249 114.104C173.777 115.548 175.783 114.385 175.783 111.496V73.8588L198.774 87.14V37.5061C198.774 34.6171 196.728 31.0862 194.24 29.6417Z" fill="url(#paint4_linear)"/>
<path d="M204.431 43.4846C204.431 51.349 199.817 55.0405 194.16 51.7904C188.502 48.5002 183.888 39.5123 183.888 31.6479C183.888 23.7835 188.462 20.0921 194.16 23.3422C199.857 26.6324 204.431 35.6202 204.431 43.4846Z" fill="#F7653B"/>
<path opacity="0.3" d="M238.217 243.786C238.217 240.897 236.17 237.366 233.683 235.922L197.972 215.298V185.405L162.502 164.942C159.974 163.497 157.968 164.661 157.968 167.55C157.968 170.439 160.014 173.969 162.502 175.414L188.904 190.661V220.554L233.723 246.394C236.21 247.839 238.217 246.675 238.217 243.786Z" fill="url(#paint5_linear)"/>
<path opacity="0.3" d="M152.029 287.281C149.501 285.836 147.495 282.305 147.495 279.417V184.322C147.495 181.433 149.541 180.269 152.029 181.713C154.557 183.158 156.563 186.689 156.563 189.578V284.673C156.563 287.562 154.517 288.725 152.029 287.281Z" fill="url(#paint6_linear)"/>
<path d="M243.753 247.236C243.753 255.181 239.098 258.953 233.361 255.622C227.623 252.332 222.968 243.184 222.968 235.239C222.968 227.295 227.623 223.523 233.361 226.853C239.098 230.143 243.753 239.292 243.753 247.236Z" fill="#F7653B"/>
<path opacity="0.3" d="M21.5039 87.6216L86.8265 125.339V246.354L21.5039 208.637V87.6216Z" fill="url(#paint7_linear)"/>
<path opacity="0.15" d="M31.856 164.58L70.7767 187.05V191.825L31.856 169.355V164.58Z" fill="white"/>
<path opacity="0.15" d="M35.9092 176.336L66.7649 194.152V198.926L35.9092 181.111V176.336Z" fill="white"/>
<path d="M46.4209 197.883L1 171.642V185.164L46.461 211.405L46.4209 197.883Z" fill="#FFA981"/>
<path opacity="0.2" d="M68.3292 137.416L58.1777 145.441L51.3565 136.694L42.4489 144.398L38.918 141.83L52.0387 130.795L58.6993 139.543L66.0421 134.086L68.3292 137.416Z" fill="white"/>
<path d="M75.9523 137.215C75.9523 141.749 73.3041 143.876 70.0541 141.99C66.804 140.104 64.1558 134.928 64.1558 130.394C64.1558 125.86 66.804 123.733 70.0541 125.619C73.3041 127.505 75.9523 132.721 75.9523 137.215Z" fill="#FFA981"/>
<path d="M45.5383 145.962C45.5383 150.496 42.8901 152.623 39.64 150.737C36.3899 148.851 33.7417 143.675 33.7417 139.141C33.7417 134.607 36.3899 132.481 39.64 134.366C42.8901 136.252 45.5383 141.428 45.5383 145.962Z" fill="#FFA981"/>
<path opacity="0.2" d="M246 166.747L183.888 130.875V163.216L246 199.087V166.747Z" fill="url(#paint8_linear)"/>
<path opacity="0.15" d="M199.777 147.888L218.475 158.682V162.574L199.777 151.74V147.888Z" fill="white"/>
<path opacity="0.15" d="M199.817 155.672L239.621 178.624V182.556L199.817 159.605V155.672Z" fill="white"/>
<path d="M196.527 149.012C196.527 151.66 194.962 152.944 192.996 151.82C191.03 150.697 189.465 147.607 189.465 144.959C189.465 142.311 191.03 141.027 192.996 142.15C194.962 143.274 196.527 146.363 196.527 149.012Z" fill="#F7653B"/>
<path opacity="0.2" d="M86.6263 67.8405L24.5137 31.9692V64.3095L86.6263 100.181V67.8405Z" fill="url(#paint9_linear)"/>
<path opacity="0.15" d="M40.4019 48.9819L59.0998 59.7754V63.6675L40.4019 52.874V48.9819Z" fill="white"/>
<path opacity="0.15" d="M40.4424 56.7656L80.2458 79.7168V83.649L40.4424 60.6978V56.7656Z" fill="white"/>
<path d="M37.1522 50.1048C37.1522 52.753 35.5874 54.037 33.6213 52.9135C31.6552 51.79 30.0903 48.7005 30.0903 46.0522C30.0903 43.404 31.6552 42.12 33.6213 43.2435C35.5473 44.367 37.1522 47.4566 37.1522 50.1048Z" fill="#F7653B"/>
<circle opacity="0.2" r="38.3136" transform="matrix(0.866025 0.5 -2.20305e-08 1 143.503 123.876)" fill="url(#paint10_linear)"/>
<circle opacity="0.4" r="38.3136" transform="matrix(0.866025 0.5 -2.20305e-08 1 133.286 132.049)" fill="#FF7F57"/>
<path opacity="0.4" fill-rule="evenodd" clip-rule="evenodd" d="M166.466 151.207C166.466 172.367 151.611 180.944 133.286 170.364C114.96 159.784 100.105 134.054 100.105 112.894C100.105 91.7336 114.96 83.1568 133.286 93.7368C151.611 104.317 166.466 130.047 166.466 151.207ZM135.897 124.593L135.149 122.98C134.737 122.09 134.1 121.349 133.401 120.945C132.701 120.541 132.064 120.548 131.652 120.961L130.99 121.625C131.023 121.585 131.058 121.546 131.096 121.506L130.189 122.414L130.194 122.423L130.056 122.562L126.119 126.512C125.331 127.302 125.331 128.974 126.12 130.677L126.445 131.372L126.446 131.371L129.302 137.563C129.714 138.453 130.351 139.194 131.05 139.598C131.505 139.86 131.933 139.949 132.29 139.866L132.358 140.009L132.571 139.801L132.575 139.807L132.903 139.479L133.408 138.987L133.403 138.977L133.408 138.973L134.016 140.284C134.017 140.286 134.018 140.289 134.019 140.291L134.023 140.299L134.192 140.663L134.208 140.659C134.613 141.379 135.166 141.973 135.764 142.318C136.462 142.721 137.099 142.715 137.513 142.301L139.678 140.107L139.68 140.11L140.039 139.741L140.45 139.326L140.447 139.322L140.682 139.079C141.471 138.292 141.471 136.62 140.682 134.921L139.076 131.454L139.077 131.454L136.621 126.133L136.626 126.13L135.718 124.174C135.786 124.323 135.846 124.463 135.897 124.593ZM128.597 126.188L128.589 126.177L127.002 127.768C126.497 128.275 126.497 129.349 127.002 130.44L127.248 130.965L127.249 130.965L130.187 137.332C130.39 137.769 130.705 138.137 131.051 138.336C131.338 138.502 131.605 138.528 131.804 138.415L132.718 137.499L132.726 137.518L132.731 137.513L130.82 133.389C130.032 131.689 130.032 130.017 130.82 129.227L132.269 127.773L132.728 127.307L132.73 127.311L132.731 127.31L131.058 123.699L131.054 123.703L131.056 123.709L130.955 123.817L130.953 123.813L128.597 126.188ZM137.84 130.926L135.751 126.419L134.086 128.091L135.997 132.215C136.785 133.915 136.785 135.587 135.997 136.377L134.086 138.294L134.906 140.066C135.111 140.499 135.423 140.86 135.764 141.057C136.11 141.257 136.425 141.254 136.629 141.05L139.156 138.491L139.798 137.831C140.306 137.321 140.306 136.247 139.8 135.156L138.218 131.742L138.217 131.742L137.84 130.926ZM132.536 122.216C132.74 122.011 133.055 122.008 133.401 122.208C133.747 122.408 134.062 122.775 134.266 123.214L134.78 124.325C134.872 124.554 134.99 124.97 134.787 125.245L133.408 126.629L132.047 123.692C131.796 123.105 131.96 122.807 132.053 122.699L132.096 122.656L132.101 122.652L132.104 122.65L132.103 122.649L132.536 122.216ZM133.408 128.77L135.114 132.45C135.619 133.541 135.619 134.615 135.114 135.122L133.408 136.833L131.702 133.152C131.196 132.061 131.196 130.988 131.702 130.48L131.823 130.359L131.832 130.371L133.186 128.992L133.408 128.77ZM122.14 138.297C125.148 143.507 129.147 147.729 133.401 150.185C137.655 152.641 141.655 153.038 144.663 151.3C147.671 149.564 149.328 145.902 149.328 140.99C149.328 136.078 147.671 130.503 144.663 125.293C141.655 120.083 137.656 115.861 133.401 113.404C129.147 110.948 125.147 110.552 122.139 112.288C119.131 114.025 117.474 117.688 117.474 122.6C117.474 127.512 119.131 133.087 122.14 138.297ZM122.904 113.614C125.708 111.995 129.436 112.365 133.401 114.654C137.366 116.943 141.094 120.878 143.898 125.735C146.702 130.592 148.246 135.787 148.246 140.366C148.246 144.945 146.702 148.358 143.898 149.977C141.095 151.595 137.367 151.226 133.401 148.937C129.436 146.647 125.708 142.712 122.904 137.856C120.101 133 118.556 127.804 118.556 123.225C118.556 118.646 120.101 115.233 122.904 113.614Z" fill="white"/>
</g>
</g>
<defs>
<radialGradient id="paint0_radial" cx="0" cy="0" r="1" gradientUnits="userSpaceOnUse" gradientTransform="translate(131 136) rotate(90) scale(136 224.423)">
<stop offset="0.362122" stop-color="white"/>
<stop offset="1" stop-color="white" stop-opacity="0"/>
</radialGradient>
<linearGradient id="paint1_linear" x1="141.343" y1="-61.8246" x2="75.5031" y2="52.2428" gradientUnits="userSpaceOnUse">
<stop stop-color="white"/>
<stop offset="1" stop-color="white" stop-opacity="0"/>
</linearGradient>
<linearGradient id="paint2_linear" x1="93.7207" y1="229.691" x2="135.34" y2="157.586" gradientUnits="userSpaceOnUse">
<stop stop-color="white"/>
<stop offset="1" stop-color="white" stop-opacity="0"/>
</linearGradient>
<linearGradient id="paint3_linear" x1="172.197" y1="-14.7729" x2="115.089" y2="84.1672" gradientUnits="userSpaceOnUse">
<stop stop-color="white"/>
<stop offset="1" stop-color="white" stop-opacity="0"/>
</linearGradient>
<linearGradient id="paint4_linear" x1="218.578" y1="10.5541" x2="164.177" y2="104.804" gradientUnits="userSpaceOnUse">
<stop stop-color="white"/>
<stop offset="1" stop-color="white" stop-opacity="0"/>
</linearGradient>
<linearGradient id="paint5_linear" x1="253.184" y1="205.674" x2="162.499" y2="205.664" gradientUnits="userSpaceOnUse">
<stop stop-color="white"/>
<stop offset="1" stop-color="white" stop-opacity="0"/>
</linearGradient>
<linearGradient id="paint6_linear" x1="131.429" y1="270.138" x2="172.673" y2="198.782" gradientUnits="userSpaceOnUse">
<stop stop-color="white"/>
<stop offset="1" stop-color="white" stop-opacity="0"/>
</linearGradient>
<linearGradient id="paint7_linear" x1="93.8214" y1="98.2834" x2="35.8301" y2="198.753" gradientUnits="userSpaceOnUse">
<stop stop-color="white"/>
<stop offset="1" stop-color="white" stop-opacity="0"/>
</linearGradient>
<linearGradient id="paint8_linear" x1="221.949" y1="152.845" x2="207.939" y2="177.118" gradientUnits="userSpaceOnUse">
<stop stop-color="white"/>
<stop offset="1" stop-color="white" stop-opacity="0"/>
</linearGradient>
<linearGradient id="paint9_linear" x1="62.5752" y1="53.9385" x2="48.5648" y2="78.2115" gradientUnits="userSpaceOnUse">
<stop stop-color="white"/>
<stop offset="1" stop-color="white" stop-opacity="0"/>
</linearGradient>
<linearGradient id="paint10_linear" x1="46.0105" y1="9.13995" x2="38.2039" y2="75.9306" gradientUnits="userSpaceOnUse">
<stop stop-color="white"/>
<stop offset="1" stop-color="white" stop-opacity="0"/>
</linearGradient>
</defs>
</svg>
