<svg width="20" height="20" viewBox="0 0 20 20" fill="none" xmlns="http://www.w3.org/2000/svg">
<path d="M10 20C15.5228 20 20 15.5228 20 10C20 4.47715 15.5228 0 10 0C4.47715 0 0 4.47715 0 10C0 15.5228 4.47715 20 10 20Z" fill="#627EEA"/>
<path d="M10.0541 4.34782V8.5266L13.5861 10.1048L10.0541 4.34782Z" fill="white" fill-opacity="0.602"/>
<path d="M10.0541 4.34782L6.52173 10.1048L10.0541 8.5266V4.34782Z" fill="white"/>
<path d="M10.0541 12.8128V15.6522L13.5884 10.7625L10.0541 12.8128Z" fill="white" fill-opacity="0.602"/>
<path d="M10.0541 15.6522V12.8123L6.52167 10.7625L10.0541 15.6522Z" fill="white"/>
<path d="M10.0541 12.1555L13.5861 10.1048L10.0541 8.52749V12.1555Z" fill="white" fill-opacity="0.2"/>
<path d="M6.52167 10.1048L10.0541 12.1555V8.52749L6.52167 10.1048Z" fill="white" fill-opacity="0.602"/>
</svg>
