<svg width="88" height="104" viewBox="0 0 88 104" fill="none" xmlns="http://www.w3.org/2000/svg">
<path d="M87.9997 1V74.3331L58.6665 103.666H43.3888H29.3332L0 74.3331V1H87.9997Z" fill="#FFBB33"/>
<path d="M87.9998 1V74.3331L58.6666 103.666H44L44 1H87.9998Z" fill="#FEEF7E"/>
<path d="M22.0005 96.3333H66.0004L58.667 103.667H43.3893H29.3338L22.0005 96.3333Z" fill="#DD5F00"/>
<path d="M44 103.667V96.3333H65.9998L58.6666 103.667H44Z" fill="#FFBB33"/>
<path d="M36.6669 81.6662L14.667 59.6663H73.3335L51.3335 81.6662H36.6669Z" fill="white"/>
<path d="M36.6669 81.6662L14.667 59.6663H44.0002V81.6662H36.6669Z" fill="#FEEF7E"/>
<path d="M22.0003 37.666L14.667 44.9993H35.4447L29.3336 37.666H22.0003Z" fill="#DD5F00"/>
<path d="M65.9997 37.666L73.333 44.9993H51.3331L58.6664 37.666H65.9997Z" fill="#FFBB33"/>
<path d="M65.9998 23L58.6665 30.3333H73.3331L65.9998 23Z" fill="#DD5F00"/>
<path d="M22.0003 23L14.667 30.3333H29.3336L22.0003 23Z" fill="#DD5F00"/>
<rect y="1" width="43.9999" height="6.11109" fill="#DD5F00"/>
<rect x="44" y="1" width="43.9999" height="6.11109" fill="#FFBB33"/>
</svg>
