<svg width="20" height="20" viewBox="0 0 20 20" fill="none" xmlns="http://www.w3.org/2000/svg">
<circle cx="10" cy="10" r="10" fill="#2A2827"/>
<path d="M17.1136 9.01599L13.9304 4.88091C13.6934 4.5727 13.3268 4.39608 12.9247 4.39608C12.5226 4.39608 12.1562 4.5727 11.919 4.88091L11.573 5.33066L11.2268 4.88091C10.9896 4.5727 10.6232 4.39608 10.2211 4.39608C9.81907 4.39608 9.45266 4.5727 9.21546 4.88091L8.87342 5.32519L8.53138 4.88066C8.29418 4.5727 7.9275 4.39608 7.52544 4.39608C7.12337 4.39608 6.75696 4.5727 6.51976 4.88091L3.33681 9.01599C2.8839 9.60455 2.8839 10.3951 3.33681 10.9837L6.51976 15.119C6.75696 15.4269 7.12337 15.6038 7.52544 15.6038C7.9275 15.6038 8.29391 15.4272 8.53111 15.119L10.2251 12.9182L10.5747 13.3725H10.5744C10.5758 13.374 10.5771 13.3755 10.5784 13.3772L11.919 15.119C12.1562 15.4269 12.5226 15.6038 12.9247 15.6038C13.3268 15.6038 13.6932 15.4272 13.9304 15.119L17.1133 10.9839C17.5665 10.3953 17.5665 9.60455 17.1136 9.01599ZM9.72341 5.2329C9.84083 5.08041 10.0222 4.9931 10.2211 4.9931C10.4201 4.9931 10.6014 5.08066 10.7189 5.2329L11.1836 5.83663L10.2253 7.08166L9.2629 5.83141L9.72341 5.2329ZM8.02316 14.7667C7.90574 14.9192 7.72437 15.0065 7.52544 15.0065C7.3265 15.0065 7.14513 14.919 7.02771 14.7667L3.84476 10.6314C3.55383 10.2536 3.55383 9.74584 3.84476 9.36798L7.02771 5.2329C7.14513 5.08041 7.3265 4.9931 7.52544 4.9931C7.72437 4.9931 7.90574 5.08066 8.02316 5.2329L8.48367 5.83116L6.03225 9.01599C5.57934 9.60455 5.57934 10.3951 6.0333 10.9849L6.21992 11.225L6.22018 11.2247L7.86328 13.3725C8.07244 13.6444 8.38277 13.8138 8.729 13.8498L8.02316 14.7667ZM9.36748 13.0205L9.36695 13.0202C9.24953 13.1727 9.06816 13.26 8.86922 13.26C8.67029 13.26 8.48892 13.1725 8.37202 13.0207L6.68252 10.8123L6.68174 10.8128L6.54046 10.6312C6.24953 10.2533 6.24953 9.74559 6.54046 9.36773L8.87342 6.33738L9.83585 7.58763L8.73634 9.01599C8.28343 9.60455 8.28343 10.3951 8.73634 10.9837L9.83585 12.412L9.36748 13.0205ZM10.2251 8.0936L11.2061 9.36823C11.497 9.74609 11.497 10.2538 11.2061 10.6317L10.2251 11.9063L9.24403 10.6317C8.9531 10.2538 8.9531 9.74609 9.24403 9.36823L10.2251 8.0936ZM11.7143 10.9837C12.1672 10.3951 12.1672 9.60455 11.7143 9.01599L10.6148 7.58763L11.573 6.3426L13.9021 9.36823C14.193 9.74609 14.193 10.2538 13.9008 10.6334L13.5278 11.1254L12.0781 13.0202C11.9607 13.1727 11.7793 13.26 11.5804 13.26C11.3836 13.26 11.204 13.1745 11.0866 13.025L10.6148 12.412L11.7143 10.9837ZM16.6056 10.6317L13.4224 14.7667C13.305 14.9192 13.1236 15.0065 12.9247 15.0065C12.7258 15.0065 12.5444 14.919 12.427 14.7667L11.7211 13.8496C12.0671 13.8133 12.3769 13.6439 12.5863 13.3717L13.8318 11.7436L13.8331 11.7446L14.0373 11.475L14.2758 11.1633L14.2743 11.1623L14.4095 10.9837C14.8624 10.3951 14.8624 9.60455 14.4095 9.01599L11.9625 5.83663L12.4272 5.2329C12.5447 5.08041 12.726 4.9931 12.925 4.9931C13.1239 4.9931 13.3053 5.08066 13.4227 5.2329L16.6056 9.36823C16.8963 9.74609 16.8963 10.2538 16.6056 10.6317Z" fill="url(#paint0_linear)"/>
<path opacity="0.6" d="M8.86833 13.8573C8.82011 13.8573 8.77241 13.8546 8.72549 13.8496L8.04193 14.7437L8.55722 15.0889L9.80692 13.4606C9.57103 13.7133 9.22977 13.8573 8.86833 13.8573Z" fill="url(#paint1_linear)"/>
<path opacity="0.6" d="M11.5769 13.8574C11.6251 13.8574 11.6728 13.8546 11.7197 13.8497L12.4033 14.7437L11.888 15.089L10.6446 13.4624C10.8805 13.7151 11.2154 13.8574 11.5769 13.8574Z" fill="url(#paint2_linear)"/>
<path opacity="0.6" d="M9.83052 12.4083L10.2281 12.9233L9.62372 13.6927L9.22638 13.1927L9.83052 12.4083Z" fill="url(#paint3_linear)"/>
<path d="M8.48304 5.83105L8.8741 6.34125L7.45902 8.18553L6.96417 7.81464L8.48304 5.83105Z" fill="url(#paint4_linear)"/>
<path d="M9.83508 7.58634L10.2219 8.09629L9.3198 9.27987L8.82495 8.90897L9.83508 7.58634Z" fill="url(#paint5_linear)"/>
<path d="M11.1836 5.83607L11.5728 6.34353L10.6159 7.58632L10.2259 7.0796L11.1836 5.83607Z" fill="url(#paint6_linear)"/>
<defs>
<linearGradient id="paint0_linear" x1="5.29849" y1="14.2348" x2="11.838" y2="4.95139" gradientUnits="userSpaceOnUse">
<stop stop-color="#FF8506"/>
<stop offset="0.5805" stop-color="#FD3947"/>
<stop offset="1" stop-color="#FB0078"/>
</linearGradient>
<linearGradient id="paint1_linear" x1="9.41111" y1="13.4481" x2="8.41861" y2="14.9281" gradientUnits="userSpaceOnUse">
<stop stop-color="#78005B"/>
<stop offset="0.3483" stop-color="#7A025A" stop-opacity="0.6517"/>
<stop offset="0.51" stop-color="#820955" stop-opacity="0.49"/>
<stop offset="0.6332" stop-color="#8E154E" stop-opacity="0.3668"/>
<stop offset="0.7369" stop-color="#A12643" stop-opacity="0.2631"/>
<stop offset="0.8283" stop-color="#B83C36" stop-opacity="0.1717"/>
<stop offset="0.9111" stop-color="#D65725" stop-opacity="0.0889"/>
<stop offset="0.9857" stop-color="#F87711" stop-opacity="0.0143"/>
<stop offset="1" stop-color="#FF7E0D" stop-opacity="0"/>
</linearGradient>
<linearGradient id="paint2_linear" x1="12.0146" y1="14.7727" x2="11.0811" y2="13.3581" gradientUnits="userSpaceOnUse">
<stop stop-color="#FF7E0D" stop-opacity="0"/>
<stop offset="0.00928743" stop-color="#F97811" stop-opacity="0.0127"/>
<stop offset="0.0651" stop-color="#D65825" stop-opacity="0.0888"/>
<stop offset="0.1269" stop-color="#B93D36" stop-opacity="0.1729"/>
<stop offset="0.1949" stop-color="#A12643" stop-opacity="0.2657"/>
<stop offset="0.272" stop-color="#8F154E" stop-opacity="0.3707"/>
<stop offset="0.3632" stop-color="#820955" stop-opacity="0.495"/>
<stop offset="0.4822" stop-color="#7A025A" stop-opacity="0.6573"/>
<stop offset="0.7336" stop-color="#78005B"/>
</linearGradient>
<linearGradient id="paint3_linear" x1="9.44672" y1="13.4408" x2="10.2016" y2="12.2969" gradientUnits="userSpaceOnUse">
<stop stop-color="#FF7E0D" stop-opacity="0"/>
<stop offset="0.0133" stop-color="#F97910" stop-opacity="0.0192"/>
<stop offset="0.1144" stop-color="#D25427" stop-opacity="0.1659"/>
<stop offset="0.219" stop-color="#B1363A" stop-opacity="0.3175"/>
<stop offset="0.3263" stop-color="#981E48" stop-opacity="0.4731"/>
<stop offset="0.4375" stop-color="#860D53" stop-opacity="0.6344"/>
<stop offset="0.5551" stop-color="#7B0359" stop-opacity="0.8048"/>
<stop offset="0.6897" stop-color="#78005B"/>
</linearGradient>
<linearGradient id="paint4_linear" x1="7.04289" y1="7.88916" x2="8.75305" y2="6.08726" gradientUnits="userSpaceOnUse">
<stop stop-color="#FF4630" stop-opacity="0"/>
<stop offset="0.5722" stop-color="#B31F48" stop-opacity="0.5722"/>
<stop offset="1" stop-color="#78005B"/>
</linearGradient>
<linearGradient id="paint5_linear" x1="8.95058" y1="9.02813" x2="10.0897" y2="7.82791" gradientUnits="userSpaceOnUse">
<stop stop-color="#FF4630" stop-opacity="0"/>
<stop offset="0.5722" stop-color="#B31F48" stop-opacity="0.5722"/>
<stop offset="1" stop-color="#78005B"/>
</linearGradient>
<linearGradient id="paint6_linear" x1="10.2969" y1="7.28347" x2="11.4398" y2="6.07928" gradientUnits="userSpaceOnUse">
<stop stop-color="#FF4630" stop-opacity="0"/>
<stop offset="0.5722" stop-color="#B31F48" stop-opacity="0.5722"/>
<stop offset="1" stop-color="#78005B"/>
</linearGradient>
</defs>
</svg>
