<svg width="88" height="104" viewBox="0 0 88 104" fill="none" xmlns="http://www.w3.org/2000/svg">
<path d="M87.9993 1.00024V74.333L58.6662 103.666H43.3886H29.3331L0 74.333V1.00024H87.9993Z" fill="#FA4C69"/>
<path d="M88.0001 1V74.3328L58.667 103.666H44.0005L44.0005 1H88.0001Z" fill="#FFDCE2"/>
<path d="M22 96.3329H65.9997L58.6664 103.666H43.3887H29.3333L22 96.3329Z" fill="#BA1E38"/>
<path d="M44.0005 103.666V96.3329H66.0002L58.667 103.666H44.0005Z" fill="#FA4C69"/>
<path d="M65.9998 30.3333H80.6663L76.9997 26.6666H69.6664L65.9998 23H58.6665L65.9998 30.3333Z" fill="#BA1E38"/>
<path d="M22.0007 30.3333H7.33415L11.0008 26.6666H18.3341L22.0007 23H29.334L22.0007 30.3333Z" fill="#BA1E38"/>
<path d="M32.9997 55.9997L14.6665 74.3329H73.3327L54.9995 55.9997H32.9997Z" fill="white"/>
<path d="M32.9997 55.9997L14.6665 74.3329H43.9996V55.9997H32.9997Z" fill="#FFDCE2"/>
<path d="M21.9998 44.9999L14.6665 37.6666H35.4441L29.3331 44.9999H21.9998Z" fill="#BA1E38"/>
<path d="M65.9997 44.9999L73.333 37.6666H51.3332L58.6665 44.9999H65.9997Z" fill="#FA4C69"/>
<rect y="1.00024" width="43.9997" height="6.11106" fill="#BA1E38"/>
<rect x="44.0005" y="1" width="43.9997" height="6.11106" fill="#FA4C69"/>
</svg>
