<svg width="262" height="272" viewBox="0 0 262 272" fill="none" xmlns="http://www.w3.org/2000/svg">
<mask id="mask0" mask-type="alpha" maskUnits="userSpaceOnUse" x="0" y="0" width="262" height="272">
<rect width="262" height="272" transform="matrix(1 0 0 -1 0 272)" fill="url(#paint0_radial)"/>
</mask>
<g mask="url(#mask0)">
<path opacity="0.3" d="M164.466 -80.3723C161.772 -78.8332 159.635 -75.0709 159.635 -71.9926V10.6073L135.137 24.7587V109.967C135.137 113.045 137.317 114.285 139.968 112.746C142.662 111.206 144.799 107.444 144.799 104.366V30.3167L169.34 16.208V-77.5934C169.34 -80.6716 167.159 -81.9115 164.466 -80.3723Z" fill="url(#paint1_linear)"/>
<path opacity="0.3" d="M93.3609 262.225C96.0544 263.764 98.1921 262.525 98.1921 259.446V197.539L122.69 211.691V171.16C122.69 168.082 120.509 164.32 117.859 162.78C115.165 161.241 113.028 162.481 113.028 165.559V194.931L88.5298 180.78V253.846C88.5298 256.924 90.7102 260.686 93.3609 262.225Z" fill="url(#paint2_linear)"/>
<path d="M103.58 255.172C103.58 263.638 98.621 267.657 92.5072 264.108C86.3935 260.602 81.4341 250.854 81.4341 242.389C81.4341 233.924 86.3935 229.905 92.5072 233.454C98.621 236.959 103.58 246.707 103.58 255.172Z" fill="#FFA981"/>
<path opacity="0.3" d="M232.578 260.217C232.578 257.139 230.397 253.376 227.746 251.837L189.696 229.862V198.011L151.901 176.206C149.208 174.667 147.07 175.907 147.07 178.985C147.07 182.064 149.251 185.826 151.901 187.365L180.033 203.611V235.463L227.789 262.996C230.44 264.535 232.578 263.295 232.578 260.217Z" fill="url(#paint3_linear)"/>
<path opacity="0.3" d="M136.984 288.691C134.291 287.152 132.153 283.39 132.153 280.311V178.985C132.153 175.907 134.333 174.667 136.984 176.206C139.677 177.745 141.815 181.508 141.815 184.586V285.912C141.815 288.99 139.635 290.23 136.984 288.691Z" fill="url(#paint4_linear)"/>
<path d="M238.477 263.894C238.477 272.359 233.518 276.378 227.404 272.83C221.29 269.324 216.331 259.576 216.331 251.111C216.331 242.646 221.29 238.627 227.404 242.175C233.518 245.681 238.477 255.429 238.477 263.894Z" fill="#F7653B"/>
<path opacity="0.2" d="M250 183.374L183.817 145.152V179.611L250 217.833V183.374Z" fill="url(#paint5_linear)"/>
<path opacity="0.15" d="M200.748 163.279L220.671 174.78V178.927L200.748 167.384V163.279Z" fill="white"/>
<path opacity="0.15" d="M200.79 171.573L243.202 196.028V200.218L200.79 175.763V171.573Z" fill="white"/>
<path d="M197.284 164.476C197.284 167.298 195.617 168.666 193.522 167.469C191.427 166.272 189.759 162.98 189.759 160.158C189.759 157.336 191.427 155.968 193.522 157.165C195.617 158.362 197.284 161.654 197.284 164.476Z" fill="#F7653B"/>
<path opacity="0.2" d="M80.1825 77.9859L14 39.7642V74.2236L80.1825 112.445V77.9859Z" fill="url(#paint6_linear)"/>
<path opacity="0.15" d="M30.9307 57.8921L50.8538 69.3928V73.5399L30.9307 62.0392V57.8921Z" fill="white"/>
<path opacity="0.15" d="M30.9731 66.186L73.3847 90.6411V94.831L30.9731 70.3759V66.186Z" fill="white"/>
<path d="M27.467 59.0884C27.467 61.9102 25.7996 63.2783 23.7047 62.0812C21.6098 60.8841 19.9424 57.5921 19.9424 54.7703C19.9424 51.9486 21.6098 50.5805 23.7047 51.7776C25.7569 52.9747 27.467 56.2667 27.467 59.0884Z" fill="#F7653B"/>
<circle opacity="0.2" r="13.9613" transform="matrix(0.866025 0.5 -2.20305e-08 1 220.674 82.6216)" fill="url(#paint7_linear)"/>
<circle opacity="0.4" r="13.9613" transform="matrix(0.866025 0.5 -2.20305e-08 1 216.95 85.6001)" fill="#FFA981"/>
<path opacity="0.4" fill-rule="evenodd" clip-rule="evenodd" d="M229.041 92.58C229.041 100.291 223.628 103.416 216.951 99.5606C210.273 95.7053 204.86 86.3293 204.86 78.6188C204.86 70.9082 210.273 67.7828 216.951 71.6381C223.628 75.4934 229.041 84.8694 229.041 92.58ZM217.893 82.8631L217.629 82.2943C217.479 81.97 217.247 81.7 216.992 81.5529C216.737 81.4058 216.505 81.408 216.355 81.5586L216.106 81.8078C216.12 81.7908 216.135 81.7739 216.151 81.757L215.82 82.0879L215.822 82.091L215.613 82.3031L214.338 83.5815C214.051 83.8694 214.051 84.4787 214.339 85.0991L214.457 85.3523L214.457 85.3521L215.498 87.6084C215.648 87.9327 215.881 88.2028 216.135 88.3498C216.301 88.4452 216.456 88.4779 216.586 88.4477L216.611 88.4994L216.689 88.4234L216.691 88.4262L216.846 88.2706L216.994 88.1272L216.992 88.1242L216.994 88.122L217.216 88.5998L217.217 88.6029L217.219 88.6052L217.28 88.7381L217.286 88.7364C217.434 88.999 217.635 89.2153 217.853 89.3411C218.107 89.488 218.34 89.4858 218.49 89.335L219.279 88.5356L219.28 88.5366L219.411 88.4021L219.56 88.2507L219.559 88.2492L219.645 88.1608C219.932 87.8741 219.932 87.2648 219.645 86.6455L218.798 84.8175L218.164 83.4431L218.166 83.442L217.835 82.7292C217.856 82.7765 217.876 82.8211 217.893 82.8631ZM215.24 83.4631L215.238 83.4596L214.66 84.0391C214.476 84.2239 214.476 84.6152 214.66 85.0127L214.75 85.2043L214.75 85.204L215.821 87.5241C215.895 87.6836 216.01 87.8174 216.136 87.8902C216.239 87.9499 216.335 87.9598 216.407 87.9201L216.742 87.585L216.746 87.5926L216.748 87.5903L216.051 86.0872C215.764 85.468 215.764 84.8587 216.051 84.5708L216.463 84.1579L216.746 83.8708L216.747 83.8732L216.748 83.8721L216.138 82.5564L216.136 82.5585L216.137 82.5595L216.1 82.5991L216.099 82.5974L215.24 83.4631ZM217.866 83.5846L217.848 83.5477L217.241 84.1567L217.938 85.6598C218.225 86.279 218.225 86.8883 217.938 87.1762L217.241 87.8749L217.54 88.5203C217.615 88.6783 217.729 88.8098 217.853 88.8817C217.979 88.9544 218.094 88.9533 218.168 88.8789L219.089 87.9465L219.323 87.7059C219.508 87.5201 219.508 87.1288 219.324 86.7313L218.747 85.4867L218.746 85.4872L218.08 84.0476L217.887 83.6302L217.886 83.6306L217.866 83.5846ZM216.677 82.0159C216.751 81.9414 216.866 81.9404 216.992 82.013C217.118 82.0858 217.233 82.2196 217.307 82.3798L217.467 82.724L217.466 82.7239L217.468 82.7265L217.489 82.773C217.523 82.8539 217.575 83.0167 217.495 83.1218L216.994 83.6241L216.49 82.5358C216.412 82.3398 216.464 82.2368 216.497 82.1959L216.518 82.1745L216.519 82.1743L216.519 82.1742L216.677 82.0159ZM216.994 84.4041L217.616 85.7453C217.8 86.1428 217.8 86.534 217.616 86.7189L216.994 87.3423L216.373 86.0011C216.189 85.6036 216.189 85.2124 216.373 85.0275L216.417 84.9836L216.419 84.9874L216.822 84.5766L216.994 84.4041ZM212.888 87.8759C213.984 89.7744 215.442 91.313 216.992 92.2079C218.542 93.1029 219.999 93.2473 221.095 92.6141C222.192 91.9813 222.795 90.6469 222.795 88.857C222.795 87.0671 222.192 85.0356 221.095 83.1371C219.999 81.2386 218.542 79.7002 216.992 78.8051C215.441 77.91 213.984 77.7656 212.888 78.3985C211.792 79.0313 211.188 80.366 211.188 82.1559C211.188 83.9458 211.792 85.9773 212.888 87.8759ZM213.167 78.8815C214.188 78.2917 215.547 78.4263 216.992 79.2605C218.437 80.0946 219.795 81.5286 220.817 83.2983C221.838 85.0681 222.401 86.9612 222.401 88.6298C222.401 90.2984 221.838 91.542 220.817 92.1318C219.795 92.7217 218.437 92.5872 216.992 91.7529C215.547 90.9186 214.188 89.4846 213.167 87.7151C212.145 85.9455 211.582 84.0521 211.582 82.3836C211.582 80.715 212.145 79.4714 213.167 78.8815Z" fill="white"/>
<path opacity="0.2" d="M219.009 5.4873L233.1 33.1608C235.026 36.9621 234.722 40.7634 232.39 41.6757C230.059 42.588 226.612 40.2059 224.686 36.4046L224.534 36.0498V66.7643C224.534 70.2615 222.101 71.6806 219.06 69.9574C216.019 68.1834 213.586 63.9767 213.586 60.4795V29.765L213.434 29.917C211.508 31.4882 208.011 29.8663 205.73 26.2678C203.399 22.6692 203.095 18.5131 205.021 16.9419L219.009 5.4873Z" fill="url(#paint8_linear)"/>
<rect opacity="0.2" width="34.0135" height="34.0135" transform="matrix(0.866025 0.5 -2.20305e-08 1 108.921 143.945)" fill="url(#paint9_linear)"/>
<rect opacity="0.4" width="34.0135" height="60.6276" transform="matrix(0.866025 0.5 2.20305e-08 -1 108.921 143.945)" fill="url(#paint10_linear)"/>
<rect opacity="0.2" width="34.0135" height="34.0135" transform="matrix(0.866025 -0.5 2.20305e-08 1 138.243 160.952)" fill="url(#paint11_linear)"/>
<rect opacity="0.4" width="34.0135" height="62.7711" transform="matrix(0.866025 -0.5 2.20305e-08 1 138.243 98.1816)" fill="url(#paint12_linear)"/>
<rect opacity="0.2" width="34.0135" height="34.0135" transform="matrix(0.866025 0.5 -0.866025 0.5 138.377 126.938)" fill="url(#paint13_linear)"/>
<path opacity="0.4" fill-rule="evenodd" clip-rule="evenodd" d="M152.844 102.215C161.568 107.252 161.568 115.419 152.844 120.457C144.119 125.494 129.973 125.494 121.249 120.457C112.524 115.419 112.524 107.252 121.249 102.215C129.973 97.178 144.119 97.178 152.844 102.215ZM133.965 107.54L132.721 107.428C132.026 107.365 131.343 107.494 130.846 107.781C130.349 108.068 130.126 108.463 130.234 108.864L130.405 109.497C130.393 109.466 130.383 109.434 130.374 109.4L130.61 110.282H130.617L131.686 114.246C131.892 115.012 132.922 115.606 134.251 115.726L134.794 115.773L134.794 115.772L139.624 116.215C140.318 116.278 141.001 116.149 141.498 115.862C141.826 115.673 142.034 115.437 142.107 115.183L142.185 115.189L141.963 114.193L141.952 114.192L141.951 114.188L142.975 114.279C142.979 114.28 142.983 114.28 142.987 114.28L143.139 114.289L143.274 114.294C143.862 114.301 144.424 114.171 144.85 113.926C145.347 113.639 145.57 113.244 145.461 112.842L144.88 110.729L144.883 110.729L144.783 110.376L144.673 109.975L144.669 109.976L144.604 109.745C144.4 108.98 143.37 108.385 142.043 108.266L138.923 107.985L135.188 107.644L135.188 107.64L133.66 107.503C133.77 107.514 133.871 107.526 133.965 107.54ZM132.368 112.605L132.357 112.606L132.773 114.148C132.906 114.64 133.567 115.022 134.419 115.098L134.83 115.134L134.83 115.133L139.795 115.588C140.137 115.619 140.475 115.555 140.721 115.413C140.967 115.271 141.077 115.076 141.024 114.877L141.025 114.877L140.813 114.085L137.592 113.796C136.266 113.676 135.236 113.082 135.029 112.316L134.643 110.882L134.526 110.459L134.529 110.459L134.528 110.457L131.709 110.203L131.711 110.208L131.716 110.208L131.747 110.309L131.743 110.309L132.368 112.605ZM138.108 108.555L135.054 108.281L135.491 109.901L138.711 110.19C140.037 110.31 141.067 110.904 141.274 111.67L141.775 113.529L143.158 113.654C143.498 113.682 143.831 113.618 144.074 113.478C144.319 113.336 144.43 113.141 144.377 112.942L143.699 110.476L143.521 109.846C143.387 109.352 142.726 108.97 141.874 108.894L139.211 108.654L139.211 108.655L138.108 108.555ZM131.321 108.766C131.268 108.567 131.378 108.372 131.624 108.23C131.87 108.088 132.208 108.024 132.551 108.055L133.424 108.134C133.597 108.159 133.888 108.234 133.986 108.451L134.349 109.798L132.027 109.589C131.605 109.53 131.483 109.334 131.448 109.239L131.436 109.192L131.435 109.187L131.434 109.187L131.321 108.766ZM136.095 112.1L136.083 112.101L136.115 112.218C136.248 112.71 136.909 113.092 137.76 113.168L140.634 113.426L140.187 111.767C140.054 111.276 139.393 110.894 138.541 110.817L135.668 110.559L135.723 110.764L136.095 112.1ZM137.019 120.75C141.374 120.75 145.469 119.771 148.549 117.993C151.629 116.215 153.326 113.85 153.326 111.336C153.326 108.821 151.629 106.457 148.549 104.678C145.469 102.9 141.374 101.921 137.019 101.921C132.663 101.921 128.568 102.9 125.488 104.678C122.408 106.457 120.712 108.821 120.712 111.336C120.712 113.85 122.408 116.215 125.488 117.993C128.568 119.771 132.663 120.75 137.019 120.75ZM121.656 111.336C121.656 108.966 123.254 106.739 126.155 105.064C129.057 103.388 132.915 102.466 137.019 102.466C141.123 102.466 144.98 103.388 147.882 105.064C150.784 106.739 152.382 108.967 152.382 111.336C152.381 113.705 150.784 115.932 147.882 117.607C144.98 119.283 141.122 120.205 137.019 120.205C132.915 120.205 129.057 119.283 126.155 117.607C123.254 115.932 121.656 113.705 121.656 111.336Z" fill="white"/>
<path fill-rule="evenodd" clip-rule="evenodd" d="M152.844 69.8305C161.568 74.8677 161.568 83.0346 152.844 88.0719C144.119 93.1091 129.973 93.1091 121.249 88.0719C112.524 83.0346 112.524 74.8677 121.249 69.8305C129.973 64.7933 144.119 64.7933 152.844 69.8305ZM133.975 75.156L132.721 75.0432C132.026 74.9806 131.343 75.1095 130.846 75.3966C130.349 75.6837 130.126 76.0783 130.234 76.4791L130.405 77.1145C130.394 77.083 130.383 77.0501 130.373 77.0159L130.609 77.8978H130.616L131.685 81.8612C131.892 82.6271 132.922 83.2217 134.251 83.3412L134.794 83.3883L134.794 83.3877L139.623 83.8303C140.318 83.8929 141.001 83.7639 141.498 83.4772C141.825 83.288 142.034 83.0521 142.107 82.7982L142.184 82.804L141.963 81.8081L141.952 81.807L141.951 81.803L142.975 81.8948C142.979 81.8954 142.983 81.8954 142.986 81.8957L143.138 81.9038L143.274 81.9091C143.862 81.9158 144.424 81.7866 144.849 81.5411C145.346 81.254 145.569 80.8594 145.461 80.4577L144.88 78.3442L144.882 78.3439L144.782 77.9916L144.673 77.5908L144.669 77.5911L144.603 77.3602C144.4 76.5954 143.369 76.0005 142.043 75.8813L139.338 75.6381L139.338 75.6381L135.187 75.2586L135.187 75.2546L133.66 75.118C133.773 75.129 133.879 75.1415 133.975 75.156ZM132.368 80.2204L132.357 80.2211L132.773 81.7635C132.905 82.2552 133.567 82.637 134.418 82.7136L134.83 82.7493L134.83 82.7481L139.795 83.2033C140.137 83.2339 140.475 83.1702 140.721 83.0281C140.967 82.8864 141.077 82.6911 141.024 82.4926L141.025 82.4926L140.812 81.7004L137.592 81.411C136.265 81.2917 135.236 80.6971 135.029 79.9312L134.655 78.5423L134.525 78.0748L134.529 78.0751L134.528 78.072L131.709 77.8185L131.71 77.8231L131.715 77.8236L131.746 77.9244L131.743 77.9241L132.368 80.2204ZM138.831 76.2354L135.053 75.8959L135.49 77.5163L138.711 77.8057C140.037 77.9249 141.067 78.5195 141.274 79.2855L141.775 81.1447L143.158 81.2689C143.497 81.2973 143.831 81.2335 144.074 81.0932C144.319 80.9514 144.43 80.7562 144.376 80.5577L143.699 78.0916L143.521 77.4613C143.387 76.9673 142.726 76.5855 141.874 76.5089L139.21 76.2695L139.21 76.2698L138.831 76.2354ZM131.321 76.3812C131.267 76.1827 131.378 75.9874 131.623 75.8456C131.87 75.7035 132.208 75.6398 132.551 75.6708L133.408 75.7477C133.58 75.7713 133.887 75.8447 133.987 76.0712L134.349 77.4134L132.041 77.2058C131.609 77.1495 131.484 76.952 131.448 76.8555L131.435 76.8053L131.434 76.8016L131.434 76.8019L131.321 76.3812ZM136.094 79.7162L136.083 79.717L136.115 79.8336C136.247 80.3253 136.909 80.707 137.76 80.7836L140.634 81.0418L140.186 79.3828C140.054 78.8911 139.393 78.5093 138.541 78.4327L135.667 78.1746L135.732 78.4144L136.094 79.7162ZM137.018 88.3657C141.374 88.3657 145.469 87.3864 148.549 85.6081C151.629 83.8299 153.325 81.4655 153.325 78.9509C153.325 76.4363 151.629 74.0719 148.549 72.2937C145.469 70.5154 141.374 69.5361 137.018 69.5361C132.663 69.5361 128.568 70.5154 125.488 72.2937C122.408 74.0719 120.712 76.4363 120.712 78.9509C120.712 81.4655 122.408 83.8299 125.488 85.6081C128.568 87.3864 132.663 88.3657 137.018 88.3657ZM121.655 78.9509C121.656 76.5816 123.253 74.3543 126.155 72.679C129.057 71.0036 132.915 70.0813 137.018 70.081C141.122 70.0813 144.98 71.0036 147.882 72.679C150.783 74.3543 152.381 76.5819 152.381 78.9509C152.381 81.3202 150.783 83.5475 147.882 85.2228C144.98 86.8982 141.122 87.8208 137.018 87.8208C132.915 87.8205 129.057 86.8982 126.155 85.2228C123.253 83.5475 121.655 81.3199 121.655 78.9509Z" fill="white"/>
<path opacity="0.07" d="M32.9023 118.61L69.3551 139.641V211.282L32.9023 190.252V118.61Z" fill="white"/>
<path opacity="0.3" d="M62.346 145.841L25.8933 124.811L25.8735 196.472L41.6513 205.556L44.1196 210.433L46.588 208.419L62.346 217.483V145.841Z" fill="url(#paint14_linear)"/>
<path opacity="0.1" d="M57.5665 168.194C57.5665 171.255 56.9741 173.941 55.8683 175.955C54.7624 177.969 53.1629 179.253 51.2475 179.687L44.9482 160.908L57.5665 168.194Z" fill="white"/>
<path opacity="0.3" d="M51.2683 179.688C48.8592 180.221 46.0749 179.372 43.3103 177.298C40.5655 175.205 37.9984 171.986 36.0435 168.136L44.969 160.928L51.2683 179.688Z" fill="white"/>
<path d="M57.5661 168.195C57.5661 165.312 57.0527 162.192 56.0851 159.092C55.0978 155.991 53.6958 153.01 51.9778 150.423C50.2598 147.836 48.2654 145.703 46.2117 144.222C44.1383 142.741 42.0649 141.971 40.1494 141.971C38.234 141.971 36.5357 142.722 35.2324 144.183C33.9094 145.644 33.0208 147.757 32.6061 150.344C32.2112 152.931 32.3099 155.893 32.9023 158.993C33.4947 162.093 34.5808 165.213 36.0618 168.096L44.9874 160.889L57.5661 168.195Z" fill="#FFA981"/>
<path opacity="0.15" d="M30.6519 179.154L55.8686 193.708V196.393L30.6519 181.84V179.154Z" fill="white"/>
<path opacity="0.15" d="M30.6519 184.387L56.8362 199.513V202.198L30.6519 187.072V184.387Z" fill="white"/>
<path opacity="0.15" d="M30.6519 189.641L48.1081 199.712V202.397L30.6519 192.326V189.641Z" fill="white"/>
</g>
<defs>
<radialGradient id="paint0_radial" cx="0" cy="0" r="1" gradientUnits="userSpaceOnUse" gradientTransform="translate(131 136) rotate(90) scale(136 294.704)">
<stop offset="0.181687" stop-color="white"/>
<stop offset="1" stop-color="white" stop-opacity="0"/>
</radialGradient>
<linearGradient id="paint1_linear" x1="115.911" y1="-46.7496" x2="186.065" y2="74.792" gradientUnits="userSpaceOnUse">
<stop stop-color="white"/>
<stop offset="1" stop-color="white" stop-opacity="0"/>
</linearGradient>
<linearGradient id="paint2_linear" x1="77.8329" y1="247.677" x2="122.179" y2="170.847" gradientUnits="userSpaceOnUse">
<stop stop-color="white"/>
<stop offset="1" stop-color="white" stop-opacity="0"/>
</linearGradient>
<linearGradient id="paint3_linear" x1="248.526" y1="219.608" x2="151.898" y2="219.597" gradientUnits="userSpaceOnUse">
<stop stop-color="white"/>
<stop offset="1" stop-color="white" stop-opacity="0"/>
</linearGradient>
<linearGradient id="paint4_linear" x1="115.034" y1="270.425" x2="158.98" y2="194.393" gradientUnits="userSpaceOnUse">
<stop stop-color="white"/>
<stop offset="1" stop-color="white" stop-opacity="0"/>
</linearGradient>
<linearGradient id="paint5_linear" x1="224.373" y1="168.561" x2="209.444" y2="194.424" gradientUnits="userSpaceOnUse">
<stop stop-color="white"/>
<stop offset="1" stop-color="white" stop-opacity="0"/>
</linearGradient>
<linearGradient id="paint6_linear" x1="54.5555" y1="63.173" x2="39.627" y2="89.0365" gradientUnits="userSpaceOnUse">
<stop stop-color="white"/>
<stop offset="1" stop-color="white" stop-opacity="0"/>
</linearGradient>
<linearGradient id="paint7_linear" x1="16.766" y1="3.33054" x2="13.9213" y2="27.6687" gradientUnits="userSpaceOnUse">
<stop stop-color="white"/>
<stop offset="1" stop-color="white" stop-opacity="0"/>
</linearGradient>
<linearGradient id="paint8_linear" x1="229.025" y1="33.404" x2="203.318" y2="47.7343" gradientUnits="userSpaceOnUse">
<stop stop-color="white"/>
<stop offset="1" stop-color="white" stop-opacity="0"/>
</linearGradient>
<linearGradient id="paint9_linear" x1="34.2767" y1="-0.750038" x2="-8.37402" y2="18.0018" gradientUnits="userSpaceOnUse">
<stop stop-color="white"/>
<stop offset="1" stop-color="white" stop-opacity="0"/>
</linearGradient>
<linearGradient id="paint10_linear" x1="17.1384" y1="-4.10858" x2="-9.66858" y2="12.6672" gradientUnits="userSpaceOnUse">
<stop stop-color="white"/>
<stop offset="1" stop-color="white" stop-opacity="0"/>
</linearGradient>
<linearGradient id="paint11_linear" x1="31.8389" y1="2.93248" x2="11.4328" y2="36.652" gradientUnits="userSpaceOnUse">
<stop stop-color="white"/>
<stop offset="1" stop-color="white" stop-opacity="0"/>
</linearGradient>
<linearGradient id="paint12_linear" x1="17.5569" y1="63.2674" x2="45.3168" y2="27.004" gradientUnits="userSpaceOnUse">
<stop stop-color="white"/>
<stop offset="1" stop-color="white" stop-opacity="0"/>
</linearGradient>
<linearGradient id="paint13_linear" x1="20.8429" y1="10.955" x2="6.75653" y2="37.5533" gradientUnits="userSpaceOnUse">
<stop offset="0.113723" stop-color="white"/>
<stop offset="1" stop-color="white" stop-opacity="0"/>
</linearGradient>
<linearGradient id="paint14_linear" x1="44.1098" y1="136.26" x2="44.1098" y2="227.347" gradientUnits="userSpaceOnUse">
<stop stop-color="white" stop-opacity="0"/>
<stop offset="1" stop-color="white"/>
</linearGradient>
</defs>
</svg>
