<svg width="262" height="272" viewBox="0 0 262 272" fill="none" xmlns="http://www.w3.org/2000/svg">
<mask id="mask0" mask-type="alpha" maskUnits="userSpaceOnUse" x="0" y="0" width="262" height="272">
<rect width="262" height="272" transform="matrix(1 0 0 -1 0 272)" fill="url(#paint0_radial)"/>
</mask>
<g mask="url(#mask0)">
<path d="M139.705 166.282C144.529 172.313 149.887 178.932 153.645 183.56C157.825 170.995 152.243 153.436 146.016 140.309C144.529 148.471 142.454 157.11 139.705 166.282Z" fill="#FFA981"/>
<path d="M110.31 119.777C104.112 125.724 98.5579 136.831 102.737 154.193C106.496 153.885 111.825 153.464 116.649 153.015C113.901 140.674 111.825 129.651 110.31 119.777Z" fill="#F7653B"/>
<path opacity="0.2" d="M123.661 181.625C88.9927 48.5048 117.518 37.2011 128.289 32.6572C139.06 49.6549 167.558 93.8599 132.861 186.926L123.661 181.625Z" fill="url(#paint1_linear)"/>
<path opacity="0.1" d="M133.871 173.968C99.2026 40.8757 127.7 29.5439 138.499 25C149.27 41.9976 177.768 86.2027 143.071 179.269L133.871 173.968Z" fill="url(#paint2_linear)"/>
<path opacity="0.15" d="M132.861 186.926C167.558 93.8599 139.06 49.6549 128.289 32.6572V184.29L132.861 186.926Z" fill="url(#paint3_linear)"/>
<path opacity="0.1" d="M136.508 217.051C134.067 213.068 132.889 208.019 131.851 203.587C130.645 198.483 129.636 194.135 127.111 193.041C124.222 191.779 122.932 194.976 121.109 199.408C120.043 202.017 118.781 205.102 116.929 207.935C114.938 205.831 112.834 204.092 110.618 202.83C101.334 197.473 93.5928 202.101 91.7696 213.152C90.5074 212.198 89.2452 211.329 87.955 210.572C73.061 201.989 61 211.722 61 232.366C61 252.981 73.061 276.655 87.9269 285.238C102.372 293.568 114.181 284.621 114.854 265.239C117.575 270.288 121.193 274.523 125.204 276.823C126.242 277.412 127.251 277.861 128.205 278.141C133.983 290.847 142.594 301.787 152.215 307.34C169.605 317.382 183.714 306.05 183.742 282.04C183.742 258.03 169.633 230.402 152.243 220.361C146.493 217.051 141.136 216.041 136.508 217.051Z" fill="url(#paint4_linear)"/>
<path opacity="0.3" d="M164.528 125.219L240.457 169.059L240.485 208.636L171.26 168.666L164.556 170.854L164.528 125.219Z" fill="url(#paint5_linear)"/>
<path d="M218.382 176.015V165.272L247.048 181.821V192.564L218.382 176.015Z" fill="#FFA981"/>
<path opacity="0.1" d="M184.051 146.115L200.684 155.708V159.186L184.051 149.593V146.115Z" fill="white"/>
<path opacity="0.1" d="M184.079 153.071L214.091 170.406V173.884L184.079 156.549V153.071Z" fill="white"/>
<path opacity="0.15" d="M184.079 160.027L222.926 182.466V185.945L184.079 163.505V160.027Z" fill="white"/>
<path d="M179.955 147.377C179.955 150.631 178.02 152.173 175.636 150.799C173.252 149.425 171.316 145.666 171.316 142.412C171.316 139.159 173.252 137.616 175.636 138.991C178.048 140.365 179.955 144.123 179.955 147.377Z" fill="#FFA981"/>
<path opacity="0.3" d="M99.0343 69.3172L23.106 25.5049L23.134 65.0819L92.3587 105.023L99.0623 114.953L99.0343 69.3172Z" fill="url(#paint6_linear)"/>
<path d="M15 40.9317V30.189L43.666 46.7378V57.4805L15 40.9317Z" fill="#F7653B"/>
<path opacity="0.15" d="M79.5124 67.6904L62.8794 58.0977V61.5757L79.5124 71.1684V67.6904Z" fill="white"/>
<path opacity="0.15" d="M79.5125 74.6465L47.4526 56.1343V59.6123L79.5125 78.1246V74.6465Z" fill="white"/>
<path opacity="0.15" d="M79.5123 81.6027L40.6646 59.1636V62.6416L79.5123 85.0807V81.6027Z" fill="white"/>
<path d="M83.6074 73.6648C83.6074 76.9185 85.5428 80.6771 87.927 82.0515C90.3111 83.4258 92.2465 81.8832 92.2465 78.6295C92.2465 75.3758 90.3111 71.6173 87.927 70.2429C85.5428 68.8965 83.6074 70.4112 83.6074 73.6648Z" fill="#F7653B"/>
<path opacity="0.2" d="M88.9366 111.559L43.5815 85.3892V109.006L88.9366 135.176V111.559Z" fill="url(#paint7_linear)"/>
<path opacity="0.15" d="M55.1938 97.7588L70.7329 106.734V109.567L55.1938 100.592V97.7588Z" fill="white"/>
<path opacity="0.15" d="M55.1938 103.453L84.2525 120.226V123.087L55.1938 106.314V103.453Z" fill="white"/>
<path d="M52.8099 98.6004C52.8099 100.536 51.6599 101.461 50.2294 100.648C48.7989 99.8345 47.6489 97.5906 47.6489 95.6272C47.6489 93.6918 48.7989 92.7662 50.2294 93.5796C51.6319 94.4211 52.8099 96.665 52.8099 98.6004Z" fill="#F7653B"/>
<path opacity="0.2" d="M223.628 129.398L178.272 103.229V126.846L223.628 153.043V129.398Z" fill="url(#paint8_linear)"/>
<path opacity="0.15" d="M189.885 115.626L205.424 124.602V127.435L189.885 118.459V115.626Z" fill="white"/>
<path opacity="0.15" d="M189.913 121.32L218.971 138.093V140.954L189.913 124.181V121.32Z" fill="white"/>
<path d="M187.5 116.468C187.5 118.403 186.35 119.329 184.92 118.515C183.489 117.702 182.339 115.458 182.339 113.494C182.339 111.559 183.489 110.633 184.92 111.447C186.35 112.288 187.5 114.532 187.5 116.468Z" fill="#FFA981"/>
<path opacity="0.4" fill-rule="evenodd" clip-rule="evenodd" d="M135 88.5581C135 95.8919 129.851 98.8645 123.5 95.1976C117.149 91.5307 112 82.6128 112 75.279C112 67.9452 117.149 64.9726 123.5 68.6395C129.851 72.3064 135 81.2242 135 88.5581ZM125.019 77.1917L124.572 76.2274C124.325 75.6952 123.944 75.2519 123.526 75.0104C123.108 74.769 122.727 74.7727 122.48 75.0198L122.084 75.4174C122.104 75.3936 122.125 75.3699 122.148 75.3461L121.605 75.8893L121.608 75.8944L121.523 75.9802L119.171 78.3404C118.7 78.8129 118.7 79.8131 119.171 80.8314L119.366 81.2469L119.366 81.2467L121.074 84.9503C121.321 85.4826 121.702 85.9259 122.12 86.1673C122.392 86.3241 122.648 86.3776 122.862 86.3277L122.902 86.4133L123.03 86.2891L123.033 86.2927L123.229 86.0957L123.531 85.8023L123.528 85.7961L123.53 85.7934L123.894 86.5776C123.895 86.5808 123.897 86.5838 123.898 86.5865L123.999 86.8046L124.009 86.8019C124.251 87.2329 124.582 87.5879 124.939 87.7944C125.357 88.0356 125.738 88.0319 125.986 87.7843L127.281 86.4722L127.282 86.4739L127.497 86.2531L127.742 86.0045L127.741 86.0021L127.881 85.857C128.353 85.3865 128.353 84.3863 127.882 83.3697L126.921 81.2966L126.921 81.2965L125.452 78.1136L125.455 78.1119L124.912 76.9418C124.953 77.0308 124.988 77.1139 125.019 77.1917ZM120.653 78.1467L120.648 78.1396L119.699 79.0915C119.397 79.3949 119.397 80.037 119.699 80.6896L119.846 81.004L119.847 81.0035L121.604 84.8119C121.725 85.0737 121.914 85.2933 122.121 85.4128C122.292 85.5119 122.452 85.5274 122.571 85.4597L123.117 84.9123L123.123 84.9236L123.126 84.9205L121.982 82.4533C121.511 81.437 121.511 80.4368 121.982 79.9643L122.852 79.0921L123.124 78.8159L123.125 78.8182L123.126 78.8173L122.125 76.6577L122.122 76.6603L122.124 76.6635L122.063 76.7284L122.062 76.7257L120.653 78.1467ZM126.157 80.9283L124.932 78.2848L123.936 79.2845L125.079 81.7517C125.55 82.768 125.55 83.7682 125.079 84.2407L123.936 85.3877L124.427 86.4471C124.549 86.7065 124.735 86.9223 124.94 87.0403C125.146 87.1596 125.335 87.1579 125.457 87.0357L126.969 85.5052L127.353 85.1104C127.656 84.8052 127.656 84.1631 127.354 83.5105L126.408 81.4687L126.407 81.4688L126.157 80.9283ZM123.009 75.7704C123.131 75.6482 123.32 75.6465 123.526 75.7657C123.733 75.8852 123.922 76.1048 124.043 76.3678L124.351 77.0323C124.406 77.1695 124.477 77.4177 124.356 77.5822L123.53 78.4102L122.716 76.6532C122.566 76.3016 122.665 76.1241 122.72 76.0594L122.745 76.0342C122.749 76.0314 122.751 76.03 122.751 76.03L122.75 76.0296L123.009 75.7704ZM123.53 79.6906L124.551 81.8921C124.853 82.5446 124.853 83.1867 124.551 83.4901L123.53 84.5134L122.51 82.312C122.208 81.6595 122.208 81.0173 122.51 80.7139L122.583 80.6411L122.588 80.6488L123.4 79.8214L123.53 79.6906ZM116.791 85.3894C118.59 88.5056 120.982 91.0311 123.526 92.5001C126.071 93.9691 128.463 94.2061 130.262 93.1669C132.062 92.1281 133.053 89.9378 133.053 86.9998C133.053 84.0617 132.062 80.7271 130.262 77.6109C128.463 74.4946 126.071 71.9694 123.526 70.5001C120.982 69.0309 118.589 68.7939 116.79 69.8326C114.991 70.8714 114 73.0622 114 76.0002C114 78.9383 114.991 82.2729 116.791 85.3894ZM117.248 70.6255C118.925 69.6573 121.155 69.8783 123.526 71.2475C125.898 72.6167 128.128 74.9706 129.805 77.8754C131.482 80.7805 132.406 83.8879 132.406 86.6268C132.406 89.3657 131.482 91.407 129.805 92.3752C128.128 93.3434 125.898 93.1226 123.526 91.7532C121.155 90.3838 118.925 88.0299 117.248 85.1253C115.571 82.2207 114.647 79.1128 114.647 76.374C114.647 73.6351 115.571 71.5937 117.248 70.6255Z" fill="white"/>
</g>
<defs>
<radialGradient id="paint0_radial" cx="0" cy="0" r="1" gradientUnits="userSpaceOnUse" gradientTransform="translate(131 136) rotate(90) scale(136 294.704)">
<stop offset="0.362122" stop-color="white"/>
<stop offset="1" stop-color="white" stop-opacity="0"/>
</radialGradient>
<linearGradient id="paint1_linear" x1="168.706" y1="37.3769" x2="81.5157" y2="188.435" gradientUnits="userSpaceOnUse">
<stop stop-color="white"/>
<stop offset="1" stop-color="white" stop-opacity="0"/>
</linearGradient>
<linearGradient id="paint2_linear" x1="178.913" y1="29.7218" x2="91.7231" y2="180.78" gradientUnits="userSpaceOnUse">
<stop stop-color="white"/>
<stop offset="1" stop-color="white" stop-opacity="0"/>
</linearGradient>
<linearGradient id="paint3_linear" x1="152.447" y1="70.3162" x2="85.1396" y2="191.762" gradientUnits="userSpaceOnUse">
<stop stop-color="white" stop-opacity="0"/>
<stop offset="1" stop-color="white"/>
</linearGradient>
<linearGradient id="paint4_linear" x1="146.115" y1="216.832" x2="108.456" y2="282.077" gradientUnits="userSpaceOnUse">
<stop stop-color="white"/>
<stop offset="1" stop-color="white" stop-opacity="0"/>
</linearGradient>
<linearGradient id="paint5_linear" x1="197.152" y1="126.5" x2="206.969" y2="206.121" gradientUnits="userSpaceOnUse">
<stop stop-color="white"/>
<stop offset="1" stop-color="white" stop-opacity="0"/>
</linearGradient>
<linearGradient id="paint6_linear" x1="82.476" y1="53.4698" x2="43.2687" y2="84.1679" gradientUnits="userSpaceOnUse">
<stop stop-color="white"/>
<stop offset="1" stop-color="white" stop-opacity="0"/>
</linearGradient>
<linearGradient id="paint7_linear" x1="71.3694" y1="101.413" x2="61.1412" y2="119.133" gradientUnits="userSpaceOnUse">
<stop stop-color="white"/>
<stop offset="1" stop-color="white" stop-opacity="0"/>
</linearGradient>
<linearGradient id="paint8_linear" x1="206.078" y1="119.274" x2="195.849" y2="136.994" gradientUnits="userSpaceOnUse">
<stop stop-color="white"/>
<stop offset="1" stop-color="white" stop-opacity="0"/>
</linearGradient>
</defs>
</svg>
