<svg width="20" height="20" viewBox="0 0 20 20" fill="none" xmlns="http://www.w3.org/2000/svg">
<g filter="url(#filter0_d)">
<path d="M10 18.75C15.1777 18.75 19.375 14.5527 19.375 9.375C19.375 4.19733 15.1777 0 10 0C4.82233 0 0.625 4.19733 0.625 9.375C0.625 14.5527 4.82233 18.75 10 18.75Z" fill="black"/>
</g>
<path d="M10 18.75C15.1777 18.75 19.375 14.5527 19.375 9.375C19.375 4.19733 15.1777 0 10 0C4.82233 0 0.625 4.19733 0.625 9.375C0.625 14.5527 4.82233 18.75 10 18.75Z" fill="#2775C9"/>
<path style="mix-blend-mode:soft-light" d="M10 18.75C15.1777 18.75 19.375 14.5527 19.375 9.375C19.375 4.19733 15.1777 0 10 0C4.82233 0 0.625 4.19733 0.625 9.375C0.625 14.5527 4.82233 18.75 10 18.75Z" fill="url(#paint0_linear)"/>
<path d="M10 18.4375C15.0051 18.4375 19.0625 14.3801 19.0625 9.375C19.0625 4.36992 15.0051 0.3125 10 0.3125C4.99492 0.3125 0.9375 4.36992 0.9375 9.375C0.9375 14.3801 4.99492 18.4375 10 18.4375Z" stroke="black" stroke-opacity="0.097"/>
<path d="M9.84375 16.5625C5.7875 16.5625 2.5 13.275 2.5 9.21875C2.5 5.1625 5.7875 1.875 9.84375 1.875C13.9 1.875 17.1875 5.1625 17.1875 9.21875C17.1875 11.1664 16.4138 13.0343 15.0366 14.4116C13.6593 15.7888 11.7914 16.5625 9.84375 16.5625ZM9.40625 6.49375C9.00444 6.51368 8.62459 6.68308 8.34128 6.96871C8.05797 7.25433 7.89166 7.63554 7.875 8.0375C7.875 8.79375 8.3375 9.2875 9.31875 9.49375L10.0063 9.65625C10.675 9.8125 10.95 10.0375 10.95 10.4187C10.95 10.8 10.4688 11.175 9.84375 11.175C9.62175 11.1954 9.3985 11.1528 9.19955 11.0522C9.0006 10.9516 8.83398 10.7971 8.71875 10.6062C8.68461 10.5338 8.63071 10.4725 8.56326 10.4294C8.49581 10.3863 8.41755 10.3631 8.3375 10.3625H7.96875C7.94039 10.3678 7.91335 10.3786 7.88919 10.3943C7.86503 10.41 7.84421 10.4304 7.82795 10.4542C7.81168 10.478 7.80029 10.5048 7.79442 10.5331C7.78855 10.5613 7.78832 10.5904 7.79375 10.6187C7.88357 10.9853 8.09242 11.3118 8.38759 11.547C8.68276 11.7823 9.0476 11.913 9.425 11.9187V12.4438C9.425 12.5606 9.47142 12.6727 9.55406 12.7553C9.63669 12.838 9.74876 12.8844 9.86562 12.8844C9.98249 12.8844 10.0946 12.838 10.1772 12.7553C10.2598 12.6727 10.3062 12.5606 10.3062 12.4438V11.9125C10.733 11.9077 11.141 11.7364 11.4433 11.4352C11.7457 11.134 11.9185 10.7267 11.925 10.3C11.925 9.50625 11.4688 9.05 10.3875 8.81875L9.7625 8.68125C9.1375 8.525 8.84375 8.31875 8.84375 7.96875C8.84375 7.61875 9.21875 7.23125 9.84375 7.23125C10.0406 7.21069 10.2392 7.24755 10.4155 7.33739C10.5918 7.42722 10.7384 7.56619 10.8375 7.7375C10.8777 7.82305 10.9413 7.89547 11.0209 7.94635C11.1006 7.99724 11.193 8.02451 11.2875 8.025H11.5813C11.648 8.00866 11.7057 7.96677 11.742 7.90834C11.7782 7.8499 11.7901 7.77959 11.775 7.7125C11.6903 7.37402 11.5009 7.07093 11.2338 6.84646C10.9667 6.622 10.6355 6.48762 10.2875 6.4625V6.03125C10.2875 5.91439 10.2411 5.80231 10.1584 5.71968C10.0758 5.63705 9.96374 5.59062 9.84688 5.59062C9.73001 5.59062 9.61794 5.63705 9.53531 5.71968C9.45267 5.80231 9.40625 5.91439 9.40625 6.03125V6.49375ZM4.3375 9.21875C4.33822 10.37 4.70061 11.492 5.37349 12.4262C6.04637 13.3604 6.99574 14.0596 8.0875 14.425H8.175C8.24959 14.425 8.32113 14.3954 8.37387 14.3426C8.42662 14.2899 8.45625 14.2183 8.45625 14.1437V14.0125C8.45646 13.8962 8.42212 13.7824 8.35758 13.6856C8.29305 13.5888 8.20122 13.5133 8.09375 13.4688C7.2435 13.1256 6.51521 12.5361 6.00237 11.7761C5.48952 11.016 5.21551 10.12 5.21551 9.20312C5.21551 8.28623 5.48952 7.39025 6.00237 6.6302C6.51521 5.87014 7.2435 5.28069 8.09375 4.9375C8.20073 4.89405 8.29234 4.81971 8.3569 4.72398C8.42146 4.62825 8.45605 4.51547 8.45625 4.4V4.25625C8.45665 4.21404 8.44688 4.17236 8.42774 4.13474C8.40861 4.09712 8.38068 4.06466 8.34634 4.04013C8.31199 4.01559 8.27223 3.99971 8.23044 3.99381C8.18864 3.98791 8.14604 3.99218 8.10625 4.00625C7.00998 4.36881 6.05581 5.06757 5.37927 6.00328C4.70273 6.93899 4.33822 8.06408 4.3375 9.21875ZM15.35 9.21875C15.348 8.06853 14.985 6.94795 14.3122 6.01501C13.6394 5.08207 12.6907 4.38384 11.6 4.01875H11.5063C11.4283 4.01875 11.3536 4.0497 11.2985 4.10479C11.2434 4.15988 11.2125 4.23459 11.2125 4.3125V4.40625C11.215 4.52679 11.2524 4.64403 11.32 4.74384C11.3876 4.84365 11.4827 4.92175 11.5938 4.96875C12.4421 5.31294 13.1684 5.90243 13.6797 6.66178C14.1911 7.42112 14.4643 8.31577 14.4643 9.23125C14.4643 10.1467 14.1911 11.0414 13.6797 11.8007C13.1684 12.5601 12.4421 13.1496 11.5938 13.4937C11.4848 13.5412 11.3917 13.6188 11.3253 13.7173C11.2589 13.8158 11.2219 13.9312 11.2188 14.05V14.1562C11.2193 14.2026 11.2308 14.2481 11.2523 14.2892C11.2738 14.3302 11.3047 14.3656 11.3425 14.3924C11.3803 14.4192 11.4239 14.4367 11.4697 14.4435C11.5155 14.4502 11.5623 14.446 11.6062 14.4312C12.6979 14.0644 13.6466 13.3638 14.3184 12.4285C14.9902 11.4931 15.351 10.3703 15.35 9.21875Z" fill="white"/>
<defs>
<filter id="filter0_d" x="-0.375" y="-0.5" width="20.75" height="20.75" filterUnits="userSpaceOnUse" color-interpolation-filters="sRGB">
<feFlood flood-opacity="0" result="BackgroundImageFix"/>
<feColorMatrix in="SourceAlpha" type="matrix" values="0 0 0 0 0 0 0 0 0 0 0 0 0 0 0 0 0 0 127 0"/>
<feOffset dy="0.5"/>
<feGaussianBlur stdDeviation="0.5"/>
<feColorMatrix type="matrix" values="0 0 0 0 0 0 0 0 0 0 0 0 0 0 0 0 0 0 0.199474 0"/>
<feBlend mode="normal" in2="BackgroundImageFix" result="effect1_dropShadow"/>
<feBlend mode="normal" in="SourceGraphic" in2="effect1_dropShadow" result="shape"/>
</filter>
<linearGradient id="paint0_linear" x1="10" y1="0" x2="10" y2="18.75" gradientUnits="userSpaceOnUse">
<stop stop-color="white" stop-opacity="0.5"/>
<stop offset="1" stop-opacity="0.5"/>
</linearGradient>
</defs>
</svg>
