<svg width="20" height="20" viewBox="0 0 20 20" fill="none" xmlns="http://www.w3.org/2000/svg">
<g filter="url(#filter0_d)">
<path d="M10 18.75C15.1777 18.75 19.375 14.5527 19.375 9.375C19.375 4.19733 15.1777 0 10 0C4.82233 0 0.625 4.19733 0.625 9.375C0.625 14.5527 4.82233 18.75 10 18.75Z" fill="black"/>
</g>
<path d="M10 18.75C15.1777 18.75 19.375 14.5527 19.375 9.375C19.375 4.19733 15.1777 0 10 0C4.82233 0 0.625 4.19733 0.625 9.375C0.625 14.5527 4.82233 18.75 10 18.75Z" fill="#26A17B"/>
<path style="mix-blend-mode:soft-light" d="M10 18.75C15.1777 18.75 19.375 14.5527 19.375 9.375C19.375 4.19733 15.1777 0 10 0C4.82233 0 0.625 4.19733 0.625 9.375C0.625 14.5527 4.82233 18.75 10 18.75Z" fill="url(#paint0_linear)"/>
<path d="M10 18.4375C15.0051 18.4375 19.0625 14.3801 19.0625 9.375C19.0625 4.36992 15.0051 0.3125 10 0.3125C4.99492 0.3125 0.9375 4.36992 0.9375 9.375C0.9375 14.3801 4.99492 18.4375 10 18.4375Z" stroke="black" stroke-opacity="0.097"/>
<g filter="url(#filter1_d)">
<path d="M11.2012 10.2394V10.2382C11.1325 10.2432 10.7781 10.2644 9.9875 10.2644C9.35625 10.2644 8.91187 10.2457 8.75562 10.2382V10.2401C6.32562 10.1332 4.51187 9.71006 4.51187 9.20381C4.51187 8.69818 6.32562 8.27506 8.75562 8.16631V9.81881C8.91437 9.83006 9.36937 9.85693 9.99812 9.85693C10.7525 9.85693 11.1306 9.82568 11.2012 9.81943V8.16756C13.6262 8.27568 15.4356 8.69881 15.4356 9.20381C15.4356 9.71006 13.6262 10.1319 11.2012 10.2394ZM11.2012 7.99568V6.51693H14.585V4.26193H5.37187V6.51693H8.75562V7.99506C6.00562 8.12131 3.9375 8.66631 3.9375 9.31881C3.9375 9.97131 6.00562 10.5157 8.75562 10.6426V15.3813H11.2012V10.6413C13.9469 10.5151 16.01 9.97068 16.01 9.31881C16.01 8.66693 13.9469 8.12256 11.2012 7.99568Z" fill="black"/>
</g>
<path d="M11.2012 10.2394V10.2382C11.1325 10.2432 10.7781 10.2644 9.9875 10.2644C9.35625 10.2644 8.91187 10.2457 8.75562 10.2382V10.2401C6.32562 10.1332 4.51187 9.71006 4.51187 9.20381C4.51187 8.69818 6.32562 8.27506 8.75562 8.16631V9.81881C8.91437 9.83006 9.36937 9.85693 9.99812 9.85693C10.7525 9.85693 11.1306 9.82568 11.2012 9.81943V8.16756C13.6262 8.27568 15.4356 8.69881 15.4356 9.20381C15.4356 9.71006 13.6262 10.1319 11.2012 10.2394ZM11.2012 7.99568V6.51693H14.585V4.26193H5.37187V6.51693H8.75562V7.99506C6.00562 8.12131 3.9375 8.66631 3.9375 9.31881C3.9375 9.97131 6.00562 10.5157 8.75562 10.6426V15.3813H11.2012V10.6413C13.9469 10.5151 16.01 9.97068 16.01 9.31881C16.01 8.66693 13.9469 8.12256 11.2012 7.99568Z" fill="white"/>
<defs>
<filter id="filter0_d" x="-0.375" y="-0.5" width="20.75" height="20.75" filterUnits="userSpaceOnUse" color-interpolation-filters="sRGB">
<feFlood flood-opacity="0" result="BackgroundImageFix"/>
<feColorMatrix in="SourceAlpha" type="matrix" values="0 0 0 0 0 0 0 0 0 0 0 0 0 0 0 0 0 0 127 0"/>
<feOffset dy="0.5"/>
<feGaussianBlur stdDeviation="0.5"/>
<feColorMatrix type="matrix" values="0 0 0 0 0 0 0 0 0 0 0 0 0 0 0 0 0 0 0.199474 0"/>
<feBlend mode="normal" in2="BackgroundImageFix" result="effect1_dropShadow"/>
<feBlend mode="normal" in="SourceGraphic" in2="effect1_dropShadow" result="shape"/>
</filter>
<filter id="filter1_d" x="2.9375" y="3.76193" width="14.0725" height="13.1194" filterUnits="userSpaceOnUse" color-interpolation-filters="sRGB">
<feFlood flood-opacity="0" result="BackgroundImageFix"/>
<feColorMatrix in="SourceAlpha" type="matrix" values="0 0 0 0 0 0 0 0 0 0 0 0 0 0 0 0 0 0 127 0"/>
<feOffset dy="0.5"/>
<feGaussianBlur stdDeviation="0.5"/>
<feColorMatrix type="matrix" values="0 0 0 0 0 0 0 0 0 0 0 0 0 0 0 0 0 0 0.204257 0"/>
<feBlend mode="normal" in2="BackgroundImageFix" result="effect1_dropShadow"/>
<feBlend mode="normal" in="SourceGraphic" in2="effect1_dropShadow" result="shape"/>
</filter>
<linearGradient id="paint0_linear" x1="10" y1="0" x2="10" y2="18.75" gradientUnits="userSpaceOnUse">
<stop stop-color="white" stop-opacity="0.5"/>
<stop offset="1" stop-opacity="0.5"/>
</linearGradient>
</defs>
</svg>
