<svg width="20" height="20" viewBox="0 0 20 20" fill="none" xmlns="http://www.w3.org/2000/svg">
<g filter="url(#filter0_d)">
<path d="M10 18.75C15.1777 18.75 19.375 14.5527 19.375 9.375C19.375 4.19733 15.1777 0 10 0C4.82233 0 0.625 4.19733 0.625 9.375C0.625 14.5527 4.82233 18.75 10 18.75Z" fill="black"/>
</g>
<path d="M10 18.75C15.1777 18.75 19.375 14.5527 19.375 9.375C19.375 4.19733 15.1777 0 10 0C4.82233 0 0.625 4.19733 0.625 9.375C0.625 14.5527 4.82233 18.75 10 18.75Z" fill="#201A2D"/>
<path style="mix-blend-mode:soft-light" d="M10 18.75C15.1777 18.75 19.375 14.5527 19.375 9.375C19.375 4.19733 15.1777 0 10 0C4.82233 0 0.625 4.19733 0.625 9.375C0.625 14.5527 4.82233 18.75 10 18.75Z" fill="url(#paint0_linear)"/>
<path d="M10 18.4375C15.0051 18.4375 19.0625 14.3801 19.0625 9.375C19.0625 4.36992 15.0051 0.3125 10 0.3125C4.99492 0.3125 0.9375 4.36992 0.9375 9.375C0.9375 14.3801 4.99492 18.4375 10 18.4375Z" stroke="black" stroke-opacity="0.097"/>
<g filter="url(#filter1_d)">
<path d="M14.2612 5.36618L13.8862 5.74118C14.7811 6.71972 15.2773 7.9977 15.2773 9.32368C15.2773 10.6497 14.7811 11.9276 13.8862 12.9062L14.2612 13.2812C15.2564 12.2018 15.8089 10.7874 15.8089 9.31931C15.8089 7.85119 15.2564 6.43683 14.2612 5.35743V5.36618ZM6.37499 5.39868C7.35353 4.50387 8.63151 4.00765 9.95749 4.00765C11.2835 4.00765 12.5615 4.50387 13.54 5.39868L13.915 5.02368C12.8356 4.02856 11.4212 3.47607 9.95312 3.47607C8.485 3.47607 7.07064 4.02856 5.99124 5.02368L6.37499 5.39868ZM6.02374 12.9099C5.12999 11.9316 4.63443 10.6544 4.63443 9.32931C4.63443 8.0042 5.12999 6.727 6.02374 5.74868L5.64874 5.37368C4.65362 6.45308 4.10114 7.86744 4.10114 9.33556C4.10114 10.8037 4.65362 12.218 5.64874 13.2974L6.02374 12.9099ZM13.535 13.2562C12.5565 14.151 11.2785 14.6472 9.95249 14.6472C8.62651 14.6472 7.34853 14.151 6.36999 13.2562L5.99499 13.6312C7.07439 14.6263 8.48875 15.1788 9.95687 15.1788C11.425 15.1788 12.8393 14.6263 13.9187 13.6312L13.535 13.2562ZM12.3212 8.07743C12.2462 7.29493 11.5712 7.03243 10.7175 6.95243V5.87493H10.0575V6.93243H9.52999V5.87493H8.87499V6.95993H7.53624V7.66618C7.53624 7.66618 8.02374 7.65743 8.01624 7.66618C8.10414 7.65651 8.19237 7.68134 8.26232 7.73544C8.33227 7.78954 8.37849 7.86867 8.39124 7.95618V10.9262C8.38937 10.957 8.38132 10.9872 8.36758 11.0149C8.35384 11.0426 8.33468 11.0673 8.31124 11.0874C8.28825 11.108 8.26133 11.1237 8.23212 11.1335C8.2029 11.1434 8.17199 11.1473 8.14124 11.1449C8.14999 11.1524 7.66124 11.1449 7.66124 11.1449L7.53624 11.9337H8.86249V13.0362H9.52249V11.9499H10.05V13.0312H10.7112V11.9412C11.8262 11.8737 12.6037 11.5987 12.7012 10.5549C12.78 9.71493 12.385 9.33993 11.7537 9.18868C12.1375 8.99993 12.375 8.64993 12.3212 8.07743ZM11.3962 10.4249C11.3962 11.2449 9.99124 11.1512 9.54374 11.1512V9.69618C9.99124 9.69743 11.3962 9.56868 11.3962 10.4249ZM11.09 8.37493C11.09 9.12493 9.91749 9.03368 9.54499 9.03368V7.71118C9.91749 7.71118 11.09 7.59368 11.09 8.37493Z" fill="white"/>
<path d="M9.9525 16.1575C6.18125 16.1569 3.125 13.0994 3.125 9.32812C3.125 5.5575 6.1825 2.5 9.95312 2.5C13.7244 2.5 16.7819 5.55625 16.7825 9.3275C16.7827 10.2245 16.6061 11.1127 16.2629 11.9414C15.9198 12.7702 15.4167 13.5231 14.7824 14.1574C14.1481 14.7917 13.3952 15.2948 12.5664 15.6379C11.7377 15.9811 10.8495 16.1577 9.9525 16.1575ZM9.9525 3.0325C6.47812 3.035 3.66375 5.85312 3.665 9.3275C3.66625 12.8019 6.48375 15.6175 9.9575 15.6175C13.4319 15.6175 16.2487 12.8019 16.25 9.3275C16.2503 8.50053 16.0876 7.6816 15.7713 6.91754C15.4549 6.15349 14.991 5.45929 14.4061 4.87465C13.8212 4.29 13.1268 3.82638 12.3626 3.51029C11.5985 3.1942 10.7795 3.03184 9.9525 3.0325Z" fill="white"/>
</g>
<defs>
<filter id="filter0_d" x="-0.375" y="-0.5" width="20.75" height="20.75" filterUnits="userSpaceOnUse" color-interpolation-filters="sRGB">
<feFlood flood-opacity="0" result="BackgroundImageFix"/>
<feColorMatrix in="SourceAlpha" type="matrix" values="0 0 0 0 0 0 0 0 0 0 0 0 0 0 0 0 0 0 127 0"/>
<feOffset dy="0.5"/>
<feGaussianBlur stdDeviation="0.5"/>
<feColorMatrix type="matrix" values="0 0 0 0 0 0 0 0 0 0 0 0 0 0 0 0 0 0 0.199474 0"/>
<feBlend mode="normal" in2="BackgroundImageFix" result="effect1_dropShadow"/>
<feBlend mode="normal" in="SourceGraphic" in2="effect1_dropShadow" result="shape"/>
</filter>
<filter id="filter1_d" x="2.125" y="2" width="15.6575" height="15.6575" filterUnits="userSpaceOnUse" color-interpolation-filters="sRGB">
<feFlood flood-opacity="0" result="BackgroundImageFix"/>
<feColorMatrix in="SourceAlpha" type="matrix" values="0 0 0 0 0 0 0 0 0 0 0 0 0 0 0 0 0 0 127 0"/>
<feOffset dy="0.5"/>
<feGaussianBlur stdDeviation="0.5"/>
<feColorMatrix type="matrix" values="0 0 0 0 0 0 0 0 0 0 0 0 0 0 0 0 0 0 0.204257 0"/>
<feBlend mode="normal" in2="BackgroundImageFix" result="effect1_dropShadow"/>
<feBlend mode="normal" in="SourceGraphic" in2="effect1_dropShadow" result="shape"/>
</filter>
<linearGradient id="paint0_linear" x1="10" y1="0" x2="10" y2="18.75" gradientUnits="userSpaceOnUse">
<stop stop-color="white" stop-opacity="0.5"/>
<stop offset="1" stop-opacity="0.5"/>
</linearGradient>
</defs>
</svg>
