<svg width="213" height="77" viewBox="0 0 213 77" fill="none" xmlns="http://www.w3.org/2000/svg">
<path d="M174.597 76.3679C195.556 76.3679 212.547 59.3768 212.547 38.4172C212.547 17.4577 195.556 0.466614 174.597 0.466614C153.637 0.466614 136.646 17.4577 136.646 38.4172C136.646 59.3768 153.637 76.3679 174.597 76.3679Z" fill="url(#paint0_linear)" fill-opacity="0.1"/>
<path d="M129.23 76.3679C150.19 76.3679 167.181 59.3768 167.181 38.4172C167.181 17.4577 150.19 0.466614 129.23 0.466614C108.271 0.466614 91.2799 17.4577 91.2799 38.4172C91.2799 59.3768 108.271 76.3679 129.23 76.3679Z" fill="url(#paint1_linear)" fill-opacity="0.2"/>
<path d="M83.8643 76.3679C104.824 76.3679 121.815 59.3768 121.815 38.4172C121.815 17.4577 104.824 0.466614 83.8643 0.466614C62.9047 0.466614 45.9136 17.4577 45.9136 38.4172C45.9136 59.3768 62.9047 76.3679 83.8643 76.3679Z" fill="url(#paint2_linear)" fill-opacity="0.4"/>
<path d="M38.498 76.3679C59.4575 76.3679 76.4486 59.3768 76.4486 38.4173C76.4486 17.4577 59.4575 0.466675 38.498 0.466675C17.5384 0.466675 0.547363 17.4577 0.547363 38.4173C0.547363 59.3768 17.5384 76.3679 38.498 76.3679Z" fill="url(#paint3_linear)"/>
<defs>
<linearGradient id="paint0_linear" x1="147.76" y1="11.584" x2="201.44" y2="65.2636" gradientUnits="userSpaceOnUse">
<stop stop-color="#FF8B71"/>
<stop offset="0.704" stop-color="#C33F50"/>
<stop offset="1" stop-color="#A81E41"/>
</linearGradient>
<linearGradient id="paint1_linear" x1="102.394" y1="11.584" x2="156.074" y2="65.2636" gradientUnits="userSpaceOnUse">
<stop stop-color="#FF8B71"/>
<stop offset="0.704" stop-color="#C33F50"/>
<stop offset="1" stop-color="#A81E41"/>
</linearGradient>
<linearGradient id="paint2_linear" x1="57.0279" y1="11.584" x2="110.707" y2="65.2636" gradientUnits="userSpaceOnUse">
<stop stop-color="#FF8B71"/>
<stop offset="0.704" stop-color="#C33F50"/>
<stop offset="1" stop-color="#A81E41"/>
</linearGradient>
<linearGradient id="paint3_linear" x1="11.6616" y1="11.5841" x2="65.3411" y2="65.2636" gradientUnits="userSpaceOnUse">
<stop stop-color="#FF8B71"/>
<stop offset="0.704" stop-color="#C33F50"/>
<stop offset="1" stop-color="#A81E41"/>
</linearGradient>
</defs>
</svg>
