<svg width="1440" height="237" viewBox="0 0 1440 237" fill="none" xmlns="http://www.w3.org/2000/svg">
<g style="mix-blend-mode:screen" opacity="0.1">
<path d="M116.791 68.2806L184.233 18.1798L251.676 68.2806L184.233 118.381L116.791 68.2806Z" stroke="#DBDBDB"/>
<circle cx="115.953" cy="68.2804" r="4.38924" fill="url(#paint0_linear)"/>
<circle cx="184.425" cy="18.2432" r="4.38924" fill="url(#paint1_linear)"/>
<circle cx="184.425" cy="117.44" r="4.38924" fill="url(#paint2_linear)"/>
<path d="M-15.7722 68.2806L51.6699 18.1798L119.112 68.2806L51.6699 118.381L-15.7722 68.2806Z" stroke="#DBDBDB"/>
<circle cx="51.8614" cy="18.2432" r="4.38924" fill="url(#paint3_linear)"/>
<circle cx="51.8614" cy="117.44" r="4.38924" fill="url(#paint4_linear)"/>
<path d="M-15.7722 167.878L51.6699 117.777L119.112 167.878L51.6699 217.978L-15.7722 167.878Z" stroke="#DBDBDB"/>
<circle cx="51.8614" cy="117.84" r="4.38924" fill="url(#paint5_linear)"/>
<circle cx="51.8614" cy="217.037" r="4.38924" fill="url(#paint6_linear)"/>
<path d="M251.102 68.2806L318.544 18.1798L385.986 68.2806L318.544 118.381L251.102 68.2806Z" stroke="#DBDBDB"/>
<circle cx="250.264" cy="68.2804" r="4.38924" fill="url(#paint7_linear)"/>
<circle cx="318.736" cy="18.2432" r="4.38924" fill="url(#paint8_linear)"/>
<circle cx="318.736" cy="117.44" r="4.38924" fill="url(#paint9_linear)"/>
<path d="M385.413 68.2806L452.855 18.1798L520.297 68.2806L452.855 118.381L385.413 68.2806Z" stroke="#DBDBDB"/>
<circle cx="384.574" cy="68.2804" r="4.38924" fill="url(#paint10_linear)"/>
<circle cx="453.046" cy="18.2432" r="4.38924" fill="url(#paint11_linear)"/>
<circle cx="453.046" cy="117.44" r="4.38924" fill="url(#paint12_linear)"/>
<path d="M519.723 68.2806L587.166 18.1798L654.608 68.2806L587.166 118.381L519.723 68.2806Z" stroke="#DBDBDB"/>
<circle cx="518.885" cy="68.2804" r="4.38924" fill="url(#paint13_linear)"/>
<circle cx="587.357" cy="18.2432" r="4.38924" fill="url(#paint14_linear)"/>
<circle cx="587.357" cy="117.44" r="4.38924" fill="url(#paint15_linear)"/>
<path d="M654.034 68.2806L721.476 18.1798L788.918 68.2806L721.476 118.381L654.034 68.2806Z" stroke="#DBDBDB"/>
<circle cx="653.196" cy="68.2804" r="4.38924" fill="url(#paint16_linear)"/>
<circle cx="721.668" cy="18.2432" r="4.38924" fill="url(#paint17_linear)"/>
<circle cx="721.668" cy="117.44" r="4.38924" fill="url(#paint18_linear)"/>
<path d="M788.345 68.2806L855.787 18.1798L923.229 68.2806L855.787 118.381L788.345 68.2806Z" stroke="#DBDBDB"/>
<circle cx="787.506" cy="68.2804" r="4.38924" fill="url(#paint19_linear)"/>
<circle cx="855.979" cy="18.2432" r="4.38924" fill="url(#paint20_linear)"/>
<circle cx="855.979" cy="117.44" r="4.38924" fill="url(#paint21_linear)"/>
<path d="M922.656 68.2806L990.098 18.1798L1057.54 68.2806L990.098 118.381L922.656 68.2806Z" stroke="#DBDBDB"/>
<circle cx="921.817" cy="68.2804" r="4.38924" fill="url(#paint22_linear)"/>
<circle cx="990.29" cy="18.2432" r="4.38924" fill="url(#paint23_linear)"/>
<circle cx="990.29" cy="117.44" r="4.38924" fill="url(#paint24_linear)"/>
<path d="M1056.97 68.2806L1124.41 18.1798L1191.85 68.2806L1124.41 118.381L1056.97 68.2806Z" stroke="#DBDBDB"/>
<circle cx="1056.13" cy="68.2804" r="4.38924" fill="url(#paint25_linear)"/>
<circle cx="1124.6" cy="18.2432" r="4.38924" fill="url(#paint26_linear)"/>
<circle cx="1124.6" cy="117.44" r="4.38924" fill="url(#paint27_linear)"/>
<path d="M1191.28 68.2806L1258.72 18.1798L1326.16 68.2806L1258.72 118.381L1191.28 68.2806Z" stroke="#DBDBDB"/>
<circle cx="1190.44" cy="68.2804" r="4.38924" fill="url(#paint28_linear)"/>
<circle cx="1258.91" cy="18.2432" r="4.38924" fill="url(#paint29_linear)"/>
<circle cx="1258.91" cy="117.44" r="4.38924" fill="url(#paint30_linear)"/>
<path d="M1325.23 68.2806L1392.67 18.1798L1460.11 68.2806L1392.67 118.381L1325.23 68.2806Z" stroke="#DBDBDB"/>
<circle cx="1324.39" cy="68.2804" r="4.38924" fill="url(#paint31_linear)"/>
<circle cx="1392.86" cy="18.2432" r="4.38924" fill="url(#paint32_linear)"/>
<circle cx="1392.86" cy="117.44" r="4.38924" fill="url(#paint33_linear)"/>
<path d="M1325.23 167.878L1392.67 117.777L1460.11 167.878L1392.67 217.978L1325.23 167.878Z" stroke="#DBDBDB"/>
<circle cx="1324.39" cy="167.878" r="4.38924" fill="url(#paint34_linear)"/>
<circle cx="1392.86" cy="117.84" r="4.38924" fill="url(#paint35_linear)"/>
<circle cx="1392.86" cy="217.037" r="4.38924" fill="url(#paint36_linear)"/>
<path d="M116.791 167.477L184.233 117.377L251.676 167.477L184.233 217.578L116.791 167.477Z" stroke="#DBDBDB"/>
<circle cx="115.953" cy="167.477" r="4.38924" fill="url(#paint37_linear)"/>
<circle cx="184.425" cy="117.44" r="4.38924" fill="url(#paint38_linear)"/>
<circle cx="184.425" cy="216.637" r="4.38924" fill="url(#paint39_linear)"/>
<path d="M251.102 167.477L318.544 117.377L385.986 167.477L318.544 217.578L251.102 167.477Z" stroke="#DBDBDB"/>
<circle cx="250.264" cy="167.477" r="4.38924" fill="url(#paint40_linear)"/>
<circle cx="318.736" cy="117.44" r="4.38924" fill="url(#paint41_linear)"/>
<circle cx="318.736" cy="216.637" r="4.38924" fill="url(#paint42_linear)"/>
<path d="M385.413 167.477L452.855 117.377L520.297 167.477L452.855 217.578L385.413 167.477Z" stroke="#DBDBDB"/>
<circle cx="384.574" cy="167.477" r="4.38924" fill="url(#paint43_linear)"/>
<circle cx="453.046" cy="117.44" r="4.38924" fill="url(#paint44_linear)"/>
<circle cx="453.046" cy="216.637" r="4.38924" fill="url(#paint45_linear)"/>
<path d="M519.723 167.477L587.166 117.377L654.608 167.477L587.166 217.578L519.723 167.477Z" stroke="#DBDBDB"/>
<circle cx="518.885" cy="167.477" r="4.38924" fill="url(#paint46_linear)"/>
<circle cx="587.357" cy="117.44" r="4.38924" fill="url(#paint47_linear)"/>
<circle cx="587.357" cy="216.637" r="4.38924" fill="url(#paint48_linear)"/>
<path d="M654.034 167.477L721.476 117.377L788.918 167.477L721.476 217.578L654.034 167.477Z" stroke="#DBDBDB"/>
<circle cx="653.196" cy="167.477" r="4.38924" fill="url(#paint49_linear)"/>
<circle cx="721.668" cy="117.44" r="4.38924" fill="url(#paint50_linear)"/>
<circle cx="721.668" cy="216.637" r="4.38924" fill="url(#paint51_linear)"/>
<path d="M788.345 167.477L855.787 117.377L923.229 167.477L855.787 217.578L788.345 167.477Z" stroke="#DBDBDB"/>
<circle cx="787.506" cy="167.477" r="4.38924" fill="url(#paint52_linear)"/>
<circle cx="855.979" cy="117.44" r="4.38924" fill="url(#paint53_linear)"/>
<circle cx="855.979" cy="216.637" r="4.38924" fill="url(#paint54_linear)"/>
<path d="M922.656 167.477L990.098 117.377L1057.54 167.477L990.098 217.578L922.656 167.477Z" stroke="#DBDBDB"/>
<circle cx="921.817" cy="167.477" r="4.38924" fill="url(#paint55_linear)"/>
<circle cx="990.29" cy="117.44" r="4.38924" fill="url(#paint56_linear)"/>
<circle cx="990.29" cy="216.637" r="4.38924" fill="url(#paint57_linear)"/>
<path d="M1056.97 167.477L1124.41 117.377L1191.85 167.477L1124.41 217.578L1056.97 167.477Z" stroke="#DBDBDB"/>
<circle cx="1056.13" cy="167.477" r="4.38924" fill="url(#paint58_linear)"/>
<circle cx="1124.6" cy="117.44" r="4.38924" fill="url(#paint59_linear)"/>
<circle cx="1124.6" cy="216.637" r="4.38924" fill="url(#paint60_linear)"/>
<path d="M1191.28 167.477L1258.72 117.377L1326.16 167.477L1258.72 217.578L1191.28 167.477Z" stroke="#DBDBDB"/>
<circle cx="1190.44" cy="167.477" r="4.38924" fill="url(#paint61_linear)"/>
<circle cx="1258.91" cy="117.44" r="4.38924" fill="url(#paint62_linear)"/>
<circle cx="1258.91" cy="216.637" r="4.38924" fill="url(#paint63_linear)"/>
</g>
<path d="M653.228 68.2806L720.67 18.1798L788.112 68.2806L720.67 118.381L653.228 68.2806Z" stroke="black"/>
<circle cx="652.389" cy="68.2804" r="4.38924" fill="url(#paint64_linear)"/>
<circle cx="787.578" cy="68.2804" r="4.38924" fill="url(#paint65_linear)"/>
<circle cx="720.861" cy="18.2432" r="4.38924" fill="url(#paint66_linear)"/>
<circle cx="720.861" cy="117.44" r="4.38924" fill="url(#paint67_linear)"/>
<path d="M653.228 167.477L720.67 117.377L788.112 167.477L720.67 217.578L653.228 167.477Z" stroke="black"/>
<circle cx="652.389" cy="167.477" r="4.38924" fill="url(#paint68_linear)"/>
<circle cx="788.456" cy="167.477" r="4.38924" fill="url(#paint69_linear)"/>
<circle cx="720.861" cy="117.44" r="4.38924" fill="url(#paint70_linear)"/>
<circle cx="720.861" cy="216.637" r="4.38924" fill="url(#paint71_linear)"/>
<path d="M517.228 167.477L584.67 117.377L652.112 167.477L584.67 217.578L517.228 167.477Z" stroke="black"/>
<circle cx="516.389" cy="167.477" r="4.38924" fill="url(#paint72_linear)"/>
<circle cx="652.456" cy="167.477" r="4.38924" fill="url(#paint73_linear)"/>
<circle cx="584.861" cy="117.44" r="4.38924" fill="url(#paint74_linear)"/>
<circle cx="584.861" cy="216.637" r="4.38924" fill="url(#paint75_linear)"/>
<path d="M855.228 117.44L922.67 67.3395L990.112 117.44L922.67 167.541L855.228 117.44Z" stroke="black"/>
<circle cx="854.389" cy="117.44" r="4.38924" fill="url(#paint76_linear)"/>
<circle cx="990.456" cy="117.44" r="4.38924" fill="url(#paint77_linear)"/>
<circle cx="922.861" cy="67.4029" r="4.38924" fill="url(#paint78_linear)"/>
<circle cx="922.861" cy="166.6" r="4.38924" fill="url(#paint79_linear)"/>
<path d="M318.228 117.44L385.67 67.3395L453.112 117.44L385.67 167.541L318.228 117.44Z" stroke="black"/>
<circle cx="317.389" cy="117.44" r="4.38924" fill="url(#paint80_linear)"/>
<circle cx="453.456" cy="117.44" r="4.38924" fill="url(#paint81_linear)"/>
<circle cx="385.861" cy="67.4029" r="4.38924" fill="url(#paint82_linear)"/>
<circle cx="385.861" cy="166.6" r="4.38924" fill="url(#paint83_linear)"/>
<path d="M114.228 68.4402L181.67 18.3395L249.112 68.4402L181.67 118.541L114.228 68.4402Z" stroke="black"/>
<circle cx="113.389" cy="68.44" r="4.38924" fill="url(#paint84_linear)"/>
<circle cx="249.456" cy="68.44" r="4.38924" fill="url(#paint85_linear)"/>
<circle cx="181.861" cy="18.4029" r="4.38924" fill="url(#paint86_linear)"/>
<circle cx="181.861" cy="117.6" r="4.38924" fill="url(#paint87_linear)"/>
<path d="M1189.23 68.4402L1256.67 18.3395L1324.11 68.4402L1256.67 118.541L1189.23 68.4402Z" stroke="black"/>
<circle cx="1188.39" cy="68.44" r="4.38924" fill="url(#paint88_linear)"/>
<circle cx="1324.46" cy="68.44" r="4.38924" fill="url(#paint89_linear)"/>
<circle cx="1256.86" cy="18.4029" r="4.38924" fill="url(#paint90_linear)"/>
<circle cx="1256.86" cy="117.6" r="4.38924" fill="url(#paint91_linear)"/>
<path d="M1057.23 168.44L1124.67 118.339L1192.11 168.44L1124.67 218.541L1057.23 168.44Z" stroke="black"/>
<circle cx="1056.39" cy="168.44" r="4.38924" fill="url(#paint92_linear)"/>
<circle cx="1192.46" cy="168.44" r="4.38924" fill="url(#paint93_linear)"/>
<circle cx="1124.86" cy="118.403" r="4.38924" fill="url(#paint94_linear)"/>
<circle cx="1124.86" cy="217.6" r="4.38924" fill="url(#paint95_linear)"/>
<defs>
<linearGradient id="paint0_linear" x1="112.849" y1="65.1769" x2="119.057" y2="71.3853" gradientUnits="userSpaceOnUse">
<stop stop-color="#FF8B71"/>
<stop offset="0.704" stop-color="#C33F50"/>
<stop offset="1" stop-color="#A81E41"/>
</linearGradient>
<linearGradient id="paint1_linear" x1="181.321" y1="15.1398" x2="187.529" y2="21.3482" gradientUnits="userSpaceOnUse">
<stop stop-color="#FF8B71"/>
<stop offset="0.704" stop-color="#C33F50"/>
<stop offset="1" stop-color="#A81E41"/>
</linearGradient>
<linearGradient id="paint2_linear" x1="181.321" y1="114.337" x2="187.529" y2="120.545" gradientUnits="userSpaceOnUse">
<stop stop-color="#FF8B71"/>
<stop offset="0.704" stop-color="#C33F50"/>
<stop offset="1" stop-color="#A81E41"/>
</linearGradient>
<linearGradient id="paint3_linear" x1="48.7576" y1="15.1398" x2="54.966" y2="21.3482" gradientUnits="userSpaceOnUse">
<stop stop-color="#FF8B71"/>
<stop offset="0.704" stop-color="#C33F50"/>
<stop offset="1" stop-color="#A81E41"/>
</linearGradient>
<linearGradient id="paint4_linear" x1="48.7576" y1="114.337" x2="54.966" y2="120.545" gradientUnits="userSpaceOnUse">
<stop stop-color="#FF8B71"/>
<stop offset="0.704" stop-color="#C33F50"/>
<stop offset="1" stop-color="#A81E41"/>
</linearGradient>
<linearGradient id="paint5_linear" x1="48.7576" y1="114.737" x2="54.966" y2="120.945" gradientUnits="userSpaceOnUse">
<stop stop-color="#FF8B71"/>
<stop offset="0.704" stop-color="#C33F50"/>
<stop offset="1" stop-color="#A81E41"/>
</linearGradient>
<linearGradient id="paint6_linear" x1="48.7576" y1="213.934" x2="54.966" y2="220.142" gradientUnits="userSpaceOnUse">
<stop stop-color="#FF8B71"/>
<stop offset="0.704" stop-color="#C33F50"/>
<stop offset="1" stop-color="#A81E41"/>
</linearGradient>
<linearGradient id="paint7_linear" x1="247.16" y1="65.1769" x2="253.368" y2="71.3853" gradientUnits="userSpaceOnUse">
<stop stop-color="#FF8B71"/>
<stop offset="0.704" stop-color="#C33F50"/>
<stop offset="1" stop-color="#A81E41"/>
</linearGradient>
<linearGradient id="paint8_linear" x1="315.632" y1="15.1398" x2="321.84" y2="21.3482" gradientUnits="userSpaceOnUse">
<stop stop-color="#FF8B71"/>
<stop offset="0.704" stop-color="#C33F50"/>
<stop offset="1" stop-color="#A81E41"/>
</linearGradient>
<linearGradient id="paint9_linear" x1="315.632" y1="114.337" x2="321.84" y2="120.545" gradientUnits="userSpaceOnUse">
<stop stop-color="#FF8B71"/>
<stop offset="0.704" stop-color="#C33F50"/>
<stop offset="1" stop-color="#A81E41"/>
</linearGradient>
<linearGradient id="paint10_linear" x1="381.47" y1="65.1769" x2="387.679" y2="71.3853" gradientUnits="userSpaceOnUse">
<stop stop-color="#FF8B71"/>
<stop offset="0.704" stop-color="#C33F50"/>
<stop offset="1" stop-color="#A81E41"/>
</linearGradient>
<linearGradient id="paint11_linear" x1="449.943" y1="15.1398" x2="456.151" y2="21.3482" gradientUnits="userSpaceOnUse">
<stop stop-color="#FF8B71"/>
<stop offset="0.704" stop-color="#C33F50"/>
<stop offset="1" stop-color="#A81E41"/>
</linearGradient>
<linearGradient id="paint12_linear" x1="449.943" y1="114.337" x2="456.151" y2="120.545" gradientUnits="userSpaceOnUse">
<stop stop-color="#FF8B71"/>
<stop offset="0.704" stop-color="#C33F50"/>
<stop offset="1" stop-color="#A81E41"/>
</linearGradient>
<linearGradient id="paint13_linear" x1="515.781" y1="65.1769" x2="521.99" y2="71.3853" gradientUnits="userSpaceOnUse">
<stop stop-color="#FF8B71"/>
<stop offset="0.704" stop-color="#C33F50"/>
<stop offset="1" stop-color="#A81E41"/>
</linearGradient>
<linearGradient id="paint14_linear" x1="584.253" y1="15.1398" x2="590.462" y2="21.3482" gradientUnits="userSpaceOnUse">
<stop stop-color="#FF8B71"/>
<stop offset="0.704" stop-color="#C33F50"/>
<stop offset="1" stop-color="#A81E41"/>
</linearGradient>
<linearGradient id="paint15_linear" x1="584.253" y1="114.337" x2="590.462" y2="120.545" gradientUnits="userSpaceOnUse">
<stop stop-color="#FF8B71"/>
<stop offset="0.704" stop-color="#C33F50"/>
<stop offset="1" stop-color="#A81E41"/>
</linearGradient>
<linearGradient id="paint16_linear" x1="650.092" y1="65.1769" x2="656.3" y2="71.3853" gradientUnits="userSpaceOnUse">
<stop stop-color="#FF8B71"/>
<stop offset="0.704" stop-color="#C33F50"/>
<stop offset="1" stop-color="#A81E41"/>
</linearGradient>
<linearGradient id="paint17_linear" x1="718.564" y1="15.1398" x2="724.773" y2="21.3482" gradientUnits="userSpaceOnUse">
<stop stop-color="#FF8B71"/>
<stop offset="0.704" stop-color="#C33F50"/>
<stop offset="1" stop-color="#A81E41"/>
</linearGradient>
<linearGradient id="paint18_linear" x1="718.564" y1="114.337" x2="724.773" y2="120.545" gradientUnits="userSpaceOnUse">
<stop stop-color="#FF8B71"/>
<stop offset="0.704" stop-color="#C33F50"/>
<stop offset="1" stop-color="#A81E41"/>
</linearGradient>
<linearGradient id="paint19_linear" x1="784.403" y1="65.1769" x2="790.611" y2="71.3853" gradientUnits="userSpaceOnUse">
<stop stop-color="#FF8B71"/>
<stop offset="0.704" stop-color="#C33F50"/>
<stop offset="1" stop-color="#A81E41"/>
</linearGradient>
<linearGradient id="paint20_linear" x1="852.875" y1="15.1398" x2="859.083" y2="21.3482" gradientUnits="userSpaceOnUse">
<stop stop-color="#FF8B71"/>
<stop offset="0.704" stop-color="#C33F50"/>
<stop offset="1" stop-color="#A81E41"/>
</linearGradient>
<linearGradient id="paint21_linear" x1="852.875" y1="114.337" x2="859.083" y2="120.545" gradientUnits="userSpaceOnUse">
<stop stop-color="#FF8B71"/>
<stop offset="0.704" stop-color="#C33F50"/>
<stop offset="1" stop-color="#A81E41"/>
</linearGradient>
<linearGradient id="paint22_linear" x1="918.714" y1="65.1769" x2="924.922" y2="71.3853" gradientUnits="userSpaceOnUse">
<stop stop-color="#FF8B71"/>
<stop offset="0.704" stop-color="#C33F50"/>
<stop offset="1" stop-color="#A81E41"/>
</linearGradient>
<linearGradient id="paint23_linear" x1="987.186" y1="15.1398" x2="993.394" y2="21.3482" gradientUnits="userSpaceOnUse">
<stop stop-color="#FF8B71"/>
<stop offset="0.704" stop-color="#C33F50"/>
<stop offset="1" stop-color="#A81E41"/>
</linearGradient>
<linearGradient id="paint24_linear" x1="987.186" y1="114.337" x2="993.394" y2="120.545" gradientUnits="userSpaceOnUse">
<stop stop-color="#FF8B71"/>
<stop offset="0.704" stop-color="#C33F50"/>
<stop offset="1" stop-color="#A81E41"/>
</linearGradient>
<linearGradient id="paint25_linear" x1="1053.02" y1="65.1769" x2="1059.23" y2="71.3853" gradientUnits="userSpaceOnUse">
<stop stop-color="#FF8B71"/>
<stop offset="0.704" stop-color="#C33F50"/>
<stop offset="1" stop-color="#A81E41"/>
</linearGradient>
<linearGradient id="paint26_linear" x1="1121.5" y1="15.1398" x2="1127.7" y2="21.3482" gradientUnits="userSpaceOnUse">
<stop stop-color="#FF8B71"/>
<stop offset="0.704" stop-color="#C33F50"/>
<stop offset="1" stop-color="#A81E41"/>
</linearGradient>
<linearGradient id="paint27_linear" x1="1121.5" y1="114.337" x2="1127.7" y2="120.545" gradientUnits="userSpaceOnUse">
<stop stop-color="#FF8B71"/>
<stop offset="0.704" stop-color="#C33F50"/>
<stop offset="1" stop-color="#A81E41"/>
</linearGradient>
<linearGradient id="paint28_linear" x1="1187.34" y1="65.1769" x2="1193.54" y2="71.3853" gradientUnits="userSpaceOnUse">
<stop stop-color="#FF8B71"/>
<stop offset="0.704" stop-color="#C33F50"/>
<stop offset="1" stop-color="#A81E41"/>
</linearGradient>
<linearGradient id="paint29_linear" x1="1255.81" y1="15.1398" x2="1262.02" y2="21.3482" gradientUnits="userSpaceOnUse">
<stop stop-color="#FF8B71"/>
<stop offset="0.704" stop-color="#C33F50"/>
<stop offset="1" stop-color="#A81E41"/>
</linearGradient>
<linearGradient id="paint30_linear" x1="1255.81" y1="114.337" x2="1262.02" y2="120.545" gradientUnits="userSpaceOnUse">
<stop stop-color="#FF8B71"/>
<stop offset="0.704" stop-color="#C33F50"/>
<stop offset="1" stop-color="#A81E41"/>
</linearGradient>
<linearGradient id="paint31_linear" x1="1321.29" y1="65.1769" x2="1327.49" y2="71.3853" gradientUnits="userSpaceOnUse">
<stop stop-color="#FF8B71"/>
<stop offset="0.704" stop-color="#C33F50"/>
<stop offset="1" stop-color="#A81E41"/>
</linearGradient>
<linearGradient id="paint32_linear" x1="1389.76" y1="15.1398" x2="1395.97" y2="21.3482" gradientUnits="userSpaceOnUse">
<stop stop-color="#FF8B71"/>
<stop offset="0.704" stop-color="#C33F50"/>
<stop offset="1" stop-color="#A81E41"/>
</linearGradient>
<linearGradient id="paint33_linear" x1="1389.76" y1="114.337" x2="1395.97" y2="120.545" gradientUnits="userSpaceOnUse">
<stop stop-color="#FF8B71"/>
<stop offset="0.704" stop-color="#C33F50"/>
<stop offset="1" stop-color="#A81E41"/>
</linearGradient>
<linearGradient id="paint34_linear" x1="1321.29" y1="164.774" x2="1327.49" y2="170.982" gradientUnits="userSpaceOnUse">
<stop stop-color="#FF8B71"/>
<stop offset="0.704" stop-color="#C33F50"/>
<stop offset="1" stop-color="#A81E41"/>
</linearGradient>
<linearGradient id="paint35_linear" x1="1389.76" y1="114.737" x2="1395.97" y2="120.945" gradientUnits="userSpaceOnUse">
<stop stop-color="#FF8B71"/>
<stop offset="0.704" stop-color="#C33F50"/>
<stop offset="1" stop-color="#A81E41"/>
</linearGradient>
<linearGradient id="paint36_linear" x1="1389.76" y1="213.934" x2="1395.97" y2="220.142" gradientUnits="userSpaceOnUse">
<stop stop-color="#FF8B71"/>
<stop offset="0.704" stop-color="#C33F50"/>
<stop offset="1" stop-color="#A81E41"/>
</linearGradient>
<linearGradient id="paint37_linear" x1="112.849" y1="164.374" x2="119.057" y2="170.582" gradientUnits="userSpaceOnUse">
<stop stop-color="#FF8B71"/>
<stop offset="0.704" stop-color="#C33F50"/>
<stop offset="1" stop-color="#A81E41"/>
</linearGradient>
<linearGradient id="paint38_linear" x1="181.321" y1="114.337" x2="187.529" y2="120.545" gradientUnits="userSpaceOnUse">
<stop stop-color="#FF8B71"/>
<stop offset="0.704" stop-color="#C33F50"/>
<stop offset="1" stop-color="#A81E41"/>
</linearGradient>
<linearGradient id="paint39_linear" x1="181.321" y1="213.533" x2="187.529" y2="219.742" gradientUnits="userSpaceOnUse">
<stop stop-color="#FF8B71"/>
<stop offset="0.704" stop-color="#C33F50"/>
<stop offset="1" stop-color="#A81E41"/>
</linearGradient>
<linearGradient id="paint40_linear" x1="247.16" y1="164.374" x2="253.368" y2="170.582" gradientUnits="userSpaceOnUse">
<stop stop-color="#FF8B71"/>
<stop offset="0.704" stop-color="#C33F50"/>
<stop offset="1" stop-color="#A81E41"/>
</linearGradient>
<linearGradient id="paint41_linear" x1="315.632" y1="114.337" x2="321.84" y2="120.545" gradientUnits="userSpaceOnUse">
<stop stop-color="#FF8B71"/>
<stop offset="0.704" stop-color="#C33F50"/>
<stop offset="1" stop-color="#A81E41"/>
</linearGradient>
<linearGradient id="paint42_linear" x1="315.632" y1="213.533" x2="321.84" y2="219.742" gradientUnits="userSpaceOnUse">
<stop stop-color="#FF8B71"/>
<stop offset="0.704" stop-color="#C33F50"/>
<stop offset="1" stop-color="#A81E41"/>
</linearGradient>
<linearGradient id="paint43_linear" x1="381.47" y1="164.374" x2="387.679" y2="170.582" gradientUnits="userSpaceOnUse">
<stop stop-color="#FF8B71"/>
<stop offset="0.704" stop-color="#C33F50"/>
<stop offset="1" stop-color="#A81E41"/>
</linearGradient>
<linearGradient id="paint44_linear" x1="449.943" y1="114.337" x2="456.151" y2="120.545" gradientUnits="userSpaceOnUse">
<stop stop-color="#FF8B71"/>
<stop offset="0.704" stop-color="#C33F50"/>
<stop offset="1" stop-color="#A81E41"/>
</linearGradient>
<linearGradient id="paint45_linear" x1="449.943" y1="213.533" x2="456.151" y2="219.742" gradientUnits="userSpaceOnUse">
<stop stop-color="#FF8B71"/>
<stop offset="0.704" stop-color="#C33F50"/>
<stop offset="1" stop-color="#A81E41"/>
</linearGradient>
<linearGradient id="paint46_linear" x1="515.781" y1="164.374" x2="521.99" y2="170.582" gradientUnits="userSpaceOnUse">
<stop stop-color="#FF8B71"/>
<stop offset="0.704" stop-color="#C33F50"/>
<stop offset="1" stop-color="#A81E41"/>
</linearGradient>
<linearGradient id="paint47_linear" x1="584.253" y1="114.337" x2="590.462" y2="120.545" gradientUnits="userSpaceOnUse">
<stop stop-color="#FF8B71"/>
<stop offset="0.704" stop-color="#C33F50"/>
<stop offset="1" stop-color="#A81E41"/>
</linearGradient>
<linearGradient id="paint48_linear" x1="584.253" y1="213.533" x2="590.462" y2="219.742" gradientUnits="userSpaceOnUse">
<stop stop-color="#FF8B71"/>
<stop offset="0.704" stop-color="#C33F50"/>
<stop offset="1" stop-color="#A81E41"/>
</linearGradient>
<linearGradient id="paint49_linear" x1="650.092" y1="164.374" x2="656.3" y2="170.582" gradientUnits="userSpaceOnUse">
<stop stop-color="#FF8B71"/>
<stop offset="0.704" stop-color="#C33F50"/>
<stop offset="1" stop-color="#A81E41"/>
</linearGradient>
<linearGradient id="paint50_linear" x1="718.564" y1="114.337" x2="724.773" y2="120.545" gradientUnits="userSpaceOnUse">
<stop stop-color="#FF8B71"/>
<stop offset="0.704" stop-color="#C33F50"/>
<stop offset="1" stop-color="#A81E41"/>
</linearGradient>
<linearGradient id="paint51_linear" x1="718.564" y1="213.533" x2="724.773" y2="219.742" gradientUnits="userSpaceOnUse">
<stop stop-color="#FF8B71"/>
<stop offset="0.704" stop-color="#C33F50"/>
<stop offset="1" stop-color="#A81E41"/>
</linearGradient>
<linearGradient id="paint52_linear" x1="784.403" y1="164.374" x2="790.611" y2="170.582" gradientUnits="userSpaceOnUse">
<stop stop-color="#FF8B71"/>
<stop offset="0.704" stop-color="#C33F50"/>
<stop offset="1" stop-color="#A81E41"/>
</linearGradient>
<linearGradient id="paint53_linear" x1="852.875" y1="114.337" x2="859.083" y2="120.545" gradientUnits="userSpaceOnUse">
<stop stop-color="#FF8B71"/>
<stop offset="0.704" stop-color="#C33F50"/>
<stop offset="1" stop-color="#A81E41"/>
</linearGradient>
<linearGradient id="paint54_linear" x1="852.875" y1="213.533" x2="859.083" y2="219.742" gradientUnits="userSpaceOnUse">
<stop stop-color="#FF8B71"/>
<stop offset="0.704" stop-color="#C33F50"/>
<stop offset="1" stop-color="#A81E41"/>
</linearGradient>
<linearGradient id="paint55_linear" x1="918.714" y1="164.374" x2="924.922" y2="170.582" gradientUnits="userSpaceOnUse">
<stop stop-color="#FF8B71"/>
<stop offset="0.704" stop-color="#C33F50"/>
<stop offset="1" stop-color="#A81E41"/>
</linearGradient>
<linearGradient id="paint56_linear" x1="987.186" y1="114.337" x2="993.394" y2="120.545" gradientUnits="userSpaceOnUse">
<stop stop-color="#FF8B71"/>
<stop offset="0.704" stop-color="#C33F50"/>
<stop offset="1" stop-color="#A81E41"/>
</linearGradient>
<linearGradient id="paint57_linear" x1="987.186" y1="213.533" x2="993.394" y2="219.742" gradientUnits="userSpaceOnUse">
<stop stop-color="#FF8B71"/>
<stop offset="0.704" stop-color="#C33F50"/>
<stop offset="1" stop-color="#A81E41"/>
</linearGradient>
<linearGradient id="paint58_linear" x1="1053.02" y1="164.374" x2="1059.23" y2="170.582" gradientUnits="userSpaceOnUse">
<stop stop-color="#FF8B71"/>
<stop offset="0.704" stop-color="#C33F50"/>
<stop offset="1" stop-color="#A81E41"/>
</linearGradient>
<linearGradient id="paint59_linear" x1="1121.5" y1="114.337" x2="1127.7" y2="120.545" gradientUnits="userSpaceOnUse">
<stop stop-color="#FF8B71"/>
<stop offset="0.704" stop-color="#C33F50"/>
<stop offset="1" stop-color="#A81E41"/>
</linearGradient>
<linearGradient id="paint60_linear" x1="1121.5" y1="213.533" x2="1127.7" y2="219.742" gradientUnits="userSpaceOnUse">
<stop stop-color="#FF8B71"/>
<stop offset="0.704" stop-color="#C33F50"/>
<stop offset="1" stop-color="#A81E41"/>
</linearGradient>
<linearGradient id="paint61_linear" x1="1187.34" y1="164.374" x2="1193.54" y2="170.582" gradientUnits="userSpaceOnUse">
<stop stop-color="#FF8B71"/>
<stop offset="0.704" stop-color="#C33F50"/>
<stop offset="1" stop-color="#A81E41"/>
</linearGradient>
<linearGradient id="paint62_linear" x1="1255.81" y1="114.337" x2="1262.02" y2="120.545" gradientUnits="userSpaceOnUse">
<stop stop-color="#FF8B71"/>
<stop offset="0.704" stop-color="#C33F50"/>
<stop offset="1" stop-color="#A81E41"/>
</linearGradient>
<linearGradient id="paint63_linear" x1="1255.81" y1="213.533" x2="1262.02" y2="219.742" gradientUnits="userSpaceOnUse">
<stop stop-color="#FF8B71"/>
<stop offset="0.704" stop-color="#C33F50"/>
<stop offset="1" stop-color="#A81E41"/>
</linearGradient>
<linearGradient id="paint64_linear" x1="649.285" y1="65.1769" x2="655.494" y2="71.3853" gradientUnits="userSpaceOnUse">
<stop stop-color="#FF8B71"/>
<stop offset="0.704" stop-color="#C33F50"/>
<stop offset="1" stop-color="#A81E41"/>
</linearGradient>
<linearGradient id="paint65_linear" x1="784.474" y1="65.1769" x2="790.683" y2="71.3853" gradientUnits="userSpaceOnUse">
<stop stop-color="#FF8B71"/>
<stop offset="0.704" stop-color="#C33F50"/>
<stop offset="1" stop-color="#A81E41"/>
</linearGradient>
<linearGradient id="paint66_linear" x1="717.758" y1="15.1398" x2="723.966" y2="21.3482" gradientUnits="userSpaceOnUse">
<stop stop-color="#FF8B71"/>
<stop offset="0.704" stop-color="#C33F50"/>
<stop offset="1" stop-color="#A81E41"/>
</linearGradient>
<linearGradient id="paint67_linear" x1="717.758" y1="114.337" x2="723.966" y2="120.545" gradientUnits="userSpaceOnUse">
<stop stop-color="#FF8B71"/>
<stop offset="0.704" stop-color="#C33F50"/>
<stop offset="1" stop-color="#A81E41"/>
</linearGradient>
<linearGradient id="paint68_linear" x1="649.285" y1="164.374" x2="655.494" y2="170.582" gradientUnits="userSpaceOnUse">
<stop stop-color="#FF8B71"/>
<stop offset="0.704" stop-color="#C33F50"/>
<stop offset="1" stop-color="#A81E41"/>
</linearGradient>
<linearGradient id="paint69_linear" x1="785.352" y1="164.374" x2="791.56" y2="170.582" gradientUnits="userSpaceOnUse">
<stop stop-color="#FF8B71"/>
<stop offset="0.704" stop-color="#C33F50"/>
<stop offset="1" stop-color="#A81E41"/>
</linearGradient>
<linearGradient id="paint70_linear" x1="717.758" y1="114.337" x2="723.966" y2="120.545" gradientUnits="userSpaceOnUse">
<stop stop-color="#FF8B71"/>
<stop offset="0.704" stop-color="#C33F50"/>
<stop offset="1" stop-color="#A81E41"/>
</linearGradient>
<linearGradient id="paint71_linear" x1="717.758" y1="213.533" x2="723.966" y2="219.742" gradientUnits="userSpaceOnUse">
<stop stop-color="#FF8B71"/>
<stop offset="0.704" stop-color="#C33F50"/>
<stop offset="1" stop-color="#A81E41"/>
</linearGradient>
<linearGradient id="paint72_linear" x1="513.285" y1="164.374" x2="519.494" y2="170.582" gradientUnits="userSpaceOnUse">
<stop stop-color="#FF8B71"/>
<stop offset="0.704" stop-color="#C33F50"/>
<stop offset="1" stop-color="#A81E41"/>
</linearGradient>
<linearGradient id="paint73_linear" x1="649.352" y1="164.374" x2="655.56" y2="170.582" gradientUnits="userSpaceOnUse">
<stop stop-color="#FF8B71"/>
<stop offset="0.704" stop-color="#C33F50"/>
<stop offset="1" stop-color="#A81E41"/>
</linearGradient>
<linearGradient id="paint74_linear" x1="581.758" y1="114.337" x2="587.966" y2="120.545" gradientUnits="userSpaceOnUse">
<stop stop-color="#FF8B71"/>
<stop offset="0.704" stop-color="#C33F50"/>
<stop offset="1" stop-color="#A81E41"/>
</linearGradient>
<linearGradient id="paint75_linear" x1="581.758" y1="213.533" x2="587.966" y2="219.742" gradientUnits="userSpaceOnUse">
<stop stop-color="#FF8B71"/>
<stop offset="0.704" stop-color="#C33F50"/>
<stop offset="1" stop-color="#A81E41"/>
</linearGradient>
<linearGradient id="paint76_linear" x1="851.285" y1="114.337" x2="857.494" y2="120.545" gradientUnits="userSpaceOnUse">
<stop stop-color="#FF8B71"/>
<stop offset="0.704" stop-color="#C33F50"/>
<stop offset="1" stop-color="#A81E41"/>
</linearGradient>
<linearGradient id="paint77_linear" x1="987.352" y1="114.337" x2="993.56" y2="120.545" gradientUnits="userSpaceOnUse">
<stop stop-color="#FF8B71"/>
<stop offset="0.704" stop-color="#C33F50"/>
<stop offset="1" stop-color="#A81E41"/>
</linearGradient>
<linearGradient id="paint78_linear" x1="919.758" y1="64.2995" x2="925.966" y2="70.5079" gradientUnits="userSpaceOnUse">
<stop stop-color="#FF8B71"/>
<stop offset="0.704" stop-color="#C33F50"/>
<stop offset="1" stop-color="#A81E41"/>
</linearGradient>
<linearGradient id="paint79_linear" x1="919.758" y1="163.496" x2="925.966" y2="169.705" gradientUnits="userSpaceOnUse">
<stop stop-color="#FF8B71"/>
<stop offset="0.704" stop-color="#C33F50"/>
<stop offset="1" stop-color="#A81E41"/>
</linearGradient>
<linearGradient id="paint80_linear" x1="314.285" y1="114.337" x2="320.494" y2="120.545" gradientUnits="userSpaceOnUse">
<stop stop-color="#FF8B71"/>
<stop offset="0.704" stop-color="#C33F50"/>
<stop offset="1" stop-color="#A81E41"/>
</linearGradient>
<linearGradient id="paint81_linear" x1="450.352" y1="114.337" x2="456.56" y2="120.545" gradientUnits="userSpaceOnUse">
<stop stop-color="#FF8B71"/>
<stop offset="0.704" stop-color="#C33F50"/>
<stop offset="1" stop-color="#A81E41"/>
</linearGradient>
<linearGradient id="paint82_linear" x1="382.758" y1="64.2995" x2="388.966" y2="70.5079" gradientUnits="userSpaceOnUse">
<stop stop-color="#FF8B71"/>
<stop offset="0.704" stop-color="#C33F50"/>
<stop offset="1" stop-color="#A81E41"/>
</linearGradient>
<linearGradient id="paint83_linear" x1="382.758" y1="163.496" x2="388.966" y2="169.705" gradientUnits="userSpaceOnUse">
<stop stop-color="#FF8B71"/>
<stop offset="0.704" stop-color="#C33F50"/>
<stop offset="1" stop-color="#A81E41"/>
</linearGradient>
<linearGradient id="paint84_linear" x1="110.285" y1="65.3366" x2="116.494" y2="71.545" gradientUnits="userSpaceOnUse">
<stop stop-color="#FF8B71"/>
<stop offset="0.704" stop-color="#C33F50"/>
<stop offset="1" stop-color="#A81E41"/>
</linearGradient>
<linearGradient id="paint85_linear" x1="246.352" y1="65.3366" x2="252.56" y2="71.545" gradientUnits="userSpaceOnUse">
<stop stop-color="#FF8B71"/>
<stop offset="0.704" stop-color="#C33F50"/>
<stop offset="1" stop-color="#A81E41"/>
</linearGradient>
<linearGradient id="paint86_linear" x1="178.758" y1="15.2995" x2="184.966" y2="21.5079" gradientUnits="userSpaceOnUse">
<stop stop-color="#FF8B71"/>
<stop offset="0.704" stop-color="#C33F50"/>
<stop offset="1" stop-color="#A81E41"/>
</linearGradient>
<linearGradient id="paint87_linear" x1="178.758" y1="114.496" x2="184.966" y2="120.705" gradientUnits="userSpaceOnUse">
<stop stop-color="#FF8B71"/>
<stop offset="0.704" stop-color="#C33F50"/>
<stop offset="1" stop-color="#A81E41"/>
</linearGradient>
<linearGradient id="paint88_linear" x1="1185.29" y1="65.3366" x2="1191.49" y2="71.545" gradientUnits="userSpaceOnUse">
<stop stop-color="#FF8B71"/>
<stop offset="0.704" stop-color="#C33F50"/>
<stop offset="1" stop-color="#A81E41"/>
</linearGradient>
<linearGradient id="paint89_linear" x1="1321.35" y1="65.3366" x2="1327.56" y2="71.545" gradientUnits="userSpaceOnUse">
<stop stop-color="#FF8B71"/>
<stop offset="0.704" stop-color="#C33F50"/>
<stop offset="1" stop-color="#A81E41"/>
</linearGradient>
<linearGradient id="paint90_linear" x1="1253.76" y1="15.2995" x2="1259.97" y2="21.5079" gradientUnits="userSpaceOnUse">
<stop stop-color="#FF8B71"/>
<stop offset="0.704" stop-color="#C33F50"/>
<stop offset="1" stop-color="#A81E41"/>
</linearGradient>
<linearGradient id="paint91_linear" x1="1253.76" y1="114.496" x2="1259.97" y2="120.705" gradientUnits="userSpaceOnUse">
<stop stop-color="#FF8B71"/>
<stop offset="0.704" stop-color="#C33F50"/>
<stop offset="1" stop-color="#A81E41"/>
</linearGradient>
<linearGradient id="paint92_linear" x1="1053.29" y1="165.337" x2="1059.49" y2="171.545" gradientUnits="userSpaceOnUse">
<stop stop-color="#FF8B71"/>
<stop offset="0.704" stop-color="#C33F50"/>
<stop offset="1" stop-color="#A81E41"/>
</linearGradient>
<linearGradient id="paint93_linear" x1="1189.35" y1="165.337" x2="1195.56" y2="171.545" gradientUnits="userSpaceOnUse">
<stop stop-color="#FF8B71"/>
<stop offset="0.704" stop-color="#C33F50"/>
<stop offset="1" stop-color="#A81E41"/>
</linearGradient>
<linearGradient id="paint94_linear" x1="1121.76" y1="115.299" x2="1127.97" y2="121.508" gradientUnits="userSpaceOnUse">
<stop stop-color="#FF8B71"/>
<stop offset="0.704" stop-color="#C33F50"/>
<stop offset="1" stop-color="#A81E41"/>
</linearGradient>
<linearGradient id="paint95_linear" x1="1121.76" y1="214.496" x2="1127.97" y2="220.705" gradientUnits="userSpaceOnUse">
<stop stop-color="#FF8B71"/>
<stop offset="0.704" stop-color="#C33F50"/>
<stop offset="1" stop-color="#A81E41"/>
</linearGradient>
</defs>
</svg>
