<svg width="555" height="555" viewBox="0 0 555 555" fill="none" xmlns="http://www.w3.org/2000/svg">
<path d="M277.23 409.044C350.029 409.044 409.044 350.029 409.044 277.23C409.044 204.431 350.029 145.416 277.23 145.416C204.431 145.416 145.416 204.431 145.416 277.23C145.416 350.029 204.431 409.044 277.23 409.044Z" stroke="#303030" stroke-width="2" stroke-miterlimit="10"/>
<path opacity="0.8889" d="M277.23 425.197C358.95 425.197 425.197 358.95 425.197 277.23C425.197 195.51 358.95 129.263 277.23 129.263C195.51 129.263 129.263 195.51 129.263 277.23C129.263 358.95 195.51 425.197 277.23 425.197Z" stroke="#303030" stroke-width="2" stroke-miterlimit="10"/>
<path opacity="0.7778" d="M277.23 441.358C367.875 441.358 441.358 367.875 441.358 277.23C441.358 186.585 367.875 113.102 277.23 113.102C186.584 113.102 113.102 186.585 113.102 277.23C113.102 367.875 186.584 441.358 277.23 441.358Z" stroke="#303030" stroke-width="2" stroke-miterlimit="10"/>
<path opacity="0.6667" d="M277.23 457.519C376.801 457.519 457.519 376.801 457.519 277.23C457.519 177.659 376.801 96.9414 277.23 96.9414C177.659 96.9414 96.9412 177.659 96.9412 277.23C96.9412 376.801 177.659 457.519 277.23 457.519Z" stroke="#303030" stroke-width="2" stroke-miterlimit="10"/>
<path opacity="0.5556" d="M277.23 473.672C385.722 473.672 473.672 385.722 473.672 277.23C473.672 168.738 385.722 80.7881 277.23 80.7881C168.738 80.7881 80.7883 168.738 80.7883 277.23C80.7883 385.722 168.738 473.672 277.23 473.672Z" stroke="#303030" stroke-width="2" stroke-miterlimit="10"/>
<path opacity="0.4444" d="M277.23 489.832C394.647 489.832 489.832 394.647 489.832 277.23C489.832 159.813 394.647 64.6274 277.23 64.6274C159.813 64.6274 64.6274 159.813 64.6274 277.23C64.6274 394.647 159.813 489.832 277.23 489.832Z" stroke="#303030" stroke-width="2" stroke-miterlimit="10"/>
<path opacity="0.3333" d="M277.23 505.985C403.568 505.985 505.985 403.568 505.985 277.23C505.985 150.892 403.568 48.4746 277.23 48.4746C150.892 48.4746 48.4745 150.892 48.4745 277.23C48.4745 403.568 150.892 505.985 277.23 505.985Z" stroke="#303030" stroke-width="2" stroke-miterlimit="10"/>
<path opacity="0.2222" d="M277.23 522.146C412.493 522.146 522.146 412.494 522.146 277.23C522.146 141.967 412.493 32.314 277.23 32.314C141.966 32.314 32.3138 141.967 32.3138 277.23C32.3138 412.494 141.966 522.146 277.23 522.146Z" stroke="#303030" stroke-width="2" stroke-miterlimit="10"/>
<path opacity="0.1111" d="M277.23 538.307C421.419 538.307 538.307 421.418 538.307 277.23C538.307 133.041 421.419 16.1528 277.23 16.1528C133.041 16.1528 16.1531 133.041 16.1531 277.23C16.1531 421.418 133.041 538.307 277.23 538.307Z" stroke="#303030" stroke-width="2" stroke-miterlimit="10"/>
</svg>
