<svg width="346" height="345" viewBox="0 0 346 345" fill="none" xmlns="http://www.w3.org/2000/svg">
<g filter="url(#filter0_di)">
<path d="M220.674 68.358C167.424 37.6139 99.3326 55.8588 68.5886 109.109C37.8445 162.359 56.0894 230.45 109.34 261.194C162.59 291.938 230.681 273.693 261.425 220.443C292.169 167.193 273.924 99.102 220.674 68.358Z" fill="url(#paint0_linear)" fill-opacity="0.4"/>
</g>
<g clip-path="url(#clip0)">
<path d="M164.498 70C190.273 70 214.507 79.986 232.733 98.117C250.963 116.248 261.001 140.357 261.001 165.998C261.001 191.639 250.963 215.752 232.737 233.883C214.512 252.014 190.277 262 164.498 262C138.72 262 114.49 252.014 96.2641 233.883C78.0387 215.752 68.0006 191.643 68.0006 166.002C68.0006 140.361 78.0387 116.252 96.2641 98.1213C114.49 79.986 138.724 70 164.498 70ZM164.498 255.477C188.522 255.477 211.112 246.169 228.1 229.27C245.087 212.37 254.444 189.901 254.444 165.998C254.444 142.095 245.087 119.625 228.1 102.726C211.113 85.8266 188.526 76.5186 164.498 76.5186C140.471 76.5186 117.884 85.8266 100.897 102.726C83.9096 119.625 74.5532 142.095 74.5532 165.998C74.5532 189.901 83.9096 212.366 100.897 229.27C117.889 246.169 140.475 255.477 164.498 255.477Z" fill="url(#paint1_linear)"/>
<g opacity="0.8">
<path d="M229.939 156.282L199.962 117.542C197.731 114.655 194.278 113 190.491 113C186.705 113 183.254 114.655 181.02 117.542L177.762 121.756L174.502 117.542C172.268 114.655 168.817 113 165.031 113C161.244 113 157.794 114.655 155.56 117.542L152.339 121.704L149.118 117.54C146.884 114.655 143.431 113 139.645 113C135.858 113 132.408 114.655 130.174 117.542L100.199 156.282C95.9337 161.796 95.9337 169.202 100.199 174.716L130.174 213.458C132.408 216.343 135.858 218 139.645 218C143.431 218 146.882 216.345 149.115 213.458L165.068 192.84L168.361 197.096H168.358C168.37 197.11 168.383 197.124 168.395 197.14L181.02 213.458C183.254 216.343 186.705 218 190.491 218C194.278 218 197.728 216.345 199.962 213.458L229.937 174.718C234.204 169.204 234.204 161.796 229.939 156.282ZM160.344 120.84C161.449 119.411 163.157 118.593 165.031 118.593C166.904 118.593 168.612 119.413 169.718 120.84L174.094 126.496L165.07 138.16L156.007 126.447L160.344 120.84ZM144.332 210.158C143.226 211.587 141.518 212.405 139.645 212.405C137.771 212.405 136.063 211.584 134.957 210.158L104.982 171.416C102.243 167.876 102.243 163.119 104.982 159.579L134.957 120.84C136.063 119.411 137.771 118.593 139.645 118.593C141.518 118.593 143.226 119.413 144.332 120.84L148.669 126.445L125.583 156.282C121.318 161.796 121.318 169.202 125.593 174.728L127.35 176.976L127.352 176.974L142.826 197.096C144.796 199.643 147.718 201.23 150.979 201.568L144.332 210.158ZM156.992 193.798L156.987 193.796C155.881 195.224 154.173 196.042 152.299 196.042C150.426 196.042 148.718 195.222 147.617 193.8L131.707 173.11L131.699 173.115L130.369 171.414C127.629 167.874 127.629 163.117 130.369 159.577L152.339 131.187L161.402 142.9L151.048 156.282C146.783 161.796 146.783 169.202 151.048 174.716L161.402 188.098L156.992 193.798ZM165.068 147.64L174.307 159.582C177.046 163.122 177.046 167.878 174.307 171.418L165.068 183.36L155.829 171.418C153.089 167.878 153.089 163.122 155.829 159.582L165.068 147.64ZM179.093 174.716C183.358 169.202 183.358 161.796 179.093 156.282L168.738 142.9L177.762 131.236L199.695 159.582C202.435 163.122 202.435 167.878 199.683 171.435L196.171 176.044L182.519 193.796C181.413 195.224 179.705 196.042 177.831 196.042C175.978 196.042 174.287 195.24 173.181 193.84L168.738 188.098L179.093 174.716ZM225.156 171.418L195.178 210.158C194.073 211.587 192.365 212.405 190.491 212.405C188.618 212.405 186.91 211.584 185.804 210.158L179.157 201.565C182.415 201.225 185.332 199.638 187.305 197.089L199.034 181.836L199.046 181.845L200.969 179.319L203.215 176.399L203.2 176.389L204.474 174.716C208.739 169.202 208.739 161.796 204.474 156.282L181.43 126.496L185.806 120.84C186.912 119.411 188.62 118.593 190.494 118.593C192.367 118.593 194.075 119.413 195.181 120.84L225.156 159.582C227.893 163.122 227.893 167.878 225.156 171.418Z" fill="url(#paint2_linear)"/>
<path opacity="0.6" d="M152.3 201.638C151.846 201.638 151.396 201.612 150.955 201.566L144.517 209.942L149.37 213.176L161.139 197.921C158.917 200.289 155.704 201.638 152.3 201.638Z" fill="url(#paint3_linear)"/>
<path opacity="0.6" d="M177.803 201.637C178.257 201.637 178.706 201.612 179.148 201.565L185.585 209.941L180.733 213.176L169.023 197.937C171.244 200.304 174.399 201.637 177.803 201.637Z" fill="url(#paint4_linear)"/>
<path opacity="0.6" d="M161.356 188.062L165.101 192.887L159.409 200.095L155.667 195.411L161.356 188.062Z" fill="url(#paint5_linear)"/>
<path d="M148.67 126.442L152.353 131.222L139.026 148.5L134.366 145.026L148.67 126.442Z" fill="url(#paint6_linear)"/>
<path d="M161.406 142.889L165.05 147.666L156.554 158.755L151.894 155.28L161.406 142.889Z" fill="url(#paint7_linear)"/>
<path d="M174.095 126.489L177.761 131.243L168.749 142.887L165.076 138.139L174.095 126.489Z" fill="url(#paint8_linear)"/>
</g>
</g>
<defs>
<filter id="filter0_di" x="0.921509" y="0.690918" width="344.17" height="344.17" filterUnits="userSpaceOnUse" color-interpolation-filters="sRGB">
<feFlood flood-opacity="0" result="BackgroundImageFix"/>
<feColorMatrix in="SourceAlpha" type="matrix" values="0 0 0 0 0 0 0 0 0 0 0 0 0 0 0 0 0 0 127 0"/>
<feOffset dx="8" dy="8"/>
<feGaussianBlur stdDeviation="10"/>
<feColorMatrix type="matrix" values="0 0 0 0 0 0 0 0 0 0 0 0 0 0 0 0 0 0 0.5 0"/>
<feBlend mode="normal" in2="BackgroundImageFix" result="effect1_dropShadow"/>
<feBlend mode="normal" in="SourceGraphic" in2="effect1_dropShadow" result="shape"/>
<feColorMatrix in="SourceAlpha" type="matrix" values="0 0 0 0 0 0 0 0 0 0 0 0 0 0 0 0 0 0 127 0" result="hardAlpha"/>
<feOffset dy="2"/>
<feGaussianBlur stdDeviation="4"/>
<feComposite in2="hardAlpha" operator="arithmetic" k2="-1" k3="1"/>
<feColorMatrix type="matrix" values="0 0 0 0 0.654167 0 0 0 0 0.528785 0 0 0 0 0.528785 0 0 0 0.3 0"/>
<feBlend mode="normal" in2="shape" result="effect2_innerShadow"/>
</filter>
<linearGradient id="paint0_linear" x1="109.34" y1="261.194" x2="220.674" y2="68.358" gradientUnits="userSpaceOnUse">
<stop stop-color="#3C3C3C"/>
<stop offset="1" stop-color="#ABABAB" stop-opacity="0.3"/>
</linearGradient>
<linearGradient id="paint1_linear" x1="232.736" y1="98.1176" x2="96.9735" y2="234.588" gradientUnits="userSpaceOnUse">
<stop/>
<stop offset="1" stop-color="#515151"/>
</linearGradient>
<linearGradient id="paint2_linear" x1="122.123" y1="206.047" x2="203.086" y2="120.298" gradientUnits="userSpaceOnUse">
<stop stop-color="#FF8506"/>
<stop offset="0.5805" stop-color="#FD3947"/>
<stop offset="1" stop-color="#FB0078"/>
</linearGradient>
<linearGradient id="paint3_linear" x1="157.411" y1="197.804" x2="148.131" y2="211.714" gradientUnits="userSpaceOnUse">
<stop stop-color="#78005B"/>
<stop offset="0.3483" stop-color="#7A025A" stop-opacity="0.6517"/>
<stop offset="0.51" stop-color="#820955" stop-opacity="0.49"/>
<stop offset="0.6332" stop-color="#8E154E" stop-opacity="0.3668"/>
<stop offset="0.7369" stop-color="#A12643" stop-opacity="0.2631"/>
<stop offset="0.8283" stop-color="#B83C36" stop-opacity="0.1717"/>
<stop offset="0.9111" stop-color="#D65725" stop-opacity="0.0889"/>
<stop offset="0.9857" stop-color="#F87711" stop-opacity="0.0143"/>
<stop offset="1" stop-color="#FF7E0D" stop-opacity="0"/>
</linearGradient>
<linearGradient id="paint4_linear" x1="181.925" y1="210.212" x2="173.197" y2="196.918" gradientUnits="userSpaceOnUse">
<stop stop-color="#FF7E0D" stop-opacity="0"/>
<stop offset="0.00928743" stop-color="#F97811" stop-opacity="0.0127"/>
<stop offset="0.0651" stop-color="#D65825" stop-opacity="0.0888"/>
<stop offset="0.1269" stop-color="#B93D36" stop-opacity="0.1729"/>
<stop offset="0.1949" stop-color="#A12643" stop-opacity="0.2657"/>
<stop offset="0.272" stop-color="#8F154E" stop-opacity="0.3707"/>
<stop offset="0.3632" stop-color="#820955" stop-opacity="0.495"/>
<stop offset="0.4822" stop-color="#7A025A" stop-opacity="0.6573"/>
<stop offset="0.7336" stop-color="#78005B"/>
</linearGradient>
<linearGradient id="paint5_linear" x1="157.742" y1="197.735" x2="164.799" y2="186.985" gradientUnits="userSpaceOnUse">
<stop stop-color="#FF7E0D" stop-opacity="0"/>
<stop offset="0.0133" stop-color="#F97910" stop-opacity="0.0192"/>
<stop offset="0.1144" stop-color="#D25427" stop-opacity="0.1659"/>
<stop offset="0.219" stop-color="#B1363A" stop-opacity="0.3175"/>
<stop offset="0.3263" stop-color="#981E48" stop-opacity="0.4731"/>
<stop offset="0.4375" stop-color="#860D53" stop-opacity="0.6344"/>
<stop offset="0.5551" stop-color="#7B0359" stop-opacity="0.8048"/>
<stop offset="0.6897" stop-color="#78005B"/>
</linearGradient>
<linearGradient id="paint6_linear" x1="135.108" y1="145.724" x2="151.125" y2="128.76" gradientUnits="userSpaceOnUse">
<stop stop-color="#FF4630" stop-opacity="0"/>
<stop offset="0.5722" stop-color="#B31F48" stop-opacity="0.5722"/>
<stop offset="1" stop-color="#78005B"/>
</linearGradient>
<linearGradient id="paint7_linear" x1="153.077" y1="156.396" x2="163.746" y2="145.096" gradientUnits="userSpaceOnUse">
<stop stop-color="#FF4630" stop-opacity="0"/>
<stop offset="0.5722" stop-color="#B31F48" stop-opacity="0.5722"/>
<stop offset="1" stop-color="#78005B"/>
</linearGradient>
<linearGradient id="paint8_linear" x1="165.745" y1="140.049" x2="176.449" y2="128.712" gradientUnits="userSpaceOnUse">
<stop stop-color="#FF4630" stop-opacity="0"/>
<stop offset="0.5722" stop-color="#B31F48" stop-opacity="0.5722"/>
<stop offset="1" stop-color="#78005B"/>
</linearGradient>
<clipPath id="clip0">
<rect width="193" height="192" fill="white" transform="translate(68 70)"/>
</clipPath>
</defs>
</svg>
