<svg width="108" height="44" viewBox="0 0 108 44" fill="none" xmlns="http://www.w3.org/2000/svg">
<path d="M32.0582 20.7102L24.4149 10.2474C23.8455 9.46754 22.9653 9.02106 21.9996 9.02106C21.0339 9.02106 20.1537 9.46852 19.5843 10.2474L11.941 20.7102C10.8533 22.1991 10.8533 24.1994 11.943 25.6913L12.3914 26.2981L12.3924 26.2971L16.338 31.7316C16.9074 32.5115 17.7875 32.9579 18.7533 32.9579C19.54 32.9579 20.2707 32.6609 20.8224 32.1279L20.8598 32.1555L22.0094 30.582L22.8493 31.7306C22.8523 31.7355 22.8562 31.7395 22.8591 31.7434L23.0922 32.063L23.1148 32.0463C23.6744 32.6285 24.4376 32.957 25.2636 32.957C26.2284 32.957 27.1086 32.5095 27.6799 31.7286L30.6706 27.609L30.6735 27.611L31.1692 26.9216L31.7366 26.1407L31.7327 26.1378L32.0572 25.6854C33.1469 24.1994 33.1469 22.1991 32.0582 20.7102ZM20.8047 11.1384C21.087 10.7529 21.5226 10.5316 21.9996 10.5316C22.4776 10.5316 22.9132 10.7529 23.1945 11.1384L24.3107 12.6657L22.0094 15.8156L19.6984 12.6519L20.8047 11.1384ZM19.9501 30.8426L19.9491 30.8416C19.6669 31.2271 19.2312 31.4484 18.7543 31.4484C18.2763 31.4484 17.8407 31.2271 17.5604 30.8435L13.5027 25.2557L13.5007 25.2576L13.1615 24.7984C12.4632 23.8425 12.4632 22.5581 13.1615 21.6022L18.7641 13.9333L21.0752 17.0971L18.4346 20.7112C17.347 22.2001 17.347 24.2004 18.4346 25.6894L21.0752 29.3035L19.9501 30.8426ZM22.0094 18.3765L24.3658 21.6012C25.064 22.5571 25.064 23.8415 24.3658 24.7974L22.0094 28.0221L19.6531 24.7974C18.9549 23.8415 18.9549 22.5571 19.6531 21.6012L22.0094 18.3765ZM26.4595 30.8416C26.1773 31.2271 25.7416 31.4484 25.2646 31.4484C24.7926 31.4484 24.3618 31.232 24.0796 30.8544L22.9457 29.3025L25.5862 25.6884C26.6739 24.1994 26.6739 22.1991 25.5862 20.7102L22.9457 17.0961L25.2469 13.9461L30.8397 21.6012C31.538 22.5571 31.538 23.8415 30.8368 24.8023L29.9497 26.0355L26.4595 30.8416Z" fill="url(#paint0_linear)"/>
<path opacity="0.6" d="M21.0556 29.2966L22.0095 30.5997L20.5589 32.5469L19.604 31.2812L21.0556 29.2966Z" fill="url(#paint1_linear)"/>
<path d="M21.0692 17.097L21.9976 18.3873L19.8311 21.3819L18.6431 20.4437L21.0692 17.097Z" fill="url(#paint2_linear)"/>
<path d="M29.8396 17.6733L26.4467 13.0039L26.4536 12.997L25.1997 11.2839C25.6019 11.8474 25.7937 12.2998 25.7583 12.7325C25.7258 13.1278 25.597 13.4337 25.478 13.6392L25.2548 13.946L25.3944 14.1457L25.3974 14.1417L28.6526 18.6115L29.8396 17.6733Z" fill="url(#paint3_linear)"/>
<path d="M14.1772 17.6733L17.5701 13.0039L17.5632 12.997L18.8171 11.2839C18.4149 11.8474 18.2231 12.2998 18.2585 12.7325C18.291 13.1278 18.4198 13.4337 18.5388 13.6392L18.762 13.946L18.6224 14.1457L18.6194 14.1417L15.3643 18.6115L14.1772 17.6733Z" fill="url(#paint4_linear)"/>
<path d="M20.2088 11.9556C20.2088 11.9556 19.6197 12.6067 20.2048 13.3472L19.778 13.3295L19.2617 12.4218L19.8636 11.9537L20.2088 11.9556Z" fill="url(#paint5_linear)"/>
<path d="M23.8003 11.9645C23.8003 11.9645 24.3972 12.6155 23.8111 13.357L24.2379 13.3393L24.7542 12.4316L24.1524 11.9635L23.8003 11.9645Z" fill="url(#paint6_linear)"/>
<path d="M22.0005 44C16.1244 44 10.5995 41.7115 6.44447 37.5565C2.28846 33.4015 0 27.8765 0 22.0005C0 16.1244 2.28846 10.5985 6.44349 6.44349C10.5985 2.28846 16.1235 0 22.0005 0C27.8775 0 33.4015 2.28846 37.5565 6.44349C41.7115 10.5985 44 16.1235 44 21.9995C44 27.8755 41.7115 33.4005 37.5565 37.5555C33.4015 41.7115 27.8765 44 22.0005 44ZM22.0005 1.49483C16.5237 1.49483 11.3735 3.6279 7.50068 7.50068C3.6279 11.3735 1.49483 16.5227 1.49483 22.0005C1.49483 27.4782 3.6279 32.6275 7.50068 36.5003C11.3735 40.3731 16.5227 42.5062 22.0005 42.5062C27.4782 42.5062 32.6275 40.3731 36.5003 36.5003C40.3731 32.6275 42.5062 27.4782 42.5062 22.0005C42.5062 16.5227 40.3731 11.3744 36.5003 7.50068C32.6265 3.6279 27.4773 1.49483 22.0005 1.49483Z" fill="url(#paint7_linear)"/>
<path d="M58.9964 24.7442V22.9682H65.8444V24.7442H58.9964ZM56.4204 27.0002L61.2844 16.6482H63.5884L68.5004 27.0002H66.1804L61.9244 17.6722H62.9484L58.7244 27.0002H56.4204ZM70.0054 27.0002V16.6482H77.0294C77.8294 16.6482 78.5228 16.7602 79.1094 16.9842C79.7068 17.1976 80.1708 17.5389 80.5014 18.0082C80.8321 18.4669 80.9974 19.0589 80.9974 19.7842C80.9974 20.2749 80.9121 20.6909 80.7414 21.0322C80.5708 21.3736 80.3308 21.6509 80.0214 21.8642C79.7228 22.0776 79.3761 22.2429 78.9814 22.3602C78.5868 22.4669 78.1654 22.5362 77.7174 22.5682L77.4934 22.4402C78.2401 22.4509 78.8534 22.5149 79.3334 22.6322C79.8134 22.7389 80.1708 22.9416 80.4054 23.2402C80.6508 23.5282 80.7734 23.9602 80.7734 24.5362V27.0002H78.6454V24.6802C78.6454 24.2856 78.5761 23.9816 78.4374 23.7682C78.2988 23.5442 78.0481 23.3896 77.6854 23.3042C77.3334 23.2189 76.8214 23.1762 76.1494 23.1762H72.1334V27.0002H70.0054ZM72.1334 21.5122H77.0294C77.6268 21.5122 78.0801 21.3682 78.3894 21.0802C78.7094 20.7922 78.8694 20.4029 78.8694 19.9122C78.8694 19.4429 78.7094 19.0856 78.3894 18.8402C78.0801 18.5949 77.6268 18.4722 77.0294 18.4722H72.1334V21.5122ZM82.3122 16.6482H93.2242V18.4242H82.3122V16.6482ZM86.7122 18.2002H88.8402V27.0002H86.7122V18.2002ZM96.6431 20.9202H104.851V22.6962H96.6431V20.9202ZM104.499 16.6482H106.627V27.0002H104.499V16.6482ZM94.7711 16.6482H96.8991V27.0002H94.7711V16.6482Z" fill="white"/>
<defs>
<linearGradient id="paint0_linear" x1="14.5879" y1="30.034" x2="29.4206" y2="15.2012" gradientUnits="userSpaceOnUse">
<stop stop-color="#FF8506"/>
<stop offset="0.5805" stop-color="#FD3947"/>
<stop offset="1" stop-color="#FB0078"/>
</linearGradient>
<linearGradient id="paint1_linear" x1="20.1334" y1="31.9094" x2="22.0807" y2="29.1087" gradientUnits="userSpaceOnUse">
<stop stop-color="#FF7E0D" stop-opacity="0"/>
<stop offset="0.0133" stop-color="#F97910" stop-opacity="0.0192"/>
<stop offset="0.1144" stop-color="#D25427" stop-opacity="0.1659"/>
<stop offset="0.219" stop-color="#B1363A" stop-opacity="0.3175"/>
<stop offset="0.3263" stop-color="#981E48" stop-opacity="0.4731"/>
<stop offset="0.4375" stop-color="#860D53" stop-opacity="0.6344"/>
<stop offset="0.5551" stop-color="#7B0359" stop-opacity="0.8048"/>
<stop offset="0.6897" stop-color="#78005B"/>
</linearGradient>
<linearGradient id="paint2_linear" x1="18.9448" y1="20.7447" x2="21.8309" y2="17.8585" gradientUnits="userSpaceOnUse">
<stop stop-color="#FF4630" stop-opacity="0"/>
<stop offset="0.5722" stop-color="#B31F48" stop-opacity="0.5722"/>
<stop offset="1" stop-color="#78005B"/>
</linearGradient>
<linearGradient id="paint3_linear" x1="28.9423" y1="17.779" x2="25.3971" y2="12.7804" gradientUnits="userSpaceOnUse">
<stop stop-color="#FB126A" stop-opacity="0"/>
<stop offset="0.1389" stop-color="#F41169" stop-opacity="0.1389"/>
<stop offset="0.3365" stop-color="#E20F67" stop-opacity="0.3365"/>
<stop offset="0.5694" stop-color="#C30A64" stop-opacity="0.5694"/>
<stop offset="0.827" stop-color="#99045F" stop-opacity="0.827"/>
<stop offset="1" stop-color="#78005B"/>
</linearGradient>
<linearGradient id="paint4_linear" x1="15.0749" y1="17.779" x2="18.6201" y2="12.7804" gradientUnits="userSpaceOnUse">
<stop stop-color="#FB126A" stop-opacity="0"/>
<stop offset="0.1389" stop-color="#F41169" stop-opacity="0.1389"/>
<stop offset="0.3365" stop-color="#E20F67" stop-opacity="0.3365"/>
<stop offset="0.5694" stop-color="#C30A64" stop-opacity="0.5694"/>
<stop offset="0.827" stop-color="#99045F" stop-opacity="0.827"/>
<stop offset="1" stop-color="#78005B"/>
</linearGradient>
<linearGradient id="paint5_linear" x1="19.5331" y1="13.085" x2="20.4355" y2="12.1826" gradientUnits="userSpaceOnUse">
<stop stop-color="#FC1F5C"/>
<stop offset="1" stop-color="#FB0078"/>
</linearGradient>
<linearGradient id="paint6_linear" x1="24.4831" y1="13.0944" x2="23.5769" y2="12.1881" gradientUnits="userSpaceOnUse">
<stop stop-color="#FC1F5C"/>
<stop offset="1" stop-color="#FB0078"/>
</linearGradient>
<linearGradient id="paint7_linear" x1="6.44367" y1="37.5564" x2="37.5564" y2="6.44364" gradientUnits="userSpaceOnUse">
<stop stop-color="#FF8506"/>
<stop offset="0.5805" stop-color="#FD3947"/>
<stop offset="1" stop-color="#FB0078"/>
</linearGradient>
</defs>
</svg>
