<svg width="1440" height="354" viewBox="0 0 1440 354" fill="none" xmlns="http://www.w3.org/2000/svg">
<g opacity="0.3">
<path opacity="0.2" d="M1298.21 382.195L1175.14 206.567C1159.77 184.621 1159.77 156.524 1175.14 134.577L1306.63 -53.0665C1320.55 -72.9406 1352.36 -72.9406 1366.29 -53.0665L1497.77 134.577C1513.15 156.524 1513.15 184.621 1497.77 206.567L1374.71 382.195C1356.85 407.68 1316.07 407.68 1298.21 382.195Z" stroke="url(#paint0_linear)" stroke-miterlimit="10"/>
<path opacity="0.2258" d="M1248.84 382.196L1125.78 206.568C1110.4 184.622 1110.4 156.524 1125.78 134.578L1257.26 -53.0659C1271.19 -72.94 1302.99 -72.94 1316.92 -53.0659L1448.4 134.578C1463.78 156.524 1463.78 184.622 1448.4 206.568L1325.34 382.196C1307.49 407.681 1266.69 407.681 1248.84 382.196Z" stroke="url(#paint1_linear)" stroke-width="1.1613" stroke-miterlimit="10"/>
<path opacity="0.2516" d="M1199.47 382.196L1076.4 206.568C1061.03 184.622 1061.03 156.524 1076.4 134.578L1207.88 -53.0659C1221.81 -72.94 1253.62 -72.94 1267.55 -53.0659L1399.04 134.578C1414.41 156.524 1414.41 184.622 1399.04 206.568L1275.97 382.196C1258.11 407.681 1217.33 407.681 1199.47 382.196Z" stroke="url(#paint2_linear)" stroke-width="1.3226" stroke-miterlimit="10"/>
<path opacity="0.2774" d="M1150.1 382.196L1027.04 206.568C1011.66 184.622 1011.66 156.524 1027.04 134.578L1158.52 -53.0659C1172.45 -72.94 1204.25 -72.94 1218.18 -53.0659L1349.66 134.578C1365.04 156.524 1365.04 184.622 1349.66 206.568L1226.61 382.196C1208.75 407.681 1167.96 407.681 1150.1 382.196Z" stroke="url(#paint3_linear)" stroke-width="1.4839" stroke-miterlimit="10"/>
<path opacity="0.3032" d="M1100.73 382.196L977.668 206.568C962.293 184.622 962.293 156.524 977.668 134.578L1109.15 -53.0659C1123.08 -72.94 1154.89 -72.94 1168.81 -53.0659L1300.3 134.578C1315.67 156.524 1315.67 184.622 1300.3 206.568L1177.23 382.196C1159.38 407.681 1118.59 407.681 1100.73 382.196Z" stroke="url(#paint4_linear)" stroke-width="1.6452" stroke-miterlimit="10"/>
<path opacity="0.329" d="M1051.36 382.196L928.294 206.568C912.918 184.622 912.918 156.524 928.294 134.578L1059.78 -53.0659C1073.7 -72.94 1105.51 -72.94 1119.44 -53.0659L1250.93 134.578C1266.3 156.524 1266.3 184.622 1250.93 206.568L1127.86 382.196C1110 407.681 1069.22 407.681 1051.36 382.196Z" stroke="url(#paint5_linear)" stroke-width="1.8065" stroke-miterlimit="10"/>
<path opacity="0.3548" d="M1001.99 382.196L878.926 206.568C863.551 184.622 863.551 156.524 878.926 134.578L1010.41 -53.0659C1024.34 -72.94 1056.14 -72.94 1070.07 -53.0659L1201.55 134.578C1216.93 156.524 1216.93 184.622 1201.55 206.568L1078.5 382.196C1060.64 407.681 1019.84 407.681 1001.99 382.196Z" stroke="url(#paint6_linear)" stroke-width="1.9677" stroke-miterlimit="10"/>
<path opacity="0.3806" d="M952.622 382.196L829.558 206.568C814.183 184.622 814.183 156.524 829.558 134.578L961.04 -53.0659C974.968 -72.94 1006.78 -72.94 1020.7 -53.0659L1152.19 134.578C1167.56 156.524 1167.56 184.622 1152.19 206.568L1029.12 382.196C1011.27 407.681 970.475 407.681 952.622 382.196Z" stroke="url(#paint7_linear)" stroke-width="2.129" stroke-miterlimit="10"/>
<path opacity="0.4065" d="M903.249 382.196L780.185 206.568C764.809 184.622 764.809 156.524 780.185 134.578L911.667 -53.0659C925.595 -72.94 957.402 -72.94 971.33 -53.0659L1102.82 134.578C1118.19 156.524 1118.19 184.622 1102.82 206.568L979.755 382.196C961.895 407.681 921.109 407.681 903.249 382.196Z" stroke="url(#paint8_linear)" stroke-width="2.2903" stroke-miterlimit="10"/>
<path opacity="0.4323" d="M853.881 382.196L730.817 206.568C715.442 184.622 715.442 156.524 730.817 134.578L862.299 -53.0659C876.227 -72.94 908.035 -72.94 921.963 -53.0659L1053.44 134.578C1068.82 156.524 1068.82 184.622 1053.44 206.568L930.387 382.196C912.527 407.681 871.734 407.681 853.881 382.196Z" stroke="url(#paint9_linear)" stroke-width="2.4516" stroke-miterlimit="10"/>
<path opacity="0.4581" d="M804.507 382.196L681.443 206.568C666.068 184.622 666.068 156.524 681.443 134.578L812.925 -53.0659C826.853 -72.94 858.661 -72.94 872.589 -53.0659L1004.08 134.578C1019.45 156.524 1019.45 184.622 1004.08 206.568L881.013 382.196C863.16 407.681 822.367 407.681 804.507 382.196Z" stroke="url(#paint10_linear)" stroke-width="2.6129" stroke-miterlimit="10"/>
<path opacity="0.4839" d="M755.139 382.196L632.075 206.568C616.7 184.622 616.7 156.524 632.075 134.578L763.557 -53.0659C777.485 -72.94 809.293 -72.94 823.221 -53.0659L954.709 134.578C970.085 156.524 970.085 184.622 954.709 206.568L831.645 382.196C813.785 407.681 772.999 407.681 755.139 382.196Z" stroke="url(#paint11_linear)" stroke-width="2.7742" stroke-miterlimit="10"/>
<path opacity="0.5097" d="M705.771 382.196L582.708 206.568C567.332 184.622 567.332 156.524 582.708 134.578L714.189 -53.0659C728.117 -72.94 759.925 -72.94 773.853 -53.0659L905.335 134.578C920.71 156.524 920.71 184.622 905.335 206.568L782.271 382.196C764.418 407.681 723.625 407.681 705.771 382.196Z" stroke="url(#paint12_linear)" stroke-width="2.9355" stroke-miterlimit="10"/>
<path opacity="0.5355" d="M656.397 382.196L533.334 206.568C517.958 184.622 517.958 156.524 533.334 134.578L664.822 -53.0659C678.75 -72.94 710.557 -72.94 724.486 -53.0659L855.967 134.578C871.343 156.524 871.343 184.622 855.967 206.568L732.904 382.196C715.05 407.681 674.257 407.681 656.397 382.196Z" stroke="url(#paint13_linear)" stroke-width="3.0968" stroke-miterlimit="10"/>
<path opacity="0.5613" d="M607.03 382.196L483.966 206.568C468.59 184.622 468.59 156.524 483.966 134.578L615.448 -53.0659C629.376 -72.94 661.183 -72.94 675.111 -53.0659L806.593 134.578C821.969 156.524 821.969 184.622 806.593 206.568L683.536 382.196C665.676 407.681 624.89 407.681 607.03 382.196Z" stroke="url(#paint14_linear)" stroke-width="3.2581" stroke-miterlimit="10"/>
<path opacity="0.5871" d="M557.662 382.196L434.598 206.568C419.223 184.622 419.223 156.524 434.598 134.578L566.08 -53.0659C580.008 -72.94 611.816 -72.94 625.744 -53.0659L757.226 134.578C772.601 156.524 772.601 184.622 757.226 206.568L634.162 382.196C616.309 407.681 575.516 407.681 557.662 382.196Z" stroke="url(#paint15_linear)" stroke-width="3.4194" stroke-miterlimit="10"/>
<path opacity="0.6129" d="M508.288 382.196L385.225 206.568C369.849 184.622 369.849 156.524 385.225 134.578L516.706 -53.0659C530.634 -72.94 562.442 -72.94 576.37 -53.0659L707.858 134.578C723.234 156.524 723.234 184.622 707.858 206.568L584.795 382.196C566.941 407.681 526.148 407.681 508.288 382.196Z" stroke="url(#paint16_linear)" stroke-width="3.5806" stroke-miterlimit="10"/>
<path opacity="0.6387" d="M458.92 382.196L335.857 206.568C320.481 184.622 320.481 156.524 335.857 134.578L467.339 -53.0659C481.267 -72.94 513.074 -72.94 527.002 -53.0659L658.484 134.578C673.86 156.524 673.86 184.622 658.484 206.568L535.42 382.196C517.567 407.681 476.78 407.681 458.92 382.196Z" stroke="url(#paint17_linear)" stroke-width="3.7419" stroke-miterlimit="10"/>
<path opacity="0.6645" d="M409.553 382.196L286.489 206.568C271.114 184.622 271.114 156.524 286.489 134.578L417.971 -53.0659C431.899 -72.94 463.707 -72.94 477.635 -53.0659L609.117 134.578C624.492 156.524 624.492 184.622 609.116 206.568L486.053 382.196C468.199 407.681 427.406 407.681 409.553 382.196Z" stroke="url(#paint18_linear)" stroke-width="3.9032" stroke-miterlimit="10"/>
<path opacity="0.6903" d="M360.179 382.196L237.115 206.568C221.739 184.622 221.739 156.524 237.115 134.578L368.597 -53.0659C382.525 -72.94 414.332 -72.94 428.26 -53.0659L559.742 134.578C575.118 156.524 575.118 184.622 559.742 206.568L436.678 382.196C418.825 407.681 378.038 407.681 360.179 382.196Z" stroke="url(#paint19_linear)" stroke-width="4.0645" stroke-miterlimit="10"/>
<path opacity="0.7161" d="M310.811 382.196L187.747 206.568C172.371 184.622 172.371 156.524 187.747 134.578L319.229 -53.0659C333.157 -72.94 364.964 -72.94 378.892 -53.0659L510.374 134.578C525.75 156.524 525.75 184.622 510.374 206.568L387.311 382.196C369.457 407.681 328.671 407.681 310.811 382.196Z" stroke="url(#paint20_linear)" stroke-width="4.2258" stroke-miterlimit="10"/>
<path opacity="0.7419" d="M261.443 382.196L138.38 206.568C123.004 184.622 123.004 156.524 138.38 134.578L269.861 -53.0659C283.789 -72.94 315.597 -72.94 329.525 -53.0659L461.007 134.578C476.382 156.524 476.382 184.622 461.007 206.568L337.943 382.196C320.09 407.681 279.297 407.681 261.443 382.196Z" stroke="url(#paint21_linear)" stroke-width="4.3871" stroke-miterlimit="10"/>
<path opacity="0.7677" d="M212.069 382.196L89.0054 206.568C73.6298 184.622 73.6298 156.524 89.0054 134.578L220.487 -53.0659C234.415 -72.94 266.223 -72.94 280.151 -53.0659L411.632 134.578C427.008 156.524 427.008 184.622 411.632 206.568L288.569 382.196C270.715 407.681 229.929 407.681 212.069 382.196Z" stroke="url(#paint22_linear)" stroke-width="4.5484" stroke-miterlimit="10"/>
<path opacity="0.7935" d="M162.702 382.196L39.6384 206.568C24.2628 184.622 24.2628 156.524 39.6384 134.578L171.12 -53.0659C185.048 -72.94 216.856 -72.94 230.784 -53.0659L362.266 134.578C377.641 156.524 377.641 184.622 362.266 206.568L239.202 382.196C221.348 407.681 180.562 407.681 162.702 382.196Z" stroke="url(#paint23_linear)" stroke-width="4.7097" stroke-miterlimit="10"/>
<path opacity="0.8194" d="M113.334 382.196L-9.72957 206.568C-25.1052 184.622 -25.1052 156.524 -9.72956 134.578L121.752 -53.0659C135.68 -72.94 167.488 -72.94 181.416 -53.0659L312.898 134.578C328.273 156.524 328.273 184.622 312.898 206.568L189.834 382.196C171.981 407.681 131.187 407.681 113.334 382.196Z" stroke="url(#paint24_linear)" stroke-width="4.871" stroke-miterlimit="10"/>
<path opacity="0.8452" d="M63.9607 382.196L-59.1029 206.568C-74.4785 184.622 -74.4785 156.524 -59.1029 134.578L72.379 -53.0659C86.3071 -72.94 118.115 -72.94 132.043 -53.0659L263.524 134.578C278.9 156.524 278.9 184.622 263.524 206.568L140.461 382.196C122.607 407.681 81.8207 407.681 63.9607 382.196Z" stroke="url(#paint25_linear)" stroke-width="5.0323" stroke-miterlimit="10"/>
<path opacity="0.871" d="M14.5922 382.196L-108.471 206.568C-123.847 184.622 -123.847 156.524 -108.471 134.578L23.0105 -53.0659C36.9385 -72.94 68.7461 -72.94 82.6741 -53.0659L214.156 134.578C229.531 156.524 229.531 184.622 214.156 206.568L91.0922 382.196C73.2387 407.681 32.4522 407.681 14.5922 382.196Z" stroke="url(#paint26_linear)" stroke-width="5.1935" stroke-miterlimit="10"/>
<path opacity="0.8968" d="M-34.7751 382.196L-157.839 206.568C-173.214 184.622 -173.214 156.524 -157.839 134.578L-26.357 -53.0659C-12.4289 -72.94 19.3786 -72.94 33.3067 -53.0659L164.788 134.578C180.164 156.524 180.164 184.622 164.788 206.568L41.7249 382.196C23.8714 407.681 -16.9216 407.681 -34.7751 382.196Z" stroke="url(#paint27_linear)" stroke-width="5.3548" stroke-miterlimit="10"/>
<path opacity="0.9226" d="M-84.1494 382.195L-207.213 206.567C-222.589 184.621 -222.589 156.523 -207.213 134.577L-75.7313 -53.0669C-61.8032 -72.9409 -29.9956 -72.9409 -16.0676 -53.0669L115.414 134.577C130.79 156.523 130.79 184.621 115.414 206.567L-7.64941 382.195C-25.5029 407.68 -66.2894 407.68 -84.1494 382.195Z" stroke="url(#paint28_linear)" stroke-width="5.5161" stroke-miterlimit="10"/>
<path opacity="0.9484" d="M-133.517 382.195L-256.581 206.567C-271.956 184.621 -271.956 156.523 -256.581 134.577L-125.099 -53.0669C-111.171 -72.9409 -79.3632 -72.9409 -65.4352 -53.0669L66.0467 134.577C81.4223 156.523 81.4223 184.621 66.0467 206.567L-57.0106 382.195C-74.8706 407.68 -115.663 407.68 -133.517 382.195Z" stroke="url(#paint29_linear)" stroke-width="5.6774" stroke-miterlimit="10"/>
<path opacity="0.9742" d="M-182.885 382.195L-305.948 206.567C-321.324 184.621 -321.324 156.523 -305.948 134.577L-174.467 -53.0669C-160.539 -72.9409 -128.731 -72.9409 -114.803 -53.0669L16.6788 134.577C32.0544 156.523 32.0544 184.621 16.6788 206.567L-106.385 382.195C-124.238 407.68 -165.031 407.68 -182.885 382.195Z" stroke="url(#paint30_linear)" stroke-width="5.8387" stroke-miterlimit="10"/>
</g>
<defs>
<linearGradient id="paint0_linear" x1="1209.9" y1="295.34" x2="1462.84" y2="42.2281" gradientUnits="userSpaceOnUse">
<stop stop-color="#FF8B71"/>
<stop offset="0.5562" stop-color="#FD3F75"/>
<stop offset="1" stop-color="#FB0078"/>
</linearGradient>
<linearGradient id="paint1_linear" x1="1160.5" y1="295.378" x2="1413.51" y2="42.1915" gradientUnits="userSpaceOnUse">
<stop stop-color="#FF8B71"/>
<stop offset="0.5562" stop-color="#FD3F75"/>
<stop offset="1" stop-color="#FB0078"/>
</linearGradient>
<linearGradient id="paint2_linear" x1="1111.09" y1="295.415" x2="1364.17" y2="42.1543" gradientUnits="userSpaceOnUse">
<stop stop-color="#FF8B71"/>
<stop offset="0.5562" stop-color="#FD3F75"/>
<stop offset="1" stop-color="#FB0078"/>
</linearGradient>
<linearGradient id="paint3_linear" x1="1061.68" y1="295.452" x2="1314.84" y2="42.1172" gradientUnits="userSpaceOnUse">
<stop stop-color="#FF8B71"/>
<stop offset="0.5562" stop-color="#FD3F75"/>
<stop offset="1" stop-color="#FB0078"/>
</linearGradient>
<linearGradient id="paint4_linear" x1="1012.28" y1="295.489" x2="1265.51" y2="42.0799" gradientUnits="userSpaceOnUse">
<stop stop-color="#FF8B71"/>
<stop offset="0.5562" stop-color="#FD3F75"/>
<stop offset="1" stop-color="#FB0078"/>
</linearGradient>
<linearGradient id="paint5_linear" x1="962.869" y1="295.526" x2="1216.18" y2="42.0426" gradientUnits="userSpaceOnUse">
<stop stop-color="#FF8B71"/>
<stop offset="0.5562" stop-color="#FD3F75"/>
<stop offset="1" stop-color="#FB0078"/>
</linearGradient>
<linearGradient id="paint6_linear" x1="913.462" y1="295.564" x2="1166.84" y2="42.0055" gradientUnits="userSpaceOnUse">
<stop stop-color="#FF8B71"/>
<stop offset="0.5562" stop-color="#FD3F75"/>
<stop offset="1" stop-color="#FB0078"/>
</linearGradient>
<linearGradient id="paint7_linear" x1="864.055" y1="295.601" x2="1117.51" y2="41.9682" gradientUnits="userSpaceOnUse">
<stop stop-color="#FF8B71"/>
<stop offset="0.5562" stop-color="#FD3F75"/>
<stop offset="1" stop-color="#FB0078"/>
</linearGradient>
<linearGradient id="paint8_linear" x1="814.649" y1="295.638" x2="1068.18" y2="41.9311" gradientUnits="userSpaceOnUse">
<stop stop-color="#FF8B71"/>
<stop offset="0.5562" stop-color="#FD3F75"/>
<stop offset="1" stop-color="#FB0078"/>
</linearGradient>
<linearGradient id="paint9_linear" x1="765.241" y1="295.675" x2="1018.85" y2="41.8938" gradientUnits="userSpaceOnUse">
<stop stop-color="#FF8B71"/>
<stop offset="0.5562" stop-color="#FD3F75"/>
<stop offset="1" stop-color="#FB0078"/>
</linearGradient>
<linearGradient id="paint10_linear" x1="715.835" y1="295.712" x2="969.514" y2="41.8567" gradientUnits="userSpaceOnUse">
<stop stop-color="#FF8B71"/>
<stop offset="0.5562" stop-color="#FD3F75"/>
<stop offset="1" stop-color="#FB0078"/>
</linearGradient>
<linearGradient id="paint11_linear" x1="666.427" y1="295.749" x2="920.181" y2="41.8195" gradientUnits="userSpaceOnUse">
<stop stop-color="#FF8B71"/>
<stop offset="0.5562" stop-color="#FD3F75"/>
<stop offset="1" stop-color="#FB0078"/>
</linearGradient>
<linearGradient id="paint12_linear" x1="617.02" y1="295.786" x2="870.848" y2="41.7821" gradientUnits="userSpaceOnUse">
<stop stop-color="#FF8B71"/>
<stop offset="0.5562" stop-color="#FD3F75"/>
<stop offset="1" stop-color="#FB0078"/>
</linearGradient>
<linearGradient id="paint13_linear" x1="567.613" y1="295.824" x2="821.515" y2="41.7451" gradientUnits="userSpaceOnUse">
<stop stop-color="#FF8B71"/>
<stop offset="0.5562" stop-color="#FD3F75"/>
<stop offset="1" stop-color="#FB0078"/>
</linearGradient>
<linearGradient id="paint14_linear" x1="518.206" y1="295.861" x2="772.183" y2="41.7078" gradientUnits="userSpaceOnUse">
<stop stop-color="#FF8B71"/>
<stop offset="0.5562" stop-color="#FD3F75"/>
<stop offset="1" stop-color="#FB0078"/>
</linearGradient>
<linearGradient id="paint15_linear" x1="468.799" y1="295.898" x2="722.85" y2="41.6706" gradientUnits="userSpaceOnUse">
<stop stop-color="#FF8B71"/>
<stop offset="0.5562" stop-color="#FD3F75"/>
<stop offset="1" stop-color="#FB0078"/>
</linearGradient>
<linearGradient id="paint16_linear" x1="419.392" y1="295.935" x2="673.517" y2="41.6333" gradientUnits="userSpaceOnUse">
<stop stop-color="#FF8B71"/>
<stop offset="0.5562" stop-color="#FD3F75"/>
<stop offset="1" stop-color="#FB0078"/>
</linearGradient>
<linearGradient id="paint17_linear" x1="369.985" y1="295.972" x2="624.185" y2="41.5962" gradientUnits="userSpaceOnUse">
<stop stop-color="#FF8B71"/>
<stop offset="0.5562" stop-color="#FD3F75"/>
<stop offset="1" stop-color="#FB0078"/>
</linearGradient>
<linearGradient id="paint18_linear" x1="320.578" y1="296.009" x2="574.852" y2="41.5589" gradientUnits="userSpaceOnUse">
<stop stop-color="#FF8B71"/>
<stop offset="0.5562" stop-color="#FD3F75"/>
<stop offset="1" stop-color="#FB0078"/>
</linearGradient>
<linearGradient id="paint19_linear" x1="271.171" y1="296.046" x2="525.519" y2="41.5216" gradientUnits="userSpaceOnUse">
<stop stop-color="#FF8B71"/>
<stop offset="0.5562" stop-color="#FD3F75"/>
<stop offset="1" stop-color="#FB0078"/>
</linearGradient>
<linearGradient id="paint20_linear" x1="221.763" y1="296.084" x2="476.186" y2="41.4845" gradientUnits="userSpaceOnUse">
<stop stop-color="#FF8B71"/>
<stop offset="0.5562" stop-color="#FD3F75"/>
<stop offset="1" stop-color="#FB0078"/>
</linearGradient>
<linearGradient id="paint21_linear" x1="172.356" y1="296.121" x2="426.853" y2="41.4473" gradientUnits="userSpaceOnUse">
<stop stop-color="#FF8B71"/>
<stop offset="0.5562" stop-color="#FD3F75"/>
<stop offset="1" stop-color="#FB0078"/>
</linearGradient>
<linearGradient id="paint22_linear" x1="122.949" y1="296.158" x2="377.521" y2="41.4102" gradientUnits="userSpaceOnUse">
<stop stop-color="#FF8B71"/>
<stop offset="0.5562" stop-color="#FD3F75"/>
<stop offset="1" stop-color="#FB0078"/>
</linearGradient>
<linearGradient id="paint23_linear" x1="73.5429" y1="296.195" x2="328.188" y2="41.3729" gradientUnits="userSpaceOnUse">
<stop stop-color="#FF8B71"/>
<stop offset="0.5562" stop-color="#FD3F75"/>
<stop offset="1" stop-color="#FB0078"/>
</linearGradient>
<linearGradient id="paint24_linear" x1="24.1355" y1="296.232" x2="278.855" y2="41.3356" gradientUnits="userSpaceOnUse">
<stop stop-color="#FF8B71"/>
<stop offset="0.5562" stop-color="#FD3F75"/>
<stop offset="1" stop-color="#FB0078"/>
</linearGradient>
<linearGradient id="paint25_linear" x1="-25.2708" y1="296.27" x2="229.523" y2="41.2985" gradientUnits="userSpaceOnUse">
<stop stop-color="#FF8B71"/>
<stop offset="0.5562" stop-color="#FD3F75"/>
<stop offset="1" stop-color="#FB0078"/>
</linearGradient>
<linearGradient id="paint26_linear" x1="-74.6788" y1="296.307" x2="180.19" y2="41.2612" gradientUnits="userSpaceOnUse">
<stop stop-color="#FF8B71"/>
<stop offset="0.5562" stop-color="#FD3F75"/>
<stop offset="1" stop-color="#FB0078"/>
</linearGradient>
<linearGradient id="paint27_linear" x1="-124.086" y1="296.344" x2="130.857" y2="41.224" gradientUnits="userSpaceOnUse">
<stop stop-color="#FF8B71"/>
<stop offset="0.5562" stop-color="#FD3F75"/>
<stop offset="1" stop-color="#FB0078"/>
</linearGradient>
<linearGradient id="paint28_linear" x1="-173.493" y1="296.38" x2="81.5245" y2="41.1858" gradientUnits="userSpaceOnUse">
<stop stop-color="#FF8B71"/>
<stop offset="0.5562" stop-color="#FD3F75"/>
<stop offset="1" stop-color="#FB0078"/>
</linearGradient>
<linearGradient id="paint29_linear" x1="-222.9" y1="296.417" x2="32.1916" y2="41.1487" gradientUnits="userSpaceOnUse">
<stop stop-color="#FF8B71"/>
<stop offset="0.5562" stop-color="#FD3F75"/>
<stop offset="1" stop-color="#FB0078"/>
</linearGradient>
<linearGradient id="paint30_linear" x1="-272.307" y1="296.454" x2="-17.1413" y2="41.1114" gradientUnits="userSpaceOnUse">
<stop stop-color="#FF8B71"/>
<stop offset="0.5562" stop-color="#FD3F75"/>
<stop offset="1" stop-color="#FB0078"/>
</linearGradient>
</defs>
</svg>
