<svg width="244" height="245" viewBox="0 0 244 245" fill="none" xmlns="http://www.w3.org/2000/svg">
<path d="M237.989 84.9167C241.945 97.0902 243.959 109.81 243.959 122.61L121.98 122.61L237.989 84.9167Z" fill="#F7931A"/>
<path d="M159.673 6.60097C177.981 12.5494 194.621 22.7463 208.232 36.3579C221.844 49.9694 232.041 66.6092 237.989 84.9167L121.98 122.61L159.673 6.60097Z" fill="#FCCD12"/>
<path d="M243.959 122.61C243.959 148.37 235.804 173.468 220.663 194.308C205.522 215.148 184.172 230.66 159.673 238.62C135.175 246.58 108.785 246.58 84.2858 238.62C59.787 230.66 38.4371 215.148 23.296 194.308C8.15494 173.468 -2.25197e-06 148.37 0 122.61C2.25197e-06 96.8509 8.15495 71.7526 23.296 50.9126C38.4371 30.0727 59.787 14.5611 84.2858 6.60096C108.785 -1.35918 135.175 -1.35917 159.673 6.60097L121.98 122.61H243.959Z" fill="#3DB549"/>
</svg>
